M48
METRIC,000.000
T64C0.500
T63C2.300
T62C0.508
T61C1.350
T60C0.700
%
T64
X014351Y028979
X014732Y054125
X014732Y047267
X014986Y049426
X017145Y057935
X020066Y056665
X021082Y016533
X021082Y014247
X021336Y050315
X022352Y058697
X022860Y031519
X022860Y029995
X022987Y047013
X023876Y054379
X023876Y051839
X023876Y049299
X023876Y024153
X026416Y058189
X026416Y056665
X026416Y040917
X026670Y045997
X027051Y035837
X042164Y022629
X042672Y035837
X045593Y048029
X056134Y046378
T62
X021082Y025931
X021082Y021051
T60
X014224Y026693
X014224Y024153
X014224Y021613
X014224Y019073
X014224Y016406
X014224Y013866
X025146Y037107
X025146Y034567
X025146Y032027
X025146Y029487
X025146Y019327
X025146Y016787
X028702Y044727
X028702Y042187
X028702Y039647
X028702Y037107
X028702Y034567
X028702Y032027
X028702Y029487
X028702Y026947
X028702Y024407
X028702Y021867
X028702Y019327
X028702Y016787
X028702Y014247
X028702Y011707
X028956Y056919
X028956Y054379
X028956Y051839
X028956Y049299
X036322Y044727
X036322Y042187
X036322Y039647
X036322Y037107
X036322Y034567
X036322Y032027
X036322Y029487
X036322Y026947
X036322Y024407
X036322Y021867
X036322Y019327
X036322Y016787
X036322Y014247
X036322Y011707
X036576Y056919
X036576Y054379
X036576Y051839
X036576Y049299
X039878Y039647
X039878Y037107
X039878Y034567
X039878Y019327
X040386Y057427
X040386Y049807
T61
X047498Y050569
X047498Y040409
X047498Y028598
X047498Y018438
X050038Y053109
X050038Y045489
X050038Y037869
X050038Y031138
X050038Y023518
X050038Y015898
X060198Y048029
X060198Y042949
X060198Y026058
X060198Y020978
T63
X018224Y043203
X018224Y029995
M30
