G04 start of page 8 for group -4062 idx -4062 *
G04 Title: (unknown), soldermask *
G04 Creator: pcb 20140316 *
G04 CreationDate: Sun 10 Nov 2019 02:50:04 PM GMT UTC *
G04 For: sladekm *
G04 Format: Gerber/RS-274X *
G04 PCB-Dimensions (mm): 70.00 70.00 *
G04 PCB-Coordinate-Origin: lower left *
%MOMM*%
%FSLAX43Y43*%
%LNBOTTOMMASK*%
%ADD94R,2.540X2.540*%
%ADD93R,1.452X1.452*%
%ADD92R,0.902X0.902*%
%ADD91C,3.400*%
%ADD90C,4.152*%
%ADD89C,1.803*%
%ADD88C,1.905*%
%ADD87C,0.002*%
%ADD86C,1.549*%
%ADD85C,2.600*%
%ADD84C,2.652*%
%ADD83C,1.676*%
%ADD82C,0.254*%
G54D82*X8509Y61491D02*X63246D01*
X8636Y64539D02*X62992D01*
X8509Y65174D02*Y61999D01*
X8636Y64539D02*X9398Y64158D01*
X8001Y61491D02*X4826D01*
X5080Y60729D02*X5461Y61364D01*
X5842Y60729D01*
X63246Y61491D02*Y7389D01*
Y65174D02*Y61999D01*
X62484Y64920D02*X63119Y64539D01*
X62484Y64158D01*
X8509Y7389D02*Y61491D01*
Y7389D02*X63246D01*
X9398Y64920D02*X8636Y64539D01*
X4826Y7389D02*X8001D01*
X5080Y8278D02*X5461Y7516D01*
X5842Y8278D01*
X5461Y61237D02*Y7516D01*
X3762Y31549D02*Y30884D01*
X4427D01*
X4261Y31050D01*
Y31383D02*Y31050D01*
Y31383D02*X4427Y31549D01*
X4926D01*
X5093Y31383D02*X4926Y31549D01*
X5093Y31383D02*Y31050D01*
X4926Y30884D02*X5093Y31050D01*
X4594Y31949D02*X3762Y32614D01*
X4594Y32781D02*Y31949D01*
X3762Y32614D02*X5093D01*
Y33346D02*Y33180D01*
X4028Y33746D02*X3762Y34012D01*
X5093D01*
Y34245D02*Y33746D01*
X4594Y35409D02*X5093D01*
X4594D02*X4427Y35576D01*
Y35742D02*Y35576D01*
Y35742D02*X4594Y35908D01*
X5093D01*
X4594D02*X4427Y36075D01*
Y36241D02*Y36075D01*
Y36241D02*X4594Y36407D01*
X5093D01*
X4427Y35243D02*X4594Y35409D01*
Y36973D02*X5093D01*
X4594D02*X4427Y37140D01*
Y37306D02*Y37140D01*
Y37306D02*X4594Y37472D01*
X5093D01*
X4594D02*X4427Y37639D01*
Y37805D02*Y37639D01*
Y37805D02*X4594Y37971D01*
X5093D01*
X4427Y36807D02*X4594Y36973D01*
X30861Y66238D02*X31526D01*
X30861D02*Y65573D01*
X31027Y65739D01*
X31360D01*
X31526Y65573D01*
Y65074D01*
X31360Y64907D02*X31526Y65074D01*
X31027Y64907D02*X31360D01*
X30861Y65074D02*X31027Y64907D01*
X31926Y65406D02*X32591Y66238D01*
X31926Y65406D02*X32758D01*
X32591Y66238D02*Y64907D01*
X33157D02*X33323D01*
X33889D02*X34554Y66238D01*
X33723D02*X34554D01*
X34954Y65406D02*X35619Y66238D01*
X34954Y65406D02*X35786D01*
X35619Y66238D02*Y64907D01*
X36950Y65406D02*Y64907D01*
Y65406D02*X37117Y65573D01*
X37283D01*
X37449Y65406D01*
Y64907D01*
Y65406D02*X37616Y65573D01*
X37782D01*
X37948Y65406D01*
Y64907D01*
X36784Y65573D02*X36950Y65406D01*
X38514D02*Y64907D01*
Y65406D02*X38680Y65573D01*
X38847D01*
X39013Y65406D01*
Y64907D01*
Y65406D02*X39180Y65573D01*
X39346D01*
X39512Y65406D01*
Y64907D01*
X38348Y65573D02*X38514Y65406D01*
G54D83*X39878Y34567D03*
G54D84*X47498Y28598D03*
X50038Y31138D03*
G54D85*X55118D03*
Y37869D03*
G54D84*X47498Y40409D03*
X60198Y20978D03*
Y26058D03*
Y42949D03*
Y48029D03*
G54D86*X40386Y49807D03*
Y57427D03*
G54D87*G36*
X39040Y40485D02*Y38809D01*
X40716D01*
Y40485D01*
X39040D01*
G37*
G54D83*X39878Y37107D03*
G54D84*X47498Y50569D03*
X50038Y45489D03*
Y37869D03*
Y53109D03*
G54D85*X55118D03*
G54D87*G36*
X35738Y50137D02*Y48461D01*
X37414D01*
Y50137D01*
X35738D01*
G37*
G54D83*X28956Y49299D03*
X36576Y51839D03*
Y54379D03*
Y56919D03*
X28956D03*
Y54379D03*
Y51839D03*
G54D87*G36*
X20130Y26884D02*Y24979D01*
X22034D01*
Y26884D01*
X20130D01*
G37*
G54D88*X21082Y21051D03*
G54D87*G36*
X24308Y20165D02*Y18489D01*
X25984D01*
Y20165D01*
X24308D01*
G37*
G54D83*X25146Y32027D03*
Y29487D03*
Y16787D03*
G54D87*G36*
X13322Y17308D02*Y15504D01*
X15126D01*
Y17308D01*
X13322D01*
G37*
G54D89*X14224Y13866D03*
G54D87*G36*
X13322Y27595D02*Y25791D01*
X15126D01*
Y27595D01*
X13322D01*
G37*
G54D89*X14224Y24153D03*
G54D87*G36*
X13322Y22515D02*Y20711D01*
X15126D01*
Y22515D01*
X13322D01*
G37*
G54D89*X14224Y19073D03*
G54D90*X18224Y29995D03*
G54D83*X28702Y32027D03*
Y29487D03*
Y26947D03*
Y24407D03*
Y21867D03*
Y19327D03*
Y16787D03*
Y14247D03*
Y11707D03*
G54D87*G36*
X39040Y20165D02*Y18489D01*
X40716D01*
Y20165D01*
X39040D01*
G37*
G54D85*X55118Y15898D03*
G54D84*X50038Y23518D03*
Y15898D03*
X47498Y18438D03*
G54D83*X36322Y11707D03*
Y14247D03*
Y16787D03*
Y19327D03*
Y21867D03*
Y24407D03*
Y26947D03*
Y29487D03*
Y32027D03*
G54D87*G36*
X24308Y37945D02*Y36269D01*
X25984D01*
Y37945D01*
X24308D01*
G37*
G54D90*X18224Y43203D03*
G54D87*G36*
X27864Y45565D02*Y43889D01*
X29540D01*
Y45565D01*
X27864D01*
G37*
G54D83*X28702Y42187D03*
Y39647D03*
Y37107D03*
X25146Y34567D03*
X28702D03*
X36322D03*
Y37107D03*
Y39647D03*
Y42187D03*
Y44727D03*
G54D91*X11684Y58697D03*
X59690D03*
X11684Y10183D03*
X59690D03*
G54D92*X42293Y42045D02*X42543D01*
X42547Y28471D02*X42797D01*
X42547Y29771D02*X42797D01*
X56009Y42949D02*X56259D01*
X56009Y44249D02*X56259D01*
G54D93*X42572Y31127D02*X42772D01*
X42572Y32927D02*X42772D01*
G54D92*X42293Y53759D02*X42543D01*
X42293Y52459D02*X42543D01*
X42293Y51107D02*X42543D01*
X42293Y49807D02*X42543D01*
X42293Y43345D02*X42543D01*
X39245Y42919D02*X39495D01*
X39245Y44219D02*X39495D01*
X42801Y45489D02*X43051D01*
X42801Y46789D02*X43051D01*
X41402Y14372D02*Y14122D01*
X42702Y15896D02*Y15646D01*
X41402Y15896D02*Y15646D01*
X40102Y14372D02*Y14122D01*
G54D93*X39778Y22607D02*X39978D01*
X39778Y24407D02*X39978D01*
G54D92*X24496Y14372D02*Y14122D01*
X18811Y14372D02*Y14122D01*
X17511Y14372D02*Y14122D01*
X18938Y16658D02*Y16408D01*
X17638Y16658D02*Y16408D01*
X25796Y14372D02*Y14122D01*
X25275Y23167D02*X25525D01*
X25275Y21867D02*X25525D01*
X25275Y25169D02*X25525D01*
X25275Y26469D02*X25525D01*
X17795Y26793D02*Y26543D01*
X16495Y26793D02*Y26543D01*
G54D87*G36*
X31119Y30654D02*Y27892D01*
X33881D01*
Y30654D01*
X31119D01*
G37*
G54D94*X32512Y17751D02*Y16585D01*
Y25775D02*Y24609D01*
G54D92*X25529Y49299D02*X25779D01*
X26558Y54504D02*Y54254D01*
X25258Y54504D02*Y54254D01*
Y51964D02*Y51714D01*
X26558Y51964D02*Y51714D01*
X25529Y47999D02*X25779D01*
X25021Y44727D02*X25271D01*
X25021Y46027D02*X25271D01*
G54D87*G36*
X31119Y38528D02*Y35766D01*
X33881D01*
Y38528D01*
X31119D01*
G37*
M02*
