G04 start of page 7 for group -4063 idx -4063 *
G04 Title: (unknown), componentmask *
G04 Creator: pcb 20140316 *
G04 CreationDate: Sun 10 Nov 2019 02:50:04 PM GMT UTC *
G04 For: sladekm *
G04 Format: Gerber/RS-274X *
G04 PCB-Dimensions (mm): 70.00 70.00 *
G04 PCB-Coordinate-Origin: lower left *
%MOMM*%
%FSLAX43Y43*%
%LNTOPMASK*%
%ADD81R,1.272X1.272*%
%ADD80R,1.752X1.752*%
%ADD79R,0.533X0.533*%
%ADD78R,1.452X1.452*%
%ADD77R,1.016X1.016*%
%ADD76C,3.400*%
%ADD75C,4.152*%
%ADD74C,1.803*%
%ADD73C,1.905*%
%ADD72C,0.002*%
%ADD71C,1.549*%
%ADD70C,2.600*%
%ADD69C,2.652*%
%ADD68C,1.676*%
%ADD67C,0.254*%
G54D67*X8509Y61491D02*X63246D01*
X8636Y64539D02*X62992D01*
X8509Y65174D02*Y61999D01*
X8636Y64539D02*X9398Y64158D01*
X8001Y61491D02*X4826D01*
X5080Y60729D02*X5461Y61364D01*
X5842Y60729D01*
X63246Y61491D02*Y7389D01*
Y65174D02*Y61999D01*
X62484Y64920D02*X63119Y64539D01*
X62484Y64158D01*
X8509Y7389D02*Y61491D01*
Y7389D02*X63246D01*
X9398Y64920D02*X8636Y64539D01*
X4826Y7389D02*X8001D01*
X5080Y8278D02*X5461Y7516D01*
X5842Y8278D01*
X5461Y61237D02*Y7516D01*
X3762Y31549D02*Y30884D01*
X4427D01*
X4261Y31050D01*
Y31383D02*Y31050D01*
Y31383D02*X4427Y31549D01*
X4926D01*
X5093Y31383D02*X4926Y31549D01*
X5093Y31383D02*Y31050D01*
X4926Y30884D02*X5093Y31050D01*
X4594Y31949D02*X3762Y32614D01*
X4594Y32781D02*Y31949D01*
X3762Y32614D02*X5093D01*
Y33346D02*Y33180D01*
X4028Y33746D02*X3762Y34012D01*
X5093D01*
Y34245D02*Y33746D01*
X4594Y35409D02*X5093D01*
X4594D02*X4427Y35576D01*
Y35742D02*Y35576D01*
Y35742D02*X4594Y35908D01*
X5093D01*
X4594D02*X4427Y36075D01*
Y36241D02*Y36075D01*
Y36241D02*X4594Y36407D01*
X5093D01*
X4427Y35243D02*X4594Y35409D01*
Y36973D02*X5093D01*
X4594D02*X4427Y37140D01*
Y37306D02*Y37140D01*
Y37306D02*X4594Y37472D01*
X5093D01*
X4594D02*X4427Y37639D01*
Y37805D02*Y37639D01*
Y37805D02*X4594Y37971D01*
X5093D01*
X4427Y36807D02*X4594Y36973D01*
X30861Y66238D02*X31526D01*
X30861D02*Y65573D01*
X31027Y65739D01*
X31360D01*
X31526Y65573D01*
Y65074D01*
X31360Y64907D02*X31526Y65074D01*
X31027Y64907D02*X31360D01*
X30861Y65074D02*X31027Y64907D01*
X31926Y65406D02*X32591Y66238D01*
X31926Y65406D02*X32758D01*
X32591Y66238D02*Y64907D01*
X33157D02*X33323D01*
X33889D02*X34554Y66238D01*
X33723D02*X34554D01*
X34954Y65406D02*X35619Y66238D01*
X34954Y65406D02*X35786D01*
X35619Y66238D02*Y64907D01*
X36950Y65406D02*Y64907D01*
Y65406D02*X37117Y65573D01*
X37283D01*
X37449Y65406D01*
Y64907D01*
Y65406D02*X37616Y65573D01*
X37782D01*
X37948Y65406D01*
Y64907D01*
X36784Y65573D02*X36950Y65406D01*
X38514D02*Y64907D01*
Y65406D02*X38680Y65573D01*
X38847D01*
X39013Y65406D01*
Y64907D01*
Y65406D02*X39180Y65573D01*
X39346D01*
X39512Y65406D01*
Y64907D01*
X38348Y65573D02*X38514Y65406D01*
G54D68*X39878Y34567D03*
G54D69*X47498Y28598D03*
X50038Y31138D03*
G54D70*X55118D03*
Y37869D03*
G54D69*X47498Y40409D03*
X60198Y20978D03*
Y26058D03*
Y42949D03*
Y48029D03*
G54D71*X40386Y49807D03*
Y57427D03*
G54D72*G36*
X39040Y40485D02*Y38809D01*
X40716D01*
Y40485D01*
X39040D01*
G37*
G54D68*X39878Y37107D03*
G54D69*X47498Y50569D03*
X50038Y45489D03*
Y37869D03*
Y53109D03*
G54D70*X55118D03*
G54D72*G36*
X35738Y50137D02*Y48461D01*
X37414D01*
Y50137D01*
X35738D01*
G37*
G54D68*X28956Y49299D03*
X36576Y51839D03*
Y54379D03*
Y56919D03*
X28956D03*
Y54379D03*
Y51839D03*
G54D72*G36*
X20130Y26884D02*Y24979D01*
X22034D01*
Y26884D01*
X20130D01*
G37*
G54D73*X21082Y21051D03*
G54D72*G36*
X24308Y20165D02*Y18489D01*
X25984D01*
Y20165D01*
X24308D01*
G37*
G54D68*X25146Y32027D03*
Y29487D03*
Y16787D03*
G54D72*G36*
X13322Y17308D02*Y15504D01*
X15126D01*
Y17308D01*
X13322D01*
G37*
G54D74*X14224Y13866D03*
G54D72*G36*
X13322Y27595D02*Y25791D01*
X15126D01*
Y27595D01*
X13322D01*
G37*
G54D74*X14224Y24153D03*
G54D72*G36*
X13322Y22515D02*Y20711D01*
X15126D01*
Y22515D01*
X13322D01*
G37*
G54D74*X14224Y19073D03*
G54D75*X18224Y29995D03*
G54D68*X28702Y32027D03*
Y29487D03*
Y26947D03*
Y24407D03*
Y21867D03*
Y19327D03*
Y16787D03*
Y14247D03*
Y11707D03*
G54D72*G36*
X39040Y20165D02*Y18489D01*
X40716D01*
Y20165D01*
X39040D01*
G37*
G54D70*X55118Y15898D03*
G54D69*X50038Y23518D03*
Y15898D03*
X47498Y18438D03*
G54D68*X36322Y11707D03*
Y14247D03*
Y16787D03*
Y19327D03*
Y21867D03*
Y24407D03*
Y26947D03*
Y29487D03*
Y32027D03*
G54D72*G36*
X24308Y37945D02*Y36269D01*
X25984D01*
Y37945D01*
X24308D01*
G37*
G54D75*X18224Y43203D03*
G54D72*G36*
X27864Y45565D02*Y43889D01*
X29540D01*
Y45565D01*
X27864D01*
G37*
G54D68*X28702Y42187D03*
Y39647D03*
Y37107D03*
X25146Y34567D03*
X28702D03*
X36322D03*
Y37107D03*
Y39647D03*
Y42187D03*
Y44727D03*
G54D76*X11684Y58697D03*
X59690D03*
X11684Y10183D03*
X59690D03*
G54D77*X22301Y54455D02*Y54303D01*
X20320Y54455D02*Y54303D01*
X21311Y52372D02*Y52220D01*
G54D78*X22352Y56765D02*Y56565D01*
X17172Y56168D02*X17372D01*
X17172Y54368D02*X17372D01*
X24152Y56765D02*Y56565D01*
G54D79*X12624Y51445D02*X13640D01*
X12624Y50810D02*X13640D01*
X12624Y52080D02*X13640D01*
G54D80*X13005Y54239D02*Y53604D01*
G54D79*X12624Y50175D02*X13640D01*
X12624Y49540D02*X13640D01*
G54D80*X13005Y48016D02*Y47381D01*
G54D72*G36*
X9248Y48026D02*Y45974D01*
X11300D01*
Y48026D01*
X9248D01*
G37*
G36*
Y50566D02*Y48514D01*
X11300D01*
Y50566D01*
X9248D01*
G37*
G36*
Y53106D02*Y51054D01*
X11300D01*
Y53106D01*
X9248D01*
G37*
G36*
Y55646D02*Y53594D01*
X11300D01*
Y55646D01*
X9248D01*
G37*
G54D81*X20892Y35583D02*X22796D01*
X20892Y40155D02*X22796D01*
X20892Y33043D02*X22796D01*
X20892Y37615D02*X22796D01*
M02*
