G04 start of page 10 for group -4078 idx -4078 *
G04 Title: (unknown), bottomsilk *
G04 Creator: pcb 20140316 *
G04 CreationDate: Sun 10 Nov 2019 02:50:04 PM GMT UTC *
G04 For: sladekm *
G04 Format: Gerber/RS-274X *
G04 PCB-Dimensions (mm): 70.00 70.00 *
G04 PCB-Coordinate-Origin: lower left *
%MOMM*%
%FSLAX43Y43*%
%LNBOTTOMSILK*%
%ADD97C,0.254*%
G54D97*X8509Y61491D02*X63246D01*
X8636Y64539D02*X62992D01*
X8509Y65174D02*Y61999D01*
X8636Y64539D02*X9398Y64158D01*
X8001Y61491D02*X4826D01*
X5080Y60729D02*X5461Y61364D01*
X5842Y60729D01*
X63246Y61491D02*Y7389D01*
Y65174D02*Y61999D01*
X62484Y64920D02*X63119Y64539D01*
X62484Y64158D01*
X8509Y7389D02*Y61491D01*
Y7389D02*X63246D01*
X9398Y64920D02*X8636Y64539D01*
X4826Y7389D02*X8001D01*
X5080Y8278D02*X5461Y7516D01*
X5842Y8278D01*
X5461Y61237D02*Y7516D01*
X3762Y31549D02*Y30884D01*
X4427D01*
X4261Y31050D01*
Y31383D02*Y31050D01*
Y31383D02*X4427Y31549D01*
X4926D01*
X5093Y31383D02*X4926Y31549D01*
X5093Y31383D02*Y31050D01*
X4926Y30884D02*X5093Y31050D01*
X4594Y31949D02*X3762Y32614D01*
X4594Y32781D02*Y31949D01*
X3762Y32614D02*X5093D01*
Y33346D02*Y33180D01*
X4028Y33746D02*X3762Y34012D01*
X5093D01*
Y34245D02*Y33746D01*
X4594Y35409D02*X5093D01*
X4594D02*X4427Y35576D01*
Y35742D02*Y35576D01*
Y35742D02*X4594Y35908D01*
X5093D01*
X4594D02*X4427Y36075D01*
Y36241D02*Y36075D01*
Y36241D02*X4594Y36407D01*
X5093D01*
X4427Y35243D02*X4594Y35409D01*
Y36973D02*X5093D01*
X4594D02*X4427Y37140D01*
Y37306D02*Y37140D01*
Y37306D02*X4594Y37472D01*
X5093D01*
X4594D02*X4427Y37639D01*
Y37805D02*Y37639D01*
Y37805D02*X4594Y37971D01*
X5093D01*
X4427Y36807D02*X4594Y36973D01*
X30861Y66238D02*X31526D01*
X30861D02*Y65573D01*
X31027Y65739D01*
X31360D01*
X31526Y65573D01*
Y65074D01*
X31360Y64907D02*X31526Y65074D01*
X31027Y64907D02*X31360D01*
X30861Y65074D02*X31027Y64907D01*
X31926Y65406D02*X32591Y66238D01*
X31926Y65406D02*X32758D01*
X32591Y66238D02*Y64907D01*
X33157D02*X33323D01*
X33889D02*X34554Y66238D01*
X33723D02*X34554D01*
X34954Y65406D02*X35619Y66238D01*
X34954Y65406D02*X35786D01*
X35619Y66238D02*Y64907D01*
X36950Y65406D02*Y64907D01*
Y65406D02*X37117Y65573D01*
X37283D01*
X37449Y65406D01*
Y64907D01*
Y65406D02*X37616Y65573D01*
X37782D01*
X37948Y65406D01*
Y64907D01*
X36784Y65573D02*X36950Y65406D01*
X38514D02*Y64907D01*
Y65406D02*X38680Y65573D01*
X38847D01*
X39013Y65406D01*
Y64907D01*
Y65406D02*X39180Y65573D01*
X39346D01*
X39512Y65406D01*
Y64907D01*
X38348Y65573D02*X38514Y65406D01*
X40578Y23607D02*Y23407D01*
X39178Y23607D02*Y23407D01*
X31242Y23570D02*Y18744D01*
X33782D01*
Y23570D02*Y18744D01*
X31242Y23570D02*X33782D01*
X43372Y32127D02*Y31927D01*
X41972Y32127D02*Y31927D01*
X30722Y30544D02*X34278D01*
X30722Y35878D02*Y30544D01*
Y35878D02*X34278D01*
Y30544D01*
X17619Y17590D02*X18127D01*
X18254Y17717D01*
Y17971D01*
X18127Y18098D02*X18254Y17971D01*
X17746Y18098D02*X18127D01*
X17746Y17590D02*Y18606D01*
X17949Y18098D02*X18254Y18606D01*
X18559Y18225D02*X19067Y17590D01*
X18559Y18225D02*X19194D01*
X19067Y17590D02*Y18606D01*
X16510Y24534D02*X17018D01*
X17145Y24661D01*
Y24915D01*
X17018Y25042D02*X17145Y24915D01*
X16637Y25042D02*X17018D01*
X16637Y24534D02*Y25550D01*
X16840Y25042D02*X17145Y25550D01*
X17577D02*X17958Y25042D01*
Y24661D02*Y25042D01*
X17831Y24534D02*X17958Y24661D01*
X17577Y24534D02*X17831D01*
X17450Y24661D02*X17577Y24534D01*
X17450Y24661D02*Y24915D01*
X17577Y25042D01*
X17958D01*
X42238Y13447D02*X42746D01*
X42873Y13574D01*
Y13828D01*
X42746Y13955D02*X42873Y13828D01*
X42365Y13955D02*X42746D01*
X42365Y13447D02*Y14463D01*
X42568Y13955D02*X42873Y14463D01*
X43178Y13574D02*X43305Y13447D01*
X43559D01*
X43686Y13574D01*
X43559Y14463D02*X43686Y14336D01*
X43305Y14463D02*X43559D01*
X43178Y14336D02*X43305Y14463D01*
Y13904D02*X43559D01*
X43686Y13574D02*Y13777D01*
Y14031D02*Y14336D01*
Y14031D02*X43559Y13904D01*
X43686Y13777D02*X43559Y13904D01*
X39012Y15167D02*Y16183D01*
X39520D01*
X39825Y15802D02*X40333Y15167D01*
X39825Y15802D02*X40460D01*
X40333Y15167D02*Y16183D01*
X24741Y13324D02*X25071D01*
X24563Y13146D02*X24741Y13324D01*
X24563Y12485D02*Y13146D01*
Y12485D02*X24741Y12308D01*
X25071D01*
X25757D02*X25884Y12434D01*
X25503Y12308D02*X25757D01*
X25376Y12434D02*X25503Y12308D01*
X25376Y12434D02*Y13196D01*
X25503Y13324D01*
X25757Y12765D02*X25884Y12892D01*
X25376Y12765D02*X25757D01*
X25503Y13324D02*X25757D01*
X25884Y13196D01*
Y12892D02*Y13196D01*
X17361Y12177D02*X17869D01*
X17996Y12304D01*
Y12558D01*
X17869Y12685D02*X17996Y12558D01*
X17488Y12685D02*X17869D01*
X17488Y12177D02*Y13193D01*
X17691Y12685D02*X17996Y13193D01*
X18301Y12177D02*X18809D01*
X18301D02*Y12685D01*
X18428Y12558D01*
X18682D01*
X18809Y12685D01*
Y13066D01*
X18682Y13193D02*X18809Y13066D01*
X18428Y13193D02*X18682D01*
X18301Y13066D02*X18428Y13193D01*
X24384Y22756D02*Y23086D01*
X24206Y23264D02*X24384Y23086D01*
X23546Y23264D02*X24206D01*
X23546D02*X23368Y23086D01*
Y22756D02*Y23086D01*
Y21943D02*Y22451D01*
X23876D01*
X23749Y22324D01*
Y22070D02*Y22324D01*
Y22070D02*X23876Y21943D01*
X24257D01*
X24384Y22070D02*X24257Y21943D01*
X24384Y22070D02*Y22324D01*
X24257Y22451D02*X24384Y22324D01*
Y26058D02*Y26388D01*
X24206Y26566D02*X24384Y26388D01*
X23546Y26566D02*X24206D01*
X23546D02*X23368Y26388D01*
Y26058D02*Y26388D01*
X24003Y25753D02*X23368Y25245D01*
X24003Y25118D02*Y25753D01*
X23368Y25245D02*X24384D01*
X42291Y24788D02*Y25118D01*
X42113Y25296D02*X42291Y25118D01*
X41453Y25296D02*X42113D01*
X41453D02*X41275Y25118D01*
Y24788D02*Y25118D01*
X42164Y24483D02*X42291Y24356D01*
X41961Y24483D02*X42164D01*
X41961D02*X41783Y24305D01*
Y24153D02*Y24305D01*
Y24153D02*X41961Y23975D01*
X42164D01*
X42291Y24102D02*X42164Y23975D01*
X42291Y24102D02*Y24356D01*
X41605Y24483D02*X41783Y24305D01*
X41402Y24483D02*X41605D01*
X41402D02*X41275Y24356D01*
Y24102D02*Y24356D01*
Y24102D02*X41402Y23975D01*
X41605D01*
X41783Y24153D02*X41605Y23975D01*
X32004Y21105D02*X32131Y20978D01*
X32004Y21105D02*Y21486D01*
X32131Y21613D02*X32004Y21486D01*
X32131Y21613D02*X32385D01*
X32512Y21486D01*
Y21105D02*Y21486D01*
Y21105D02*X32639Y20978D01*
X32893D01*
X33020Y21105D02*X32893Y20978D01*
X33020Y21105D02*Y21486D01*
X32893Y21613D02*X33020Y21486D01*
X32207Y20673D02*X32004Y20470D01*
X33020D01*
Y20292D02*Y20673D01*
X38813Y45066D02*Y45396D01*
X38991Y44888D02*X38813Y45066D01*
X38991Y44888D02*X39651D01*
X39829Y45066D01*
Y45396D01*
X38813Y45828D02*X39829Y46336D01*
Y45701D02*Y46336D01*
X33020Y33170D02*X32893Y33297D01*
X33020Y32789D02*Y33170D01*
X32893Y32662D02*X33020Y32789D01*
X32639Y32662D02*X32893D01*
X32639D02*X32512Y32789D01*
Y33170D01*
X32385Y33297D01*
X32131D02*X32385D01*
X32004Y33170D02*X32131Y33297D01*
X32004Y32789D02*Y33170D01*
X32131Y32662D02*X32004Y32789D01*
X32893Y33602D02*X33020Y33729D01*
Y34110D01*
X32893Y34237D01*
X32639D02*X32893D01*
X32004Y33602D02*X32639Y34237D01*
X32004Y33602D02*Y34237D01*
X43298Y54151D02*X44314D01*
Y53643D02*Y54151D01*
X43502Y53338D02*X43298Y53135D01*
X44314D01*
Y52957D02*Y53338D01*
X43561Y50696D02*Y51204D01*
Y50696D02*X43688Y50569D01*
X43942D01*
X44069Y50696D02*X43942Y50569D01*
X44069Y50696D02*Y51077D01*
X43561D02*X44577D01*
X44069Y50874D02*X44577Y50569D01*
X43764Y50264D02*X43561Y50061D01*
X44577D01*
Y49883D02*Y50264D01*
X53975Y43000D02*Y43330D01*
X54153Y42822D02*X53975Y43000D01*
X54153Y42822D02*X54813D01*
X54991Y43000D01*
Y43330D01*
X54788Y43635D02*X54991Y43838D01*
X53975D02*X54991D01*
X53975Y43635D02*Y44016D01*
X54102Y44321D02*X53975Y44448D01*
X54102Y44321D02*X54864D01*
X54991Y44448D01*
Y44702D01*
X54864Y44829D01*
X54102D02*X54864D01*
X53975Y44702D02*X54102Y44829D01*
X53975Y44448D02*Y44702D01*
X54229Y44321D02*X54737Y44829D01*
X43446Y43417D02*X44462D01*
Y42909D02*Y43417D01*
X43573Y42604D02*X43446Y42477D01*
Y42096D02*Y42477D01*
Y42096D02*X43573Y41969D01*
X43827D01*
X44462Y42604D02*X43827Y41969D01*
X44462D02*Y42604D01*
X40513Y29868D02*X41529D01*
Y29360D02*Y29868D01*
X40640Y29055D02*X40513Y28928D01*
Y28674D02*Y28928D01*
Y28674D02*X40640Y28547D01*
X41529Y28674D02*X41402Y28547D01*
X41529Y28674D02*Y28928D01*
X41402Y29055D02*X41529Y28928D01*
X40970Y28674D02*Y28928D01*
X40640Y28547D02*X40843D01*
X41097D02*X41402D01*
X41097D02*X40970Y28674D01*
X40843Y28547D02*X40970Y28674D01*
X41919Y45908D02*Y46238D01*
X41741Y46416D02*X41919Y46238D01*
X41081Y46416D02*X41741D01*
X41081D02*X40903Y46238D01*
Y45908D02*Y46238D01*
X41919Y45476D02*X41411Y45095D01*
X41030D02*X41411D01*
X40903Y45222D02*X41030Y45095D01*
X40903Y45222D02*Y45476D01*
X41030Y45603D02*X40903Y45476D01*
X41030Y45603D02*X41284D01*
X41411Y45476D01*
Y45095D02*Y45476D01*
X40259Y32408D02*Y32916D01*
Y32408D02*X40386Y32281D01*
X40640D01*
X40767Y32408D02*X40640Y32281D01*
X40767Y32408D02*Y32789D01*
X40259D02*X41275D01*
X40767Y32586D02*X41275Y32281D01*
X40386Y31976D02*X40259Y31849D01*
Y31468D02*Y31849D01*
Y31468D02*X40386Y31341D01*
X40640D01*
X41275Y31976D02*X40640Y31341D01*
X41275D02*Y31976D01*
X24765Y48791D02*Y49121D01*
X24587Y49299D02*X24765Y49121D01*
X23927Y49299D02*X24587D01*
X23927D02*X23749Y49121D01*
Y48791D02*Y49121D01*
X23876Y48486D02*X23749Y48359D01*
Y48105D02*Y48359D01*
Y48105D02*X23876Y47978D01*
X24765Y48105D02*X24638Y47978D01*
X24765Y48105D02*Y48359D01*
X24638Y48486D02*X24765Y48359D01*
X24206Y48105D02*Y48359D01*
X23876Y47978D02*X24079D01*
X24333D02*X24638D01*
X24333D02*X24206Y48105D01*
X24079Y47978D02*X24206Y48105D01*
X26804Y44686D02*Y45194D01*
X26676Y45321D01*
X26422D02*X26676D01*
X26296Y45194D02*X26422Y45321D01*
X26296Y44813D02*Y45194D01*
X25788Y44813D02*X26804D01*
X26296Y45016D02*X25788Y45321D01*
X26804Y46007D02*X26676Y46134D01*
X26804Y45753D02*Y46007D01*
X26676Y45626D02*X26804Y45753D01*
X25914Y45626D02*X26676D01*
X25914D02*X25788Y45753D01*
X26346Y46007D02*X26219Y46134D01*
X26346Y45626D02*Y46007D01*
X25788Y45753D02*Y46007D01*
X25914Y46134D01*
X26219D01*
X23118Y53967D02*X23626D01*
X23753Y54094D01*
Y54348D01*
X23626Y54475D02*X23753Y54348D01*
X23245Y54475D02*X23626D01*
X23245Y53967D02*Y54983D01*
X23449Y54475D02*X23753Y54983D01*
X24185D02*X24693Y53967D01*
X24058D02*X24693D01*
X23114Y51458D02*X23622D01*
X23749Y51585D01*
Y51839D01*
X23622Y51966D02*X23749Y51839D01*
X23241Y51966D02*X23622D01*
X23241Y51458D02*Y52474D01*
X23444Y51966D02*X23749Y52474D01*
X24054Y52347D02*X24181Y52474D01*
X24054Y52144D02*Y52347D01*
Y52144D02*X24232Y51966D01*
X24384D01*
X24562Y52144D01*
Y52347D01*
X24435Y52474D02*X24562Y52347D01*
X24181Y52474D02*X24435D01*
X24054Y51788D02*X24232Y51966D01*
X24054Y51585D02*Y51788D01*
Y51585D02*X24181Y51458D01*
X24435D01*
X24562Y51585D01*
Y51788D01*
X24384Y51966D02*X24562Y51788D01*
M02*
