G04 start of page 9 for group -4079 idx -4079 *
G04 Title: (unknown), topsilk *
G04 Creator: pcb 20140316 *
G04 CreationDate: Sun 10 Nov 2019 02:50:04 PM GMT UTC *
G04 For: sladekm *
G04 Format: Gerber/RS-274X *
G04 PCB-Dimensions (mm): 70.00 70.00 *
G04 PCB-Coordinate-Origin: lower left *
%MOMM*%
%FSLAX43Y43*%
%LNTOPSILK*%
%ADD96C,0.508*%
%ADD95C,0.254*%
G54D95*X8509Y61491D02*X63246D01*
X8636Y64539D02*X62992D01*
X8509Y65174D02*Y61999D01*
X8636Y64539D02*X9398Y64158D01*
X8001Y61491D02*X4826D01*
X5080Y60729D02*X5461Y61364D01*
X5842Y60729D01*
X63246Y61491D02*Y7389D01*
Y65174D02*Y61999D01*
X62484Y64920D02*X63119Y64539D01*
X62484Y64158D01*
X8509Y7389D02*Y61491D01*
Y7389D02*X63246D01*
X9398Y64920D02*X8636Y64539D01*
X4826Y7389D02*X8001D01*
X5080Y8278D02*X5461Y7516D01*
X5842Y8278D01*
X5461Y61237D02*Y7516D01*
X3762Y31549D02*Y30884D01*
X4427D01*
X4261Y31050D01*
Y31383D02*Y31050D01*
Y31383D02*X4427Y31549D01*
X4926D01*
X5093Y31383D02*X4926Y31549D01*
X5093Y31383D02*Y31050D01*
X4926Y30884D02*X5093Y31050D01*
X4594Y31949D02*X3762Y32614D01*
X4594Y32781D02*Y31949D01*
X3762Y32614D02*X5093D01*
Y33346D02*Y33180D01*
X4028Y33746D02*X3762Y34012D01*
X5093D01*
Y34245D02*Y33746D01*
X4594Y35409D02*X5093D01*
X4594D02*X4427Y35576D01*
Y35742D02*Y35576D01*
Y35742D02*X4594Y35908D01*
X5093D01*
X4594D02*X4427Y36075D01*
Y36241D02*Y36075D01*
Y36241D02*X4594Y36407D01*
X5093D01*
X4427Y35243D02*X4594Y35409D01*
Y36973D02*X5093D01*
X4594D02*X4427Y37140D01*
Y37306D02*Y37140D01*
Y37306D02*X4594Y37472D01*
X5093D01*
X4594D02*X4427Y37639D01*
Y37805D02*Y37639D01*
Y37805D02*X4594Y37971D01*
X5093D01*
X4427Y36807D02*X4594Y36973D01*
X30861Y66238D02*X31526D01*
X30861D02*Y65573D01*
X31027Y65739D01*
X31360D01*
X31526Y65573D01*
Y65074D01*
X31360Y64907D02*X31526Y65074D01*
X31027Y64907D02*X31360D01*
X30861Y65074D02*X31027Y64907D01*
X31926Y65406D02*X32591Y66238D01*
X31926Y65406D02*X32758D01*
X32591Y66238D02*Y64907D01*
X33157D02*X33323D01*
X33889D02*X34554Y66238D01*
X33723D02*X34554D01*
X34954Y65406D02*X35619Y66238D01*
X34954Y65406D02*X35786D01*
X35619Y66238D02*Y64907D01*
X36950Y65406D02*Y64907D01*
Y65406D02*X37117Y65573D01*
X37283D01*
X37449Y65406D01*
Y64907D01*
Y65406D02*X37616Y65573D01*
X37782D01*
X37948Y65406D01*
Y64907D01*
X36784Y65573D02*X36950Y65406D01*
X38514D02*Y64907D01*
Y65406D02*X38680Y65573D01*
X38847D01*
X39013Y65406D01*
Y64907D01*
Y65406D02*X39180Y65573D01*
X39346D01*
X39512Y65406D01*
Y64907D01*
X38348Y65573D02*X38514Y65406D01*
X21717Y9972D02*Y8790D01*
X21886Y8621D01*
X22224D01*
X22393Y8790D01*
Y9972D02*Y8790D01*
X23474Y9972D02*X23643Y9803D01*
X22967Y9972D02*X23474D01*
X22798Y9803D02*X22967Y9972D01*
X22798Y9803D02*Y9465D01*
X22967Y9297D01*
X23474D01*
X23643Y9128D01*
Y8790D01*
X23474Y8621D02*X23643Y8790D01*
X22967Y8621D02*X23474D01*
X22798Y8790D02*X22967Y8621D01*
X24048D02*X24724D01*
X24893Y8790D01*
Y9195D02*Y8790D01*
X24724Y9364D02*X24893Y9195D01*
X24217Y9364D02*X24724D01*
X24217Y9972D02*Y8621D01*
X24048Y9972D02*X24724D01*
X24893Y9803D01*
Y9533D01*
X24724Y9364D02*X24893Y9533D01*
X25298Y8621D02*X25974D01*
X26379Y9972D02*Y8621D01*
Y9972D02*X26886Y9297D01*
X27392Y9972D01*
Y8621D01*
X27798Y9972D02*X28136D01*
X27967D02*Y8621D01*
X27798D02*X28136D01*
X28710Y9972D02*Y8621D01*
X29149Y9972D02*X29386Y9736D01*
Y8857D01*
X29149Y8621D02*X29386Y8857D01*
X28541Y8621D02*X29149D01*
X28541Y9972D02*X29149D01*
X29791D02*X30129D01*
X29960D02*Y8621D01*
X29791D02*X30129D01*
X30534D02*X31210D01*
X31852D02*X32291D01*
X31615Y8857D02*X31852Y8621D01*
X31615Y9736D02*Y8857D01*
Y9736D02*X31852Y9972D01*
X32291D01*
X32696Y9128D02*Y8790D01*
Y9128D02*X32865Y9297D01*
X33203D01*
X33372Y9128D01*
Y8790D01*
X33203Y8621D02*X33372Y8790D01*
X32865Y8621D02*X33203D01*
X32696Y8790D02*X32865Y8621D01*
X33946Y9128D02*Y8621D01*
Y9128D02*X34115Y9297D01*
X34284D01*
X34453Y9128D01*
Y8621D01*
X33777Y9297D02*X33946Y9128D01*
X34858Y9297D02*X35196Y8621D01*
X35534Y9297D02*X35196Y8621D01*
X36108D02*X36615D01*
X35939Y8790D02*X36108Y8621D01*
X35939Y9128D02*Y8790D01*
Y9128D02*X36108Y9297D01*
X36446D01*
X36615Y9128D01*
X35939Y8959D02*X36615D01*
Y9128D02*Y8959D01*
X37189Y9128D02*Y8621D01*
Y9128D02*X37358Y9297D01*
X37696D01*
X37020D02*X37189Y9128D01*
X38270Y9972D02*Y8790D01*
X38439Y8621D01*
X38101Y9465D02*X38439D01*
X38946Y8621D02*X39453D01*
X38777Y8790D02*X38946Y8621D01*
X38777Y9128D02*Y8790D01*
Y9128D02*X38946Y9297D01*
X39284D01*
X39453Y9128D01*
X38777Y8959D02*X39453D01*
Y9128D02*Y8959D01*
X40027Y9128D02*Y8621D01*
Y9128D02*X40196Y9297D01*
X40534D01*
X39858D02*X40027Y9128D01*
X41547Y9972D02*X41885Y8621D01*
X42223Y9972D01*
X42628Y9702D02*X42898Y9972D01*
Y8621D01*
X42628D02*X43135D01*
X43540D02*X43709D01*
X44114Y8790D02*X44283Y8621D01*
X44114Y9803D02*Y8790D01*
Y9803D02*X44283Y9972D01*
X44621D01*
X44790Y9803D01*
Y8790D01*
X44621Y8621D02*X44790Y8790D01*
X44283Y8621D02*X44621D01*
X44114Y8959D02*X44790Y9634D01*
X18632Y26791D02*Y20191D01*
X23532Y26791D02*Y20191D01*
Y26791D02*G75*G03X18632Y26791I-2450J0D01*G01*
Y20191D02*G75*G03X23532Y20191I2450J0D01*G01*
X23876Y38377D02*Y28217D01*
X26416D01*
Y38377D01*
X23876D01*
Y35837D02*X26416D01*
Y38377D01*
X38608Y20597D02*Y18057D01*
X41148D01*
Y20597D01*
X38608D01*
Y18057D02*X41148D01*
Y20597D01*
X23876D02*Y15517D01*
X26416D01*
Y20597D01*
X23876D01*
Y18057D02*X26416D01*
Y20597D01*
X13164Y16196D02*G75*G03X13164Y14076I1060J-1060D01*G01*
X15284Y14076D02*G75*G03X15284Y16196I-1060J1060D01*G01*
X12805Y16555D02*G75*G03X12805Y13717I1419J-1419D01*G01*
X15643Y13717D02*G75*G03X15643Y16555I-1419J1419D01*G01*
X13164Y26483D02*G75*G03X13164Y24363I1060J-1060D01*G01*
X15284Y24363D02*G75*G03X15284Y26483I-1060J1060D01*G01*
X12805Y26842D02*G75*G03X12805Y24004I1419J-1419D01*G01*
X15643Y24004D02*G75*G03X15643Y26842I-1419J1419D01*G01*
X13164Y21403D02*G75*G03X13164Y19283I1060J-1060D01*G01*
X15284Y19283D02*G75*G03X15284Y21403I-1060J1060D01*G01*
X12805Y21762D02*G75*G03X12805Y18924I1419J-1419D01*G01*
X15643Y18924D02*G75*G03X15643Y21762I-1419J1419D01*G01*
X27432Y45997D02*Y10437D01*
X37592D01*
Y45997D02*Y10437D01*
X27432Y45997D02*X31242D01*
X33782D02*X37592D01*
X31242D02*G75*G03X33782Y45997I1270J0D01*G01*
G54D96*X50038Y33678D02*X62738D01*
Y13358D01*
X50038Y21740D02*Y17676D01*
Y33678D02*Y32916D01*
Y14120D02*Y13358D01*
X62738D01*
X50038Y29360D02*Y25296D01*
G54D95*X39558Y51464D02*X41214D01*
X40386D02*Y50886D01*
X39558Y55770D02*Y51464D01*
Y55770D02*X41214D01*
X40386Y56348D02*Y55770D01*
X41214D02*Y51464D01*
X39558Y52226D02*X41214D01*
X39558Y52353D02*X41214D01*
X39558Y52480D02*X41214D01*
X38608Y40917D02*Y33297D01*
X41148D01*
Y40917D01*
X38608D01*
Y38377D02*X41148D01*
Y40917D01*
G54D96*X50038Y55649D02*X62738D01*
Y35329D01*
X50038Y43711D02*Y39647D01*
Y55649D02*Y54887D01*
Y36091D02*Y35329D01*
X62738D01*
X50038Y51331D02*Y47267D01*
G54D95*X22936Y55116D02*Y51585D01*
X19685Y55116D02*X22936D01*
X19685D02*Y51585D01*
X22936D01*
X23152Y55965D02*X23352D01*
X23152Y57365D02*X23352D01*
X8826Y29995D02*X15938D01*
X20384D02*X22162D01*
X20384Y43203D02*X22162D01*
X8826D02*X15938D01*
X22162Y32281D02*Y29995D01*
Y34821D02*Y33805D01*
Y36853D02*Y36345D01*
Y39393D02*Y38377D01*
Y43203D02*Y40917D01*
X8826Y43203D02*Y29995D01*
X13513Y52576D02*Y52525D01*
Y49096D02*Y49045D01*
X11455Y54633D02*X11989D01*
X11455Y46988D02*X11989D01*
X8814Y54620D02*X9068D01*
X8814Y47000D02*X9068D01*
X8816Y54615D02*Y46995D01*
X37846Y58189D02*Y48029D01*
X27686Y58189D02*X37846D01*
X27686D02*Y48029D01*
X34036D02*X37846D01*
X27686D02*X31496D01*
X34036D02*G75*G03X31496Y48029I-1270J0D01*G01*
X17972Y55368D02*Y55168D01*
X16572Y55368D02*Y55168D01*
X17272Y24407D02*X18161D01*
X17272D02*X17145Y24280D01*
Y24026D01*
X17272Y23899D01*
X18161D01*
X18034Y23594D02*X18161Y23467D01*
Y23213D01*
X18034Y23086D01*
X17145Y23213D02*X17272Y23086D01*
X17145Y23467D02*Y23213D01*
X17272Y23594D02*X17145Y23467D01*
X17704D02*Y23213D01*
X17831Y23086D02*X18034D01*
X17272D02*X17577D01*
X17704Y23213D01*
X17831Y23086D02*X17704Y23213D01*
X23495Y17752D02*Y17549D01*
X22606D02*X23495D01*
X22479Y17676D02*X22606Y17549D01*
X22479Y17803D02*Y17676D01*
X22606Y17930D02*X22479Y17803D01*
X22606Y17930D02*X22733D01*
X23368Y17244D02*X23495Y17117D01*
Y16736D01*
X23368Y16609D01*
X23114D02*X23368D01*
X22479Y17244D02*X23114Y16609D01*
X22479Y17244D02*Y16609D01*
X10541Y26207D02*X11557D01*
Y25877D02*X11379Y25699D01*
X10719D02*X11379D01*
X10541Y25877D02*X10719Y25699D01*
X10541Y26334D02*Y25877D01*
X11557Y26334D02*Y25877D01*
X10922Y25394D02*X11557Y24886D01*
X10922Y25394D02*Y24759D01*
X10541Y24886D02*X11557D01*
X10541Y20724D02*X11557D01*
Y20394D02*X11379Y20216D01*
X10719D02*X11379D01*
X10541Y20394D02*X10719Y20216D01*
X10541Y20851D02*Y20394D01*
X11557Y20851D02*Y20394D01*
X11430Y19911D02*X11557Y19784D01*
Y19403D01*
X11430Y19276D01*
X11176D02*X11430D01*
X10541Y19911D02*X11176Y19276D01*
X10541Y19911D02*Y19276D01*
Y15771D02*X11557D01*
Y15441D02*X11379Y15263D01*
X10719D02*X11379D01*
X10541Y15441D02*X10719Y15263D01*
X10541Y15898D02*Y15441D01*
X11557Y15898D02*Y15441D01*
X11430Y14958D02*X11557Y14831D01*
Y14577D01*
X11430Y14450D01*
X10541Y14577D02*X10668Y14450D01*
X10541Y14831D02*Y14577D01*
X10668Y14958D02*X10541Y14831D01*
X11100D02*Y14577D01*
X11227Y14450D02*X11430D01*
X10668D02*X10973D01*
X11100Y14577D01*
X11227Y14450D02*X11100Y14577D01*
X40386Y22070D02*Y21867D01*
X39497D02*X40386D01*
X39370Y21994D02*X39497Y21867D01*
X39370Y22121D02*Y21994D01*
X39497Y22248D02*X39370Y22121D01*
X39497Y22248D02*X39624D01*
X39751Y21562D02*X40386Y21054D01*
X39751Y21562D02*Y20927D01*
X39370Y21054D02*X40386D01*
X48133Y22248D02*Y21918D01*
X47955Y21740D02*X48133Y21918D01*
X47295Y21740D02*X47955D01*
X47295D02*X47117Y21918D01*
Y22248D02*Y21918D01*
X47244Y22553D02*X48006D01*
X47244D02*X47117Y22680D01*
Y22934D02*Y22680D01*
Y22934D02*X47244Y23061D01*
X48006D01*
X48133Y22934D02*X48006Y23061D01*
X48133Y22934D02*Y22680D01*
X48006Y22553D02*X48133Y22680D01*
X47117Y23366D02*X48133D01*
X47117D02*X48133Y24001D01*
X47117D02*X48133D01*
X47117Y24305D02*X48133D01*
X47117D02*X48133Y24940D01*
X47117D02*X48133D01*
X47244Y25245D02*X47117Y25372D01*
Y25626D02*Y25372D01*
Y25626D02*X47244Y25753D01*
X48133Y25626D02*X48006Y25753D01*
X48133Y25626D02*Y25372D01*
X48006Y25245D02*X48133Y25372D01*
X47574Y25626D02*Y25372D01*
X47244Y25753D02*X47447D01*
X47701D02*X48006D01*
X47701D02*X47574Y25626D01*
X47447Y25753D02*X47574Y25626D01*
X38161Y52734D02*X39177D01*
X38161Y53064D02*X38339Y53242D01*
X38999D01*
X39177Y53064D02*X38999Y53242D01*
X39177Y53064D02*Y52607D01*
X38161Y53064D02*Y52607D01*
X38364Y53547D02*X38161Y53750D01*
X39177D01*
Y53928D02*Y53547D01*
X39878Y42517D02*Y42314D01*
X38989D02*X39878D01*
X38862Y42441D02*X38989Y42314D01*
X38862Y42568D02*Y42441D01*
X38989Y42695D02*X38862Y42568D01*
X38989Y42695D02*X39116D01*
X39751Y42009D02*X39878Y41882D01*
Y41628D01*
X39751Y41501D01*
X38862Y41628D02*X38989Y41501D01*
X38862Y41882D02*Y41628D01*
X38989Y42009D02*X38862Y41882D01*
X39421D02*Y41628D01*
X39548Y41501D02*X39751D01*
X38989D02*X39294D01*
X39421Y41628D01*
X39548Y41501D02*X39421Y41628D01*
X37592Y47521D02*Y46632D01*
Y47521D02*X37465Y47648D01*
X37211D02*X37465D01*
X37211D02*X37084Y47521D01*
Y46632D01*
X36779Y46759D02*X36652Y46632D01*
X36271D02*X36652D01*
X36271D02*X36144Y46759D01*
Y47013D02*Y46759D01*
X36779Y47648D02*X36144Y47013D01*
Y47648D02*X36779D01*
X48006Y43584D02*Y43254D01*
X47828Y43076D02*X48006Y43254D01*
X47168Y43076D02*X47828D01*
X47168D02*X46990Y43254D01*
Y43584D02*Y43254D01*
X47117Y43889D02*X47879D01*
X47117D02*X46990Y44016D01*
Y44270D02*Y44016D01*
Y44270D02*X47117Y44397D01*
X47879D01*
X48006Y44270D02*X47879Y44397D01*
X48006Y44270D02*Y44016D01*
X47879Y43889D02*X48006Y44016D01*
X46990Y44702D02*X48006D01*
X46990D02*X48006Y45337D01*
X46990D02*X48006D01*
X46990Y45641D02*X48006D01*
X46990D02*X48006Y46276D01*
X46990D02*X48006D01*
X47117Y46581D02*X46990Y46708D01*
Y47089D02*Y46708D01*
Y47089D02*X47117Y47216D01*
X47371D01*
X48006Y46581D02*X47371Y47216D01*
X48006D02*Y46581D01*
X25070Y39901D02*X25273D01*
Y39012D01*
X25146Y38885D02*X25273Y39012D01*
X25019Y38885D02*X25146D01*
X24892Y39012D02*X25019Y38885D01*
X24892Y39139D02*Y39012D01*
X25578Y39698D02*X25781Y39901D01*
Y38885D01*
X25578D02*X25959D01*
X27686Y47394D02*Y46505D01*
X27813Y46378D01*
X28067D01*
X28194Y46505D01*
Y47394D02*Y46505D01*
X28499Y46759D02*X29007Y47394D01*
X28499Y46759D02*X29134D01*
X29007Y47394D02*Y46378D01*
X22784Y58062D02*X23114D01*
X22606Y58240D02*X22784Y58062D01*
X22606Y58900D02*Y58240D01*
Y58900D02*X22784Y59078D01*
X23114D01*
X23419Y58951D02*X23546Y59078D01*
X23927D01*
X24054Y58951D01*
Y58697D01*
X23419Y58062D02*X24054Y58697D01*
X23419Y58062D02*X24054D01*
X20968Y51204D02*Y50315D01*
X21095Y50188D01*
X21349D01*
X21476Y50315D01*
Y51204D02*Y50315D01*
X21781Y51001D02*X21984Y51204D01*
Y50188D01*
X21781D02*X22162D01*
X9449Y43838D02*X9779D01*
X9271Y44016D02*X9449Y43838D01*
X9271Y44676D02*Y44016D01*
Y44676D02*X9449Y44854D01*
X9779D01*
X10084Y44727D02*Y43965D01*
Y44727D02*X10211Y44854D01*
X10465D01*
X10592Y44727D01*
Y43965D01*
X10465Y43838D02*X10592Y43965D01*
X10211Y43838D02*X10465D01*
X10084Y43965D02*X10211Y43838D01*
X10897Y44854D02*Y43838D01*
Y44854D02*X11532Y43838D01*
Y44854D02*Y43838D01*
X11836Y44854D02*Y43838D01*
Y44854D02*X12471Y43838D01*
Y44854D02*Y43838D01*
X12776Y44219D02*X13284Y44854D01*
X12776Y44219D02*X13411D01*
X13284Y44854D02*Y43838D01*
X14584Y52421D02*Y52091D01*
X14762Y52599D02*X14584Y52421D01*
X14762Y52599D02*X15422D01*
X15600Y52421D01*
Y52091D01*
X14711Y51786D02*X15473D01*
X15600Y51659D01*
Y51405D01*
X15473Y51278D01*
X14711D02*X15473D01*
X14584Y51405D02*X14711Y51278D01*
X14584Y51659D02*Y51405D01*
X14711Y51786D02*X14584Y51659D01*
Y50973D02*X15600D01*
X14584Y50338D01*
X15600D01*
X14584Y50033D02*X15600D01*
X14584Y49398D01*
X15600D01*
X15397Y49093D02*X15600Y48890D01*
X14584D02*X15600D01*
X14584Y49093D02*Y48712D01*
X16002Y55014D02*Y54684D01*
X15824Y54506D02*X16002Y54684D01*
X15164Y54506D02*X15824D01*
X15164D02*X14986Y54684D01*
Y55014D02*Y54684D01*
X15189Y55319D02*X14986Y55522D01*
X16002D01*
Y55700D02*Y55319D01*
M02*
