G04 start of page 13 for group -3984 idx -3984 *
G04 Title: (unknown), fab *
G04 Creator: pcb 20140316 *
G04 CreationDate: Sun 10 Nov 2019 02:50:04 PM GMT UTC *
G04 For: sladekm *
G04 Format: Gerber/RS-274X *
G04 PCB-Dimensions (mm): 70.00 70.00 *
G04 PCB-Coordinate-Origin: lower left *
%MOMM*%
%FSLAX43Y43*%
%LNFAB*%
%ADD112C,0.132*%
%ADD111C,0.191*%
%ADD110C,0.152*%
%ADD109C,0.203*%
%ADD108C,0.254*%
G54D108*X8509Y61491D02*X63246D01*
X8636Y64539D02*X62992D01*
X8509Y65174D02*Y61999D01*
X8636Y64539D02*X9398Y64158D01*
X8001Y61491D02*X4826D01*
X5080Y60729D02*X5461Y61364D01*
X5842Y60729D01*
X63246Y61491D02*Y7389D01*
Y65174D02*Y61999D01*
X62484Y64920D02*X63119Y64539D01*
X62484Y64158D01*
X8509Y7389D02*Y61491D01*
Y7389D02*X63246D01*
X9398Y64920D02*X8636Y64539D01*
X4826Y7389D02*X8001D01*
X5080Y8278D02*X5461Y7516D01*
X5842Y8278D01*
X5461Y61237D02*Y7516D01*
X3762Y31549D02*Y30884D01*
X4427D01*
X4261Y31050D01*
Y31383D02*Y31050D01*
Y31383D02*X4427Y31549D01*
X4926D01*
X5093Y31383D02*X4926Y31549D01*
X5093Y31383D02*Y31050D01*
X4926Y30884D02*X5093Y31050D01*
X4594Y31949D02*X3762Y32614D01*
X4594Y32781D02*Y31949D01*
X3762Y32614D02*X5093D01*
Y33346D02*Y33180D01*
X4028Y33746D02*X3762Y34012D01*
X5093D01*
Y34245D02*Y33746D01*
X4594Y35409D02*X5093D01*
X4594D02*X4427Y35576D01*
Y35742D02*Y35576D01*
Y35742D02*X4594Y35908D01*
X5093D01*
X4594D02*X4427Y36075D01*
Y36241D02*Y36075D01*
Y36241D02*X4594Y36407D01*
X5093D01*
X4427Y35243D02*X4594Y35409D01*
Y36973D02*X5093D01*
X4594D02*X4427Y37140D01*
Y37306D02*Y37140D01*
Y37306D02*X4594Y37472D01*
X5093D01*
X4594D02*X4427Y37639D01*
Y37805D02*Y37639D01*
Y37805D02*X4594Y37971D01*
X5093D01*
X4427Y36807D02*X4594Y36973D01*
X30861Y66238D02*X31526D01*
X30861D02*Y65573D01*
X31027Y65739D01*
X31360D01*
X31526Y65573D01*
Y65074D01*
X31360Y64907D02*X31526Y65074D01*
X31027Y64907D02*X31360D01*
X30861Y65074D02*X31027Y64907D01*
X31926Y65406D02*X32591Y66238D01*
X31926Y65406D02*X32758D01*
X32591Y66238D02*Y64907D01*
X33157D02*X33323D01*
X33889D02*X34554Y66238D01*
X33723D02*X34554D01*
X34954Y65406D02*X35619Y66238D01*
X34954Y65406D02*X35786D01*
X35619Y66238D02*Y64907D01*
X36950Y65406D02*Y64907D01*
Y65406D02*X37117Y65573D01*
X37283D01*
X37449Y65406D01*
Y64907D01*
Y65406D02*X37616Y65573D01*
X37782D01*
X37948Y65406D01*
Y64907D01*
X36784Y65573D02*X36950Y65406D01*
X38514D02*Y64907D01*
Y65406D02*X38680Y65573D01*
X38847D01*
X39013Y65406D01*
Y64907D01*
Y65406D02*X39180Y65573D01*
X39346D01*
X39512Y65406D01*
Y64907D01*
X38348Y65573D02*X38514Y65406D01*
G54D109*X11684Y58697D02*Y57884D01*
Y58697D02*X12388Y59103D01*
X11684Y58697D02*X10980Y59103D01*
X11278Y58697D02*G75*G03X12090Y58697I406J0D01*G01*
G75*G03X11278Y58697I-406J0D01*G01*
X11684Y10183D02*Y9370D01*
Y10183D02*X12388Y10589D01*
X11684Y10183D02*X10980Y10589D01*
X11278Y10183D02*G75*G03X12090Y10183I406J0D01*G01*
G75*G03X11278Y10183I-406J0D01*G01*
X59690D02*Y9370D01*
Y10183D02*X60394Y10589D01*
X59690Y10183D02*X58986Y10589D01*
X59284Y10183D02*G75*G03X60096Y10183I406J0D01*G01*
G75*G03X59284Y10183I-406J0D01*G01*
X59690Y58697D02*Y57884D01*
Y58697D02*X60394Y59103D01*
X59690Y58697D02*X58986Y59103D01*
X59284Y58697D02*G75*G03X60096Y58697I406J0D01*G01*
G75*G03X59284Y58697I-406J0D01*G01*
X3810Y72858D02*Y72045D01*
Y72858D02*X4514Y73264D01*
X3810Y72858D02*X3106Y73264D01*
X3404Y72858D02*G75*G03X4216Y72858I406J0D01*G01*
G75*G03X3404Y72858I-406J0D01*G01*
G54D110*X35560Y73429D02*Y71905D01*
Y73429D02*X36512Y71905D01*
Y73429D02*Y71905D01*
X36970Y73238D02*Y72096D01*
Y73238D02*X37160Y73429D01*
X37541D01*
X37732Y73238D01*
Y72096D01*
X37541Y71905D02*X37732Y72096D01*
X37160Y71905D02*X37541D01*
X36970Y72096D02*X37160Y71905D01*
X24892Y72476D02*X25654Y73429D01*
X24892Y72476D02*X25844D01*
X25654Y73429D02*Y71905D01*
X11430Y72096D02*X11620Y71905D01*
X11430Y73238D02*Y72096D01*
Y73238D02*X11620Y73429D01*
X12002D01*
X12192Y73238D01*
Y72096D01*
X12002Y71905D02*X12192Y72096D01*
X11620Y71905D02*X12002D01*
X11430Y72286D02*X12192Y73048D01*
X12649Y71905D02*X12840D01*
X13297Y73124D02*X13602Y73429D01*
Y71905D01*
X13297D02*X13868D01*
X14326Y73238D02*X14516Y73429D01*
X15088D01*
X15278Y73238D01*
Y72858D01*
X14326Y71905D02*X15278Y72858D01*
X14326Y71905D02*X15278D01*
X16307Y73429D02*X16497Y73238D01*
X15926Y73429D02*X16307D01*
X15735Y73238D02*X15926Y73429D01*
X15735Y73238D02*Y72096D01*
X15926Y71905D01*
X16307Y72743D02*X16497Y72553D01*
X15735Y72743D02*X16307D01*
X15926Y71905D02*X16307D01*
X16497Y72096D01*
Y72553D02*Y72096D01*
X54712Y16304D02*X55524D01*
X54712D02*Y15492D01*
X55524D01*
Y16304D02*Y15492D01*
X54712Y31544D02*X55524D01*
X54712D02*Y30732D01*
X55524D01*
Y31544D02*Y30732D01*
X54712Y38275D02*X55524D01*
X54712D02*Y37463D01*
X55524D01*
Y38275D02*Y37463D01*
X54712Y53515D02*X55524D01*
X54712D02*Y52703D01*
X55524D01*
Y53515D02*Y52703D01*
X3404Y77074D02*X4216D01*
X3404D02*Y76261D01*
X4216D01*
Y77074D02*Y76261D01*
X35560Y77239D02*Y75715D01*
Y77239D02*X36512Y75715D01*
Y77239D02*Y75715D01*
X36970Y77048D02*Y75906D01*
Y77048D02*X37160Y77239D01*
X37541D01*
X37732Y77048D01*
Y75906D01*
X37541Y75715D02*X37732Y75906D01*
X37160Y75715D02*X37541D01*
X36970Y75906D02*X37160Y75715D01*
X24892Y76286D02*X25654Y77239D01*
X24892Y76286D02*X25844D01*
X25654Y77239D02*Y75715D01*
X11430Y75906D02*X11620Y75715D01*
X11430Y77048D02*Y75906D01*
Y77048D02*X11620Y77239D01*
X12002D01*
X12192Y77048D01*
Y75906D01*
X12002Y75715D02*X12192Y75906D01*
X11620Y75715D02*X12002D01*
X11430Y76096D02*X12192Y76858D01*
X12649Y75715D02*X12840D01*
X13297Y75906D02*X13487Y75715D01*
X13297Y77048D02*Y75906D01*
Y77048D02*X13487Y77239D01*
X13868D01*
X14059Y77048D01*
Y75906D01*
X13868Y75715D02*X14059Y75906D01*
X13487Y75715D02*X13868D01*
X13297Y76096D02*X14059Y76858D01*
X14707Y75715D02*X15278Y76477D01*
Y77048D02*Y76477D01*
X15088Y77239D02*X15278Y77048D01*
X14707Y77239D02*X15088D01*
X14516Y77048D02*X14707Y77239D01*
X14516Y77048D02*Y76668D01*
X14707Y76477D01*
X15278D01*
X15735Y76286D02*X16497Y77239D01*
X15735Y76286D02*X16688D01*
X16497Y77239D02*Y75715D01*
X18021Y29995D02*G75*G03X18428Y29995I203J0D01*G01*
G75*G03X18021Y29995I-203J0D01*G01*
Y43203D02*G75*G03X18428Y43203I203J0D01*G01*
G75*G03X18021Y43203I-203J0D01*G01*
X3607Y80478D02*G75*G03X4013Y80478I203J0D01*G01*
G75*G03X3607Y80478I-203J0D01*G01*
X34290Y81049D02*X34671Y80287D01*
X35052Y81049D01*
X34671Y80287D02*Y79525D01*
X35509Y80363D02*X36081D01*
X35509Y79525D02*X36271D01*
X35509Y81049D02*Y79525D01*
Y81049D02*X36271D01*
X37490D02*X37681Y80858D01*
X36919Y81049D02*X37490D01*
X36728Y80858D02*X36919Y81049D01*
X36728Y80858D02*Y80478D01*
X36919Y80287D01*
X37490D01*
X37681Y80096D01*
Y79716D01*
X37490Y79525D02*X37681Y79716D01*
X36919Y79525D02*X37490D01*
X36728Y79716D02*X36919Y79525D01*
X24892Y80858D02*X25082Y81049D01*
X25654D01*
X25844Y80858D01*
Y80478D01*
X24892Y79525D02*X25844Y80478D01*
X24892Y79525D02*X25844D01*
X11430Y79716D02*X11620Y79525D01*
X11430Y80858D02*Y79716D01*
Y80858D02*X11620Y81049D01*
X12002D01*
X12192Y80858D01*
Y79716D01*
X12002Y79525D02*X12192Y79716D01*
X11620Y79525D02*X12002D01*
X11430Y79906D02*X12192Y80668D01*
X12649Y79525D02*X12840D01*
X13297Y79716D02*X13487Y79525D01*
X13297Y80858D02*Y79716D01*
Y80858D02*X13487Y81049D01*
X13868D01*
X14059Y80858D01*
Y79716D01*
X13868Y79525D02*X14059Y79716D01*
X13487Y79525D02*X13868D01*
X13297Y79906D02*X14059Y80668D01*
X14707Y79525D02*X15278Y80287D01*
Y80858D02*Y80287D01*
X15088Y81049D02*X15278Y80858D01*
X14707Y81049D02*X15088D01*
X14516Y80858D02*X14707Y81049D01*
X14516Y80858D02*Y80478D01*
X14707Y80287D01*
X15278D01*
X15735Y80744D02*X16040Y81049D01*
Y79525D01*
X15735D02*X16307D01*
X47193Y28903D02*X47803Y28293D01*
X47193D02*X47803Y28903D01*
X49733Y23823D02*X50343Y23213D01*
X49733D02*X50343Y23823D01*
X49733Y31443D02*X50343Y30833D01*
X49733D02*X50343Y31443D01*
X49733Y16203D02*X50343Y15593D01*
X49733D02*X50343Y16203D01*
X59893Y21283D02*X60503Y20673D01*
X59893D02*X60503Y21283D01*
X59893Y26363D02*X60503Y25753D01*
X59893D02*X60503Y26363D01*
X47193Y18743D02*X47803Y18133D01*
X47193D02*X47803Y18743D01*
X47193Y50874D02*X47803Y50264D01*
X47193D02*X47803Y50874D01*
X49733Y45794D02*X50343Y45184D01*
X49733D02*X50343Y45794D01*
X49733Y53414D02*X50343Y52804D01*
X49733D02*X50343Y53414D01*
X49733Y38174D02*X50343Y37564D01*
X49733D02*X50343Y38174D01*
X59893Y43254D02*X60503Y42644D01*
X59893D02*X60503Y43254D01*
X59893Y48334D02*X60503Y47724D01*
X59893D02*X60503Y48334D01*
X47193Y40714D02*X47803Y40104D01*
X47193D02*X47803Y40714D01*
X3505Y84592D02*X4115Y83983D01*
X3505D02*X4115Y84592D01*
X34290Y84859D02*X34671Y84097D01*
X35052Y84859D01*
X34671Y84097D02*Y83335D01*
X35509Y84173D02*X36081D01*
X35509Y83335D02*X36271D01*
X35509Y84859D02*Y83335D01*
Y84859D02*X36271D01*
X37490D02*X37681Y84668D01*
X36919Y84859D02*X37490D01*
X36728Y84668D02*X36919Y84859D01*
X36728Y84668D02*Y84288D01*
X36919Y84097D01*
X37490D01*
X37681Y83906D01*
Y83526D01*
X37490Y83335D02*X37681Y83526D01*
X36919Y83335D02*X37490D01*
X36728Y83526D02*X36919Y83335D01*
X24892Y84554D02*X25197Y84859D01*
Y83335D01*
X24892D02*X25464D01*
X25921Y83906D02*X26683Y84859D01*
X25921Y83906D02*X26873D01*
X26683Y84859D02*Y83335D01*
X11430Y83526D02*X11620Y83335D01*
X11430Y84668D02*Y83526D01*
Y84668D02*X11620Y84859D01*
X12002D01*
X12192Y84668D01*
Y83526D01*
X12002Y83335D02*X12192Y83526D01*
X11620Y83335D02*X12002D01*
X11430Y83716D02*X12192Y84478D01*
X12649Y83335D02*X12840D01*
X13297Y83526D02*X13487Y83335D01*
X13297Y84668D02*Y83526D01*
Y84668D02*X13487Y84859D01*
X13868D01*
X14059Y84668D01*
Y83526D01*
X13868Y83335D02*X14059Y83526D01*
X13487Y83335D02*X13868D01*
X13297Y83716D02*X14059Y84478D01*
X14516Y84859D02*X15278D01*
X14516D02*Y84097D01*
X14707Y84288D01*
X15088D01*
X15278Y84097D01*
Y83526D01*
X15088Y83335D02*X15278Y83526D01*
X14707Y83335D02*X15088D01*
X14516Y83526D02*X14707Y83335D01*
X15735Y84668D02*X15926Y84859D01*
X16307D01*
X16497Y84668D01*
X16307Y83335D02*X16497Y83526D01*
X15926Y83335D02*X16307D01*
X15735Y83526D02*X15926Y83335D01*
Y84173D02*X16307D01*
X16497Y84668D02*Y84364D01*
Y83983D02*Y83526D01*
Y83983D02*X16307Y84173D01*
X16497Y84364D02*X16307Y84173D01*
X40386Y50213D02*Y49401D01*
X39980Y49807D02*X40792D01*
X40386Y57833D02*Y57021D01*
X39980Y57427D02*X40792D01*
X39878Y19733D02*Y18921D01*
X39472Y19327D02*X40284D01*
X39878Y40053D02*Y39241D01*
X39472Y39647D02*X40284D01*
X39878Y37513D02*Y36701D01*
X39472Y37107D02*X40284D01*
X39878Y34973D02*Y34161D01*
X39472Y34567D02*X40284D01*
X25146Y37513D02*Y36701D01*
X24740Y37107D02*X25552D01*
X25146Y34973D02*Y34161D01*
X24740Y34567D02*X25552D01*
X25146Y32433D02*Y31621D01*
X24740Y32027D02*X25552D01*
X25146Y29893D02*Y29081D01*
X24740Y29487D02*X25552D01*
X25146Y19733D02*Y18921D01*
X24740Y19327D02*X25552D01*
X25146Y17193D02*Y16381D01*
X24740Y16787D02*X25552D01*
X14224Y16812D02*Y16000D01*
X13818Y16406D02*X14630D01*
X14224Y14272D02*Y13460D01*
X13818Y13866D02*X14630D01*
X14224Y27099D02*Y26287D01*
X13818Y26693D02*X14630D01*
X14224Y24559D02*Y23747D01*
X13818Y24153D02*X14630D01*
X14224Y22019D02*Y21207D01*
X13818Y21613D02*X14630D01*
X14224Y19479D02*Y18667D01*
X13818Y19073D02*X14630D01*
X28702Y45133D02*Y44321D01*
X28296Y44727D02*X29108D01*
X28702Y42593D02*Y41781D01*
X28296Y42187D02*X29108D01*
X28702Y40053D02*Y39241D01*
X28296Y39647D02*X29108D01*
X28702Y37513D02*Y36701D01*
X28296Y37107D02*X29108D01*
X28702Y34973D02*Y34161D01*
X28296Y34567D02*X29108D01*
X28702Y32433D02*Y31621D01*
X28296Y32027D02*X29108D01*
X28702Y29893D02*Y29081D01*
X28296Y29487D02*X29108D01*
X28702Y27353D02*Y26541D01*
X28296Y26947D02*X29108D01*
X28702Y24813D02*Y24001D01*
X28296Y24407D02*X29108D01*
X28702Y22273D02*Y21461D01*
X28296Y21867D02*X29108D01*
X28702Y19733D02*Y18921D01*
X28296Y19327D02*X29108D01*
X28702Y17193D02*Y16381D01*
X28296Y16787D02*X29108D01*
X28702Y14653D02*Y13841D01*
X28296Y14247D02*X29108D01*
X28702Y12113D02*Y11301D01*
X28296Y11707D02*X29108D01*
X36322Y12113D02*Y11301D01*
X35916Y11707D02*X36728D01*
X36322Y14653D02*Y13841D01*
X35916Y14247D02*X36728D01*
X36322Y17193D02*Y16381D01*
X35916Y16787D02*X36728D01*
X36322Y19733D02*Y18921D01*
X35916Y19327D02*X36728D01*
X36322Y22273D02*Y21461D01*
X35916Y21867D02*X36728D01*
X36322Y24813D02*Y24001D01*
X35916Y24407D02*X36728D01*
X36322Y27353D02*Y26541D01*
X35916Y26947D02*X36728D01*
X36322Y29893D02*Y29081D01*
X35916Y29487D02*X36728D01*
X36322Y32433D02*Y31621D01*
X35916Y32027D02*X36728D01*
X36322Y34973D02*Y34161D01*
X35916Y34567D02*X36728D01*
X36322Y37513D02*Y36701D01*
X35916Y37107D02*X36728D01*
X36322Y40053D02*Y39241D01*
X35916Y39647D02*X36728D01*
X36322Y42593D02*Y41781D01*
X35916Y42187D02*X36728D01*
X36322Y45133D02*Y44321D01*
X35916Y44727D02*X36728D01*
X36576Y49705D02*Y48893D01*
X36170Y49299D02*X36982D01*
X36576Y52245D02*Y51433D01*
X36170Y51839D02*X36982D01*
X36576Y54785D02*Y53973D01*
X36170Y54379D02*X36982D01*
X36576Y57325D02*Y56513D01*
X36170Y56919D02*X36982D01*
X28956Y57325D02*Y56513D01*
X28550Y56919D02*X29362D01*
X28956Y54785D02*Y53973D01*
X28550Y54379D02*X29362D01*
X28956Y52245D02*Y51433D01*
X28550Y51839D02*X29362D01*
X28956Y49705D02*Y48893D01*
X28550Y49299D02*X29362D01*
X3810Y88504D02*Y87691D01*
X3404Y88098D02*X4216D01*
X34290Y88669D02*X34671Y87907D01*
X35052Y88669D01*
X34671Y87907D02*Y87145D01*
X35509Y87983D02*X36081D01*
X35509Y87145D02*X36271D01*
X35509Y88669D02*Y87145D01*
Y88669D02*X36271D01*
X37490D02*X37681Y88478D01*
X36919Y88669D02*X37490D01*
X36728Y88478D02*X36919Y88669D01*
X36728Y88478D02*Y88098D01*
X36919Y87907D01*
X37490D01*
X37681Y87716D01*
Y87336D01*
X37490Y87145D02*X37681Y87336D01*
X36919Y87145D02*X37490D01*
X36728Y87336D02*X36919Y87145D01*
X24892Y88669D02*X25654D01*
X24892D02*Y87907D01*
X25082Y88098D01*
X25464D01*
X25654Y87907D01*
Y87336D01*
X25464Y87145D02*X25654Y87336D01*
X25082Y87145D02*X25464D01*
X24892Y87336D02*X25082Y87145D01*
X26111Y87716D02*X26873Y88669D01*
X26111Y87716D02*X27064D01*
X26873Y88669D02*Y87145D01*
X11430Y87336D02*X11620Y87145D01*
X11430Y88478D02*Y87336D01*
Y88478D02*X11620Y88669D01*
X12002D01*
X12192Y88478D01*
Y87336D01*
X12002Y87145D02*X12192Y87336D01*
X11620Y87145D02*X12002D01*
X11430Y87526D02*X12192Y88288D01*
X12649Y87145D02*X12840D01*
X13297Y87336D02*X13487Y87145D01*
X13297Y88478D02*Y87336D01*
Y88478D02*X13487Y88669D01*
X13868D01*
X14059Y88478D01*
Y87336D01*
X13868Y87145D02*X14059Y87336D01*
X13487Y87145D02*X13868D01*
X13297Y87526D02*X14059Y88288D01*
X14516Y88478D02*X14707Y88669D01*
X15278D01*
X15469Y88478D01*
Y88098D01*
X14516Y87145D02*X15469Y88098D01*
X14516Y87145D02*X15469D01*
X15926Y87336D02*X16116Y87145D01*
X15926Y87640D02*Y87336D01*
Y87640D02*X16193Y87907D01*
X16421D01*
X16688Y87640D01*
Y87336D01*
X16497Y87145D02*X16688Y87336D01*
X16116Y87145D02*X16497D01*
X15926Y88174D02*X16193Y87907D01*
X15926Y88478D02*Y88174D01*
Y88478D02*X16116Y88669D01*
X16497D01*
X16688Y88478D01*
Y88174D01*
X16421Y87907D02*X16688Y88174D01*
X21082Y14247D02*Y13841D01*
Y14247D02*X21434Y14450D01*
X21082Y14247D02*X20730Y14450D01*
X45593Y48029D02*Y47623D01*
Y48029D02*X45945Y48232D01*
X45593Y48029D02*X45241Y48232D01*
X21082Y16533D02*Y16127D01*
Y16533D02*X21434Y16736D01*
X21082Y16533D02*X20730Y16736D01*
X42164Y22629D02*Y22223D01*
Y22629D02*X42516Y22832D01*
X42164Y22629D02*X41812Y22832D01*
X14732Y54125D02*Y53719D01*
Y54125D02*X15084Y54328D01*
X14732Y54125D02*X14380Y54328D01*
X14732Y47267D02*Y46861D01*
Y47267D02*X15084Y47470D01*
X14732Y47267D02*X14380Y47470D01*
X17145Y57935D02*Y57529D01*
Y57935D02*X17497Y58138D01*
X17145Y57935D02*X16793Y58138D01*
X21336Y50315D02*Y49909D01*
Y50315D02*X21688Y50518D01*
X21336Y50315D02*X20984Y50518D01*
X23876Y49299D02*Y48893D01*
Y49299D02*X24228Y49502D01*
X23876Y49299D02*X23524Y49502D01*
X23876Y24153D02*Y23747D01*
Y24153D02*X24228Y24356D01*
X23876Y24153D02*X23524Y24356D01*
X26670Y45997D02*Y45591D01*
Y45997D02*X27022Y46200D01*
X26670Y45997D02*X26318Y46200D01*
X22987Y47013D02*Y46607D01*
Y47013D02*X23339Y47216D01*
X22987Y47013D02*X22635Y47216D01*
X26416Y56665D02*Y56259D01*
Y56665D02*X26768Y56868D01*
X26416Y56665D02*X26064Y56868D01*
X20066Y56665D02*Y56259D01*
Y56665D02*X20418Y56868D01*
X20066Y56665D02*X19714Y56868D01*
X22352Y58697D02*Y58291D01*
Y58697D02*X22704Y58900D01*
X22352Y58697D02*X22000Y58900D01*
X23876Y54379D02*Y53973D01*
Y54379D02*X24228Y54582D01*
X23876Y54379D02*X23524Y54582D01*
X23876Y51839D02*Y51433D01*
Y51839D02*X24228Y52042D01*
X23876Y51839D02*X23524Y52042D01*
X56134Y46378D02*Y45972D01*
Y46378D02*X56486Y46581D01*
X56134Y46378D02*X55782Y46581D01*
X14351Y28979D02*Y28573D01*
Y28979D02*X14703Y29182D01*
X14351Y28979D02*X13999Y29182D01*
X27051Y35837D02*Y35431D01*
Y35837D02*X27403Y36040D01*
X27051Y35837D02*X26699Y36040D01*
X42672Y35837D02*Y35431D01*
Y35837D02*X43024Y36040D01*
X42672Y35837D02*X42320Y36040D01*
X26416Y40917D02*Y40511D01*
Y40917D02*X26768Y41120D01*
X26416Y40917D02*X26064Y41120D01*
X22860Y31519D02*Y31113D01*
Y31519D02*X23212Y31722D01*
X22860Y31519D02*X22508Y31722D01*
X22860Y29995D02*Y29589D01*
Y29995D02*X23212Y30198D01*
X22860Y29995D02*X22508Y30198D01*
X14986Y49426D02*Y49020D01*
Y49426D02*X15338Y49629D01*
X14986Y49426D02*X14634Y49629D01*
X26416Y58189D02*Y57783D01*
Y58189D02*X26768Y58392D01*
X26416Y58189D02*X26064Y58392D01*
X21082Y25931D02*Y25525D01*
Y25931D02*X21434Y26134D01*
X21082Y25931D02*X20730Y26134D01*
X21082Y21051D02*Y20645D01*
Y21051D02*X21434Y21254D01*
X21082Y21051D02*X20730Y21254D01*
X3810Y91908D02*Y91501D01*
Y91908D02*X4162Y92111D01*
X3810Y91908D02*X3458Y92111D01*
X34290Y92479D02*X34671Y91717D01*
X35052Y92479D01*
X34671Y91717D02*Y90955D01*
X35509Y91793D02*X36081D01*
X35509Y90955D02*X36271D01*
X35509Y92479D02*Y90955D01*
Y92479D02*X36271D01*
X37490D02*X37681Y92288D01*
X36919Y92479D02*X37490D01*
X36728Y92288D02*X36919Y92479D01*
X36728Y92288D02*Y91908D01*
X36919Y91717D01*
X37490D01*
X37681Y91526D01*
Y91146D01*
X37490Y90955D02*X37681Y91146D01*
X36919Y90955D02*X37490D01*
X36728Y91146D02*X36919Y90955D01*
X24892Y92288D02*X25082Y92479D01*
X25654D01*
X25844Y92288D01*
Y91908D01*
X24892Y90955D02*X25844Y91908D01*
X24892Y90955D02*X25844D01*
X26302Y91146D02*X26492Y90955D01*
X26302Y91450D02*Y91146D01*
Y91450D02*X26568Y91717D01*
X26797D01*
X27064Y91450D01*
Y91146D01*
X26873Y90955D02*X27064Y91146D01*
X26492Y90955D02*X26873D01*
X26302Y91984D02*X26568Y91717D01*
X26302Y92288D02*Y91984D01*
Y92288D02*X26492Y92479D01*
X26873D01*
X27064Y92288D01*
Y91984D01*
X26797Y91717D02*X27064Y91984D01*
X11430Y91146D02*X11620Y90955D01*
X11430Y92288D02*Y91146D01*
Y92288D02*X11620Y92479D01*
X12002D01*
X12192Y92288D01*
Y91146D01*
X12002Y90955D02*X12192Y91146D01*
X11620Y90955D02*X12002D01*
X11430Y91336D02*X12192Y92098D01*
X12649Y90955D02*X12840D01*
X13297Y91146D02*X13487Y90955D01*
X13297Y92288D02*Y91146D01*
Y92288D02*X13487Y92479D01*
X13868D01*
X14059Y92288D01*
Y91146D01*
X13868Y90955D02*X14059Y91146D01*
X13487Y90955D02*X13868D01*
X13297Y91336D02*X14059Y92098D01*
X14516Y92288D02*X14707Y92479D01*
X15278D01*
X15469Y92288D01*
Y91908D01*
X14516Y90955D02*X15469Y91908D01*
X14516Y90955D02*X15469D01*
X15926Y91146D02*X16116Y90955D01*
X15926Y92288D02*Y91146D01*
Y92288D02*X16116Y92479D01*
X16497D01*
X16688Y92288D01*
Y91146D01*
X16497Y90955D02*X16688Y91146D01*
X16116Y90955D02*X16497D01*
X15926Y91336D02*X16688Y92098D01*
X762Y96289D02*X952Y96098D01*
X190Y96289D02*X762D01*
X0Y96098D02*X190Y96289D01*
X0Y96098D02*Y95718D01*
X190Y95527D01*
X762D01*
X952Y95336D01*
Y94956D01*
X762Y94765D02*X952Y94956D01*
X190Y94765D02*X762D01*
X0Y94956D02*X190Y94765D01*
X1410Y95527D02*Y94956D01*
X1600Y94765D01*
X2172Y95527D02*Y94384D01*
X1981Y94194D02*X2172Y94384D01*
X1600Y94194D02*X1981D01*
X1410Y94384D02*X1600Y94194D01*
Y94765D02*X1981D01*
X2172Y94956D01*
X2819Y95336D02*Y94765D01*
Y95336D02*X3010Y95527D01*
X3200D01*
X3391Y95336D01*
Y94765D01*
Y95336D02*X3581Y95527D01*
X3772D01*
X3962Y95336D01*
Y94765D01*
X2629Y95527D02*X2819Y95336D01*
X4420Y96289D02*Y94765D01*
Y94956D02*X4610Y94765D01*
X4991D01*
X5182Y94956D01*
Y95336D02*Y94956D01*
X4991Y95527D02*X5182Y95336D01*
X4610Y95527D02*X4991D01*
X4420Y95336D02*X4610Y95527D01*
X5639Y95336D02*Y94956D01*
Y95336D02*X5829Y95527D01*
X6210D01*
X6401Y95336D01*
Y94956D01*
X6210Y94765D02*X6401Y94956D01*
X5829Y94765D02*X6210D01*
X5639Y94956D02*X5829Y94765D01*
X6858Y96289D02*Y94956D01*
X7049Y94765D01*
X0Y93939D02*X7430D01*
X10604Y96289D02*Y94765D01*
X11100Y96289D02*X11366Y96022D01*
Y95032D01*
X11100Y94765D02*X11366Y95032D01*
X10414Y94765D02*X11100D01*
X10414Y96289D02*X11100D01*
G54D111*X11824Y95908D02*Y95870D01*
G54D110*Y95336D02*Y94765D01*
X12776Y95527D02*X12967Y95336D01*
X12395Y95527D02*X12776D01*
X12205Y95336D02*X12395Y95527D01*
X12205Y95336D02*Y94956D01*
X12395Y94765D01*
X12967Y95527D02*Y94956D01*
X13157Y94765D01*
X12395D02*X12776D01*
X12967Y94956D01*
X13805Y95336D02*Y94765D01*
Y95336D02*X13995Y95527D01*
X14186D01*
X14376Y95336D01*
Y94765D01*
Y95336D02*X14567Y95527D01*
X14757D01*
X14948Y95336D01*
Y94765D01*
X13614Y95527D02*X13805Y95336D01*
X15405Y94765D02*X15596D01*
X16739Y94956D02*X16929Y94765D01*
X16739Y96098D02*X16929Y96289D01*
X16739Y96098D02*Y94956D01*
X17386Y96289D02*X17767D01*
X17577D02*Y94765D01*
X17386D02*X17767D01*
X18415Y95336D02*Y94765D01*
Y95336D02*X18606Y95527D01*
X18796D01*
X18987Y95336D01*
Y94765D01*
X18225Y95527D02*X18415Y95336D01*
X19634Y95527D02*X20206D01*
X19444Y95336D02*X19634Y95527D01*
X19444Y95336D02*Y94956D01*
X19634Y94765D01*
X20206D01*
X20663Y96289D02*Y94765D01*
Y95336D02*X20853Y95527D01*
X21234D01*
X21425Y95336D01*
Y94765D01*
X21882Y96289D02*X22073Y96098D01*
Y94956D01*
X21882Y94765D02*X22073Y94956D01*
X10414Y93939D02*X22530D01*
X24397Y94765D02*X24892D01*
X24130Y95032D02*X24397Y94765D01*
X24130Y96022D02*Y95032D01*
Y96022D02*X24397Y96289D01*
X24892D01*
X25349Y95336D02*Y94956D01*
Y95336D02*X25540Y95527D01*
X25921D01*
X26111Y95336D01*
Y94956D01*
X25921Y94765D02*X26111Y94956D01*
X25540Y94765D02*X25921D01*
X25349Y94956D02*X25540Y94765D01*
X26568Y95527D02*Y94956D01*
X26759Y94765D01*
X27140D01*
X27330Y94956D01*
Y95527D02*Y94956D01*
X27978Y95336D02*Y94765D01*
Y95336D02*X28169Y95527D01*
X28359D01*
X28550Y95336D01*
Y94765D01*
X27788Y95527D02*X27978Y95336D01*
X29197Y96289D02*Y94956D01*
X29388Y94765D01*
X29007Y95718D02*X29388D01*
X24130Y93939D02*X29769D01*
X33210Y96289D02*Y94765D01*
X33020Y96289D02*X33782D01*
X33972Y96098D01*
Y95718D01*
X33782Y95527D02*X33972Y95718D01*
X33210Y95527D02*X33782D01*
X34430Y96289D02*Y94956D01*
X34620Y94765D01*
X35573Y95527D02*X35763Y95336D01*
X35192Y95527D02*X35573D01*
X35001Y95336D02*X35192Y95527D01*
X35001Y95336D02*Y94956D01*
X35192Y94765D01*
X35763Y95527D02*Y94956D01*
X35954Y94765D01*
X35192D02*X35573D01*
X35763Y94956D01*
X36601Y96289D02*Y94956D01*
X36792Y94765D01*
X36411Y95718D02*X36792D01*
X37363Y94765D02*X37935D01*
X37173Y94956D02*X37363Y94765D01*
X37173Y95336D02*Y94956D01*
Y95336D02*X37363Y95527D01*
X37744D01*
X37935Y95336D01*
X37173Y95146D02*X37935D01*
Y95336D02*Y95146D01*
X39154Y96289D02*Y94765D01*
X38964D02*X39154Y94956D01*
X38583Y94765D02*X38964D01*
X38392Y94956D02*X38583Y94765D01*
X38392Y95336D02*Y94956D01*
Y95336D02*X38583Y95527D01*
X38964D01*
X39154Y95336D01*
X39992Y95527D02*Y95336D01*
Y94956D02*Y94765D01*
X39611Y96098D02*Y95908D01*
Y96098D02*X39802Y96289D01*
X40183D01*
X40373Y96098D01*
Y95908D01*
X39992Y95527D02*X40373Y95908D01*
X33020Y93939D02*X40831D01*
X0Y100099D02*X762D01*
X381D02*Y98575D01*
X1219Y100099D02*Y98575D01*
Y99146D02*X1410Y99337D01*
X1791D01*
X1981Y99146D01*
Y98575D01*
X2629D02*X3200D01*
X2438Y98766D02*X2629Y98575D01*
X2438Y99146D02*Y98766D01*
Y99146D02*X2629Y99337D01*
X3010D01*
X3200Y99146D01*
X2438Y98956D02*X3200D01*
Y99146D02*Y98956D01*
X3848Y99146D02*Y98575D01*
Y99146D02*X4039Y99337D01*
X4420D01*
X3658D02*X3848Y99146D01*
X5067Y98575D02*X5639D01*
X4877Y98766D02*X5067Y98575D01*
X4877Y99146D02*Y98766D01*
Y99146D02*X5067Y99337D01*
X5448D01*
X5639Y99146D01*
X4877Y98956D02*X5639D01*
Y99146D02*Y98956D01*
X7353Y99337D02*X7544Y99146D01*
X6972Y99337D02*X7353D01*
X6782Y99146D02*X6972Y99337D01*
X6782Y99146D02*Y98766D01*
X6972Y98575D01*
X7544Y99337D02*Y98766D01*
X7734Y98575D01*
X6972D02*X7353D01*
X7544Y98766D01*
X8382Y99146D02*Y98575D01*
Y99146D02*X8573Y99337D01*
X8954D01*
X8192D02*X8382Y99146D01*
X9601Y98575D02*X10173D01*
X9411Y98766D02*X9601Y98575D01*
X9411Y99146D02*Y98766D01*
Y99146D02*X9601Y99337D01*
X9982D01*
X10173Y99146D01*
X9411Y98956D02*X10173D01*
Y99146D02*Y98956D01*
X11887Y100099D02*X12078Y99908D01*
X11506Y100099D02*X11887D01*
X11316Y99908D02*X11506Y100099D01*
X11316Y99908D02*Y98766D01*
X11506Y98575D01*
X11887Y99413D02*X12078Y99223D01*
X11316Y99413D02*X11887D01*
X11506Y98575D02*X11887D01*
X12078Y98766D01*
Y99223D02*Y98766D01*
X13983Y100099D02*Y98575D01*
X13792D02*X13983Y98766D01*
X13411Y98575D02*X13792D01*
X13221Y98766D02*X13411Y98575D01*
X13221Y99146D02*Y98766D01*
Y99146D02*X13411Y99337D01*
X13792D01*
X13983Y99146D01*
G54D111*X14440Y99718D02*Y99680D01*
G54D110*Y99146D02*Y98575D01*
X15011Y99908D02*Y98575D01*
Y99908D02*X15202Y100099D01*
X15392D01*
X14821Y99337D02*X15202D01*
X15964Y99908D02*Y98575D01*
Y99908D02*X16154Y100099D01*
X16345D01*
X15773Y99337D02*X16154D01*
X16916Y98575D02*X17488D01*
X16726Y98766D02*X16916Y98575D01*
X16726Y99146D02*Y98766D01*
Y99146D02*X16916Y99337D01*
X17297D01*
X17488Y99146D01*
X16726Y98956D02*X17488D01*
Y99146D02*Y98956D01*
X18136Y99146D02*Y98575D01*
Y99146D02*X18326Y99337D01*
X18707D01*
X17945D02*X18136Y99146D01*
X19355Y98575D02*X19926D01*
X19164Y98766D02*X19355Y98575D01*
X19164Y99146D02*Y98766D01*
Y99146D02*X19355Y99337D01*
X19736D01*
X19926Y99146D01*
X19164Y98956D02*X19926D01*
Y99146D02*Y98956D01*
X20574Y99146D02*Y98575D01*
Y99146D02*X20765Y99337D01*
X20955D01*
X21146Y99146D01*
Y98575D01*
X20384Y99337D02*X20574Y99146D01*
X21793Y100099D02*Y98766D01*
X21984Y98575D01*
X21603Y99528D02*X21984D01*
X23813Y100099D02*Y98575D01*
X23622D02*X23813Y98766D01*
X23241Y98575D02*X23622D01*
X23051Y98766D02*X23241Y98575D01*
X23051Y99146D02*Y98766D01*
Y99146D02*X23241Y99337D01*
X23622D01*
X23813Y99146D01*
X24460D02*Y98575D01*
Y99146D02*X24651Y99337D01*
X25032D01*
X24270D02*X24460Y99146D01*
G54D111*X25489Y99718D02*Y99680D01*
G54D110*Y99146D02*Y98575D01*
X25870Y100099D02*Y98766D01*
X26060Y98575D01*
X26441Y100099D02*Y98766D01*
X26632Y98575D01*
X27889D02*X28461D01*
X28651Y98766D01*
X28461Y98956D02*X28651Y98766D01*
X27889Y98956D02*X28461D01*
X27699Y99146D02*X27889Y98956D01*
X27699Y99146D02*X27889Y99337D01*
X28461D01*
X28651Y99146D01*
X27699Y98766D02*X27889Y98575D01*
G54D111*X29108Y99718D02*Y99680D01*
G54D110*Y99146D02*Y98575D01*
X29489Y99337D02*X30251D01*
X29489Y98575D02*X30251Y99337D01*
X29489Y98575D02*X30251D01*
X30899D02*X31471D01*
X30709Y98766D02*X30899Y98575D01*
X30709Y99146D02*Y98766D01*
Y99146D02*X30899Y99337D01*
X31280D01*
X31471Y99146D01*
X30709Y98956D02*X31471D01*
Y99146D02*Y98956D01*
X32118Y98575D02*X32690D01*
X32880Y98766D01*
X32690Y98956D02*X32880Y98766D01*
X32118Y98956D02*X32690D01*
X31928Y99146D02*X32118Y98956D01*
X31928Y99146D02*X32118Y99337D01*
X32690D01*
X32880Y99146D01*
X31928Y98766D02*X32118Y98575D01*
X34023Y99337D02*Y98766D01*
X34214Y98575D01*
X34595D01*
X34785Y98766D01*
Y99337D02*Y98766D01*
X35433Y98575D02*X36005D01*
X36195Y98766D01*
X36005Y98956D02*X36195Y98766D01*
X35433Y98956D02*X36005D01*
X35243Y99146D02*X35433Y98956D01*
X35243Y99146D02*X35433Y99337D01*
X36005D01*
X36195Y99146D01*
X35243Y98766D02*X35433Y98575D01*
X36843D02*X37414D01*
X36652Y98766D02*X36843Y98575D01*
X36652Y99146D02*Y98766D01*
Y99146D02*X36843Y99337D01*
X37224D01*
X37414Y99146D01*
X36652Y98956D02*X37414D01*
Y99146D02*Y98956D01*
X38633Y100099D02*Y98575D01*
X38443D02*X38633Y98766D01*
X38062Y98575D02*X38443D01*
X37871Y98766D02*X38062Y98575D01*
X37871Y99146D02*Y98766D01*
Y99146D02*X38062Y99337D01*
X38443D01*
X38633Y99146D01*
G54D111*X39776Y99718D02*Y99680D01*
G54D110*Y99146D02*Y98575D01*
X40348Y99146D02*Y98575D01*
Y99146D02*X40538Y99337D01*
X40729D01*
X40919Y99146D01*
Y98575D01*
X40157Y99337D02*X40348Y99146D01*
X42253Y100099D02*Y98766D01*
X42443Y98575D01*
X42062Y99528D02*X42443D01*
X42824Y100099D02*Y98575D01*
Y99146D02*X43015Y99337D01*
X43396D01*
X43586Y99146D01*
Y98575D01*
G54D111*X44044Y99718D02*Y99680D01*
G54D110*Y99146D02*Y98575D01*
X44615D02*X45187D01*
X45377Y98766D01*
X45187Y98956D02*X45377Y98766D01*
X44615Y98956D02*X45187D01*
X44425Y99146D02*X44615Y98956D01*
X44425Y99146D02*X44615Y99337D01*
X45187D01*
X45377Y99146D01*
X44425Y98766D02*X44615Y98575D01*
X46520Y100099D02*Y98766D01*
X46711Y98575D01*
X47663Y99337D02*X47854Y99146D01*
X47282Y99337D02*X47663D01*
X47092Y99146D02*X47282Y99337D01*
X47092Y99146D02*Y98766D01*
X47282Y98575D01*
X47854Y99337D02*Y98766D01*
X48044Y98575D01*
X47282D02*X47663D01*
X47854Y98766D01*
X48501Y99337D02*Y98766D01*
X48692Y98575D01*
X49263Y99337D02*Y98194D01*
X49073Y98004D02*X49263Y98194D01*
X48692Y98004D02*X49073D01*
X48501Y98194D02*X48692Y98004D01*
Y98575D02*X49073D01*
X49263Y98766D01*
X49721Y99146D02*Y98766D01*
Y99146D02*X49911Y99337D01*
X50292D01*
X50483Y99146D01*
Y98766D01*
X50292Y98575D02*X50483Y98766D01*
X49911Y98575D02*X50292D01*
X49721Y98766D02*X49911Y98575D01*
X50940Y99337D02*Y98766D01*
X51130Y98575D01*
X51511D01*
X51702Y98766D01*
Y99337D02*Y98766D01*
X52349Y100099D02*Y98766D01*
X52540Y98575D01*
X52159Y99528D02*X52540D01*
X52921Y98194D02*X53302Y98575D01*
X54445Y99794D02*X54750Y100099D01*
Y98575D01*
X54445D02*X55016D01*
X55474Y98766D02*X55664Y98575D01*
X55474Y99908D02*Y98766D01*
Y99908D02*X55664Y100099D01*
X56045D01*
X56236Y99908D01*
Y98766D01*
X56045Y98575D02*X56236Y98766D01*
X55664Y98575D02*X56045D01*
X55474Y98956D02*X56236Y99718D01*
X57264Y100099D02*X57455Y99908D01*
X56883Y100099D02*X57264D01*
X56693Y99908D02*X56883Y100099D01*
X56693Y99908D02*Y98766D01*
X56883Y98575D01*
X57264Y99413D02*X57455Y99223D01*
X56693Y99413D02*X57264D01*
X56883Y98575D02*X57264D01*
X57455Y98766D01*
Y99223D02*Y98766D01*
X58598Y100099D02*Y98575D01*
Y99146D02*X58788Y99337D01*
X59169D01*
X59360Y99146D01*
Y98575D01*
X59817Y99146D02*Y98766D01*
Y99146D02*X60008Y99337D01*
X60389D01*
X60579Y99146D01*
Y98766D01*
X60389Y98575D02*X60579Y98766D01*
X60008Y98575D02*X60389D01*
X59817Y98766D02*X60008Y98575D01*
X61036Y100099D02*Y98766D01*
X61227Y98575D01*
X61798D02*X62370D01*
X61608Y98766D02*X61798Y98575D01*
X61608Y99146D02*Y98766D01*
Y99146D02*X61798Y99337D01*
X62179D01*
X62370Y99146D01*
X61608Y98956D02*X62370D01*
Y99146D02*Y98956D01*
X63017Y98575D02*X63589D01*
X63779Y98766D01*
X63589Y98956D02*X63779Y98766D01*
X63017Y98956D02*X63589D01*
X62827Y99146D02*X63017Y98956D01*
X62827Y99146D02*X63017Y99337D01*
X63589D01*
X63779Y99146D01*
X62827Y98766D02*X63017Y98575D01*
X65113Y100099D02*Y98766D01*
X65303Y98575D01*
X64922Y99528D02*X65303D01*
X65684Y99146D02*Y98766D01*
Y99146D02*X65875Y99337D01*
X66256D01*
X66446Y99146D01*
Y98766D01*
X66256Y98575D02*X66446Y98766D01*
X65875Y98575D02*X66256D01*
X65684Y98766D02*X65875Y98575D01*
X67094Y100099D02*Y98766D01*
X67285Y98575D01*
X66904Y99528D02*X67285D01*
X68237Y99337D02*X68428Y99146D01*
X67856Y99337D02*X68237D01*
X67666Y99146D02*X67856Y99337D01*
X67666Y99146D02*Y98766D01*
X67856Y98575D01*
X68428Y99337D02*Y98766D01*
X68618Y98575D01*
X67856D02*X68237D01*
X68428Y98766D01*
X69075Y100099D02*Y98766D01*
X69266Y98575D01*
G54D108*X8509Y7389D02*Y61491D01*
Y7389D02*X63246D01*
Y61491D02*Y7389D01*
X8509Y61491D02*X63246D01*
X8509Y65174D02*Y61999D01*
X9398Y64920D02*X8636Y64539D01*
X9398Y64158D01*
X8636Y64539D02*X62992D01*
X63246Y65174D02*Y61999D01*
X62484Y64920D02*X63119Y64539D01*
X62484Y64158D01*
X4826Y7389D02*X8001D01*
X5080Y8278D02*X5461Y7516D01*
X5842Y8278D01*
X8001Y61491D02*X4826D01*
X5080Y60729D02*X5461Y61364D01*
X5842Y60729D01*
X5461Y61237D02*Y7516D01*
G54D112*X3762Y31549D02*Y30884D01*
X4427D01*
X4261Y31050D01*
Y31383D02*Y31050D01*
Y31383D02*X4427Y31549D01*
X4926D01*
X5093Y31383D02*X4926Y31549D01*
X5093Y31383D02*Y31050D01*
X4926Y30884D02*X5093Y31050D01*
X4594Y31949D02*X3762Y32614D01*
X4594Y32781D02*Y31949D01*
X3762Y32614D02*X5093D01*
Y33346D02*Y33180D01*
X4028Y33746D02*X3762Y34012D01*
X5093D01*
Y34245D02*Y33746D01*
X4594Y35409D02*X5093D01*
X4594D02*X4427Y35576D01*
Y35742D02*Y35576D01*
Y35742D02*X4594Y35908D01*
X5093D01*
X4594D02*X4427Y36075D01*
Y36241D02*Y36075D01*
Y36241D02*X4594Y36407D01*
X5093D01*
X4427Y35243D02*X4594Y35409D01*
Y36973D02*X5093D01*
X4594D02*X4427Y37140D01*
Y37306D02*Y37140D01*
Y37306D02*X4594Y37472D01*
X5093D01*
X4594D02*X4427Y37639D01*
Y37805D02*Y37639D01*
Y37805D02*X4594Y37971D01*
X5093D01*
X4427Y36807D02*X4594Y36973D01*
X30861Y66238D02*X31526D01*
X30861D02*Y65573D01*
X31027Y65739D01*
X31360D01*
X31526Y65573D01*
Y65074D01*
X31360Y64907D02*X31526Y65074D01*
X31027Y64907D02*X31360D01*
X30861Y65074D02*X31027Y64907D01*
X31926Y65406D02*X32591Y66238D01*
X31926Y65406D02*X32758D01*
X32591Y66238D02*Y64907D01*
X33157D02*X33323D01*
X33889D02*X34554Y66238D01*
X33723D02*X34554D01*
X34954Y65406D02*X35619Y66238D01*
X34954Y65406D02*X35786D01*
X35619Y66238D02*Y64907D01*
X36950Y65406D02*Y64907D01*
Y65406D02*X37117Y65573D01*
X37283D01*
X37449Y65406D01*
Y64907D01*
Y65406D02*X37616Y65573D01*
X37782D01*
X37948Y65406D01*
Y64907D01*
X36784Y65573D02*X36950Y65406D01*
X38514D02*Y64907D01*
Y65406D02*X38680Y65573D01*
X38847D01*
X39013Y65406D01*
Y64907D01*
Y65406D02*X39180Y65573D01*
X39346D01*
X39512Y65406D01*
Y64907D01*
X38348Y65573D02*X38514Y65406D01*
G54D110*X13073Y-2413D02*X13835D01*
X14026Y-2222D01*
Y-1765D02*Y-2222D01*
X13835Y-1575D02*X14026Y-1765D01*
X13264Y-1575D02*X13835D01*
X13264Y-889D02*Y-2413D01*
X13073Y-889D02*X13835D01*
X14026Y-1080D01*
Y-1384D01*
X13835Y-1575D02*X14026Y-1384D01*
X14483Y-1842D02*Y-2222D01*
Y-1842D02*X14674Y-1651D01*
X15055D01*
X15245Y-1842D01*
Y-2222D01*
X15055Y-2413D02*X15245Y-2222D01*
X14674Y-2413D02*X15055D01*
X14483Y-2222D02*X14674Y-2413D01*
X16274Y-1651D02*X16464Y-1842D01*
X15893Y-1651D02*X16274D01*
X15702Y-1842D02*X15893Y-1651D01*
X15702Y-1842D02*Y-2222D01*
X15893Y-2413D01*
X16464Y-1651D02*Y-2222D01*
X16655Y-2413D01*
X15893D02*X16274D01*
X16464Y-2222D01*
X17303Y-1842D02*Y-2413D01*
Y-1842D02*X17493Y-1651D01*
X17874D01*
X17112D02*X17303Y-1842D01*
X19093Y-889D02*Y-2413D01*
X18903D02*X19093Y-2222D01*
X18522Y-2413D02*X18903D01*
X18331Y-2222D02*X18522Y-2413D01*
X18331Y-1842D02*Y-2222D01*
Y-1842D02*X18522Y-1651D01*
X18903D01*
X19093Y-1842D01*
X20236D02*Y-2222D01*
Y-1842D02*X20427Y-1651D01*
X20808D01*
X20998Y-1842D01*
Y-2222D01*
X20808Y-2413D02*X20998Y-2222D01*
X20427Y-2413D02*X20808D01*
X20236Y-2222D02*X20427Y-2413D01*
X21455Y-1651D02*Y-2222D01*
X21646Y-2413D01*
X22027D01*
X22217Y-2222D01*
Y-1651D02*Y-2222D01*
X22865Y-889D02*Y-2222D01*
X23056Y-2413D01*
X22675Y-1460D02*X23056D01*
X23437Y-889D02*Y-2222D01*
X23627Y-2413D01*
G54D111*X24008Y-1270D02*Y-1308D01*
G54D110*Y-1842D02*Y-2413D01*
X24580Y-1842D02*Y-2413D01*
Y-1842D02*X24770Y-1651D01*
X24961D01*
X25151Y-1842D01*
Y-2413D01*
X24389Y-1651D02*X24580Y-1842D01*
X25799Y-2413D02*X26370D01*
X25608Y-2222D02*X25799Y-2413D01*
X25608Y-1842D02*Y-2222D01*
Y-1842D02*X25799Y-1651D01*
X26180D01*
X26370Y-1842D01*
X25608Y-2032D02*X26370D01*
Y-1842D02*Y-2032D01*
G54D111*X27513Y-1270D02*Y-1308D01*
G54D110*Y-1842D02*Y-2413D01*
X28085D02*X28656D01*
X28847Y-2222D01*
X28656Y-2032D02*X28847Y-2222D01*
X28085Y-2032D02*X28656D01*
X27894Y-1842D02*X28085Y-2032D01*
X27894Y-1842D02*X28085Y-1651D01*
X28656D01*
X28847Y-1842D01*
X27894Y-2222D02*X28085Y-2413D01*
X30180Y-889D02*Y-2222D01*
X30371Y-2413D01*
X29990Y-1460D02*X30371D01*
X30752Y-889D02*Y-2413D01*
Y-1842D02*X30942Y-1651D01*
X31323D01*
X31514Y-1842D01*
Y-2413D01*
X32162D02*X32733D01*
X31971Y-2222D02*X32162Y-2413D01*
X31971Y-1842D02*Y-2222D01*
Y-1842D02*X32162Y-1651D01*
X32543D01*
X32733Y-1842D01*
X31971Y-2032D02*X32733D01*
Y-1842D02*Y-2032D01*
X34067Y-1651D02*X34638D01*
X33876Y-1842D02*X34067Y-1651D01*
X33876Y-1842D02*Y-2222D01*
X34067Y-2413D01*
X34638D01*
X35286D02*X35857D01*
X35095Y-2222D02*X35286Y-2413D01*
X35095Y-1842D02*Y-2222D01*
Y-1842D02*X35286Y-1651D01*
X35667D01*
X35857Y-1842D01*
X35095Y-2032D02*X35857D01*
Y-1842D02*Y-2032D01*
X36505Y-1842D02*Y-2413D01*
Y-1842D02*X36695Y-1651D01*
X36886D01*
X37076Y-1842D01*
Y-2413D01*
X36314Y-1651D02*X36505Y-1842D01*
X37724Y-889D02*Y-2222D01*
X37915Y-2413D01*
X37534Y-1460D02*X37915D01*
X38486Y-2413D02*X39058D01*
X38296Y-2222D02*X38486Y-2413D01*
X38296Y-1842D02*Y-2222D01*
Y-1842D02*X38486Y-1651D01*
X38867D01*
X39058Y-1842D01*
X38296Y-2032D02*X39058D01*
Y-1842D02*Y-2032D01*
X39705Y-1842D02*Y-2413D01*
Y-1842D02*X39896Y-1651D01*
X40277D01*
X39515D02*X39705Y-1842D01*
X40734Y-889D02*Y-2222D01*
X40925Y-2413D01*
G54D111*X41306Y-1270D02*Y-1308D01*
G54D110*Y-1842D02*Y-2413D01*
X41877Y-1842D02*Y-2413D01*
Y-1842D02*X42068Y-1651D01*
X42258D01*
X42449Y-1842D01*
Y-2413D01*
X41687Y-1651D02*X41877Y-1842D01*
X43096Y-2413D02*X43668D01*
X42906Y-2222D02*X43096Y-2413D01*
X42906Y-1842D02*Y-2222D01*
Y-1842D02*X43096Y-1651D01*
X43477D01*
X43668Y-1842D01*
X42906Y-2032D02*X43668D01*
Y-1842D02*Y-2032D01*
X44811Y-1842D02*Y-2222D01*
Y-1842D02*X45001Y-1651D01*
X45382D01*
X45573Y-1842D01*
Y-2222D01*
X45382Y-2413D02*X45573Y-2222D01*
X45001Y-2413D02*X45382D01*
X44811Y-2222D02*X45001Y-2413D01*
X46220Y-1080D02*Y-2413D01*
Y-1080D02*X46411Y-889D01*
X46601D01*
X46030Y-1651D02*X46411D01*
X47859Y-889D02*Y-2222D01*
X48049Y-2413D01*
X47668Y-1460D02*X48049D01*
X48430Y-889D02*Y-2413D01*
Y-1842D02*X48621Y-1651D01*
X49002D01*
X49192Y-1842D01*
Y-2413D01*
G54D111*X49649Y-1270D02*Y-1308D01*
G54D110*Y-1842D02*Y-2413D01*
X50221D02*X50792D01*
X50983Y-2222D01*
X50792Y-2032D02*X50983Y-2222D01*
X50221Y-2032D02*X50792D01*
X50030Y-1842D02*X50221Y-2032D01*
X50030Y-1842D02*X50221Y-1651D01*
X50792D01*
X50983Y-1842D01*
X50030Y-2222D02*X50221Y-2413D01*
X52316Y-1842D02*Y-2984D01*
X52126Y-1651D02*X52316Y-1842D01*
X52507Y-1651D01*
X52888D01*
X53078Y-1842D01*
Y-2222D01*
X52888Y-2413D02*X53078Y-2222D01*
X52507Y-2413D02*X52888D01*
X52316Y-2222D02*X52507Y-2413D01*
X54107Y-1651D02*X54298Y-1842D01*
X53726Y-1651D02*X54107D01*
X53536Y-1842D02*X53726Y-1651D01*
X53536Y-1842D02*Y-2222D01*
X53726Y-2413D01*
X54298Y-1651D02*Y-2222D01*
X54488Y-2413D01*
X53726D02*X54107D01*
X54298Y-2222D01*
X55136Y-889D02*Y-2222D01*
X55326Y-2413D01*
X54945Y-1460D02*X55326D01*
X55707Y-889D02*Y-2413D01*
Y-1842D02*X55898Y-1651D01*
X56279D01*
X56469Y-1842D01*
Y-2413D01*
X50990Y77239D02*Y75715D01*
X51486Y77239D02*X51752Y76972D01*
Y75982D01*
X51486Y75715D02*X51752Y75982D01*
X50800Y75715D02*X51486D01*
X50800Y77239D02*X51486D01*
X52781Y76477D02*X52972Y76286D01*
X52400Y76477D02*X52781D01*
X52210Y76286D02*X52400Y76477D01*
X52210Y76286D02*Y75906D01*
X52400Y75715D01*
X52972Y76477D02*Y75906D01*
X53162Y75715D01*
X52400D02*X52781D01*
X52972Y75906D01*
X53810Y77239D02*Y75906D01*
X54000Y75715D01*
X53619Y76668D02*X54000D01*
X54572Y75715D02*X55143D01*
X54381Y75906D02*X54572Y75715D01*
X54381Y76286D02*Y75906D01*
Y76286D02*X54572Y76477D01*
X54953D01*
X55143Y76286D01*
X54381Y76096D02*X55143D01*
Y76286D02*Y76096D01*
X55601Y76668D02*X55791D01*
X55601Y76286D02*X55791D01*
X57696Y77239D02*X57887Y77048D01*
X57125Y77239D02*X57696D01*
X56934Y77048D02*X57125Y77239D01*
X56934Y77048D02*Y76668D01*
X57125Y76477D01*
X57696D01*
X57887Y76286D01*
Y75906D01*
X57696Y75715D02*X57887Y75906D01*
X57125Y75715D02*X57696D01*
X56934Y75906D02*X57125Y75715D01*
X58344Y76477D02*Y75906D01*
X58534Y75715D01*
X58915D01*
X59106Y75906D01*
Y76477D02*Y75906D01*
X59754Y76286D02*Y75715D01*
Y76286D02*X59944Y76477D01*
X60135D01*
X60325Y76286D01*
Y75715D01*
X59563Y76477D02*X59754Y76286D01*
X61468Y76934D02*X61773Y77239D01*
Y75715D01*
X61468D02*X62040D01*
X62497Y75906D02*X62687Y75715D01*
X62497Y77048D02*Y75906D01*
Y77048D02*X62687Y77239D01*
X63068D01*
X63259Y77048D01*
Y75906D01*
X63068Y75715D02*X63259Y75906D01*
X62687Y75715D02*X63068D01*
X62497Y76096D02*X63259Y76858D01*
X64402Y77239D02*Y75715D01*
Y77239D02*X65354Y75715D01*
Y77239D02*Y75715D01*
X65811Y76286D02*Y75906D01*
Y76286D02*X66002Y76477D01*
X66383D01*
X66573Y76286D01*
Y75906D01*
X66383Y75715D02*X66573Y75906D01*
X66002Y75715D02*X66383D01*
X65811Y75906D02*X66002Y75715D01*
X67031Y76477D02*X67412Y75715D01*
X67793Y76477D02*X67412Y75715D01*
X68936Y77048D02*X69126Y77239D01*
X69698D01*
X69888Y77048D01*
Y76668D01*
X68936Y75715D02*X69888Y76668D01*
X68936Y75715D02*X69888D01*
X70345Y75906D02*X70536Y75715D01*
X70345Y77048D02*Y75906D01*
Y77048D02*X70536Y77239D01*
X70917D01*
X71107Y77048D01*
Y75906D01*
X70917Y75715D02*X71107Y75906D01*
X70536Y75715D02*X70917D01*
X70345Y76096D02*X71107Y76858D01*
X71565Y76934D02*X71869Y77239D01*
Y75715D01*
X71565D02*X72136D01*
X72784D02*X73355Y76477D01*
Y77048D02*Y76477D01*
X73165Y77239D02*X73355Y77048D01*
X72784Y77239D02*X73165D01*
X72593Y77048D02*X72784Y77239D01*
X72593Y77048D02*Y76668D01*
X72784Y76477D01*
X73355D01*
X74498Y75906D02*X74689Y75715D01*
X74498Y77048D02*Y75906D01*
Y77048D02*X74689Y77239D01*
X75070D01*
X75260Y77048D01*
Y75906D01*
X75070Y75715D02*X75260Y75906D01*
X74689Y75715D02*X75070D01*
X74498Y76096D02*X75260Y76858D01*
X75717Y77048D02*X75908Y77239D01*
X76479D01*
X76670Y77048D01*
Y76668D01*
X75717Y75715D02*X76670Y76668D01*
X75717Y75715D02*X76670D01*
X77127Y76668D02*X77318D01*
X77127Y76286D02*X77318D01*
X77775Y77239D02*X78537D01*
X77775D02*Y76477D01*
X77965Y76668D01*
X78346D01*
X78537Y76477D01*
Y75906D01*
X78346Y75715D02*X78537Y75906D01*
X77965Y75715D02*X78346D01*
X77775Y75906D02*X77965Y75715D01*
X78994Y75906D02*X79185Y75715D01*
X78994Y77048D02*Y75906D01*
Y77048D02*X79185Y77239D01*
X79566D01*
X79756Y77048D01*
Y75906D01*
X79566Y75715D02*X79756Y75906D01*
X79185Y75715D02*X79566D01*
X78994Y76096D02*X79756Y76858D01*
X80213Y76668D02*X80404D01*
X80213Y76286D02*X80404D01*
X80861Y75906D02*X81051Y75715D01*
X80861Y77048D02*Y75906D01*
Y77048D02*X81051Y77239D01*
X81432D01*
X81623Y77048D01*
Y75906D01*
X81432Y75715D02*X81623Y75906D01*
X81051Y75715D02*X81432D01*
X80861Y76096D02*X81623Y76858D01*
X82080Y76286D02*X82842Y77239D01*
X82080Y76286D02*X83033D01*
X82842Y77239D02*Y75715D01*
X84366Y77239D02*Y75715D01*
X84176Y77239D02*X84938D01*
X85128Y77048D01*
Y76668D01*
X84938Y76477D02*X85128Y76668D01*
X84366Y76477D02*X84938D01*
X85585Y77239D02*Y75715D01*
Y77239D02*X86157Y76477D01*
X86728Y77239D01*
Y75715D01*
X88633Y77239D02*X88824Y77048D01*
X88062Y77239D02*X88633D01*
X87871Y77048D02*X88062Y77239D01*
X87871Y77048D02*Y75906D01*
X88062Y75715D01*
X88633D01*
X88824Y75906D01*
Y76286D02*Y75906D01*
X88633Y76477D02*X88824Y76286D01*
X88252Y76477D02*X88633D01*
X89281Y77239D02*Y75715D01*
Y77239D02*X89853Y76477D01*
X90424Y77239D01*
Y75715D01*
X90881Y77239D02*X91643D01*
X91262D02*Y75715D01*
X92786Y77239D02*Y75906D01*
X92977Y75715D01*
X93358D01*
X93548Y75906D01*
Y77239D02*Y75906D01*
X94005Y77239D02*X94767D01*
X94386D02*Y75715D01*
X95491D02*X95987D01*
X95225Y75982D02*X95491Y75715D01*
X95225Y76972D02*Y75982D01*
Y76972D02*X95491Y77239D01*
X95987D01*
X50800Y80668D02*Y79525D01*
Y80668D02*X51067Y81049D01*
X51486D01*
X51752Y80668D01*
Y79525D01*
X50800Y80287D02*X51752D01*
X52210D02*Y79716D01*
X52400Y79525D01*
X52781D01*
X52972Y79716D01*
Y80287D02*Y79716D01*
X53619Y81049D02*Y79716D01*
X53810Y79525D01*
X53429Y80478D02*X53810D01*
X54191Y81049D02*Y79525D01*
Y80096D02*X54381Y80287D01*
X54762D01*
X54953Y80096D01*
Y79525D01*
X55410Y80096D02*Y79716D01*
Y80096D02*X55601Y80287D01*
X55982D01*
X56172Y80096D01*
Y79716D01*
X55982Y79525D02*X56172Y79716D01*
X55601Y79525D02*X55982D01*
X55410Y79716D02*X55601Y79525D01*
X56820Y80096D02*Y79525D01*
Y80096D02*X57010Y80287D01*
X57391D01*
X56629D02*X56820Y80096D01*
X57849Y80478D02*X58039D01*
X57849Y80096D02*X58039D01*
X59182Y81049D02*Y79525D01*
Y81049D02*X59754Y80287D01*
X60325Y81049D01*
Y79525D01*
G54D111*X60782Y80668D02*Y80630D01*
G54D110*Y80096D02*Y79525D01*
X61354Y80096D02*Y79525D01*
Y80096D02*X61544Y80287D01*
X61925D01*
X61163D02*X61354Y80096D01*
X62382D02*Y79716D01*
Y80096D02*X62573Y80287D01*
X62954D01*
X63144Y80096D01*
Y79716D01*
X62954Y79525D02*X63144Y79716D01*
X62573Y79525D02*X62954D01*
X62382Y79716D02*X62573Y79525D01*
X63792D02*X64364D01*
X64554Y79716D01*
X64364Y79906D02*X64554Y79716D01*
X63792Y79906D02*X64364D01*
X63602Y80096D02*X63792Y79906D01*
X63602Y80096D02*X63792Y80287D01*
X64364D01*
X64554Y80096D01*
X63602Y79716D02*X63792Y79525D01*
X65011Y81049D02*Y79716D01*
X65202Y79525D01*
X66154Y80287D02*X66345Y80096D01*
X65773Y80287D02*X66154D01*
X65583Y80096D02*X65773Y80287D01*
X65583Y80096D02*Y79716D01*
X65773Y79525D01*
X66345Y80287D02*Y79716D01*
X66535Y79525D01*
X65773D02*X66154D01*
X66345Y79716D01*
X66993Y80287D02*X67374Y79525D01*
X67755Y80287D02*X67374Y79525D01*
X69660Y81049D02*X69850Y80858D01*
X69088Y81049D02*X69660D01*
X68898Y80858D02*X69088Y81049D01*
X68898Y80858D02*Y80478D01*
X69088Y80287D01*
X69660D01*
X69850Y80096D01*
Y79716D01*
X69660Y79525D02*X69850Y79716D01*
X69088Y79525D02*X69660D01*
X68898Y79716D02*X69088Y79525D01*
X70307Y81049D02*Y79716D01*
X70498Y79525D01*
X71450Y80287D02*X71641Y80096D01*
X71069Y80287D02*X71450D01*
X70879Y80096D02*X71069Y80287D01*
X70879Y80096D02*Y79716D01*
X71069Y79525D01*
X71641Y80287D02*Y79716D01*
X71831Y79525D01*
X71069D02*X71450D01*
X71641Y79716D01*
X73050Y81049D02*Y79525D01*
X72860D02*X73050Y79716D01*
X72479Y79525D02*X72860D01*
X72288Y79716D02*X72479Y79525D01*
X72288Y80096D02*Y79716D01*
Y80096D02*X72479Y80287D01*
X72860D01*
X73050Y80096D01*
X73698Y79525D02*X74270D01*
X73508Y79716D02*X73698Y79525D01*
X73508Y80096D02*Y79716D01*
Y80096D02*X73698Y80287D01*
X74079D01*
X74270Y80096D01*
X73508Y79906D02*X74270D01*
Y80096D02*Y79906D01*
X74727Y81049D02*Y79525D01*
Y80096D02*X75298Y79525D01*
X74727Y80096D02*X75108Y80478D01*
X50800Y84859D02*X51562D01*
X51181D02*Y83335D01*
G54D111*X52019Y84478D02*Y84440D01*
G54D110*Y83906D02*Y83335D01*
X52591Y84859D02*Y83526D01*
X52781Y83335D01*
X52400Y84288D02*X52781D01*
X53162Y84859D02*Y83526D01*
X53353Y83335D01*
X53924D02*X54496D01*
X53734Y83526D02*X53924Y83335D01*
X53734Y83906D02*Y83526D01*
Y83906D02*X53924Y84097D01*
X54305D01*
X54496Y83906D01*
X53734Y83716D02*X54496D01*
Y83906D02*Y83716D01*
X54953Y84288D02*X55143D01*
X54953Y83906D02*X55143D01*
X56286Y83526D02*X56477Y83335D01*
X56286Y84668D02*X56477Y84859D01*
X56286Y84668D02*Y83526D01*
X56934Y84097D02*Y83526D01*
X57125Y83335D01*
X57506D01*
X57696Y83526D01*
Y84097D02*Y83526D01*
X58344Y83906D02*Y83335D01*
Y83906D02*X58534Y84097D01*
X58725D01*
X58915Y83906D01*
Y83335D01*
X58153Y84097D02*X58344Y83906D01*
X59373Y84859D02*Y83335D01*
Y83906D02*X59944Y83335D01*
X59373Y83906D02*X59754Y84288D01*
X60592Y83906D02*Y83335D01*
Y83906D02*X60782Y84097D01*
X60973D01*
X61163Y83906D01*
Y83335D01*
X60401Y84097D02*X60592Y83906D01*
X61620D02*Y83526D01*
Y83906D02*X61811Y84097D01*
X62192D01*
X62382Y83906D01*
Y83526D01*
X62192Y83335D02*X62382Y83526D01*
X61811Y83335D02*X62192D01*
X61620Y83526D02*X61811Y83335D01*
X62840Y84097D02*Y83526D01*
X63030Y83335D01*
X63221D01*
X63411Y83526D01*
Y84097D02*Y83526D01*
X63602Y83335D01*
X63792D01*
X63983Y83526D01*
Y84097D02*Y83526D01*
X64630Y83906D02*Y83335D01*
Y83906D02*X64821Y84097D01*
X65011D01*
X65202Y83906D01*
Y83335D01*
X64440Y84097D02*X64630Y83906D01*
X65659Y84859D02*X65850Y84668D01*
Y83526D01*
X65659Y83335D02*X65850Y83526D01*
X66993Y84097D02*X67755D01*
X68898Y84859D02*Y83335D01*
Y84859D02*X69660D01*
X68898Y84173D02*X69469D01*
X70688Y84097D02*X70879Y83906D01*
X70307Y84097D02*X70688D01*
X70117Y83906D02*X70307Y84097D01*
X70117Y83906D02*Y83526D01*
X70307Y83335D01*
X70879Y84097D02*Y83526D01*
X71069Y83335D01*
X70307D02*X70688D01*
X70879Y83526D01*
X71526Y84859D02*Y83335D01*
Y83526D02*X71717Y83335D01*
X72098D01*
X72288Y83526D01*
Y83906D02*Y83526D01*
X72098Y84097D02*X72288Y83906D01*
X71717Y84097D02*X72098D01*
X71526Y83906D02*X71717Y84097D01*
X72936Y83906D02*Y83335D01*
Y83906D02*X73127Y84097D01*
X73508D01*
X72746D02*X72936Y83906D01*
G54D111*X73965Y84478D02*Y84440D01*
G54D110*Y83906D02*Y83335D01*
X74536Y84097D02*X75108D01*
X74346Y83906D02*X74536Y84097D01*
X74346Y83906D02*Y83526D01*
X74536Y83335D01*
X75108D01*
X76137Y84097D02*X76327Y83906D01*
X75756Y84097D02*X76137D01*
X75565Y83906D02*X75756Y84097D01*
X75565Y83906D02*Y83526D01*
X75756Y83335D01*
X76327Y84097D02*Y83526D01*
X76518Y83335D01*
X75756D02*X76137D01*
X76327Y83526D01*
X77165Y84859D02*Y83526D01*
X77356Y83335D01*
X76975Y84288D02*X77356D01*
G54D111*X77737Y84478D02*Y84440D01*
G54D110*Y83906D02*Y83335D01*
X78118Y83906D02*Y83526D01*
Y83906D02*X78308Y84097D01*
X78689D01*
X78880Y83906D01*
Y83526D01*
X78689Y83335D02*X78880Y83526D01*
X78308Y83335D02*X78689D01*
X78118Y83526D02*X78308Y83335D01*
X79527Y83906D02*Y83335D01*
Y83906D02*X79718Y84097D01*
X79908D01*
X80099Y83906D01*
Y83335D01*
X79337Y84097D02*X79527Y83906D01*
X81432Y84859D02*Y83335D01*
X81928Y84859D02*X82194Y84592D01*
Y83602D01*
X81928Y83335D02*X82194Y83602D01*
X81242Y83335D02*X81928D01*
X81242Y84859D02*X81928D01*
X82842Y83906D02*Y83335D01*
Y83906D02*X83033Y84097D01*
X83414D01*
X82652D02*X82842Y83906D01*
X84442Y84097D02*X84633Y83906D01*
X84061Y84097D02*X84442D01*
X83871Y83906D02*X84061Y84097D01*
X83871Y83906D02*Y83526D01*
X84061Y83335D01*
X84633Y84097D02*Y83526D01*
X84823Y83335D01*
X84061D02*X84442D01*
X84633Y83526D01*
X85281Y84097D02*Y83526D01*
X85471Y83335D01*
X85662D01*
X85852Y83526D01*
Y84097D02*Y83526D01*
X86043Y83335D01*
X86233D01*
X86424Y83526D01*
Y84097D02*Y83526D01*
G54D111*X86881Y84478D02*Y84440D01*
G54D110*Y83906D02*Y83335D01*
X87452Y83906D02*Y83335D01*
Y83906D02*X87643Y84097D01*
X87833D01*
X88024Y83906D01*
Y83335D01*
X87262Y84097D02*X87452Y83906D01*
X89052Y84097D02*X89243Y83906D01*
X88671Y84097D02*X89052D01*
X88481Y83906D02*X88671Y84097D01*
X88481Y83906D02*Y83526D01*
X88671Y83335D01*
X89052D01*
X89243Y83526D01*
X88481Y82954D02*X88671Y82764D01*
X89052D01*
X89243Y82954D01*
Y84097D02*Y82954D01*
M02*
