G04 start of page 11 for group -4015 idx -4015 *
G04 Title: (unknown), toppaste *
G04 Creator: pcb 20140316 *
G04 CreationDate: Sun 10 Nov 2019 02:50:04 PM GMT UTC *
G04 For: sladekm *
G04 Format: Gerber/RS-274X *
G04 PCB-Dimensions (mm): 70.00 70.00 *
G04 PCB-Coordinate-Origin: lower left *
%MOMM*%
%FSLAX43Y43*%
%LNTOPPASTE*%
%ADD103C,0.002*%
%ADD102R,1.600X1.600*%
%ADD101R,0.381X0.381*%
%ADD100R,1.120X1.120*%
%ADD99R,1.300X1.300*%
%ADD98R,0.864X0.864*%
G54D98*X22301Y54455D02*Y54303D01*
X20320Y54455D02*Y54303D01*
X21311Y52372D02*Y52220D01*
G54D99*X24152Y56765D02*Y56565D01*
X22352Y56765D02*Y56565D01*
G54D100*X20892Y35583D02*X22796D01*
X20892Y40155D02*X22796D01*
X20892Y33043D02*X22796D01*
X20892Y37615D02*X22796D01*
G54D101*X12624Y51445D02*X13640D01*
X12624Y50175D02*X13640D01*
X12624Y50810D02*X13640D01*
X12624Y52080D02*X13640D01*
X12624Y49540D02*X13640D01*
G54D102*X13005Y54239D02*Y53604D01*
Y48016D02*Y47381D01*
G54D103*G36*
X9324Y47950D02*Y46050D01*
X11224D01*
Y47950D01*
X9324D01*
G37*
G36*
Y50490D02*Y48590D01*
X11224D01*
Y50490D01*
X9324D01*
G37*
G36*
Y53030D02*Y51130D01*
X11224D01*
Y53030D01*
X9324D01*
G37*
G36*
Y55570D02*Y53670D01*
X11224D01*
Y55570D01*
X9324D01*
G37*
G54D99*X17172Y56168D02*X17372D01*
X17172Y54368D02*X17372D01*
M02*
