G04 start of page 3 for group 1 idx 4 *
G04 Title: (unknown), ground *
G04 Creator: pcb 20140316 *
G04 CreationDate: Sun 10 Nov 2019 02:50:04 PM GMT UTC *
G04 For: sladekm *
G04 Format: Gerber/RS-274X *
G04 PCB-Dimensions (mm): 70.00 70.00 *
G04 PCB-Coordinate-Origin: lower left *
%MOMM*%
%FSLAX43Y43*%
%LNBOTTOM*%
%ADD58C,2.300*%
%ADD57C,2.400*%
%ADD56C,1.350*%
%ADD55C,0.700*%
%ADD54C,0.500*%
%ADD53C,3.200*%
%ADD52C,1.200*%
%ADD51R,2.032X2.032*%
%ADD50R,1.300X1.300*%
%ADD49R,0.750X0.750*%
%ADD48C,4.000*%
%ADD47C,1.651*%
%ADD46C,1.778*%
%ADD45C,1.397*%
%ADD44C,2.500*%
%ADD43C,1.524*%
%ADD42C,0.002*%
%ADD41C,0.508*%
%ADD40C,0.635*%
%ADD39C,1.016*%
%ADD38C,0.254*%
G54D38*X8509Y61491D02*X63246D01*
X8636Y64539D02*X62992D01*
X8509Y65174D02*Y61999D01*
X8636Y64539D02*X9398Y64158D01*
X8001Y61491D02*X4826D01*
X5080Y60729D02*X5461Y61364D01*
X5842Y60729D01*
X63246Y61491D02*Y7389D01*
Y65174D02*Y61999D01*
X62484Y64920D02*X63119Y64539D01*
X62484Y64158D01*
X8509Y7389D02*Y61491D01*
Y7389D02*X63246D01*
X9398Y64920D02*X8636Y64539D01*
X4826Y7389D02*X8001D01*
X5080Y8278D02*X5461Y7516D01*
X5842Y8278D01*
X5461Y61237D02*Y7516D01*
X3762Y31549D02*Y30884D01*
X4427D01*
X4261Y31050D01*
Y31383D02*Y31050D01*
Y31383D02*X4427Y31549D01*
X4926D01*
X5093Y31383D02*X4926Y31549D01*
X5093Y31383D02*Y31050D01*
X4926Y30884D02*X5093Y31050D01*
X4594Y31949D02*X3762Y32614D01*
X4594Y32781D02*Y31949D01*
X3762Y32614D02*X5093D01*
Y33346D02*Y33180D01*
X4028Y33746D02*X3762Y34012D01*
X5093D01*
Y34245D02*Y33746D01*
X4594Y35409D02*X5093D01*
X4594D02*X4427Y35576D01*
Y35742D02*Y35576D01*
Y35742D02*X4594Y35908D01*
X5093D01*
X4594D02*X4427Y36075D01*
Y36241D02*Y36075D01*
Y36241D02*X4594Y36407D01*
X5093D01*
X4427Y35243D02*X4594Y35409D01*
Y36973D02*X5093D01*
X4594D02*X4427Y37140D01*
Y37306D02*Y37140D01*
Y37306D02*X4594Y37472D01*
X5093D01*
X4594D02*X4427Y37639D01*
Y37805D02*Y37639D01*
Y37805D02*X4594Y37971D01*
X5093D01*
X4427Y36807D02*X4594Y36973D01*
X30861Y66238D02*X31526D01*
X30861D02*Y65573D01*
X31027Y65739D01*
X31360D01*
X31526Y65573D01*
Y65074D01*
X31360Y64907D02*X31526Y65074D01*
X31027Y64907D02*X31360D01*
X30861Y65074D02*X31027Y64907D01*
X31926Y65406D02*X32591Y66238D01*
X31926Y65406D02*X32758D01*
X32591Y66238D02*Y64907D01*
X33157D02*X33323D01*
X33889D02*X34554Y66238D01*
X33723D02*X34554D01*
X34954Y65406D02*X35619Y66238D01*
X34954Y65406D02*X35786D01*
X35619Y66238D02*Y64907D01*
X36950Y65406D02*Y64907D01*
Y65406D02*X37117Y65573D01*
X37283D01*
X37449Y65406D01*
Y64907D01*
Y65406D02*X37616Y65573D01*
X37782D01*
X37948Y65406D01*
Y64907D01*
X36784Y65573D02*X36950Y65406D01*
X38514D02*Y64907D01*
Y65406D02*X38680Y65573D01*
X38847D01*
X39013Y65406D01*
Y64907D01*
Y65406D02*X39180Y65573D01*
X39346D01*
X39512Y65406D01*
Y64907D01*
X38348Y65573D02*X38514Y65406D01*
G54D39*X60198Y48029D02*Y42949D01*
G54D40*X60086Y43061D02*X60198Y42949D01*
X56134D01*
X37054Y42919D02*X36703Y42568D01*
G54D41*X30734Y44727D02*X32512Y42949D01*
X35306Y47013D02*X34290Y48029D01*
X32512Y42949D02*Y37107D01*
X30734Y39901D02*Y34313D01*
X31369Y33678D02*X30734Y34313D01*
X31369Y33678D02*X33909D01*
X33401Y32916D02*X30988D01*
X42418Y43345D02*Y43965D01*
X39370Y47013D01*
G54D40*X28956Y49299D02*X23876D01*
G54D41*X25146Y46027D02*X26640D01*
G54D38*X26670Y45997D01*
G54D41*X30734Y44727D02*X25146D01*
X28956Y51839D02*X26558D01*
X25258Y54379D02*X23876D01*
X25233Y51839D02*X24359D01*
X26670Y54379D02*X28956D01*
X39370Y47013D02*X35306D01*
G54D40*X39370Y42919D02*X37054D01*
X37719Y44727D02*X38227Y44219D01*
X39370D01*
X36322Y44727D02*X37719D01*
G54D41*X34290Y48029D02*Y53871D01*
X34798Y54379D01*
X38862D02*X34798D01*
X42672Y28471D02*X47625D01*
X42672Y29771D02*Y31127D01*
Y35837D02*Y32916D01*
X36576Y51839D02*X39624D01*
X40386Y51077D01*
X36322Y34567D02*X39878D01*
X36830Y37107D02*X40386D01*
X36322Y39647D02*X39878D01*
G54D40*X45339Y47775D02*X44323Y46759D01*
G54D41*X33909Y33678D02*X35052Y32535D01*
X34290Y32027D02*X33401Y32916D01*
X35052Y32535D02*Y31011D01*
X36322Y29487D01*
X34290Y28979D02*Y32027D01*
G54D40*X56134Y44249D02*Y45997D01*
X44323Y46759D02*X42926D01*
Y45489D02*X49911D01*
G54D41*X42418Y42045D02*Y41171D01*
X43180Y40409D01*
X47498D01*
X42418Y52459D02*Y51107D01*
Y49807D02*X40386D01*
Y51077D02*Y49807D01*
X38862Y54379D02*X40386Y55903D01*
Y57427D01*
X42418Y53759D02*X43800D01*
X44958Y52601D01*
Y50569D01*
X47498D01*
X28702Y37107D02*X25146D01*
X27051Y35837D02*X29464D01*
X29972Y35075D01*
X28702Y42187D02*X23622D01*
X26416Y40917D02*X29718D01*
X30734Y39901D01*
X29972Y33932D02*Y35075D01*
Y33932D02*X30988Y32916D01*
X25146Y34567D02*X28702D01*
X25146Y32027D02*X28702D01*
X42702Y15771D02*Y17579D01*
X43434Y18311D01*
X47498D01*
X39878Y19327D02*X36322D01*
X41402Y14247D02*Y15771D01*
X36322Y14247D02*X40102D01*
X36322Y24407D02*X39878D01*
G54D40*Y22629D02*X41656D01*
G54D41*X28702Y11707D02*X29972D01*
X32512Y14247D01*
Y17168D01*
X25146Y16787D02*X28702D01*
X25146Y19327D02*X28702D01*
G54D40*X18938Y16533D02*X20574D01*
X18796Y14247D02*X20574D01*
G54D41*X17638Y16533D02*X17653Y19708D01*
X21082Y25931D02*X23368D01*
X21082Y21051D02*X22806D01*
X23622Y21867D01*
X28702D02*X23622D01*
G54D40*X25400Y25169D02*Y23167D01*
Y24153D02*X24511D01*
G54D41*X14224Y16406D02*X16383Y14247D01*
X17511D01*
G54D40*X25781D02*X28702D01*
X23114D02*X24511D01*
X21590D01*
X24496D02*X23114D01*
G54D41*X23368Y25931D02*X23876Y26439D01*
X22987Y39647D02*X28702D01*
X23876Y26439D02*X26670D01*
X17653Y19708D02*X15748Y21613D01*
X14224D01*
X11938Y30503D02*Y20216D01*
X14224Y26693D02*X16485D01*
X23622Y42187D02*X11938Y30503D01*
X14351Y31011D02*X22987Y39647D01*
X14351Y31011D02*Y28979D01*
G54D40*X18288Y27201D02*Y29995D01*
X17780Y26693D02*X18288Y27201D01*
G54D41*X14224Y19073D02*X13081D01*
X11938Y20216D01*
X26640Y26469D02*X28702Y24407D01*
G54D40*X31219Y26462D02*X30734Y26947D01*
X29337D01*
G54D41*X28702Y29487D02*X25146D01*
G54D40*X32512Y29233D02*Y26462D01*
X31219D01*
G54D41*X34290Y28979D02*X36322Y26947D01*
G54D38*X43561Y59116D02*X44237D01*
X44406Y58947D01*
Y58542D02*Y58947D01*
X44237Y58373D02*X44406Y58542D01*
X43730Y58373D02*X44237D01*
X43730Y57765D02*Y59116D01*
X43561Y57765D02*X44237D01*
X44406Y57934D01*
Y58204D01*
X44237Y58373D02*X44406Y58204D01*
X44811Y57934D02*Y58947D01*
Y57934D02*X44980Y57765D01*
X45318D01*
X45487Y57934D01*
Y58947D01*
X45318Y59116D02*X45487Y58947D01*
X44980Y59116D02*X45318D01*
X44811Y58947D02*X44980Y59116D01*
X45892Y57765D02*X46568D01*
X46230D02*Y59116D01*
X46973Y57765D02*X47649D01*
X47311D02*Y59116D01*
X48054Y57934D02*Y58947D01*
Y57934D02*X48223Y57765D01*
X48561D01*
X48730Y57934D01*
Y58947D01*
X48561Y59116D02*X48730Y58947D01*
X48223Y59116D02*X48561D01*
X48054Y58947D02*X48223Y59116D01*
X49135Y57765D02*Y59116D01*
Y57765D02*X49642Y58440D01*
X50148Y57765D01*
Y59116D01*
G54D42*G36*
X58576Y47847D02*X58582Y47773D01*
X58642Y47523D01*
X58740Y47286D01*
X58874Y47067D01*
X59041Y46872D01*
X59236Y46705D01*
X59436Y46583D01*
Y44395D01*
X59236Y44273D01*
X59041Y44106D01*
X58874Y43911D01*
X58740Y43692D01*
X58669Y43520D01*
X58576D01*
Y47847D01*
G37*
G36*
X61542Y61237D02*X62992D01*
Y7643D01*
X61542D01*
Y10151D01*
X61544Y10183D01*
X61542Y10215D01*
Y20096D01*
X61552Y20101D01*
X61576Y20119D01*
X61596Y20141D01*
X61613Y20166D01*
X61685Y20303D01*
X61742Y20447D01*
X61785Y20595D01*
X61814Y20747D01*
X61829Y20901D01*
Y21055D01*
X61814Y21209D01*
X61785Y21361D01*
X61742Y21509D01*
X61685Y21653D01*
X61614Y21791D01*
X61597Y21816D01*
X61577Y21838D01*
X61553Y21856D01*
X61542Y21862D01*
Y25176D01*
X61552Y25181D01*
X61576Y25199D01*
X61596Y25221D01*
X61613Y25246D01*
X61685Y25383D01*
X61742Y25527D01*
X61785Y25675D01*
X61814Y25827D01*
X61829Y25981D01*
Y26135D01*
X61814Y26289D01*
X61785Y26441D01*
X61742Y26589D01*
X61685Y26733D01*
X61614Y26871D01*
X61597Y26896D01*
X61577Y26918D01*
X61553Y26936D01*
X61542Y26942D01*
Y42021D01*
X61656Y42206D01*
X61754Y42443D01*
X61814Y42693D01*
X61829Y42949D01*
X61814Y43205D01*
X61754Y43455D01*
X61656Y43692D01*
X61542Y43877D01*
Y47101D01*
X61656Y47286D01*
X61754Y47523D01*
X61814Y47773D01*
X61829Y48029D01*
X61814Y48285D01*
X61754Y48535D01*
X61656Y48772D01*
X61542Y48957D01*
Y58665D01*
X61544Y58697D01*
X61542Y58729D01*
Y61237D01*
G37*
G36*
Y48957D02*X61522Y48991D01*
X61355Y49186D01*
X61160Y49353D01*
X60941Y49487D01*
X60704Y49585D01*
X60454Y49645D01*
X60199Y49665D01*
Y56912D01*
X60265Y56928D01*
X60534Y57040D01*
X60783Y57192D01*
X61005Y57382D01*
X61195Y57604D01*
X61347Y57853D01*
X61459Y58122D01*
X61527Y58406D01*
X61542Y58665D01*
Y48957D01*
G37*
G36*
Y43877D02*X61522Y43911D01*
X61355Y44106D01*
X61160Y44273D01*
X60960Y44395D01*
Y46583D01*
X61160Y46705D01*
X61355Y46872D01*
X61522Y47067D01*
X61542Y47101D01*
Y43877D01*
G37*
G36*
Y10215D02*X61527Y10474D01*
X61459Y10758D01*
X61347Y11027D01*
X61195Y11276D01*
X61005Y11498D01*
X60783Y11688D01*
X60534Y11840D01*
X60265Y11952D01*
X60199Y11968D01*
Y19347D01*
X60275D01*
X60429Y19362D01*
X60581Y19391D01*
X60729Y19434D01*
X60873Y19491D01*
X61011Y19562D01*
X61036Y19579D01*
X61058Y19599D01*
X61076Y19623D01*
X61091Y19650D01*
X61101Y19678D01*
X61106Y19708D01*
X61107Y19738D01*
X61103Y19768D01*
X61095Y19797D01*
X61082Y19824D01*
X61065Y19849D01*
X61044Y19871D01*
X61020Y19890D01*
X60994Y19904D01*
X60965Y19914D01*
X60936Y19920D01*
X60905Y19921D01*
X60875Y19917D01*
X60846Y19908D01*
X60819Y19895D01*
X60715Y19840D01*
X60605Y19796D01*
X60491Y19763D01*
X60375Y19741D01*
X60257Y19729D01*
X60199D01*
Y22227D01*
X60257D01*
X60375Y22215D01*
X60491Y22193D01*
X60605Y22160D01*
X60715Y22116D01*
X60820Y22062D01*
X60847Y22049D01*
X60876Y22040D01*
X60905Y22037D01*
X60935Y22037D01*
X60965Y22043D01*
X60993Y22053D01*
X61019Y22067D01*
X61043Y22086D01*
X61064Y22108D01*
X61081Y22132D01*
X61093Y22159D01*
X61102Y22188D01*
X61106Y22218D01*
X61105Y22248D01*
X61099Y22277D01*
X61089Y22306D01*
X61075Y22332D01*
X61057Y22356D01*
X61035Y22376D01*
X61010Y22393D01*
X60873Y22465D01*
X60729Y22522D01*
X60581Y22565D01*
X60429Y22594D01*
X60275Y22609D01*
X60199D01*
Y24427D01*
X60275D01*
X60429Y24442D01*
X60581Y24471D01*
X60729Y24514D01*
X60873Y24571D01*
X61011Y24642D01*
X61036Y24659D01*
X61058Y24679D01*
X61076Y24703D01*
X61091Y24730D01*
X61101Y24758D01*
X61106Y24788D01*
X61107Y24818D01*
X61103Y24848D01*
X61095Y24877D01*
X61082Y24904D01*
X61065Y24929D01*
X61044Y24951D01*
X61020Y24970D01*
X60994Y24984D01*
X60965Y24994D01*
X60936Y25000D01*
X60905Y25001D01*
X60875Y24997D01*
X60846Y24988D01*
X60819Y24975D01*
X60715Y24920D01*
X60605Y24876D01*
X60491Y24843D01*
X60375Y24821D01*
X60257Y24809D01*
X60199D01*
Y27307D01*
X60257D01*
X60375Y27295D01*
X60491Y27273D01*
X60605Y27240D01*
X60715Y27196D01*
X60820Y27142D01*
X60847Y27129D01*
X60876Y27120D01*
X60905Y27117D01*
X60935Y27117D01*
X60965Y27123D01*
X60993Y27133D01*
X61019Y27147D01*
X61043Y27166D01*
X61064Y27188D01*
X61081Y27212D01*
X61093Y27239D01*
X61102Y27268D01*
X61106Y27298D01*
X61105Y27328D01*
X61099Y27357D01*
X61089Y27386D01*
X61075Y27412D01*
X61057Y27436D01*
X61035Y27456D01*
X61010Y27473D01*
X60873Y27545D01*
X60729Y27602D01*
X60581Y27645D01*
X60429Y27674D01*
X60275Y27689D01*
X60199D01*
Y41313D01*
X60454Y41333D01*
X60704Y41393D01*
X60941Y41491D01*
X61160Y41625D01*
X61355Y41792D01*
X61522Y41987D01*
X61542Y42021D01*
Y26942D01*
X61526Y26951D01*
X61498Y26961D01*
X61468Y26966D01*
X61438Y26967D01*
X61408Y26963D01*
X61379Y26955D01*
X61352Y26942D01*
X61327Y26925D01*
X61305Y26904D01*
X61286Y26880D01*
X61272Y26854D01*
X61262Y26825D01*
X61256Y26796D01*
X61255Y26765D01*
X61259Y26735D01*
X61268Y26706D01*
X61281Y26679D01*
X61336Y26575D01*
X61380Y26465D01*
X61413Y26351D01*
X61435Y26235D01*
X61447Y26117D01*
Y25999D01*
X61435Y25881D01*
X61413Y25765D01*
X61380Y25651D01*
X61336Y25541D01*
X61282Y25436D01*
X61269Y25409D01*
X61260Y25380D01*
X61257Y25351D01*
X61257Y25321D01*
X61263Y25291D01*
X61273Y25263D01*
X61287Y25237D01*
X61306Y25213D01*
X61328Y25192D01*
X61352Y25175D01*
X61379Y25163D01*
X61408Y25154D01*
X61438Y25150D01*
X61468Y25151D01*
X61497Y25157D01*
X61526Y25167D01*
X61542Y25176D01*
Y21862D01*
X61526Y21871D01*
X61498Y21881D01*
X61468Y21886D01*
X61438Y21887D01*
X61408Y21883D01*
X61379Y21875D01*
X61352Y21862D01*
X61327Y21845D01*
X61305Y21824D01*
X61286Y21800D01*
X61272Y21774D01*
X61262Y21745D01*
X61256Y21716D01*
X61255Y21685D01*
X61259Y21655D01*
X61268Y21626D01*
X61281Y21599D01*
X61336Y21495D01*
X61380Y21385D01*
X61413Y21271D01*
X61435Y21155D01*
X61447Y21037D01*
Y20919D01*
X61435Y20801D01*
X61413Y20685D01*
X61380Y20571D01*
X61336Y20461D01*
X61282Y20356D01*
X61269Y20329D01*
X61260Y20300D01*
X61257Y20271D01*
X61257Y20241D01*
X61263Y20211D01*
X61273Y20183D01*
X61287Y20157D01*
X61306Y20133D01*
X61328Y20112D01*
X61352Y20095D01*
X61379Y20083D01*
X61408Y20074D01*
X61438Y20070D01*
X61468Y20071D01*
X61497Y20077D01*
X61526Y20087D01*
X61542Y20096D01*
Y10215D01*
G37*
G36*
Y7643D02*X60199D01*
Y8398D01*
X60265Y8414D01*
X60534Y8526D01*
X60783Y8678D01*
X61005Y8868D01*
X61195Y9090D01*
X61347Y9339D01*
X61459Y9608D01*
X61527Y9892D01*
X61542Y10151D01*
Y7643D01*
G37*
G36*
X60199Y61237D02*X61542D01*
Y58729D01*
X61527Y58988D01*
X61459Y59272D01*
X61347Y59541D01*
X61195Y59790D01*
X61005Y60012D01*
X60783Y60202D01*
X60534Y60354D01*
X60265Y60466D01*
X60199Y60482D01*
Y61237D01*
G37*
G36*
Y49665D02*X60198Y49665D01*
X59942Y49645D01*
X59692Y49585D01*
X59455Y49487D01*
X59236Y49353D01*
X59041Y49186D01*
X58874Y48991D01*
X58740Y48772D01*
X58642Y48535D01*
X58582Y48285D01*
X58576Y48211D01*
Y57210D01*
X58597Y57192D01*
X58846Y57040D01*
X59115Y56928D01*
X59399Y56860D01*
X59690Y56837D01*
X59981Y56860D01*
X60199Y56912D01*
Y49665D01*
G37*
G36*
Y11968D02*X59981Y12020D01*
X59690Y12043D01*
X59399Y12020D01*
X59115Y11952D01*
X58846Y11840D01*
X58597Y11688D01*
X58576Y11670D01*
Y20803D01*
X58582Y20747D01*
X58611Y20595D01*
X58654Y20447D01*
X58711Y20303D01*
X58782Y20165D01*
X58799Y20140D01*
X58819Y20118D01*
X58843Y20100D01*
X58870Y20085D01*
X58898Y20075D01*
X58928Y20070D01*
X58958Y20069D01*
X58988Y20073D01*
X59017Y20081D01*
X59044Y20094D01*
X59069Y20111D01*
X59091Y20132D01*
X59110Y20156D01*
X59124Y20182D01*
X59134Y20211D01*
X59140Y20240D01*
X59141Y20271D01*
X59137Y20301D01*
X59128Y20330D01*
X59115Y20357D01*
X59060Y20461D01*
X59016Y20571D01*
X58983Y20685D01*
X58961Y20801D01*
X58949Y20919D01*
Y21037D01*
X58961Y21155D01*
X58983Y21271D01*
X59016Y21385D01*
X59060Y21495D01*
X59114Y21600D01*
X59127Y21627D01*
X59136Y21656D01*
X59139Y21685D01*
X59139Y21715D01*
X59133Y21745D01*
X59123Y21773D01*
X59109Y21799D01*
X59090Y21823D01*
X59068Y21844D01*
X59044Y21861D01*
X59017Y21873D01*
X58988Y21882D01*
X58958Y21886D01*
X58928Y21885D01*
X58899Y21879D01*
X58870Y21869D01*
X58844Y21855D01*
X58820Y21837D01*
X58800Y21815D01*
X58783Y21790D01*
X58711Y21653D01*
X58654Y21509D01*
X58611Y21361D01*
X58582Y21209D01*
X58576Y21153D01*
Y25883D01*
X58582Y25827D01*
X58611Y25675D01*
X58654Y25527D01*
X58711Y25383D01*
X58782Y25245D01*
X58799Y25220D01*
X58819Y25198D01*
X58843Y25180D01*
X58870Y25165D01*
X58898Y25155D01*
X58928Y25150D01*
X58958Y25149D01*
X58988Y25153D01*
X59017Y25161D01*
X59044Y25174D01*
X59069Y25191D01*
X59091Y25212D01*
X59110Y25236D01*
X59124Y25262D01*
X59134Y25291D01*
X59140Y25320D01*
X59141Y25351D01*
X59137Y25381D01*
X59128Y25410D01*
X59115Y25437D01*
X59060Y25541D01*
X59016Y25651D01*
X58983Y25765D01*
X58961Y25881D01*
X58949Y25999D01*
Y26117D01*
X58961Y26235D01*
X58983Y26351D01*
X59016Y26465D01*
X59060Y26575D01*
X59114Y26680D01*
X59127Y26707D01*
X59136Y26736D01*
X59139Y26765D01*
X59139Y26795D01*
X59133Y26825D01*
X59123Y26853D01*
X59109Y26879D01*
X59090Y26903D01*
X59068Y26924D01*
X59044Y26941D01*
X59017Y26953D01*
X58988Y26962D01*
X58958Y26966D01*
X58928Y26965D01*
X58899Y26959D01*
X58870Y26949D01*
X58844Y26935D01*
X58820Y26917D01*
X58800Y26895D01*
X58783Y26870D01*
X58711Y26733D01*
X58654Y26589D01*
X58611Y26441D01*
X58582Y26289D01*
X58576Y26233D01*
Y42378D01*
X58669D01*
X58740Y42206D01*
X58874Y41987D01*
X59041Y41792D01*
X59236Y41625D01*
X59455Y41491D01*
X59692Y41393D01*
X59942Y41333D01*
X60198Y41313D01*
X60199Y41313D01*
Y27689D01*
X60121D01*
X59967Y27674D01*
X59815Y27645D01*
X59667Y27602D01*
X59523Y27545D01*
X59385Y27474D01*
X59360Y27457D01*
X59338Y27437D01*
X59320Y27413D01*
X59305Y27386D01*
X59295Y27358D01*
X59290Y27328D01*
X59289Y27298D01*
X59293Y27268D01*
X59301Y27239D01*
X59314Y27212D01*
X59331Y27187D01*
X59352Y27165D01*
X59376Y27146D01*
X59402Y27132D01*
X59431Y27122D01*
X59460Y27116D01*
X59491Y27115D01*
X59521Y27119D01*
X59550Y27128D01*
X59577Y27141D01*
X59681Y27196D01*
X59791Y27240D01*
X59905Y27273D01*
X60021Y27295D01*
X60139Y27307D01*
X60199D01*
Y24809D01*
X60139D01*
X60021Y24821D01*
X59905Y24843D01*
X59791Y24876D01*
X59681Y24920D01*
X59576Y24974D01*
X59549Y24987D01*
X59520Y24996D01*
X59491Y24999D01*
X59461Y24999D01*
X59431Y24993D01*
X59403Y24983D01*
X59377Y24969D01*
X59353Y24950D01*
X59332Y24928D01*
X59315Y24904D01*
X59303Y24877D01*
X59294Y24848D01*
X59290Y24818D01*
X59291Y24788D01*
X59297Y24759D01*
X59307Y24730D01*
X59321Y24704D01*
X59339Y24680D01*
X59361Y24660D01*
X59386Y24643D01*
X59523Y24571D01*
X59667Y24514D01*
X59815Y24471D01*
X59967Y24442D01*
X60121Y24427D01*
X60199D01*
Y22609D01*
X60121D01*
X59967Y22594D01*
X59815Y22565D01*
X59667Y22522D01*
X59523Y22465D01*
X59385Y22394D01*
X59360Y22377D01*
X59338Y22357D01*
X59320Y22333D01*
X59305Y22306D01*
X59295Y22278D01*
X59290Y22248D01*
X59289Y22218D01*
X59293Y22188D01*
X59301Y22159D01*
X59314Y22132D01*
X59331Y22107D01*
X59352Y22085D01*
X59376Y22066D01*
X59402Y22052D01*
X59431Y22042D01*
X59460Y22036D01*
X59491Y22035D01*
X59521Y22039D01*
X59550Y22048D01*
X59577Y22061D01*
X59681Y22116D01*
X59791Y22160D01*
X59905Y22193D01*
X60021Y22215D01*
X60139Y22227D01*
X60199D01*
Y19729D01*
X60139D01*
X60021Y19741D01*
X59905Y19763D01*
X59791Y19796D01*
X59681Y19840D01*
X59576Y19894D01*
X59549Y19907D01*
X59520Y19916D01*
X59491Y19919D01*
X59461Y19919D01*
X59431Y19913D01*
X59403Y19903D01*
X59377Y19889D01*
X59353Y19870D01*
X59332Y19848D01*
X59315Y19824D01*
X59303Y19797D01*
X59294Y19768D01*
X59290Y19738D01*
X59291Y19708D01*
X59297Y19679D01*
X59307Y19650D01*
X59321Y19624D01*
X59339Y19600D01*
X59361Y19580D01*
X59386Y19563D01*
X59523Y19491D01*
X59667Y19434D01*
X59815Y19391D01*
X59967Y19362D01*
X60121Y19347D01*
X60199D01*
Y11968D01*
G37*
G36*
Y7643D02*X58576D01*
Y8696D01*
X58597Y8678D01*
X58846Y8526D01*
X59115Y8414D01*
X59399Y8346D01*
X59690Y8323D01*
X59981Y8346D01*
X60199Y8398D01*
Y7643D01*
G37*
G36*
X58576Y61237D02*X60199D01*
Y60482D01*
X59981Y60534D01*
X59690Y60557D01*
X59399Y60534D01*
X59115Y60466D01*
X58846Y60354D01*
X58597Y60202D01*
X58576Y60184D01*
Y61237D01*
G37*
G36*
X56600Y42277D02*X56681Y42277D01*
X56727Y42288D01*
X56770Y42306D01*
X56811Y42331D01*
X56847Y42361D01*
X56860Y42378D01*
X58576D01*
Y26233D01*
X58567Y26135D01*
Y25981D01*
X58576Y25883D01*
Y21153D01*
X58567Y21055D01*
Y20901D01*
X58576Y20803D01*
Y11670D01*
X58375Y11498D01*
X58185Y11276D01*
X58033Y11027D01*
X57921Y10758D01*
X57853Y10474D01*
X57830Y10183D01*
X57853Y9892D01*
X57921Y9608D01*
X58033Y9339D01*
X58185Y9090D01*
X58375Y8868D01*
X58576Y8696D01*
Y7643D01*
X56600D01*
Y15344D01*
X56626Y15408D01*
X56684Y15650D01*
X56699Y15898D01*
X56684Y16146D01*
X56626Y16388D01*
X56600Y16452D01*
Y30584D01*
X56626Y30648D01*
X56684Y30890D01*
X56699Y31138D01*
X56684Y31386D01*
X56626Y31628D01*
X56600Y31692D01*
Y37315D01*
X56626Y37379D01*
X56684Y37621D01*
X56699Y37869D01*
X56684Y38117D01*
X56626Y38359D01*
X56600Y38423D01*
Y42277D01*
G37*
G36*
Y61237D02*X58576D01*
Y60184D01*
X58375Y60012D01*
X58185Y59790D01*
X58033Y59541D01*
X57921Y59272D01*
X57853Y58988D01*
X57830Y58697D01*
X57853Y58406D01*
X57921Y58122D01*
X58033Y57853D01*
X58185Y57604D01*
X58375Y57382D01*
X58576Y57210D01*
Y48211D01*
X58562Y48029D01*
X58576Y47847D01*
Y43520D01*
X56860D01*
X56847Y43537D01*
X56811Y43567D01*
X56770Y43592D01*
X56754Y43599D01*
X56770Y43606D01*
X56811Y43631D01*
X56847Y43661D01*
X56877Y43697D01*
X56902Y43737D01*
X56920Y43781D01*
X56931Y43827D01*
X56934Y43874D01*
X56931Y44671D01*
X56920Y44717D01*
X56902Y44761D01*
X56877Y44801D01*
X56847Y44837D01*
X56811Y44867D01*
X56770Y44892D01*
X56727Y44910D01*
X56705Y44915D01*
Y45742D01*
X56709Y45745D01*
X56767Y45803D01*
X56820Y45867D01*
X56866Y45936D01*
X56905Y46009D01*
X56937Y46085D01*
X56943Y46105D01*
X56945Y46125D01*
X56944Y46145D01*
X56940Y46164D01*
X56933Y46183D01*
X56923Y46201D01*
X56911Y46216D01*
X56896Y46230D01*
X56879Y46241D01*
X56861Y46249D01*
X56842Y46255D01*
X56822Y46257D01*
X56802Y46256D01*
X56782Y46252D01*
X56763Y46245D01*
X56745Y46235D01*
X56730Y46223D01*
X56716Y46208D01*
X56705Y46191D01*
X56697Y46173D01*
X56686Y46146D01*
X56679Y46174D01*
X56645Y46257D01*
X56600Y46331D01*
Y46755D01*
X56615Y46736D01*
X56648Y46688D01*
X56675Y46637D01*
X56698Y46583D01*
X56706Y46565D01*
X56717Y46548D01*
X56730Y46534D01*
X56746Y46521D01*
X56763Y46511D01*
X56782Y46504D01*
X56802Y46500D01*
X56822Y46500D01*
X56841Y46502D01*
X56861Y46507D01*
X56879Y46515D01*
X56896Y46527D01*
X56910Y46540D01*
X56923Y46556D01*
X56933Y46573D01*
X56940Y46592D01*
X56944Y46611D01*
X56944Y46631D01*
X56942Y46651D01*
X56936Y46670D01*
X56905Y46747D01*
X56866Y46820D01*
X56820Y46889D01*
X56767Y46953D01*
X56709Y47011D01*
X56645Y47064D01*
X56600Y47094D01*
Y52555D01*
X56626Y52619D01*
X56684Y52861D01*
X56699Y53109D01*
X56684Y53357D01*
X56626Y53599D01*
X56600Y53663D01*
Y61237D01*
G37*
G36*
X55668Y14414D02*X55838Y14485D01*
X56050Y14615D01*
X56239Y14777D01*
X56401Y14966D01*
X56531Y15178D01*
X56600Y15344D01*
Y7643D01*
X55668D01*
Y14414D01*
G37*
G36*
Y29654D02*X55838Y29725D01*
X56050Y29855D01*
X56239Y30017D01*
X56401Y30206D01*
X56531Y30418D01*
X56600Y30584D01*
Y16452D01*
X56531Y16618D01*
X56401Y16830D01*
X56239Y17019D01*
X56050Y17181D01*
X55838Y17311D01*
X55668Y17382D01*
Y29654D01*
G37*
G36*
Y36385D02*X55838Y36456D01*
X56050Y36586D01*
X56239Y36748D01*
X56401Y36937D01*
X56531Y37149D01*
X56600Y37315D01*
Y31692D01*
X56531Y31858D01*
X56401Y32070D01*
X56239Y32259D01*
X56050Y32421D01*
X55838Y32551D01*
X55668Y32622D01*
Y36385D01*
G37*
G36*
Y42274D02*X56600Y42277D01*
Y38423D01*
X56531Y38589D01*
X56401Y38801D01*
X56239Y38990D01*
X56050Y39152D01*
X55838Y39282D01*
X55668Y39353D01*
Y42274D01*
G37*
G36*
Y51625D02*X55838Y51696D01*
X56050Y51826D01*
X56239Y51988D01*
X56401Y52177D01*
X56531Y52389D01*
X56600Y52555D01*
Y47094D01*
X56576Y47110D01*
X56503Y47149D01*
X56427Y47181D01*
X56407Y47187D01*
X56387Y47189D01*
X56367Y47188D01*
X56348Y47184D01*
X56329Y47177D01*
X56311Y47167D01*
X56296Y47155D01*
X56282Y47140D01*
X56271Y47123D01*
X56263Y47105D01*
X56257Y47086D01*
X56255Y47066D01*
X56256Y47046D01*
X56260Y47026D01*
X56267Y47007D01*
X56277Y46989D01*
X56289Y46974D01*
X56304Y46960D01*
X56321Y46949D01*
X56339Y46941D01*
X56393Y46919D01*
X56444Y46892D01*
X56492Y46859D01*
X56537Y46822D01*
X56578Y46781D01*
X56600Y46755D01*
Y46331D01*
X56598Y46334D01*
X56539Y46402D01*
X56471Y46461D01*
X56394Y46508D01*
X56311Y46542D01*
X56224Y46563D01*
X56134Y46570D01*
X56044Y46563D01*
X55957Y46542D01*
X55874Y46508D01*
X55797Y46461D01*
X55729Y46402D01*
X55670Y46334D01*
X55668Y46330D01*
Y46754D01*
X55690Y46781D01*
X55731Y46822D01*
X55776Y46859D01*
X55824Y46892D01*
X55875Y46919D01*
X55929Y46942D01*
X55947Y46950D01*
X55964Y46961D01*
X55978Y46974D01*
X55991Y46990D01*
X56001Y47007D01*
X56008Y47026D01*
X56012Y47046D01*
X56012Y47066D01*
X56010Y47085D01*
X56005Y47105D01*
X55997Y47123D01*
X55985Y47140D01*
X55972Y47154D01*
X55956Y47167D01*
X55939Y47177D01*
X55920Y47184D01*
X55901Y47188D01*
X55881Y47188D01*
X55861Y47186D01*
X55842Y47180D01*
X55765Y47149D01*
X55692Y47110D01*
X55668Y47094D01*
Y51625D01*
G37*
G36*
Y61237D02*X56600D01*
Y53663D01*
X56531Y53829D01*
X56401Y54041D01*
X56239Y54230D01*
X56050Y54392D01*
X55838Y54522D01*
X55668Y54593D01*
Y61237D01*
G37*
G36*
X51382D02*X55668D01*
Y54593D01*
X55608Y54617D01*
X55366Y54675D01*
X55118Y54695D01*
X54870Y54675D01*
X54628Y54617D01*
X54398Y54522D01*
X54186Y54392D01*
X53997Y54230D01*
X53835Y54041D01*
X53705Y53829D01*
X53610Y53599D01*
X53552Y53357D01*
X53532Y53109D01*
X53552Y52861D01*
X53610Y52619D01*
X53705Y52389D01*
X53835Y52177D01*
X53997Y51988D01*
X54186Y51826D01*
X54398Y51696D01*
X54628Y51601D01*
X54870Y51543D01*
X55118Y51523D01*
X55366Y51543D01*
X55608Y51601D01*
X55668Y51625D01*
Y47094D01*
X55623Y47064D01*
X55559Y47011D01*
X55501Y46953D01*
X55448Y46889D01*
X55402Y46820D01*
X55363Y46747D01*
X55331Y46671D01*
X55325Y46651D01*
X55323Y46631D01*
X55324Y46611D01*
X55328Y46592D01*
X55335Y46573D01*
X55345Y46555D01*
X55357Y46540D01*
X55372Y46526D01*
X55389Y46515D01*
X55407Y46507D01*
X55426Y46501D01*
X55446Y46499D01*
X55466Y46500D01*
X55486Y46504D01*
X55505Y46511D01*
X55523Y46521D01*
X55538Y46533D01*
X55552Y46548D01*
X55563Y46565D01*
X55571Y46583D01*
X55593Y46637D01*
X55620Y46688D01*
X55653Y46736D01*
X55668Y46754D01*
Y46330D01*
X55623Y46257D01*
X55589Y46174D01*
X55582Y46145D01*
X55570Y46173D01*
X55562Y46191D01*
X55551Y46208D01*
X55538Y46222D01*
X55522Y46235D01*
X55505Y46245D01*
X55486Y46252D01*
X55466Y46256D01*
X55446Y46256D01*
X55427Y46254D01*
X55407Y46249D01*
X55389Y46241D01*
X55372Y46229D01*
X55358Y46216D01*
X55345Y46200D01*
X55335Y46183D01*
X55328Y46164D01*
X55324Y46145D01*
X55324Y46125D01*
X55326Y46105D01*
X55332Y46086D01*
X55363Y46009D01*
X55402Y45936D01*
X55448Y45867D01*
X55501Y45803D01*
X55559Y45745D01*
X55562Y45742D01*
Y44915D01*
X55541Y44910D01*
X55498Y44892D01*
X55457Y44867D01*
X55421Y44837D01*
X55391Y44801D01*
X55366Y44761D01*
X55348Y44717D01*
X55337Y44671D01*
X55334Y44624D01*
X55337Y43827D01*
X55348Y43781D01*
X55366Y43737D01*
X55391Y43697D01*
X55421Y43661D01*
X55457Y43631D01*
X55498Y43606D01*
X55514Y43599D01*
X55498Y43592D01*
X55457Y43567D01*
X55421Y43537D01*
X55391Y43501D01*
X55366Y43461D01*
X55348Y43417D01*
X55337Y43371D01*
X55334Y43324D01*
X55337Y42527D01*
X55348Y42481D01*
X55366Y42437D01*
X55391Y42397D01*
X55421Y42361D01*
X55457Y42331D01*
X55498Y42306D01*
X55541Y42288D01*
X55587Y42277D01*
X55634Y42274D01*
X55668Y42274D01*
Y39353D01*
X55608Y39377D01*
X55366Y39435D01*
X55118Y39455D01*
X54870Y39435D01*
X54628Y39377D01*
X54398Y39282D01*
X54186Y39152D01*
X53997Y38990D01*
X53835Y38801D01*
X53705Y38589D01*
X53610Y38359D01*
X53552Y38117D01*
X53532Y37869D01*
X53552Y37621D01*
X53610Y37379D01*
X53705Y37149D01*
X53835Y36937D01*
X53997Y36748D01*
X54186Y36586D01*
X54398Y36456D01*
X54628Y36361D01*
X54870Y36303D01*
X55118Y36283D01*
X55366Y36303D01*
X55608Y36361D01*
X55668Y36385D01*
Y32622D01*
X55608Y32646D01*
X55366Y32704D01*
X55118Y32724D01*
X54870Y32704D01*
X54628Y32646D01*
X54398Y32551D01*
X54186Y32421D01*
X53997Y32259D01*
X53835Y32070D01*
X53705Y31858D01*
X53610Y31628D01*
X53552Y31386D01*
X53532Y31138D01*
X53552Y30890D01*
X53610Y30648D01*
X53705Y30418D01*
X53835Y30206D01*
X53997Y30017D01*
X54186Y29855D01*
X54398Y29725D01*
X54628Y29630D01*
X54870Y29572D01*
X55118Y29552D01*
X55366Y29572D01*
X55608Y29630D01*
X55668Y29654D01*
Y17382D01*
X55608Y17406D01*
X55366Y17464D01*
X55118Y17484D01*
X54870Y17464D01*
X54628Y17406D01*
X54398Y17311D01*
X54186Y17181D01*
X53997Y17019D01*
X53835Y16830D01*
X53705Y16618D01*
X53610Y16388D01*
X53552Y16146D01*
X53532Y15898D01*
X53552Y15650D01*
X53610Y15408D01*
X53705Y15178D01*
X53835Y14966D01*
X53997Y14777D01*
X54186Y14615D01*
X54398Y14485D01*
X54628Y14390D01*
X54870Y14332D01*
X55118Y14312D01*
X55366Y14332D01*
X55608Y14390D01*
X55668Y14414D01*
Y7643D01*
X51382D01*
Y14970D01*
X51496Y15155D01*
X51594Y15392D01*
X51654Y15642D01*
X51669Y15898D01*
X51654Y16154D01*
X51594Y16404D01*
X51496Y16641D01*
X51382Y16826D01*
Y22636D01*
X51392Y22641D01*
X51416Y22659D01*
X51436Y22681D01*
X51453Y22706D01*
X51525Y22843D01*
X51582Y22987D01*
X51625Y23135D01*
X51654Y23287D01*
X51669Y23441D01*
Y23595D01*
X51654Y23749D01*
X51625Y23901D01*
X51582Y24049D01*
X51525Y24193D01*
X51454Y24331D01*
X51437Y24356D01*
X51417Y24378D01*
X51393Y24396D01*
X51382Y24402D01*
Y30210D01*
X51496Y30395D01*
X51594Y30632D01*
X51654Y30882D01*
X51669Y31138D01*
X51654Y31394D01*
X51594Y31644D01*
X51496Y31881D01*
X51382Y32066D01*
Y36941D01*
X51496Y37126D01*
X51594Y37363D01*
X51654Y37613D01*
X51669Y37869D01*
X51654Y38125D01*
X51594Y38375D01*
X51496Y38612D01*
X51382Y38797D01*
Y44561D01*
X51496Y44746D01*
X51594Y44983D01*
X51654Y45233D01*
X51669Y45489D01*
X51654Y45745D01*
X51594Y45995D01*
X51496Y46232D01*
X51382Y46417D01*
Y52181D01*
X51496Y52366D01*
X51594Y52603D01*
X51654Y52853D01*
X51669Y53109D01*
X51654Y53365D01*
X51594Y53615D01*
X51496Y53852D01*
X51382Y54037D01*
Y61237D01*
G37*
G36*
Y46417D02*X51362Y46451D01*
X51195Y46646D01*
X51000Y46813D01*
X50781Y46947D01*
X50544Y47045D01*
X50294Y47105D01*
X50038Y47125D01*
X50035Y47125D01*
Y51473D01*
X50038Y51473D01*
X50294Y51493D01*
X50544Y51553D01*
X50781Y51651D01*
X51000Y51785D01*
X51195Y51952D01*
X51362Y52147D01*
X51382Y52181D01*
Y46417D01*
G37*
G36*
Y38797D02*X51362Y38831D01*
X51195Y39026D01*
X51000Y39193D01*
X50781Y39327D01*
X50544Y39425D01*
X50294Y39485D01*
X50038Y39505D01*
X50035Y39505D01*
Y43853D01*
X50038Y43853D01*
X50294Y43873D01*
X50544Y43933D01*
X50781Y44031D01*
X51000Y44165D01*
X51195Y44332D01*
X51362Y44527D01*
X51382Y44561D01*
Y38797D01*
G37*
G36*
Y32066D02*X51362Y32100D01*
X51195Y32295D01*
X51000Y32462D01*
X50781Y32596D01*
X50544Y32694D01*
X50294Y32754D01*
X50038Y32774D01*
X50035Y32774D01*
Y36233D01*
X50038Y36233D01*
X50294Y36253D01*
X50544Y36313D01*
X50781Y36411D01*
X51000Y36545D01*
X51195Y36712D01*
X51362Y36907D01*
X51382Y36941D01*
Y32066D01*
G37*
G36*
Y16826D02*X51362Y16860D01*
X51195Y17055D01*
X51000Y17222D01*
X50781Y17356D01*
X50544Y17454D01*
X50294Y17514D01*
X50038Y17534D01*
X50035Y17534D01*
Y21887D01*
X50115D01*
X50269Y21902D01*
X50421Y21931D01*
X50569Y21974D01*
X50713Y22031D01*
X50851Y22102D01*
X50876Y22119D01*
X50898Y22139D01*
X50916Y22163D01*
X50931Y22190D01*
X50941Y22218D01*
X50946Y22248D01*
X50947Y22278D01*
X50943Y22308D01*
X50935Y22337D01*
X50922Y22364D01*
X50905Y22389D01*
X50884Y22411D01*
X50860Y22430D01*
X50834Y22444D01*
X50805Y22454D01*
X50776Y22460D01*
X50745Y22461D01*
X50715Y22457D01*
X50686Y22448D01*
X50659Y22435D01*
X50555Y22380D01*
X50445Y22336D01*
X50331Y22303D01*
X50215Y22281D01*
X50097Y22269D01*
X50035D01*
Y24767D01*
X50097D01*
X50215Y24755D01*
X50331Y24733D01*
X50445Y24700D01*
X50555Y24656D01*
X50660Y24602D01*
X50687Y24589D01*
X50716Y24580D01*
X50745Y24577D01*
X50775Y24577D01*
X50805Y24583D01*
X50833Y24593D01*
X50859Y24607D01*
X50883Y24626D01*
X50904Y24648D01*
X50921Y24672D01*
X50933Y24699D01*
X50942Y24728D01*
X50946Y24758D01*
X50945Y24788D01*
X50939Y24817D01*
X50929Y24846D01*
X50915Y24872D01*
X50897Y24896D01*
X50875Y24916D01*
X50850Y24933D01*
X50713Y25005D01*
X50569Y25062D01*
X50421Y25105D01*
X50269Y25134D01*
X50115Y25149D01*
X50035D01*
Y29502D01*
X50038Y29502D01*
X50294Y29522D01*
X50544Y29582D01*
X50781Y29680D01*
X51000Y29814D01*
X51195Y29981D01*
X51362Y30176D01*
X51382Y30210D01*
Y24402D01*
X51366Y24411D01*
X51338Y24421D01*
X51308Y24426D01*
X51278Y24427D01*
X51248Y24423D01*
X51219Y24415D01*
X51192Y24402D01*
X51167Y24385D01*
X51145Y24364D01*
X51126Y24340D01*
X51112Y24314D01*
X51102Y24285D01*
X51096Y24256D01*
X51095Y24225D01*
X51099Y24195D01*
X51108Y24166D01*
X51121Y24139D01*
X51176Y24035D01*
X51220Y23925D01*
X51253Y23811D01*
X51275Y23695D01*
X51287Y23577D01*
Y23459D01*
X51275Y23341D01*
X51253Y23225D01*
X51220Y23111D01*
X51176Y23001D01*
X51122Y22896D01*
X51109Y22869D01*
X51100Y22840D01*
X51097Y22811D01*
X51097Y22781D01*
X51103Y22751D01*
X51113Y22723D01*
X51127Y22697D01*
X51146Y22673D01*
X51168Y22652D01*
X51192Y22635D01*
X51219Y22623D01*
X51248Y22614D01*
X51278Y22610D01*
X51308Y22611D01*
X51337Y22617D01*
X51366Y22627D01*
X51382Y22636D01*
Y16826D01*
G37*
G36*
Y7643D02*X50035D01*
Y14262D01*
X50038Y14262D01*
X50294Y14282D01*
X50544Y14342D01*
X50781Y14440D01*
X51000Y14574D01*
X51195Y14741D01*
X51362Y14936D01*
X51382Y14970D01*
Y7643D01*
G37*
G36*
X50035Y61237D02*X51382D01*
Y54037D01*
X51362Y54071D01*
X51195Y54266D01*
X51000Y54433D01*
X50781Y54567D01*
X50544Y54665D01*
X50294Y54725D01*
X50038Y54745D01*
X50035Y54745D01*
Y57386D01*
X50315Y57386D01*
X50354Y57396D01*
X50391Y57411D01*
X50425Y57432D01*
X50456Y57458D01*
X50482Y57488D01*
X50503Y57522D01*
X50518Y57559D01*
X50527Y57598D01*
X50529Y57638D01*
X50527Y59283D01*
X50518Y59322D01*
X50503Y59359D01*
X50482Y59393D01*
X50456Y59423D01*
X50425Y59449D01*
X50391Y59470D01*
X50354Y59485D01*
X50315Y59495D01*
X50275Y59497D01*
X50035Y59497D01*
Y61237D01*
G37*
G36*
Y47125D02*X49782Y47105D01*
X49532Y47045D01*
X49295Y46947D01*
X49076Y46813D01*
X48881Y46646D01*
X48714Y46451D01*
X48580Y46232D01*
X48509Y46061D01*
X46855D01*
Y49070D01*
X46992Y49013D01*
X47242Y48953D01*
X47498Y48933D01*
X47754Y48953D01*
X48004Y49013D01*
X48241Y49111D01*
X48460Y49245D01*
X48655Y49412D01*
X48822Y49607D01*
X48956Y49826D01*
X49054Y50063D01*
X49114Y50313D01*
X49129Y50569D01*
X49114Y50825D01*
X49054Y51075D01*
X48956Y51312D01*
X48822Y51531D01*
X48655Y51726D01*
X48460Y51893D01*
X48241Y52027D01*
X48004Y52125D01*
X47754Y52185D01*
X47498Y52205D01*
X47242Y52185D01*
X46992Y52125D01*
X46855Y52068D01*
Y57385D01*
X50035Y57386D01*
Y54745D01*
X49782Y54725D01*
X49532Y54665D01*
X49295Y54567D01*
X49076Y54433D01*
X48881Y54266D01*
X48714Y54071D01*
X48580Y53852D01*
X48482Y53615D01*
X48422Y53365D01*
X48402Y53109D01*
X48422Y52853D01*
X48482Y52603D01*
X48580Y52366D01*
X48714Y52147D01*
X48881Y51952D01*
X49076Y51785D01*
X49295Y51651D01*
X49532Y51553D01*
X49782Y51493D01*
X50035Y51473D01*
Y47125D01*
G37*
G36*
X48694Y36941D02*X48714Y36907D01*
X48881Y36712D01*
X49076Y36545D01*
X49295Y36411D01*
X49532Y36313D01*
X49782Y36253D01*
X50035Y36233D01*
Y32774D01*
X49782Y32754D01*
X49532Y32694D01*
X49295Y32596D01*
X49076Y32462D01*
X48881Y32295D01*
X48714Y32100D01*
X48694Y32066D01*
Y36941D01*
G37*
G36*
Y39298D02*X48822Y39447D01*
X48956Y39666D01*
X49054Y39903D01*
X49114Y40153D01*
X49129Y40409D01*
X49114Y40665D01*
X49054Y40915D01*
X48956Y41152D01*
X48822Y41371D01*
X48694Y41520D01*
Y44561D01*
X48714Y44527D01*
X48881Y44332D01*
X49076Y44165D01*
X49295Y44031D01*
X49532Y43933D01*
X49782Y43873D01*
X50035Y43853D01*
Y39505D01*
X49782Y39485D01*
X49532Y39425D01*
X49295Y39327D01*
X49076Y39193D01*
X48881Y39026D01*
X48714Y38831D01*
X48694Y38797D01*
Y39298D01*
G37*
G36*
Y17327D02*X48822Y17476D01*
X48956Y17695D01*
X49054Y17932D01*
X49114Y18182D01*
X49129Y18438D01*
X49114Y18694D01*
X49054Y18944D01*
X48956Y19181D01*
X48822Y19400D01*
X48694Y19549D01*
Y22634D01*
X48710Y22625D01*
X48738Y22615D01*
X48768Y22610D01*
X48798Y22609D01*
X48828Y22613D01*
X48857Y22621D01*
X48884Y22634D01*
X48909Y22651D01*
X48931Y22672D01*
X48950Y22696D01*
X48964Y22722D01*
X48974Y22751D01*
X48980Y22780D01*
X48981Y22811D01*
X48977Y22841D01*
X48968Y22870D01*
X48955Y22897D01*
X48900Y23001D01*
X48856Y23111D01*
X48823Y23225D01*
X48801Y23341D01*
X48789Y23459D01*
Y23577D01*
X48801Y23695D01*
X48823Y23811D01*
X48856Y23925D01*
X48900Y24035D01*
X48954Y24140D01*
X48967Y24167D01*
X48976Y24196D01*
X48979Y24225D01*
X48979Y24255D01*
X48973Y24285D01*
X48963Y24313D01*
X48949Y24339D01*
X48930Y24363D01*
X48908Y24384D01*
X48884Y24401D01*
X48857Y24413D01*
X48828Y24422D01*
X48798Y24426D01*
X48768Y24425D01*
X48739Y24419D01*
X48710Y24409D01*
X48694Y24400D01*
Y27487D01*
X48822Y27636D01*
X48956Y27855D01*
X49054Y28092D01*
X49114Y28342D01*
X49129Y28598D01*
X49114Y28854D01*
X49054Y29104D01*
X48956Y29341D01*
X48822Y29560D01*
X48694Y29709D01*
Y30210D01*
X48714Y30176D01*
X48881Y29981D01*
X49076Y29814D01*
X49295Y29680D01*
X49532Y29582D01*
X49782Y29522D01*
X50035Y29502D01*
Y25149D01*
X49961D01*
X49807Y25134D01*
X49655Y25105D01*
X49507Y25062D01*
X49363Y25005D01*
X49225Y24934D01*
X49200Y24917D01*
X49178Y24897D01*
X49160Y24873D01*
X49145Y24846D01*
X49135Y24818D01*
X49130Y24788D01*
X49129Y24758D01*
X49133Y24728D01*
X49141Y24699D01*
X49154Y24672D01*
X49171Y24647D01*
X49192Y24625D01*
X49216Y24606D01*
X49242Y24592D01*
X49271Y24582D01*
X49300Y24576D01*
X49331Y24575D01*
X49361Y24579D01*
X49390Y24588D01*
X49417Y24601D01*
X49521Y24656D01*
X49631Y24700D01*
X49745Y24733D01*
X49861Y24755D01*
X49979Y24767D01*
X50035D01*
Y22269D01*
X49979D01*
X49861Y22281D01*
X49745Y22303D01*
X49631Y22336D01*
X49521Y22380D01*
X49416Y22434D01*
X49389Y22447D01*
X49360Y22456D01*
X49331Y22459D01*
X49301Y22459D01*
X49271Y22453D01*
X49243Y22443D01*
X49217Y22429D01*
X49193Y22410D01*
X49172Y22388D01*
X49155Y22364D01*
X49143Y22337D01*
X49134Y22308D01*
X49130Y22278D01*
X49131Y22248D01*
X49137Y22219D01*
X49147Y22190D01*
X49161Y22164D01*
X49179Y22140D01*
X49201Y22120D01*
X49226Y22103D01*
X49363Y22031D01*
X49507Y21974D01*
X49655Y21931D01*
X49807Y21902D01*
X49961Y21887D01*
X50035D01*
Y17534D01*
X49782Y17514D01*
X49532Y17454D01*
X49295Y17356D01*
X49076Y17222D01*
X48881Y17055D01*
X48714Y16860D01*
X48694Y16826D01*
Y17327D01*
G37*
G36*
X50035Y7643D02*X48694D01*
Y14970D01*
X48714Y14936D01*
X48881Y14741D01*
X49076Y14574D01*
X49295Y14440D01*
X49532Y14342D01*
X49782Y14282D01*
X50035Y14262D01*
Y7643D01*
G37*
G36*
X48694Y41520D02*X48655Y41566D01*
X48460Y41733D01*
X48241Y41867D01*
X48004Y41965D01*
X47754Y42025D01*
X47498Y42045D01*
X47242Y42025D01*
X46992Y41965D01*
X46855Y41908D01*
Y44918D01*
X48509D01*
X48580Y44746D01*
X48694Y44561D01*
Y41520D01*
G37*
G36*
Y29709D02*X48655Y29755D01*
X48460Y29922D01*
X48241Y30056D01*
X48004Y30154D01*
X47754Y30214D01*
X47498Y30234D01*
X47242Y30214D01*
X46992Y30154D01*
X46855Y30097D01*
Y38910D01*
X46992Y38853D01*
X47242Y38793D01*
X47498Y38773D01*
X47754Y38793D01*
X48004Y38853D01*
X48241Y38951D01*
X48460Y39085D01*
X48655Y39252D01*
X48694Y39298D01*
Y38797D01*
X48580Y38612D01*
X48482Y38375D01*
X48422Y38125D01*
X48402Y37869D01*
X48422Y37613D01*
X48482Y37363D01*
X48580Y37126D01*
X48694Y36941D01*
Y32066D01*
X48580Y31881D01*
X48482Y31644D01*
X48422Y31394D01*
X48402Y31138D01*
X48422Y30882D01*
X48482Y30632D01*
X48580Y30395D01*
X48694Y30210D01*
Y29709D01*
G37*
G36*
Y19549D02*X48655Y19595D01*
X48460Y19762D01*
X48241Y19896D01*
X48004Y19994D01*
X47754Y20054D01*
X47498Y20074D01*
X47242Y20054D01*
X46992Y19994D01*
X46855Y19937D01*
Y27099D01*
X46992Y27042D01*
X47242Y26982D01*
X47498Y26962D01*
X47754Y26982D01*
X48004Y27042D01*
X48241Y27140D01*
X48460Y27274D01*
X48655Y27441D01*
X48694Y27487D01*
Y24400D01*
X48684Y24395D01*
X48660Y24377D01*
X48640Y24355D01*
X48623Y24330D01*
X48551Y24193D01*
X48494Y24049D01*
X48451Y23901D01*
X48422Y23749D01*
X48407Y23595D01*
Y23441D01*
X48422Y23287D01*
X48451Y23135D01*
X48494Y22987D01*
X48551Y22843D01*
X48622Y22705D01*
X48639Y22680D01*
X48659Y22658D01*
X48683Y22640D01*
X48694Y22634D01*
Y19549D01*
G37*
G36*
Y7643D02*X46855D01*
Y16939D01*
X46992Y16882D01*
X47242Y16822D01*
X47498Y16802D01*
X47754Y16822D01*
X48004Y16882D01*
X48241Y16980D01*
X48460Y17114D01*
X48655Y17281D01*
X48694Y17327D01*
Y16826D01*
X48580Y16641D01*
X48482Y16404D01*
X48422Y16154D01*
X48402Y15898D01*
X48422Y15642D01*
X48482Y15392D01*
X48580Y15155D01*
X48694Y14970D01*
Y7643D01*
G37*
G36*
X46855Y61237D02*X50035D01*
Y59497D01*
X46855Y59496D01*
Y61237D01*
G37*
G36*
X26383Y35304D02*X26445Y35231D01*
X26547Y35144D01*
X26660Y35075D01*
X26383D01*
Y35304D01*
G37*
G36*
Y36599D02*X26660D01*
X26547Y36530D01*
X26445Y36443D01*
X26383Y36370D01*
Y36599D01*
G37*
G36*
Y39139D02*X27675D01*
X27680Y39126D01*
X27774Y38973D01*
X27891Y38836D01*
X28028Y38719D01*
X28181Y38625D01*
X28348Y38557D01*
X28523Y38515D01*
X28702Y38500D01*
X28881Y38515D01*
X29056Y38557D01*
X29223Y38625D01*
X29376Y38719D01*
X29513Y38836D01*
X29630Y38973D01*
X29724Y39126D01*
X29792Y39293D01*
X29834Y39468D01*
X29845Y39647D01*
X29834Y39826D01*
X29792Y40001D01*
X29724Y40168D01*
X29683Y40233D01*
X30226Y39691D01*
Y35610D01*
X29892Y36111D01*
X29876Y36137D01*
X29851Y36167D01*
X29839Y36183D01*
X29831Y36189D01*
X29824Y36197D01*
X29802Y36217D01*
X29780Y36237D01*
X29771Y36243D01*
X29764Y36249D01*
X29738Y36265D01*
X29713Y36281D01*
X29704Y36286D01*
X29695Y36291D01*
X29668Y36302D01*
X29641Y36315D01*
X29631Y36318D01*
X29621Y36322D01*
X29593Y36329D01*
X29564Y36337D01*
X29554Y36338D01*
X29549Y36339D01*
X29630Y36433D01*
X29724Y36586D01*
X29792Y36753D01*
X29834Y36928D01*
X29845Y37107D01*
X29834Y37286D01*
X29792Y37461D01*
X29724Y37628D01*
X29630Y37781D01*
X29513Y37918D01*
X29376Y38035D01*
X29223Y38129D01*
X29056Y38197D01*
X28881Y38239D01*
X28702Y38254D01*
X28523Y38239D01*
X28348Y38197D01*
X28181Y38129D01*
X28028Y38035D01*
X27891Y37918D01*
X27774Y37781D01*
X27680Y37628D01*
X27675Y37615D01*
X26383D01*
Y39139D01*
G37*
G36*
Y44219D02*X27562D01*
X27563Y43905D01*
X27577Y43847D01*
X27599Y43791D01*
X27631Y43740D01*
X27670Y43695D01*
X27715Y43656D01*
X27766Y43624D01*
X27822Y43602D01*
X27880Y43588D01*
X27940Y43584D01*
X29524Y43588D01*
X29582Y43602D01*
X29638Y43624D01*
X29689Y43656D01*
X29734Y43695D01*
X29773Y43740D01*
X29805Y43791D01*
X29827Y43847D01*
X29841Y43905D01*
X29845Y43965D01*
X29844Y44219D01*
X30524D01*
X32004Y42739D01*
Y38526D01*
X31440Y38525D01*
X31382Y38511D01*
X31327Y38488D01*
X31275Y38457D01*
X31242Y38428D01*
Y39881D01*
X31244Y39901D01*
X31237Y39981D01*
X31237Y39981D01*
X31219Y40058D01*
X31188Y40132D01*
X31146Y40201D01*
X31094Y40261D01*
X31079Y40274D01*
X30091Y41262D01*
X30078Y41277D01*
X30018Y41329D01*
X30018Y41329D01*
X29949Y41371D01*
X29875Y41402D01*
X29798Y41420D01*
X29718Y41427D01*
X29698Y41425D01*
X29554D01*
X29630Y41513D01*
X29724Y41666D01*
X29792Y41833D01*
X29834Y42008D01*
X29845Y42187D01*
X29834Y42366D01*
X29792Y42541D01*
X29724Y42708D01*
X29630Y42861D01*
X29513Y42998D01*
X29376Y43115D01*
X29223Y43209D01*
X29056Y43277D01*
X28881Y43319D01*
X28702Y43334D01*
X28523Y43319D01*
X28348Y43277D01*
X28181Y43209D01*
X28028Y43115D01*
X27891Y42998D01*
X27774Y42861D01*
X27680Y42708D01*
X27675Y42695D01*
X26383D01*
Y44219D01*
G37*
G36*
X38098Y43662D02*X38137Y43653D01*
X38227Y43646D01*
X38249Y43648D01*
X38644D01*
X38657Y43631D01*
X38693Y43601D01*
X38734Y43576D01*
X38750Y43569D01*
X38734Y43562D01*
X38693Y43537D01*
X38657Y43507D01*
X38644Y43491D01*
X38098D01*
Y43662D01*
G37*
G36*
Y13739D02*X39430D01*
X39430Y13700D01*
X39441Y13654D01*
X39459Y13611D01*
X39484Y13570D01*
X39514Y13534D01*
X39550Y13504D01*
X39590Y13479D01*
X39634Y13461D01*
X39680Y13450D01*
X39727Y13447D01*
X40524Y13450D01*
X40570Y13461D01*
X40614Y13479D01*
X40654Y13504D01*
X40690Y13534D01*
X40720Y13570D01*
X40745Y13611D01*
X40752Y13627D01*
X40759Y13611D01*
X40784Y13570D01*
X40814Y13534D01*
X40850Y13504D01*
X40890Y13479D01*
X40934Y13461D01*
X40980Y13450D01*
X41027Y13447D01*
X41824Y13450D01*
X41870Y13461D01*
X41914Y13479D01*
X41954Y13504D01*
X41990Y13534D01*
X42020Y13570D01*
X42045Y13611D01*
X42063Y13654D01*
X42074Y13700D01*
X42077Y13747D01*
X42074Y14794D01*
X42063Y14840D01*
X42045Y14883D01*
X42020Y14924D01*
X41990Y14960D01*
X41954Y14990D01*
X41923Y15009D01*
X41954Y15028D01*
X41990Y15058D01*
X42020Y15094D01*
X42045Y15135D01*
X42052Y15151D01*
X42059Y15135D01*
X42084Y15094D01*
X42114Y15058D01*
X42150Y15028D01*
X42190Y15003D01*
X42234Y14985D01*
X42280Y14974D01*
X42327Y14971D01*
X43124Y14974D01*
X43170Y14985D01*
X43214Y15003D01*
X43254Y15028D01*
X43290Y15058D01*
X43320Y15094D01*
X43345Y15135D01*
X43363Y15178D01*
X43374Y15224D01*
X43377Y15271D01*
X43374Y16318D01*
X43363Y16364D01*
X43345Y16407D01*
X43320Y16448D01*
X43290Y16484D01*
X43254Y16514D01*
X43214Y16539D01*
X43210Y16540D01*
Y17369D01*
X43644Y17803D01*
X45996D01*
X46040Y17695D01*
X46174Y17476D01*
X46341Y17281D01*
X46536Y17114D01*
X46755Y16980D01*
X46855Y16939D01*
Y7643D01*
X38098D01*
Y13739D01*
G37*
G36*
X44100Y27963D02*X45996D01*
X46040Y27855D01*
X46174Y27636D01*
X46341Y27441D01*
X46536Y27274D01*
X46755Y27140D01*
X46855Y27099D01*
Y19937D01*
X46755Y19896D01*
X46536Y19762D01*
X46341Y19595D01*
X46174Y19400D01*
X46040Y19181D01*
X45942Y18944D01*
X45912Y18819D01*
X44100D01*
Y27963D01*
G37*
G36*
Y39901D02*X45943D01*
X46040Y39666D01*
X46174Y39447D01*
X46341Y39252D01*
X46536Y39085D01*
X46755Y38951D01*
X46855Y38910D01*
Y30097D01*
X46755Y30056D01*
X46536Y29922D01*
X46341Y29755D01*
X46174Y29560D01*
X46040Y29341D01*
X45942Y29104D01*
X45912Y28979D01*
X44100D01*
Y39901D01*
G37*
G36*
Y44918D02*X46855D01*
Y41908D01*
X46755Y41867D01*
X46536Y41733D01*
X46341Y41566D01*
X46174Y41371D01*
X46040Y41152D01*
X45943Y40917D01*
X44100D01*
Y44918D01*
G37*
G36*
X46285Y49477D02*X46341Y49412D01*
X46536Y49245D01*
X46755Y49111D01*
X46855Y49070D01*
Y46061D01*
X46285D01*
Y47599D01*
X46296Y47602D01*
X46314Y47611D01*
X46330Y47622D01*
X46345Y47635D01*
X46358Y47651D01*
X46367Y47668D01*
X46399Y47745D01*
X46423Y47824D01*
X46439Y47905D01*
X46447Y47988D01*
Y48070D01*
X46439Y48153D01*
X46423Y48234D01*
X46399Y48313D01*
X46368Y48390D01*
X46358Y48408D01*
X46346Y48423D01*
X46331Y48437D01*
X46314Y48448D01*
X46296Y48456D01*
X46285Y48459D01*
Y49477D01*
G37*
G36*
X45593Y50061D02*X45943D01*
X46040Y49826D01*
X46174Y49607D01*
X46285Y49477D01*
Y48459D01*
X46276Y48462D01*
X46256Y48464D01*
X46236Y48463D01*
X46217Y48459D01*
X46198Y48452D01*
X46180Y48442D01*
X46165Y48430D01*
X46151Y48415D01*
X46140Y48398D01*
X46132Y48380D01*
X46126Y48361D01*
X46124Y48341D01*
X46125Y48320D01*
X46129Y48301D01*
X46136Y48282D01*
X46159Y48229D01*
X46175Y48173D01*
X46187Y48116D01*
X46192Y48058D01*
Y48000D01*
X46187Y47942D01*
X46175Y47885D01*
X46159Y47829D01*
X46137Y47776D01*
X46130Y47757D01*
X46126Y47737D01*
X46125Y47717D01*
X46127Y47698D01*
X46132Y47678D01*
X46141Y47660D01*
X46152Y47644D01*
X46165Y47629D01*
X46181Y47616D01*
X46198Y47606D01*
X46217Y47599D01*
X46236Y47596D01*
X46256Y47595D01*
X46276Y47597D01*
X46285Y47599D01*
Y46061D01*
X45593D01*
Y47175D01*
X45634D01*
X45717Y47183D01*
X45798Y47199D01*
X45877Y47223D01*
X45954Y47254D01*
X45972Y47264D01*
X45987Y47276D01*
X46001Y47291D01*
X46012Y47308D01*
X46020Y47326D01*
X46026Y47346D01*
X46028Y47366D01*
X46027Y47386D01*
X46023Y47405D01*
X46016Y47424D01*
X46006Y47442D01*
X45994Y47457D01*
X45979Y47471D01*
X45962Y47482D01*
X45944Y47490D01*
X45925Y47496D01*
X45905Y47498D01*
X45884Y47497D01*
X45865Y47493D01*
X45846Y47486D01*
X45827Y47478D01*
X45850Y47515D01*
X45884Y47598D01*
X45905Y47685D01*
X45912Y47775D01*
X45905Y47865D01*
X45884Y47952D01*
X45850Y48035D01*
X45803Y48112D01*
X45744Y48180D01*
X45676Y48239D01*
X45599Y48286D01*
X45593Y48289D01*
Y48628D01*
X45622D01*
X45680Y48623D01*
X45737Y48611D01*
X45793Y48595D01*
X45846Y48573D01*
X45865Y48566D01*
X45885Y48562D01*
X45905Y48561D01*
X45924Y48563D01*
X45944Y48568D01*
X45962Y48577D01*
X45978Y48588D01*
X45993Y48601D01*
X46006Y48617D01*
X46016Y48634D01*
X46023Y48653D01*
X46026Y48672D01*
X46027Y48692D01*
X46025Y48712D01*
X46020Y48732D01*
X46011Y48750D01*
X46000Y48766D01*
X45987Y48781D01*
X45971Y48794D01*
X45954Y48803D01*
X45877Y48835D01*
X45798Y48859D01*
X45717Y48875D01*
X45634Y48883D01*
X45593D01*
Y50061D01*
G37*
G36*
Y46061D02*X44100D01*
Y46188D01*
X44301D01*
X44323Y46186D01*
X44413Y46193D01*
X44413Y46193D01*
X44500Y46214D01*
X44583Y46248D01*
X44660Y46295D01*
X44728Y46354D01*
X44743Y46371D01*
X45548Y47175D01*
X45552Y47175D01*
X45593D01*
Y46061D01*
G37*
G36*
X44100Y52740D02*X44450Y52391D01*
Y50589D01*
X44448Y50569D01*
X44455Y50489D01*
X44473Y50412D01*
X44504Y50338D01*
X44546Y50269D01*
X44598Y50209D01*
X44658Y50157D01*
X44727Y50115D01*
X44801Y50084D01*
X44878Y50066D01*
X44878Y50066D01*
X44958Y50059D01*
X44978Y50061D01*
X45593D01*
Y48883D01*
X45552D01*
X45469Y48875D01*
X45388Y48859D01*
X45309Y48835D01*
X45232Y48804D01*
X45214Y48794D01*
X45199Y48782D01*
X45185Y48767D01*
X45174Y48750D01*
X45166Y48732D01*
X45160Y48712D01*
X45158Y48692D01*
X45159Y48672D01*
X45163Y48653D01*
X45170Y48634D01*
X45180Y48616D01*
X45192Y48601D01*
X45207Y48587D01*
X45224Y48576D01*
X45242Y48568D01*
X45261Y48562D01*
X45281Y48560D01*
X45302Y48561D01*
X45321Y48565D01*
X45340Y48572D01*
X45393Y48595D01*
X45449Y48611D01*
X45506Y48623D01*
X45564Y48628D01*
X45593D01*
Y48289D01*
X45516Y48320D01*
X45429Y48341D01*
X45339Y48348D01*
X45249Y48341D01*
X45162Y48320D01*
X45079Y48286D01*
X45041Y48263D01*
X45049Y48282D01*
X45056Y48301D01*
X45060Y48321D01*
X45061Y48341D01*
X45059Y48360D01*
X45054Y48380D01*
X45045Y48398D01*
X45034Y48414D01*
X45021Y48429D01*
X45005Y48442D01*
X44988Y48452D01*
X44969Y48459D01*
X44950Y48462D01*
X44930Y48463D01*
X44910Y48461D01*
X44890Y48456D01*
X44872Y48447D01*
X44856Y48436D01*
X44841Y48423D01*
X44828Y48407D01*
X44819Y48390D01*
X44787Y48313D01*
X44763Y48234D01*
X44747Y48153D01*
X44739Y48070D01*
Y47988D01*
X44739Y47984D01*
X44100Y47344D01*
Y52740D01*
G37*
G36*
Y57384D02*X46855Y57385D01*
Y52068D01*
X46755Y52027D01*
X46536Y51893D01*
X46341Y51726D01*
X46174Y51531D01*
X46040Y51312D01*
X45943Y51077D01*
X45466D01*
Y52581D01*
X45468Y52601D01*
X45461Y52681D01*
X45443Y52758D01*
X45412Y52832D01*
X45370Y52901D01*
X45370Y52901D01*
X45318Y52961D01*
X45303Y52974D01*
X44173Y54104D01*
X44160Y54119D01*
X44100Y54171D01*
Y57384D01*
G37*
G36*
Y61237D02*X46855D01*
Y59496D01*
X44100Y59495D01*
Y61237D01*
G37*
G36*
X42630Y27797D02*X43219Y27799D01*
X43265Y27810D01*
X43308Y27828D01*
X43349Y27853D01*
X43385Y27883D01*
X43415Y27919D01*
X43440Y27959D01*
X43441Y27963D01*
X44100D01*
Y18819D01*
X43454D01*
X43434Y18821D01*
X43354Y18814D01*
X43277Y18796D01*
X43203Y18765D01*
X43134Y18723D01*
X43134Y18723D01*
X43074Y18671D01*
X43061Y18656D01*
X42630Y18226D01*
Y21913D01*
X42675Y21943D01*
X42739Y21996D01*
X42797Y22054D01*
X42850Y22118D01*
X42896Y22187D01*
X42935Y22260D01*
X42967Y22336D01*
X42973Y22356D01*
X42975Y22376D01*
X42974Y22396D01*
X42970Y22415D01*
X42963Y22434D01*
X42953Y22452D01*
X42941Y22467D01*
X42926Y22481D01*
X42909Y22492D01*
X42891Y22500D01*
X42872Y22506D01*
X42852Y22508D01*
X42832Y22507D01*
X42812Y22503D01*
X42793Y22496D01*
X42775Y22486D01*
X42760Y22474D01*
X42746Y22459D01*
X42735Y22442D01*
X42727Y22424D01*
X42705Y22370D01*
X42678Y22319D01*
X42645Y22271D01*
X42630Y22253D01*
Y23005D01*
X42645Y22987D01*
X42678Y22939D01*
X42705Y22888D01*
X42728Y22834D01*
X42736Y22816D01*
X42747Y22799D01*
X42760Y22785D01*
X42776Y22772D01*
X42793Y22762D01*
X42812Y22755D01*
X42832Y22751D01*
X42852Y22751D01*
X42871Y22753D01*
X42891Y22758D01*
X42909Y22766D01*
X42926Y22778D01*
X42940Y22791D01*
X42953Y22807D01*
X42963Y22824D01*
X42970Y22843D01*
X42974Y22862D01*
X42974Y22882D01*
X42972Y22902D01*
X42966Y22921D01*
X42935Y22998D01*
X42896Y23071D01*
X42850Y23140D01*
X42797Y23204D01*
X42739Y23262D01*
X42675Y23315D01*
X42630Y23345D01*
Y27797D01*
G37*
G36*
Y40240D02*X42807Y40064D01*
X42820Y40049D01*
X42880Y39997D01*
X42880Y39997D01*
X42949Y39955D01*
X43023Y39924D01*
X43100Y39906D01*
X43180Y39899D01*
X43200Y39901D01*
X44100D01*
Y28979D01*
X43441D01*
X43440Y28983D01*
X43415Y29023D01*
X43385Y29059D01*
X43349Y29089D01*
X43308Y29114D01*
X43292Y29121D01*
X43308Y29128D01*
X43349Y29153D01*
X43385Y29183D01*
X43415Y29219D01*
X43440Y29259D01*
X43458Y29303D01*
X43469Y29349D01*
X43472Y29396D01*
X43469Y30193D01*
X43461Y30225D01*
X43462Y30225D01*
X43501Y30235D01*
X43537Y30250D01*
X43572Y30271D01*
X43602Y30297D01*
X43628Y30327D01*
X43649Y30361D01*
X43664Y30398D01*
X43673Y30437D01*
X43676Y30477D01*
X43673Y31817D01*
X43664Y31856D01*
X43649Y31893D01*
X43628Y31927D01*
X43602Y31957D01*
X43572Y31983D01*
X43537Y32004D01*
X43501Y32019D01*
X43469Y32027D01*
X43501Y32035D01*
X43537Y32050D01*
X43572Y32071D01*
X43602Y32097D01*
X43628Y32127D01*
X43649Y32161D01*
X43664Y32198D01*
X43673Y32237D01*
X43676Y32277D01*
X43673Y33617D01*
X43664Y33656D01*
X43649Y33693D01*
X43628Y33727D01*
X43602Y33757D01*
X43572Y33783D01*
X43537Y33804D01*
X43501Y33819D01*
X43462Y33829D01*
X43422Y33831D01*
X43180Y33831D01*
Y35148D01*
X43278Y35231D01*
X43365Y35333D01*
X43435Y35448D01*
X43487Y35572D01*
X43518Y35703D01*
X43526Y35837D01*
X43518Y35971D01*
X43487Y36102D01*
X43435Y36226D01*
X43365Y36341D01*
X43278Y36443D01*
X43176Y36530D01*
X43061Y36600D01*
X42937Y36652D01*
X42806Y36683D01*
X42672Y36694D01*
X42630Y36690D01*
Y40240D01*
G37*
G36*
Y44861D02*X43466Y44862D01*
X43505Y44872D01*
X43542Y44887D01*
X43576Y44908D01*
X43587Y44918D01*
X44100D01*
Y40917D01*
X43390D01*
X42926Y41381D01*
Y41418D01*
X42958Y41418D01*
X42997Y41428D01*
X43034Y41443D01*
X43068Y41464D01*
X43098Y41490D01*
X43124Y41520D01*
X43145Y41554D01*
X43160Y41591D01*
X43170Y41630D01*
X43172Y41670D01*
X43170Y42460D01*
X43160Y42499D01*
X43145Y42536D01*
X43124Y42570D01*
X43098Y42600D01*
X43068Y42626D01*
X43034Y42647D01*
X42997Y42662D01*
X42958Y42672D01*
X42918Y42674D01*
X42630Y42673D01*
Y42718D01*
X42958Y42718D01*
X42997Y42728D01*
X43034Y42743D01*
X43068Y42764D01*
X43098Y42790D01*
X43124Y42820D01*
X43145Y42854D01*
X43160Y42891D01*
X43170Y42930D01*
X43172Y42970D01*
X43170Y43760D01*
X43160Y43799D01*
X43145Y43836D01*
X43124Y43870D01*
X43098Y43900D01*
X43068Y43926D01*
X43034Y43947D01*
X42997Y43962D01*
X42958Y43972D01*
X42927Y43973D01*
X42921Y44045D01*
X42921Y44045D01*
X42903Y44122D01*
X42872Y44196D01*
X42830Y44265D01*
X42778Y44325D01*
X42763Y44338D01*
X42630Y44471D01*
Y44861D01*
G37*
G36*
Y46161D02*X43466Y46162D01*
X43505Y46172D01*
X43542Y46187D01*
X43542Y46188D01*
X44100D01*
Y46061D01*
X43587D01*
X43576Y46070D01*
X43542Y46091D01*
X43505Y46106D01*
X43466Y46116D01*
X43426Y46118D01*
X42630Y46116D01*
Y46161D01*
G37*
G36*
Y50480D02*X42958Y50480D01*
X42997Y50490D01*
X43034Y50505D01*
X43068Y50526D01*
X43098Y50552D01*
X43124Y50582D01*
X43145Y50616D01*
X43160Y50653D01*
X43170Y50692D01*
X43172Y50732D01*
X43170Y51522D01*
X43160Y51561D01*
X43145Y51598D01*
X43124Y51632D01*
X43098Y51662D01*
X43068Y51688D01*
X43034Y51709D01*
X42997Y51724D01*
X42958Y51734D01*
X42926Y51735D01*
Y51787D01*
X42965Y51787D01*
X43011Y51798D01*
X43054Y51816D01*
X43095Y51841D01*
X43131Y51871D01*
X43161Y51907D01*
X43186Y51947D01*
X43204Y51991D01*
X43215Y52037D01*
X43218Y52084D01*
X43215Y52881D01*
X43204Y52927D01*
X43186Y52971D01*
X43161Y53011D01*
X43131Y53047D01*
X43095Y53077D01*
X43054Y53102D01*
X43038Y53109D01*
X43054Y53116D01*
X43095Y53141D01*
X43131Y53171D01*
X43161Y53207D01*
X43186Y53247D01*
X43187Y53251D01*
X43590D01*
X44100Y52740D01*
Y47344D01*
X44086Y47331D01*
X43618D01*
X43606Y47344D01*
X43576Y47370D01*
X43542Y47391D01*
X43505Y47406D01*
X43466Y47416D01*
X43426Y47418D01*
X42630Y47416D01*
Y49180D01*
X42958Y49180D01*
X42997Y49190D01*
X43034Y49205D01*
X43068Y49226D01*
X43098Y49252D01*
X43124Y49282D01*
X43145Y49316D01*
X43160Y49353D01*
X43170Y49392D01*
X43172Y49432D01*
X43170Y50222D01*
X43160Y50261D01*
X43145Y50298D01*
X43124Y50332D01*
X43098Y50362D01*
X43068Y50388D01*
X43034Y50409D01*
X42997Y50424D01*
X42958Y50434D01*
X42918Y50436D01*
X42630Y50435D01*
Y50480D01*
G37*
G36*
Y61237D02*X44100D01*
Y59495D01*
X43394Y59495D01*
X43355Y59485D01*
X43318Y59470D01*
X43284Y59449D01*
X43254Y59423D01*
X43228Y59393D01*
X43207Y59359D01*
X43192Y59322D01*
X43182Y59283D01*
X43180Y59243D01*
X43182Y57598D01*
X43192Y57559D01*
X43207Y57522D01*
X43228Y57488D01*
X43254Y57458D01*
X43284Y57432D01*
X43318Y57411D01*
X43355Y57396D01*
X43394Y57386D01*
X43434Y57384D01*
X44100Y57384D01*
Y54171D01*
X44100Y54171D01*
X44100Y54171D01*
X44031Y54213D01*
X43957Y54244D01*
X43880Y54262D01*
X43800Y54269D01*
X43780Y54267D01*
X43187D01*
X43186Y54271D01*
X43161Y54311D01*
X43131Y54347D01*
X43095Y54377D01*
X43054Y54402D01*
X43011Y54420D01*
X42965Y54431D01*
X42918Y54434D01*
X42630Y54433D01*
Y61237D01*
G37*
G36*
Y42673D02*X41878Y42672D01*
X41839Y42662D01*
X41802Y42647D01*
X41768Y42626D01*
X41738Y42600D01*
X41712Y42570D01*
X41691Y42536D01*
X41676Y42499D01*
X41666Y42460D01*
X41664Y42420D01*
X41666Y41630D01*
X41676Y41591D01*
X41691Y41554D01*
X41712Y41520D01*
X41738Y41490D01*
X41768Y41464D01*
X41802Y41443D01*
X41839Y41428D01*
X41878Y41418D01*
X41910Y41417D01*
Y41191D01*
X41908Y41171D01*
X41915Y41091D01*
X41933Y41014D01*
X41964Y40940D01*
X42006Y40871D01*
X42006Y40871D01*
X42058Y40811D01*
X42073Y40798D01*
X42630Y40240D01*
Y36690D01*
X42538Y36683D01*
X42407Y36652D01*
X42283Y36600D01*
X42168Y36530D01*
X42066Y36443D01*
X41979Y36341D01*
X41909Y36226D01*
X41857Y36102D01*
X41826Y35971D01*
X41815Y35837D01*
X41826Y35703D01*
X41857Y35572D01*
X41909Y35448D01*
X41979Y35333D01*
X42066Y35231D01*
X42164Y35148D01*
Y33829D01*
X41882Y33829D01*
X41843Y33819D01*
X41807Y33804D01*
X41772Y33783D01*
X41742Y33757D01*
X41716Y33727D01*
X41695Y33693D01*
X41680Y33656D01*
X41671Y33617D01*
X41668Y33577D01*
X41671Y32237D01*
X41680Y32198D01*
X41695Y32161D01*
X41716Y32127D01*
X41742Y32097D01*
X41772Y32071D01*
X41807Y32050D01*
X41843Y32035D01*
X41875Y32027D01*
X41843Y32019D01*
X41807Y32004D01*
X41772Y31983D01*
X41742Y31957D01*
X41716Y31927D01*
X41695Y31893D01*
X41680Y31856D01*
X41671Y31817D01*
X41668Y31777D01*
X41671Y30437D01*
X41680Y30398D01*
X41695Y30361D01*
X41716Y30327D01*
X41742Y30297D01*
X41772Y30271D01*
X41807Y30250D01*
X41843Y30235D01*
X41882Y30225D01*
X41883Y30225D01*
X41875Y30193D01*
X41872Y30146D01*
X41875Y29349D01*
X41886Y29303D01*
X41904Y29259D01*
X41929Y29219D01*
X41959Y29183D01*
X41995Y29153D01*
X42036Y29128D01*
X42052Y29121D01*
X42036Y29114D01*
X41995Y29089D01*
X41959Y29059D01*
X41929Y29023D01*
X41904Y28983D01*
X41886Y28939D01*
X41875Y28893D01*
X41872Y28846D01*
X41875Y28049D01*
X41886Y28003D01*
X41904Y27959D01*
X41929Y27919D01*
X41959Y27883D01*
X41995Y27853D01*
X42036Y27828D01*
X42079Y27810D01*
X42125Y27799D01*
X42172Y27796D01*
X42630Y27797D01*
Y23345D01*
X42606Y23361D01*
X42533Y23400D01*
X42457Y23432D01*
X42437Y23438D01*
X42417Y23440D01*
X42397Y23439D01*
X42378Y23435D01*
X42359Y23428D01*
X42341Y23418D01*
X42326Y23406D01*
X42312Y23391D01*
X42301Y23374D01*
X42293Y23356D01*
X42287Y23337D01*
X42285Y23317D01*
X42286Y23297D01*
X42290Y23277D01*
X42297Y23258D01*
X42307Y23240D01*
X42319Y23225D01*
X42334Y23211D01*
X42351Y23200D01*
X42369Y23192D01*
X42423Y23170D01*
X42474Y23143D01*
X42522Y23110D01*
X42567Y23073D01*
X42608Y23032D01*
X42630Y23005D01*
Y22253D01*
X42608Y22226D01*
X42567Y22185D01*
X42522Y22148D01*
X42474Y22115D01*
X42423Y22088D01*
X42369Y22065D01*
X42351Y22057D01*
X42334Y22046D01*
X42320Y22033D01*
X42307Y22017D01*
X42297Y22000D01*
X42290Y21981D01*
X42286Y21961D01*
X42286Y21941D01*
X42288Y21922D01*
X42293Y21902D01*
X42301Y21884D01*
X42313Y21867D01*
X42326Y21853D01*
X42342Y21840D01*
X42359Y21830D01*
X42378Y21823D01*
X42397Y21819D01*
X42417Y21819D01*
X42437Y21821D01*
X42456Y21827D01*
X42533Y21858D01*
X42606Y21897D01*
X42630Y21913D01*
Y18226D01*
X42357Y17952D01*
X42342Y17939D01*
X42290Y17879D01*
X42248Y17810D01*
X42217Y17736D01*
X42199Y17659D01*
X42192Y17579D01*
X42194Y17559D01*
Y16540D01*
X42190Y16539D01*
X42150Y16514D01*
X42114Y16484D01*
X42084Y16448D01*
X42059Y16407D01*
X42052Y16391D01*
X42045Y16407D01*
X42020Y16448D01*
X41990Y16484D01*
X41954Y16514D01*
X41914Y16539D01*
X41870Y16557D01*
X41824Y16568D01*
X41777Y16571D01*
X40980Y16568D01*
X40934Y16557D01*
X40890Y16539D01*
X40850Y16514D01*
X40814Y16484D01*
X40784Y16448D01*
X40759Y16407D01*
X40741Y16364D01*
X40730Y16318D01*
X40727Y16271D01*
X40730Y15224D01*
X40741Y15178D01*
X40759Y15135D01*
X40784Y15094D01*
X40814Y15058D01*
X40850Y15028D01*
X40881Y15009D01*
X40850Y14990D01*
X40814Y14960D01*
X40784Y14924D01*
X40759Y14883D01*
X40752Y14867D01*
X40745Y14883D01*
X40720Y14924D01*
X40690Y14960D01*
X40654Y14990D01*
X40614Y15015D01*
X40570Y15033D01*
X40524Y15044D01*
X40477Y15047D01*
X39680Y15044D01*
X39634Y15033D01*
X39590Y15015D01*
X39550Y14990D01*
X39514Y14960D01*
X39484Y14924D01*
X39459Y14883D01*
X39441Y14840D01*
X39430Y14794D01*
X39428Y14755D01*
X38098D01*
Y18819D01*
X38738D01*
X38739Y18505D01*
X38753Y18447D01*
X38775Y18391D01*
X38807Y18340D01*
X38846Y18295D01*
X38891Y18256D01*
X38942Y18224D01*
X38998Y18202D01*
X39056Y18188D01*
X39116Y18184D01*
X40700Y18188D01*
X40758Y18202D01*
X40814Y18224D01*
X40865Y18256D01*
X40910Y18295D01*
X40949Y18340D01*
X40981Y18391D01*
X41003Y18447D01*
X41017Y18505D01*
X41021Y18565D01*
X41017Y20149D01*
X41003Y20207D01*
X40981Y20263D01*
X40949Y20314D01*
X40910Y20359D01*
X40865Y20398D01*
X40814Y20430D01*
X40758Y20452D01*
X40700Y20466D01*
X40640Y20470D01*
X39056Y20466D01*
X38998Y20452D01*
X38942Y20430D01*
X38891Y20398D01*
X38846Y20359D01*
X38807Y20314D01*
X38775Y20263D01*
X38753Y20207D01*
X38739Y20149D01*
X38735Y20089D01*
X38736Y19835D01*
X38098D01*
Y23899D01*
X38876D01*
X38877Y23717D01*
X38886Y23678D01*
X38901Y23641D01*
X38922Y23607D01*
X38948Y23577D01*
X38978Y23551D01*
X39013Y23530D01*
X39049Y23515D01*
X39081Y23507D01*
X39049Y23499D01*
X39013Y23484D01*
X38978Y23463D01*
X38948Y23437D01*
X38922Y23407D01*
X38901Y23373D01*
X38886Y23336D01*
X38877Y23297D01*
X38874Y23257D01*
X38877Y21917D01*
X38886Y21878D01*
X38901Y21842D01*
X38922Y21807D01*
X38948Y21777D01*
X38978Y21751D01*
X39013Y21730D01*
X39049Y21715D01*
X39088Y21706D01*
X39128Y21703D01*
X40668Y21706D01*
X40707Y21715D01*
X40743Y21730D01*
X40778Y21751D01*
X40808Y21777D01*
X40834Y21807D01*
X40855Y21842D01*
X40870Y21878D01*
X40879Y21917D01*
X40882Y21957D01*
X40882Y22058D01*
X41528D01*
X41531Y22054D01*
X41589Y21996D01*
X41653Y21943D01*
X41722Y21897D01*
X41795Y21858D01*
X41871Y21826D01*
X41891Y21820D01*
X41911Y21818D01*
X41931Y21819D01*
X41950Y21823D01*
X41969Y21830D01*
X41987Y21840D01*
X42002Y21852D01*
X42016Y21867D01*
X42027Y21884D01*
X42035Y21902D01*
X42041Y21921D01*
X42043Y21941D01*
X42042Y21961D01*
X42038Y21981D01*
X42031Y22000D01*
X42021Y22018D01*
X42009Y22033D01*
X41994Y22047D01*
X41977Y22058D01*
X41959Y22066D01*
X41905Y22088D01*
X41878Y22102D01*
X41916Y22118D01*
X41993Y22165D01*
X42061Y22224D01*
X42120Y22292D01*
X42167Y22369D01*
X42201Y22452D01*
X42222Y22539D01*
X42229Y22629D01*
X42222Y22719D01*
X42201Y22806D01*
X42167Y22889D01*
X42120Y22966D01*
X42061Y23034D01*
X41993Y23093D01*
X41916Y23140D01*
X41878Y23156D01*
X41905Y23170D01*
X41959Y23193D01*
X41977Y23201D01*
X41994Y23212D01*
X42008Y23225D01*
X42021Y23241D01*
X42031Y23258D01*
X42038Y23277D01*
X42042Y23297D01*
X42042Y23317D01*
X42040Y23336D01*
X42035Y23356D01*
X42027Y23374D01*
X42015Y23391D01*
X42002Y23405D01*
X41986Y23418D01*
X41969Y23428D01*
X41950Y23435D01*
X41931Y23439D01*
X41911Y23439D01*
X41891Y23437D01*
X41872Y23431D01*
X41795Y23400D01*
X41722Y23361D01*
X41653Y23315D01*
X41589Y23262D01*
X41531Y23204D01*
X41528Y23201D01*
X40880D01*
X40879Y23297D01*
X40870Y23336D01*
X40855Y23373D01*
X40834Y23407D01*
X40808Y23437D01*
X40778Y23463D01*
X40743Y23484D01*
X40707Y23499D01*
X40675Y23507D01*
X40707Y23515D01*
X40743Y23530D01*
X40778Y23551D01*
X40808Y23577D01*
X40834Y23607D01*
X40855Y23641D01*
X40870Y23678D01*
X40879Y23717D01*
X40882Y23757D01*
X40879Y25097D01*
X40870Y25136D01*
X40855Y25173D01*
X40834Y25207D01*
X40808Y25237D01*
X40778Y25263D01*
X40743Y25284D01*
X40707Y25299D01*
X40668Y25309D01*
X40628Y25311D01*
X39088Y25309D01*
X39049Y25299D01*
X39013Y25284D01*
X38978Y25263D01*
X38948Y25237D01*
X38922Y25207D01*
X38901Y25173D01*
X38886Y25136D01*
X38877Y25097D01*
X38874Y25057D01*
X38874Y24915D01*
X38098D01*
Y34059D01*
X38851D01*
X38856Y34046D01*
X38950Y33893D01*
X39067Y33756D01*
X39204Y33639D01*
X39357Y33545D01*
X39524Y33477D01*
X39699Y33435D01*
X39878Y33420D01*
X40057Y33435D01*
X40232Y33477D01*
X40399Y33545D01*
X40552Y33639D01*
X40689Y33756D01*
X40806Y33893D01*
X40900Y34046D01*
X40968Y34213D01*
X41010Y34388D01*
X41021Y34567D01*
X41010Y34746D01*
X40968Y34921D01*
X40900Y35088D01*
X40806Y35241D01*
X40689Y35378D01*
X40552Y35495D01*
X40399Y35589D01*
X40232Y35657D01*
X40057Y35699D01*
X39878Y35714D01*
X39699Y35699D01*
X39524Y35657D01*
X39357Y35589D01*
X39204Y35495D01*
X39067Y35378D01*
X38950Y35241D01*
X38856Y35088D01*
X38851Y35075D01*
X38098D01*
Y36599D01*
X38851D01*
X38856Y36586D01*
X38950Y36433D01*
X39067Y36296D01*
X39204Y36179D01*
X39357Y36085D01*
X39524Y36017D01*
X39699Y35975D01*
X39878Y35960D01*
X40057Y35975D01*
X40232Y36017D01*
X40399Y36085D01*
X40552Y36179D01*
X40689Y36296D01*
X40806Y36433D01*
X40900Y36586D01*
X40968Y36753D01*
X41010Y36928D01*
X41021Y37107D01*
X41010Y37286D01*
X40968Y37461D01*
X40900Y37628D01*
X40806Y37781D01*
X40689Y37918D01*
X40552Y38035D01*
X40399Y38129D01*
X40232Y38197D01*
X40057Y38239D01*
X39878Y38254D01*
X39699Y38239D01*
X39524Y38197D01*
X39357Y38129D01*
X39204Y38035D01*
X39067Y37918D01*
X38950Y37781D01*
X38856Y37628D01*
X38851Y37615D01*
X38098D01*
Y39139D01*
X38738D01*
X38739Y38825D01*
X38753Y38767D01*
X38775Y38711D01*
X38807Y38660D01*
X38846Y38615D01*
X38891Y38576D01*
X38942Y38544D01*
X38998Y38522D01*
X39056Y38508D01*
X39116Y38504D01*
X40700Y38508D01*
X40758Y38522D01*
X40814Y38544D01*
X40865Y38576D01*
X40910Y38615D01*
X40949Y38660D01*
X40981Y38711D01*
X41003Y38767D01*
X41017Y38825D01*
X41021Y38885D01*
X41017Y40469D01*
X41003Y40527D01*
X40981Y40583D01*
X40949Y40634D01*
X40910Y40679D01*
X40865Y40718D01*
X40814Y40750D01*
X40758Y40772D01*
X40700Y40786D01*
X40640Y40790D01*
X39056Y40786D01*
X38998Y40772D01*
X38942Y40750D01*
X38891Y40718D01*
X38846Y40679D01*
X38807Y40634D01*
X38775Y40583D01*
X38753Y40527D01*
X38739Y40469D01*
X38735Y40409D01*
X38736Y40155D01*
X38098D01*
Y42348D01*
X38644D01*
X38657Y42331D01*
X38693Y42301D01*
X38734Y42276D01*
X38777Y42258D01*
X38823Y42247D01*
X38870Y42244D01*
X39917Y42247D01*
X39963Y42258D01*
X40006Y42276D01*
X40047Y42301D01*
X40083Y42331D01*
X40113Y42367D01*
X40138Y42407D01*
X40156Y42451D01*
X40167Y42497D01*
X40170Y42544D01*
X40167Y43341D01*
X40156Y43387D01*
X40138Y43431D01*
X40113Y43471D01*
X40083Y43507D01*
X40047Y43537D01*
X40006Y43562D01*
X39990Y43569D01*
X40006Y43576D01*
X40047Y43601D01*
X40083Y43631D01*
X40113Y43667D01*
X40138Y43707D01*
X40156Y43751D01*
X40167Y43797D01*
X40170Y43844D01*
X40167Y44641D01*
X40156Y44687D01*
X40138Y44731D01*
X40113Y44771D01*
X40083Y44807D01*
X40047Y44837D01*
X40006Y44862D01*
X39963Y44880D01*
X39917Y44891D01*
X39870Y44894D01*
X38823Y44891D01*
X38777Y44880D01*
X38734Y44862D01*
X38693Y44837D01*
X38657Y44807D01*
X38644Y44790D01*
X38464D01*
X38139Y45115D01*
X38124Y45132D01*
X38098Y45155D01*
Y46505D01*
X39160D01*
X41752Y43912D01*
X41738Y43900D01*
X41712Y43870D01*
X41691Y43836D01*
X41676Y43799D01*
X41666Y43760D01*
X41664Y43720D01*
X41666Y42930D01*
X41676Y42891D01*
X41691Y42854D01*
X41712Y42820D01*
X41738Y42790D01*
X41768Y42764D01*
X41802Y42743D01*
X41839Y42728D01*
X41878Y42718D01*
X41918Y42716D01*
X42630Y42718D01*
Y42673D01*
G37*
G36*
Y47416D02*X42386Y47416D01*
X42347Y47406D01*
X42310Y47391D01*
X42276Y47370D01*
X42246Y47344D01*
X42220Y47314D01*
X42199Y47280D01*
X42184Y47243D01*
X42174Y47204D01*
X42172Y47164D01*
X42174Y46374D01*
X42184Y46335D01*
X42199Y46298D01*
X42220Y46264D01*
X42246Y46234D01*
X42276Y46208D01*
X42310Y46187D01*
X42347Y46172D01*
X42386Y46162D01*
X42426Y46160D01*
X42630Y46161D01*
Y46116D01*
X42386Y46116D01*
X42347Y46106D01*
X42310Y46091D01*
X42276Y46070D01*
X42246Y46044D01*
X42220Y46014D01*
X42199Y45980D01*
X42184Y45943D01*
X42174Y45904D01*
X42172Y45864D01*
X42174Y45074D01*
X42184Y45035D01*
X42199Y44998D01*
X42220Y44964D01*
X42246Y44934D01*
X42276Y44908D01*
X42310Y44887D01*
X42347Y44872D01*
X42386Y44862D01*
X42426Y44860D01*
X42630Y44861D01*
Y44471D01*
X39743Y47358D01*
X39730Y47373D01*
X39670Y47425D01*
X39670Y47425D01*
X39601Y47467D01*
X39527Y47498D01*
X39450Y47516D01*
X39370Y47523D01*
X39350Y47521D01*
X38098D01*
Y51331D01*
X39414D01*
X39878Y50867D01*
Y50613D01*
X39824Y50580D01*
X39710Y50483D01*
X39613Y50369D01*
X39535Y50241D01*
X39477Y50102D01*
X39442Y49956D01*
X39431Y49807D01*
X39442Y49658D01*
X39477Y49512D01*
X39535Y49373D01*
X39613Y49245D01*
X39710Y49131D01*
X39824Y49034D01*
X39952Y48956D01*
X40091Y48898D01*
X40237Y48863D01*
X40386Y48852D01*
X40535Y48863D01*
X40681Y48898D01*
X40820Y48956D01*
X40948Y49034D01*
X41062Y49131D01*
X41159Y49245D01*
X41192Y49299D01*
X41702D01*
X41712Y49282D01*
X41738Y49252D01*
X41768Y49226D01*
X41802Y49205D01*
X41839Y49190D01*
X41878Y49180D01*
X41918Y49178D01*
X42630Y49180D01*
Y47416D01*
G37*
G36*
X38098Y61237D02*X42630D01*
Y54433D01*
X41871Y54431D01*
X41825Y54420D01*
X41782Y54402D01*
X41741Y54377D01*
X41705Y54347D01*
X41675Y54311D01*
X41650Y54271D01*
X41632Y54227D01*
X41621Y54181D01*
X41618Y54134D01*
X41621Y53337D01*
X41632Y53291D01*
X41650Y53247D01*
X41675Y53207D01*
X41705Y53171D01*
X41741Y53141D01*
X41782Y53116D01*
X41798Y53109D01*
X41782Y53102D01*
X41741Y53077D01*
X41705Y53047D01*
X41675Y53011D01*
X41650Y52971D01*
X41632Y52927D01*
X41621Y52881D01*
X41618Y52834D01*
X41621Y52037D01*
X41632Y51991D01*
X41650Y51947D01*
X41675Y51907D01*
X41705Y51871D01*
X41741Y51841D01*
X41782Y51816D01*
X41825Y51798D01*
X41871Y51787D01*
X41910Y51785D01*
Y51734D01*
X41878Y51734D01*
X41839Y51724D01*
X41802Y51709D01*
X41768Y51688D01*
X41738Y51662D01*
X41712Y51632D01*
X41691Y51598D01*
X41676Y51561D01*
X41666Y51522D01*
X41664Y51482D01*
X41666Y50692D01*
X41676Y50653D01*
X41691Y50616D01*
X41712Y50582D01*
X41738Y50552D01*
X41768Y50526D01*
X41802Y50505D01*
X41839Y50490D01*
X41878Y50480D01*
X41918Y50478D01*
X42630Y50480D01*
Y50435D01*
X41878Y50434D01*
X41839Y50424D01*
X41802Y50409D01*
X41768Y50388D01*
X41738Y50362D01*
X41712Y50332D01*
X41702Y50315D01*
X41192D01*
X41159Y50369D01*
X41062Y50483D01*
X40948Y50580D01*
X40894Y50613D01*
Y51057D01*
X40896Y51077D01*
X40889Y51157D01*
X40889Y51157D01*
X40871Y51234D01*
X40840Y51308D01*
X40798Y51377D01*
X40746Y51437D01*
X40731Y51450D01*
X39997Y52184D01*
X39984Y52199D01*
X39924Y52251D01*
X39855Y52293D01*
X39781Y52324D01*
X39704Y52342D01*
X39704Y52342D01*
X39624Y52349D01*
X39604Y52347D01*
X38098D01*
Y53871D01*
X38842D01*
X38862Y53869D01*
X38942Y53876D01*
X39019Y53894D01*
X39093Y53925D01*
X39162Y53967D01*
X39222Y54019D01*
X39235Y54034D01*
X40731Y55530D01*
X40746Y55543D01*
X40798Y55603D01*
X40798Y55603D01*
X40840Y55672D01*
X40871Y55746D01*
X40889Y55823D01*
X40896Y55903D01*
X40894Y55923D01*
Y56621D01*
X40948Y56654D01*
X41062Y56751D01*
X41159Y56865D01*
X41237Y56993D01*
X41295Y57132D01*
X41330Y57278D01*
X41338Y57427D01*
X41330Y57576D01*
X41295Y57722D01*
X41237Y57861D01*
X41159Y57989D01*
X41062Y58103D01*
X40948Y58200D01*
X40820Y58278D01*
X40681Y58336D01*
X40535Y58371D01*
X40386Y58382D01*
X40237Y58371D01*
X40091Y58336D01*
X39952Y58278D01*
X39824Y58200D01*
X39710Y58103D01*
X39613Y57989D01*
X39535Y57861D01*
X39477Y57722D01*
X39442Y57576D01*
X39431Y57427D01*
X39442Y57278D01*
X39477Y57132D01*
X39535Y56993D01*
X39613Y56865D01*
X39710Y56751D01*
X39824Y56654D01*
X39878Y56621D01*
Y56113D01*
X38652Y54887D01*
X38098D01*
Y61237D01*
G37*
G36*
X36576Y53232D02*X36755Y53247D01*
X36930Y53289D01*
X37097Y53357D01*
X37250Y53451D01*
X37387Y53568D01*
X37504Y53705D01*
X37598Y53858D01*
X37603Y53871D01*
X38098D01*
Y52347D01*
X37603D01*
X37598Y52360D01*
X37504Y52513D01*
X37387Y52650D01*
X37250Y52767D01*
X37097Y52861D01*
X36930Y52929D01*
X36755Y52971D01*
X36576Y52986D01*
Y53232D01*
G37*
G36*
X38098Y47521D02*X36576D01*
Y48158D01*
X37398Y48160D01*
X37456Y48174D01*
X37512Y48196D01*
X37563Y48228D01*
X37608Y48267D01*
X37647Y48312D01*
X37679Y48363D01*
X37701Y48419D01*
X37715Y48477D01*
X37719Y48537D01*
X37715Y50121D01*
X37701Y50179D01*
X37679Y50235D01*
X37647Y50286D01*
X37608Y50331D01*
X37563Y50370D01*
X37512Y50402D01*
X37456Y50424D01*
X37398Y50438D01*
X37338Y50442D01*
X36576Y50440D01*
Y50692D01*
X36755Y50707D01*
X36930Y50749D01*
X37097Y50817D01*
X37250Y50911D01*
X37387Y51028D01*
X37504Y51165D01*
X37598Y51318D01*
X37603Y51331D01*
X38098D01*
Y47521D01*
G37*
G36*
X36576D02*X35516D01*
X34798Y48239D01*
Y53661D01*
X35008Y53871D01*
X35549D01*
X35554Y53858D01*
X35648Y53705D01*
X35765Y53568D01*
X35902Y53451D01*
X36055Y53357D01*
X36222Y53289D01*
X36397Y53247D01*
X36576Y53232D01*
Y52986D01*
X36397Y52971D01*
X36222Y52929D01*
X36055Y52861D01*
X35902Y52767D01*
X35765Y52650D01*
X35648Y52513D01*
X35554Y52360D01*
X35486Y52193D01*
X35444Y52018D01*
X35429Y51839D01*
X35444Y51660D01*
X35486Y51485D01*
X35554Y51318D01*
X35648Y51165D01*
X35765Y51028D01*
X35902Y50911D01*
X36055Y50817D01*
X36222Y50749D01*
X36397Y50707D01*
X36576Y50692D01*
Y50440D01*
X35754Y50438D01*
X35696Y50424D01*
X35640Y50402D01*
X35589Y50370D01*
X35544Y50331D01*
X35505Y50286D01*
X35473Y50235D01*
X35451Y50179D01*
X35437Y50121D01*
X35433Y50061D01*
X35437Y48477D01*
X35451Y48419D01*
X35473Y48363D01*
X35505Y48312D01*
X35544Y48267D01*
X35589Y48228D01*
X35640Y48196D01*
X35696Y48174D01*
X35754Y48160D01*
X35814Y48156D01*
X36576Y48158D01*
Y47521D01*
G37*
G36*
X30732Y32477D02*X30757Y32462D01*
X30809Y32440D01*
X30831Y32431D01*
X30849Y32427D01*
X30908Y32413D01*
X30988Y32406D01*
X31008Y32408D01*
X33191D01*
X33782Y31817D01*
Y30530D01*
X33770Y30544D01*
X33725Y30583D01*
X33674Y30614D01*
X33618Y30637D01*
X33560Y30651D01*
X33500Y30654D01*
X31440Y30651D01*
X31382Y30637D01*
X31327Y30614D01*
X31275Y30583D01*
X31230Y30544D01*
X31191Y30498D01*
X31160Y30447D01*
X31137Y30392D01*
X31123Y30333D01*
X31119Y30274D01*
X31123Y28214D01*
X31137Y28155D01*
X31160Y28100D01*
X31191Y28049D01*
X31230Y28003D01*
X31275Y27964D01*
X31327Y27933D01*
X31382Y27910D01*
X31440Y27896D01*
X31500Y27892D01*
X31940Y27893D01*
Y27169D01*
X31436Y27168D01*
X31378Y27154D01*
X31347Y27142D01*
X31154Y27335D01*
X31139Y27352D01*
X31071Y27411D01*
X31071Y27411D01*
X31071Y27411D01*
X31071Y27411D01*
X31021Y27442D01*
X30994Y27458D01*
X30994Y27458D01*
X30994Y27458D01*
X30944Y27479D01*
X30911Y27492D01*
X30911Y27492D01*
X30911Y27492D01*
X30858Y27505D01*
X30824Y27513D01*
X30824Y27513D01*
X30824Y27513D01*
X30823Y27513D01*
X30734Y27520D01*
X30732Y27520D01*
Y32477D01*
G37*
G36*
X36574Y13132D02*X36676Y13157D01*
X36843Y13225D01*
X36996Y13319D01*
X37133Y13436D01*
X37250Y13573D01*
X37344Y13726D01*
X37349Y13739D01*
X38098D01*
Y7643D01*
X36574D01*
Y10592D01*
X36676Y10617D01*
X36843Y10685D01*
X36996Y10779D01*
X37133Y10896D01*
X37250Y11033D01*
X37344Y11186D01*
X37412Y11353D01*
X37454Y11528D01*
X37465Y11707D01*
X37454Y11886D01*
X37412Y12061D01*
X37344Y12228D01*
X37250Y12381D01*
X37133Y12518D01*
X36996Y12635D01*
X36843Y12729D01*
X36676Y12797D01*
X36574Y12822D01*
Y13132D01*
G37*
G36*
Y18212D02*X36676Y18237D01*
X36843Y18305D01*
X36996Y18399D01*
X37133Y18516D01*
X37250Y18653D01*
X37344Y18806D01*
X37349Y18819D01*
X38098D01*
Y14755D01*
X37349D01*
X37344Y14768D01*
X37250Y14921D01*
X37133Y15058D01*
X36996Y15175D01*
X36843Y15269D01*
X36676Y15337D01*
X36574Y15362D01*
Y15672D01*
X36676Y15697D01*
X36843Y15765D01*
X36996Y15859D01*
X37133Y15976D01*
X37250Y16113D01*
X37344Y16266D01*
X37412Y16433D01*
X37454Y16608D01*
X37465Y16787D01*
X37454Y16966D01*
X37412Y17141D01*
X37344Y17308D01*
X37250Y17461D01*
X37133Y17598D01*
X36996Y17715D01*
X36843Y17809D01*
X36676Y17877D01*
X36574Y17902D01*
Y18212D01*
G37*
G36*
X37240Y23722D02*X37250Y23733D01*
X37344Y23886D01*
X37349Y23899D01*
X38098D01*
Y19835D01*
X37349D01*
X37344Y19848D01*
X37250Y20001D01*
X37240Y20012D01*
Y21322D01*
X37251Y21323D01*
X37279Y21333D01*
X37306Y21347D01*
X37330Y21365D01*
X37351Y21386D01*
X37368Y21410D01*
X37381Y21437D01*
X37419Y21541D01*
X37445Y21648D01*
X37461Y21757D01*
X37466Y21867D01*
X37461Y21977D01*
X37445Y22086D01*
X37419Y22193D01*
X37382Y22297D01*
X37369Y22324D01*
X37352Y22349D01*
X37330Y22370D01*
X37306Y22388D01*
X37279Y22402D01*
X37251Y22411D01*
X37240Y22413D01*
Y23722D01*
G37*
G36*
X36574Y23292D02*X36676Y23317D01*
X36843Y23385D01*
X36996Y23479D01*
X37133Y23596D01*
X37240Y23722D01*
Y22413D01*
X37221Y22416D01*
X37191Y22417D01*
X37161Y22412D01*
X37132Y22403D01*
X37106Y22389D01*
X37081Y22372D01*
X37060Y22351D01*
X37042Y22327D01*
X37028Y22300D01*
X37018Y22271D01*
X37013Y22242D01*
X37013Y22211D01*
X37018Y22182D01*
X37027Y22153D01*
X37052Y22084D01*
X37070Y22013D01*
X37080Y21940D01*
X37084Y21867D01*
X37080Y21794D01*
X37070Y21721D01*
X37052Y21650D01*
X37028Y21581D01*
X37019Y21552D01*
X37014Y21523D01*
X37014Y21493D01*
X37019Y21463D01*
X37029Y21435D01*
X37042Y21408D01*
X37060Y21384D01*
X37082Y21363D01*
X37106Y21345D01*
X37133Y21332D01*
X37161Y21323D01*
X37191Y21318D01*
X37221Y21319D01*
X37240Y21322D01*
Y20012D01*
X37133Y20138D01*
X36996Y20255D01*
X36843Y20349D01*
X36676Y20417D01*
X36574Y20442D01*
Y20752D01*
X36648Y20770D01*
X36752Y20807D01*
X36779Y20820D01*
X36804Y20837D01*
X36825Y20859D01*
X36843Y20883D01*
X36857Y20910D01*
X36866Y20938D01*
X36871Y20968D01*
X36872Y20998D01*
X36867Y21028D01*
X36858Y21057D01*
X36844Y21083D01*
X36827Y21108D01*
X36806Y21129D01*
X36782Y21147D01*
X36755Y21161D01*
X36726Y21171D01*
X36697Y21176D01*
X36666Y21176D01*
X36637Y21171D01*
X36608Y21162D01*
X36574Y21149D01*
Y22585D01*
X36608Y22573D01*
X36637Y22564D01*
X36666Y22559D01*
X36696Y22559D01*
X36726Y22564D01*
X36754Y22574D01*
X36781Y22587D01*
X36805Y22605D01*
X36826Y22627D01*
X36844Y22651D01*
X36857Y22678D01*
X36866Y22706D01*
X36871Y22736D01*
X36870Y22766D01*
X36866Y22796D01*
X36856Y22824D01*
X36842Y22851D01*
X36824Y22875D01*
X36803Y22896D01*
X36779Y22913D01*
X36752Y22926D01*
X36648Y22964D01*
X36574Y22982D01*
Y23292D01*
G37*
G36*
Y33452D02*X36676Y33477D01*
X36843Y33545D01*
X36996Y33639D01*
X37133Y33756D01*
X37250Y33893D01*
X37344Y34046D01*
X37349Y34059D01*
X38098D01*
Y24915D01*
X37349D01*
X37344Y24928D01*
X37250Y25081D01*
X37133Y25218D01*
X36996Y25335D01*
X36843Y25429D01*
X36676Y25497D01*
X36574Y25522D01*
Y25832D01*
X36676Y25857D01*
X36843Y25925D01*
X36996Y26019D01*
X37133Y26136D01*
X37250Y26273D01*
X37344Y26426D01*
X37412Y26593D01*
X37454Y26768D01*
X37465Y26947D01*
X37454Y27126D01*
X37412Y27301D01*
X37344Y27468D01*
X37250Y27621D01*
X37133Y27758D01*
X36996Y27875D01*
X36843Y27969D01*
X36676Y28037D01*
X36574Y28062D01*
Y28372D01*
X36676Y28397D01*
X36843Y28465D01*
X36996Y28559D01*
X37133Y28676D01*
X37250Y28813D01*
X37344Y28966D01*
X37412Y29133D01*
X37454Y29308D01*
X37465Y29487D01*
X37454Y29666D01*
X37412Y29841D01*
X37344Y30008D01*
X37250Y30161D01*
X37133Y30298D01*
X36996Y30415D01*
X36843Y30509D01*
X36676Y30577D01*
X36574Y30602D01*
Y30912D01*
X36676Y30937D01*
X36843Y31005D01*
X36996Y31099D01*
X37133Y31216D01*
X37250Y31353D01*
X37344Y31506D01*
X37412Y31673D01*
X37454Y31848D01*
X37465Y32027D01*
X37454Y32206D01*
X37412Y32381D01*
X37344Y32548D01*
X37250Y32701D01*
X37133Y32838D01*
X36996Y32955D01*
X36843Y33049D01*
X36676Y33117D01*
X36574Y33142D01*
Y33452D01*
G37*
G36*
Y35992D02*X36676Y36017D01*
X36843Y36085D01*
X36996Y36179D01*
X37133Y36296D01*
X37250Y36433D01*
X37344Y36586D01*
X37349Y36599D01*
X38098D01*
Y35075D01*
X37349D01*
X37344Y35088D01*
X37250Y35241D01*
X37133Y35378D01*
X36996Y35495D01*
X36843Y35589D01*
X36676Y35657D01*
X36574Y35682D01*
Y35992D01*
G37*
G36*
Y38532D02*X36676Y38557D01*
X36843Y38625D01*
X36996Y38719D01*
X37133Y38836D01*
X37250Y38973D01*
X37344Y39126D01*
X37349Y39139D01*
X38098D01*
Y37615D01*
X37349D01*
X37344Y37628D01*
X37250Y37781D01*
X37133Y37918D01*
X36996Y38035D01*
X36843Y38129D01*
X36676Y38197D01*
X36574Y38222D01*
Y38532D01*
G37*
G36*
Y42011D02*X36613Y42002D01*
X36703Y41995D01*
X36793Y42002D01*
X36880Y42023D01*
X36963Y42057D01*
X37040Y42104D01*
X37082Y42141D01*
X37080Y42114D01*
X37070Y42041D01*
X37052Y41970D01*
X37028Y41901D01*
X37019Y41872D01*
X37014Y41843D01*
X37014Y41813D01*
X37019Y41783D01*
X37029Y41755D01*
X37042Y41728D01*
X37060Y41704D01*
X37082Y41683D01*
X37106Y41665D01*
X37133Y41652D01*
X37161Y41643D01*
X37191Y41638D01*
X37221Y41639D01*
X37251Y41643D01*
X37279Y41653D01*
X37306Y41667D01*
X37330Y41685D01*
X37351Y41706D01*
X37368Y41730D01*
X37381Y41757D01*
X37419Y41861D01*
X37445Y41968D01*
X37461Y42077D01*
X37466Y42187D01*
X37461Y42297D01*
X37454Y42348D01*
X38098D01*
Y40155D01*
X37349D01*
X37344Y40168D01*
X37250Y40321D01*
X37133Y40458D01*
X36996Y40575D01*
X36843Y40669D01*
X36676Y40737D01*
X36574Y40762D01*
Y41072D01*
X36648Y41090D01*
X36752Y41127D01*
X36779Y41140D01*
X36804Y41157D01*
X36825Y41179D01*
X36843Y41203D01*
X36857Y41230D01*
X36866Y41258D01*
X36871Y41288D01*
X36872Y41318D01*
X36867Y41348D01*
X36858Y41377D01*
X36844Y41403D01*
X36827Y41428D01*
X36806Y41449D01*
X36782Y41467D01*
X36755Y41481D01*
X36726Y41491D01*
X36697Y41496D01*
X36666Y41496D01*
X36637Y41491D01*
X36608Y41482D01*
X36574Y41469D01*
Y42011D01*
G37*
G36*
Y43612D02*X36676Y43637D01*
X36843Y43705D01*
X36996Y43799D01*
X37133Y43916D01*
X37250Y44053D01*
X37312Y44156D01*
X37482D01*
X37807Y43831D01*
X37822Y43814D01*
X37890Y43755D01*
X37890Y43755D01*
X37967Y43708D01*
X38050Y43674D01*
X38098Y43662D01*
Y43491D01*
X37076D01*
X37054Y43492D01*
X36964Y43485D01*
X36877Y43464D01*
X36794Y43430D01*
X36717Y43383D01*
X36717Y43383D01*
X36649Y43324D01*
X36634Y43307D01*
X36618Y43291D01*
X36574Y43302D01*
Y43612D01*
G37*
G36*
Y46505D02*X38098D01*
Y45155D01*
X38056Y45191D01*
X37979Y45238D01*
X37896Y45272D01*
X37809Y45293D01*
X37809Y45293D01*
X37719Y45300D01*
X37697Y45299D01*
X37312D01*
X37250Y45401D01*
X37133Y45538D01*
X36996Y45655D01*
X36843Y45749D01*
X36676Y45817D01*
X36574Y45842D01*
Y46505D01*
G37*
G36*
Y61237D02*X38098D01*
Y54887D01*
X37603D01*
X37598Y54900D01*
X37504Y55053D01*
X37387Y55190D01*
X37250Y55307D01*
X37097Y55401D01*
X36930Y55469D01*
X36755Y55511D01*
X36576Y55526D01*
X36574Y55525D01*
Y55773D01*
X36576Y55772D01*
X36755Y55787D01*
X36930Y55829D01*
X37097Y55897D01*
X37250Y55991D01*
X37387Y56108D01*
X37504Y56245D01*
X37598Y56398D01*
X37666Y56565D01*
X37708Y56740D01*
X37719Y56919D01*
X37708Y57098D01*
X37666Y57273D01*
X37598Y57440D01*
X37504Y57593D01*
X37387Y57730D01*
X37250Y57847D01*
X37097Y57941D01*
X36930Y58009D01*
X36755Y58051D01*
X36576Y58066D01*
X36574Y58065D01*
Y61237D01*
G37*
G36*
Y30602D02*X36501Y30619D01*
X36322Y30634D01*
X36143Y30619D01*
X36057Y30599D01*
X35619Y31125D01*
X35648Y31099D01*
X35801Y31005D01*
X35968Y30937D01*
X36143Y30895D01*
X36322Y30880D01*
X36501Y30895D01*
X36574Y30912D01*
Y30602D01*
G37*
G36*
Y28062D02*X36501Y28079D01*
X36322Y28094D01*
X36143Y28079D01*
X35968Y28037D01*
X35955Y28032D01*
X34798Y29189D01*
Y30522D01*
X35276Y29949D01*
X35232Y29841D01*
X35190Y29666D01*
X35175Y29487D01*
X35190Y29308D01*
X35232Y29133D01*
X35300Y28966D01*
X35394Y28813D01*
X35511Y28676D01*
X35648Y28559D01*
X35801Y28465D01*
X35968Y28397D01*
X36143Y28355D01*
X36322Y28340D01*
X36501Y28355D01*
X36574Y28372D01*
Y28062D01*
G37*
G36*
X35404Y11022D02*X35511Y10896D01*
X35648Y10779D01*
X35801Y10685D01*
X35968Y10617D01*
X36143Y10575D01*
X36322Y10560D01*
X36501Y10575D01*
X36574Y10592D01*
Y7643D01*
X35404D01*
Y11022D01*
G37*
G36*
Y13562D02*X35511Y13436D01*
X35648Y13319D01*
X35801Y13225D01*
X35968Y13157D01*
X36143Y13115D01*
X36322Y13100D01*
X36501Y13115D01*
X36574Y13132D01*
Y12822D01*
X36501Y12839D01*
X36322Y12854D01*
X36143Y12839D01*
X35968Y12797D01*
X35801Y12729D01*
X35648Y12635D01*
X35511Y12518D01*
X35404Y12392D01*
Y13562D01*
G37*
G36*
Y16102D02*X35511Y15976D01*
X35648Y15859D01*
X35801Y15765D01*
X35968Y15697D01*
X36143Y15655D01*
X36322Y15640D01*
X36501Y15655D01*
X36574Y15672D01*
Y15362D01*
X36501Y15379D01*
X36322Y15394D01*
X36143Y15379D01*
X35968Y15337D01*
X35801Y15269D01*
X35648Y15175D01*
X35511Y15058D01*
X35404Y14932D01*
Y16102D01*
G37*
G36*
Y18642D02*X35511Y18516D01*
X35648Y18399D01*
X35801Y18305D01*
X35968Y18237D01*
X36143Y18195D01*
X36322Y18180D01*
X36501Y18195D01*
X36574Y18212D01*
Y17902D01*
X36501Y17919D01*
X36322Y17934D01*
X36143Y17919D01*
X35968Y17877D01*
X35801Y17809D01*
X35648Y17715D01*
X35511Y17598D01*
X35404Y17472D01*
Y18642D01*
G37*
G36*
Y23722D02*X35511Y23596D01*
X35648Y23479D01*
X35801Y23385D01*
X35968Y23317D01*
X36143Y23275D01*
X36322Y23260D01*
X36501Y23275D01*
X36574Y23292D01*
Y22982D01*
X36541Y22990D01*
X36432Y23006D01*
X36322Y23011D01*
X36212Y23006D01*
X36103Y22990D01*
X35996Y22964D01*
X35892Y22927D01*
X35865Y22914D01*
X35840Y22897D01*
X35819Y22875D01*
X35801Y22851D01*
X35787Y22824D01*
X35778Y22796D01*
X35773Y22766D01*
X35772Y22736D01*
X35777Y22706D01*
X35786Y22677D01*
X35800Y22651D01*
X35817Y22626D01*
X35838Y22605D01*
X35862Y22587D01*
X35889Y22573D01*
X35918Y22563D01*
X35947Y22558D01*
X35978Y22558D01*
X36007Y22563D01*
X36036Y22572D01*
X36105Y22597D01*
X36176Y22615D01*
X36249Y22625D01*
X36322Y22629D01*
X36395Y22625D01*
X36468Y22615D01*
X36539Y22597D01*
X36574Y22585D01*
Y21149D01*
X36539Y21137D01*
X36468Y21119D01*
X36395Y21109D01*
X36322Y21105D01*
X36249Y21109D01*
X36176Y21119D01*
X36105Y21137D01*
X36036Y21161D01*
X36007Y21170D01*
X35978Y21175D01*
X35948Y21175D01*
X35918Y21170D01*
X35890Y21160D01*
X35863Y21147D01*
X35839Y21129D01*
X35818Y21107D01*
X35800Y21083D01*
X35787Y21056D01*
X35778Y21028D01*
X35773Y20998D01*
X35774Y20968D01*
X35778Y20938D01*
X35788Y20910D01*
X35802Y20883D01*
X35820Y20859D01*
X35841Y20838D01*
X35865Y20821D01*
X35892Y20808D01*
X35996Y20770D01*
X36103Y20744D01*
X36212Y20728D01*
X36322Y20723D01*
X36432Y20728D01*
X36541Y20744D01*
X36574Y20752D01*
Y20442D01*
X36501Y20459D01*
X36322Y20474D01*
X36143Y20459D01*
X35968Y20417D01*
X35801Y20349D01*
X35648Y20255D01*
X35511Y20138D01*
X35404Y20012D01*
Y21321D01*
X35423Y21318D01*
X35453Y21317D01*
X35483Y21322D01*
X35512Y21331D01*
X35538Y21345D01*
X35563Y21362D01*
X35584Y21383D01*
X35602Y21407D01*
X35616Y21434D01*
X35626Y21463D01*
X35631Y21492D01*
X35631Y21523D01*
X35626Y21552D01*
X35617Y21581D01*
X35592Y21650D01*
X35574Y21721D01*
X35564Y21794D01*
X35560Y21867D01*
X35564Y21940D01*
X35574Y22013D01*
X35592Y22084D01*
X35616Y22153D01*
X35625Y22182D01*
X35630Y22211D01*
X35630Y22241D01*
X35625Y22271D01*
X35615Y22299D01*
X35602Y22326D01*
X35584Y22350D01*
X35562Y22371D01*
X35538Y22389D01*
X35511Y22402D01*
X35483Y22411D01*
X35453Y22416D01*
X35423Y22415D01*
X35404Y22412D01*
Y23722D01*
G37*
G36*
X36574Y25522D02*X36501Y25539D01*
X36322Y25554D01*
X36143Y25539D01*
X35968Y25497D01*
X35801Y25429D01*
X35648Y25335D01*
X35511Y25218D01*
X35404Y25092D01*
Y26262D01*
X35511Y26136D01*
X35648Y26019D01*
X35801Y25925D01*
X35968Y25857D01*
X36143Y25815D01*
X36322Y25800D01*
X36501Y25815D01*
X36574Y25832D01*
Y25522D01*
G37*
G36*
X35404Y25092D02*X35394Y25081D01*
X35300Y24928D01*
X35232Y24761D01*
X35190Y24586D01*
X35175Y24407D01*
X35190Y24228D01*
X35232Y24053D01*
X35300Y23886D01*
X35394Y23733D01*
X35404Y23722D01*
Y22412D01*
X35393Y22411D01*
X35365Y22401D01*
X35338Y22387D01*
X35314Y22369D01*
X35293Y22348D01*
X35276Y22324D01*
X35263Y22297D01*
X35225Y22193D01*
X35199Y22086D01*
X35183Y21977D01*
X35178Y21867D01*
X35183Y21757D01*
X35199Y21648D01*
X35225Y21541D01*
X35262Y21437D01*
X35275Y21410D01*
X35292Y21385D01*
X35314Y21364D01*
X35338Y21346D01*
X35365Y21332D01*
X35393Y21323D01*
X35404Y21321D01*
Y20012D01*
X35394Y20001D01*
X35300Y19848D01*
X35232Y19681D01*
X35190Y19506D01*
X35175Y19327D01*
X35190Y19148D01*
X35232Y18973D01*
X35300Y18806D01*
X35394Y18653D01*
X35404Y18642D01*
Y17472D01*
X35394Y17461D01*
X35300Y17308D01*
X35232Y17141D01*
X35190Y16966D01*
X35175Y16787D01*
X35190Y16608D01*
X35232Y16433D01*
X35300Y16266D01*
X35394Y16113D01*
X35404Y16102D01*
Y14932D01*
X35394Y14921D01*
X35300Y14768D01*
X35232Y14601D01*
X35190Y14426D01*
X35175Y14247D01*
X35190Y14068D01*
X35232Y13893D01*
X35300Y13726D01*
X35394Y13573D01*
X35404Y13562D01*
Y12392D01*
X35394Y12381D01*
X35300Y12228D01*
X35232Y12061D01*
X35190Y11886D01*
X35175Y11707D01*
X35190Y11528D01*
X35232Y11353D01*
X35300Y11186D01*
X35394Y11033D01*
X35404Y11022D01*
Y7643D01*
X30732D01*
Y11749D01*
X32857Y13874D01*
X32872Y13887D01*
X32924Y13947D01*
X32924Y13947D01*
X32966Y14016D01*
X32997Y14090D01*
X33015Y14167D01*
X33022Y14247D01*
X33020Y14267D01*
Y15191D01*
X33588Y15192D01*
X33646Y15206D01*
X33702Y15228D01*
X33753Y15260D01*
X33798Y15299D01*
X33837Y15344D01*
X33869Y15395D01*
X33891Y15451D01*
X33905Y15509D01*
X33909Y15569D01*
X33905Y18827D01*
X33891Y18885D01*
X33869Y18941D01*
X33837Y18992D01*
X33798Y19037D01*
X33753Y19076D01*
X33702Y19108D01*
X33646Y19130D01*
X33588Y19144D01*
X33528Y19148D01*
X31436Y19144D01*
X31378Y19130D01*
X31322Y19108D01*
X31271Y19076D01*
X31226Y19037D01*
X31187Y18992D01*
X31155Y18941D01*
X31133Y18885D01*
X31119Y18827D01*
X31115Y18767D01*
X31119Y15509D01*
X31133Y15451D01*
X31155Y15395D01*
X31187Y15344D01*
X31226Y15299D01*
X31271Y15260D01*
X31322Y15228D01*
X31378Y15206D01*
X31436Y15192D01*
X31496Y15188D01*
X32004Y15189D01*
Y14457D01*
X30732Y13186D01*
Y26140D01*
X30799Y26074D01*
X30814Y26057D01*
X30882Y25998D01*
X30882Y25998D01*
X30882Y25998D01*
X30882Y25998D01*
X30909Y25982D01*
X30959Y25951D01*
X30959Y25951D01*
X30959Y25951D01*
X30991Y25938D01*
X31042Y25917D01*
X31042Y25917D01*
X31042Y25917D01*
X31074Y25909D01*
X31116Y25899D01*
X31119Y23533D01*
X31133Y23475D01*
X31155Y23419D01*
X31187Y23368D01*
X31226Y23323D01*
X31271Y23284D01*
X31322Y23252D01*
X31378Y23230D01*
X31436Y23216D01*
X31496Y23212D01*
X33588Y23216D01*
X33646Y23230D01*
X33702Y23252D01*
X33753Y23284D01*
X33798Y23323D01*
X33837Y23368D01*
X33869Y23419D01*
X33891Y23475D01*
X33905Y23533D01*
X33909Y23593D01*
X33905Y26851D01*
X33891Y26909D01*
X33869Y26965D01*
X33837Y27016D01*
X33798Y27061D01*
X33753Y27100D01*
X33702Y27132D01*
X33646Y27154D01*
X33588Y27168D01*
X33528Y27172D01*
X33083Y27171D01*
Y27895D01*
X33560Y27896D01*
X33618Y27910D01*
X33674Y27933D01*
X33725Y27964D01*
X33770Y28003D01*
X33809Y28049D01*
X33841Y28100D01*
X33864Y28155D01*
X33878Y28214D01*
X33881Y28274D01*
X33880Y28676D01*
X33930Y28619D01*
X33945Y28606D01*
X35237Y27314D01*
X35232Y27301D01*
X35190Y27126D01*
X35175Y26947D01*
X35190Y26768D01*
X35232Y26593D01*
X35300Y26426D01*
X35394Y26273D01*
X35404Y26262D01*
Y25092D01*
G37*
G36*
Y33882D02*X35511Y33756D01*
X35648Y33639D01*
X35801Y33545D01*
X35968Y33477D01*
X36143Y33435D01*
X36322Y33420D01*
X36501Y33435D01*
X36574Y33452D01*
Y33142D01*
X36501Y33159D01*
X36322Y33174D01*
X36143Y33159D01*
X35968Y33117D01*
X35801Y33049D01*
X35648Y32955D01*
X35511Y32838D01*
X35483Y32804D01*
X35464Y32835D01*
X35412Y32895D01*
X35404Y32902D01*
Y33882D01*
G37*
G36*
Y36422D02*X35511Y36296D01*
X35648Y36179D01*
X35801Y36085D01*
X35968Y36017D01*
X36143Y35975D01*
X36322Y35960D01*
X36501Y35975D01*
X36574Y35992D01*
Y35682D01*
X36501Y35699D01*
X36322Y35714D01*
X36143Y35699D01*
X35968Y35657D01*
X35801Y35589D01*
X35648Y35495D01*
X35511Y35378D01*
X35404Y35252D01*
Y36422D01*
G37*
G36*
Y38962D02*X35511Y38836D01*
X35648Y38719D01*
X35801Y38625D01*
X35968Y38557D01*
X36143Y38515D01*
X36322Y38500D01*
X36501Y38515D01*
X36574Y38532D01*
Y38222D01*
X36501Y38239D01*
X36322Y38254D01*
X36143Y38239D01*
X35968Y38197D01*
X35801Y38129D01*
X35648Y38035D01*
X35511Y37918D01*
X35404Y37792D01*
Y38962D01*
G37*
G36*
Y44042D02*X35511Y43916D01*
X35648Y43799D01*
X35801Y43705D01*
X35968Y43637D01*
X36143Y43595D01*
X36322Y43580D01*
X36501Y43595D01*
X36574Y43612D01*
Y43302D01*
X36541Y43310D01*
X36432Y43326D01*
X36322Y43331D01*
X36212Y43326D01*
X36103Y43310D01*
X35996Y43284D01*
X35892Y43247D01*
X35865Y43234D01*
X35840Y43217D01*
X35819Y43195D01*
X35801Y43171D01*
X35787Y43144D01*
X35778Y43116D01*
X35773Y43086D01*
X35772Y43056D01*
X35777Y43026D01*
X35786Y42997D01*
X35800Y42971D01*
X35817Y42946D01*
X35838Y42925D01*
X35862Y42907D01*
X35889Y42893D01*
X35918Y42883D01*
X35947Y42878D01*
X35978Y42878D01*
X36007Y42883D01*
X36036Y42892D01*
X36105Y42917D01*
X36176Y42935D01*
X36249Y42945D01*
X36276Y42947D01*
X36239Y42905D01*
X36192Y42828D01*
X36158Y42745D01*
X36137Y42658D01*
X36130Y42568D01*
X36137Y42478D01*
X36158Y42391D01*
X36192Y42308D01*
X36239Y42231D01*
X36298Y42163D01*
X36366Y42104D01*
X36443Y42057D01*
X36526Y42023D01*
X36574Y42011D01*
Y41469D01*
X36539Y41457D01*
X36468Y41439D01*
X36395Y41429D01*
X36322Y41425D01*
X36249Y41429D01*
X36176Y41439D01*
X36105Y41457D01*
X36036Y41481D01*
X36007Y41490D01*
X35978Y41495D01*
X35948Y41495D01*
X35918Y41490D01*
X35890Y41480D01*
X35863Y41467D01*
X35839Y41449D01*
X35818Y41427D01*
X35800Y41403D01*
X35787Y41376D01*
X35778Y41348D01*
X35773Y41318D01*
X35774Y41288D01*
X35778Y41258D01*
X35788Y41230D01*
X35802Y41203D01*
X35820Y41179D01*
X35841Y41158D01*
X35865Y41141D01*
X35892Y41128D01*
X35996Y41090D01*
X36103Y41064D01*
X36212Y41048D01*
X36322Y41043D01*
X36432Y41048D01*
X36541Y41064D01*
X36574Y41072D01*
Y40762D01*
X36501Y40779D01*
X36322Y40794D01*
X36143Y40779D01*
X35968Y40737D01*
X35801Y40669D01*
X35648Y40575D01*
X35511Y40458D01*
X35404Y40332D01*
Y41641D01*
X35423Y41638D01*
X35453Y41637D01*
X35483Y41642D01*
X35512Y41651D01*
X35538Y41665D01*
X35563Y41682D01*
X35584Y41703D01*
X35602Y41727D01*
X35616Y41754D01*
X35626Y41783D01*
X35631Y41812D01*
X35631Y41843D01*
X35626Y41872D01*
X35617Y41901D01*
X35592Y41970D01*
X35574Y42041D01*
X35564Y42114D01*
X35560Y42187D01*
X35564Y42260D01*
X35574Y42333D01*
X35592Y42404D01*
X35616Y42473D01*
X35625Y42502D01*
X35630Y42531D01*
X35630Y42561D01*
X35625Y42591D01*
X35615Y42619D01*
X35602Y42646D01*
X35584Y42670D01*
X35562Y42691D01*
X35538Y42709D01*
X35511Y42722D01*
X35483Y42731D01*
X35453Y42736D01*
X35423Y42735D01*
X35404Y42732D01*
Y44042D01*
G37*
G36*
Y46505D02*X36574D01*
Y45842D01*
X36501Y45859D01*
X36322Y45874D01*
X36143Y45859D01*
X35968Y45817D01*
X35801Y45749D01*
X35648Y45655D01*
X35511Y45538D01*
X35404Y45412D01*
Y46505D01*
G37*
G36*
Y61237D02*X36574D01*
Y58065D01*
X36397Y58051D01*
X36222Y58009D01*
X36055Y57941D01*
X35902Y57847D01*
X35765Y57730D01*
X35648Y57593D01*
X35554Y57440D01*
X35486Y57273D01*
X35444Y57098D01*
X35429Y56919D01*
X35444Y56740D01*
X35486Y56565D01*
X35554Y56398D01*
X35648Y56245D01*
X35765Y56108D01*
X35902Y55991D01*
X36055Y55897D01*
X36222Y55829D01*
X36397Y55787D01*
X36574Y55773D01*
Y55525D01*
X36397Y55511D01*
X36222Y55469D01*
X36055Y55401D01*
X35902Y55307D01*
X35765Y55190D01*
X35648Y55053D01*
X35554Y54900D01*
X35549Y54887D01*
X35404D01*
Y61237D01*
G37*
G36*
X30732D02*X35404D01*
Y54887D01*
X34818D01*
X34798Y54889D01*
X34718Y54882D01*
X34641Y54864D01*
X34567Y54833D01*
X34498Y54791D01*
X34498Y54791D01*
X34438Y54739D01*
X34425Y54724D01*
X33945Y54244D01*
X33930Y54231D01*
X33878Y54171D01*
X33836Y54102D01*
X33805Y54028D01*
X33787Y53951D01*
X33787Y53951D01*
X33780Y53871D01*
X33782Y53851D01*
Y48049D01*
X33780Y48029D01*
X33787Y47949D01*
X33801Y47890D01*
X33805Y47872D01*
X33814Y47850D01*
X33836Y47798D01*
X33878Y47729D01*
X33878Y47729D01*
X33930Y47669D01*
X33945Y47656D01*
X34933Y46668D01*
X34946Y46653D01*
X35006Y46601D01*
X35006Y46601D01*
X35075Y46559D01*
X35149Y46528D01*
X35226Y46510D01*
X35306Y46503D01*
X35326Y46505D01*
X35404D01*
Y45412D01*
X35394Y45401D01*
X35300Y45248D01*
X35232Y45081D01*
X35190Y44906D01*
X35175Y44727D01*
X35190Y44548D01*
X35232Y44373D01*
X35300Y44206D01*
X35394Y44053D01*
X35404Y44042D01*
Y42732D01*
X35393Y42731D01*
X35365Y42721D01*
X35338Y42707D01*
X35314Y42689D01*
X35293Y42668D01*
X35276Y42644D01*
X35263Y42617D01*
X35225Y42513D01*
X35199Y42406D01*
X35183Y42297D01*
X35178Y42187D01*
X35183Y42077D01*
X35199Y41968D01*
X35225Y41861D01*
X35262Y41757D01*
X35275Y41730D01*
X35292Y41705D01*
X35314Y41684D01*
X35338Y41666D01*
X35365Y41652D01*
X35393Y41643D01*
X35404Y41641D01*
Y40332D01*
X35394Y40321D01*
X35300Y40168D01*
X35232Y40001D01*
X35190Y39826D01*
X35175Y39647D01*
X35190Y39468D01*
X35232Y39293D01*
X35300Y39126D01*
X35394Y38973D01*
X35404Y38962D01*
Y37792D01*
X35394Y37781D01*
X35300Y37628D01*
X35232Y37461D01*
X35190Y37286D01*
X35175Y37107D01*
X35190Y36928D01*
X35232Y36753D01*
X35300Y36586D01*
X35394Y36433D01*
X35404Y36422D01*
Y35252D01*
X35394Y35241D01*
X35300Y35088D01*
X35232Y34921D01*
X35190Y34746D01*
X35175Y34567D01*
X35190Y34388D01*
X35232Y34213D01*
X35300Y34046D01*
X35394Y33893D01*
X35404Y33882D01*
Y32902D01*
X35397Y32908D01*
X34282Y34023D01*
X34269Y34038D01*
X34209Y34090D01*
X34140Y34132D01*
X34066Y34163D01*
X33989Y34181D01*
X33989Y34181D01*
X33909Y34188D01*
X33889Y34186D01*
X31579D01*
X31242Y34523D01*
Y35867D01*
X31275Y35838D01*
X31327Y35807D01*
X31382Y35784D01*
X31440Y35770D01*
X31500Y35766D01*
X33560Y35770D01*
X33618Y35784D01*
X33674Y35807D01*
X33725Y35838D01*
X33770Y35877D01*
X33809Y35923D01*
X33841Y35974D01*
X33864Y36029D01*
X33878Y36088D01*
X33881Y36148D01*
X33878Y38207D01*
X33864Y38266D01*
X33841Y38321D01*
X33809Y38372D01*
X33770Y38418D01*
X33725Y38457D01*
X33674Y38488D01*
X33618Y38511D01*
X33560Y38525D01*
X33500Y38528D01*
X33020Y38528D01*
Y42929D01*
X33022Y42949D01*
X33015Y43029D01*
X33015Y43029D01*
X32997Y43106D01*
X32966Y43180D01*
X32924Y43249D01*
X32872Y43309D01*
X32857Y43322D01*
X31107Y45072D01*
X31094Y45087D01*
X31034Y45139D01*
X30965Y45181D01*
X30891Y45212D01*
X30814Y45230D01*
X30814Y45230D01*
X30734Y45237D01*
X30732Y45236D01*
Y61237D01*
G37*
G36*
X28077Y13289D02*X28181Y13225D01*
X28348Y13157D01*
X28523Y13115D01*
X28702Y13100D01*
X28881Y13115D01*
X29056Y13157D01*
X29223Y13225D01*
X29376Y13319D01*
X29513Y13436D01*
X29630Y13573D01*
X29724Y13726D01*
X29792Y13893D01*
X29834Y14068D01*
X29845Y14247D01*
X29834Y14426D01*
X29792Y14601D01*
X29724Y14768D01*
X29630Y14921D01*
X29513Y15058D01*
X29376Y15175D01*
X29223Y15269D01*
X29056Y15337D01*
X28881Y15379D01*
X28702Y15394D01*
X28523Y15379D01*
X28348Y15337D01*
X28181Y15269D01*
X28077Y15205D01*
Y15829D01*
X28181Y15765D01*
X28348Y15697D01*
X28523Y15655D01*
X28702Y15640D01*
X28881Y15655D01*
X29056Y15697D01*
X29223Y15765D01*
X29376Y15859D01*
X29513Y15976D01*
X29630Y16113D01*
X29724Y16266D01*
X29792Y16433D01*
X29834Y16608D01*
X29845Y16787D01*
X29834Y16966D01*
X29792Y17141D01*
X29724Y17308D01*
X29630Y17461D01*
X29513Y17598D01*
X29376Y17715D01*
X29223Y17809D01*
X29056Y17877D01*
X28881Y17919D01*
X28702Y17934D01*
X28523Y17919D01*
X28348Y17877D01*
X28181Y17809D01*
X28077Y17745D01*
Y18369D01*
X28181Y18305D01*
X28348Y18237D01*
X28523Y18195D01*
X28702Y18180D01*
X28881Y18195D01*
X29056Y18237D01*
X29223Y18305D01*
X29376Y18399D01*
X29513Y18516D01*
X29630Y18653D01*
X29724Y18806D01*
X29792Y18973D01*
X29834Y19148D01*
X29845Y19327D01*
X29834Y19506D01*
X29792Y19681D01*
X29724Y19848D01*
X29630Y20001D01*
X29513Y20138D01*
X29376Y20255D01*
X29223Y20349D01*
X29056Y20417D01*
X28881Y20459D01*
X28702Y20474D01*
X28523Y20459D01*
X28348Y20417D01*
X28181Y20349D01*
X28077Y20285D01*
Y20909D01*
X28181Y20845D01*
X28348Y20777D01*
X28523Y20735D01*
X28702Y20720D01*
X28881Y20735D01*
X29056Y20777D01*
X29223Y20845D01*
X29376Y20939D01*
X29513Y21056D01*
X29630Y21193D01*
X29724Y21346D01*
X29792Y21513D01*
X29834Y21688D01*
X29845Y21867D01*
X29834Y22046D01*
X29792Y22221D01*
X29724Y22388D01*
X29630Y22541D01*
X29513Y22678D01*
X29376Y22795D01*
X29223Y22889D01*
X29056Y22957D01*
X28881Y22999D01*
X28702Y23014D01*
X28523Y22999D01*
X28348Y22957D01*
X28181Y22889D01*
X28077Y22825D01*
Y23449D01*
X28181Y23385D01*
X28348Y23317D01*
X28523Y23275D01*
X28702Y23260D01*
X28881Y23275D01*
X29056Y23317D01*
X29223Y23385D01*
X29376Y23479D01*
X29513Y23596D01*
X29630Y23733D01*
X29724Y23886D01*
X29792Y24053D01*
X29834Y24228D01*
X29845Y24407D01*
X29834Y24586D01*
X29792Y24761D01*
X29724Y24928D01*
X29630Y25081D01*
X29513Y25218D01*
X29376Y25335D01*
X29223Y25429D01*
X29056Y25497D01*
X28881Y25539D01*
X28702Y25554D01*
X28523Y25539D01*
X28348Y25497D01*
X28335Y25492D01*
X28077Y25750D01*
Y25989D01*
X28157Y25941D01*
X28256Y25893D01*
X28285Y25883D01*
X28315Y25878D01*
X28345Y25878D01*
X28375Y25883D01*
X28403Y25892D01*
X28430Y25905D01*
X28455Y25923D01*
X28476Y25944D01*
X28494Y25968D01*
X28508Y25995D01*
X28517Y26024D01*
X28522Y26053D01*
X28523Y26083D01*
X28518Y26113D01*
X28509Y26142D01*
X28495Y26169D01*
X28478Y26193D01*
X28457Y26215D01*
X28433Y26233D01*
X28406Y26246D01*
X28339Y26277D01*
X28276Y26315D01*
X28218Y26359D01*
X28163Y26408D01*
X28114Y26463D01*
X28077Y26511D01*
Y27383D01*
X28114Y27431D01*
X28163Y27486D01*
X28218Y27535D01*
X28276Y27579D01*
X28339Y27617D01*
X28405Y27649D01*
X28432Y27662D01*
X28456Y27680D01*
X28477Y27701D01*
X28495Y27726D01*
X28508Y27752D01*
X28517Y27781D01*
X28522Y27811D01*
X28521Y27841D01*
X28517Y27870D01*
X28507Y27899D01*
X28493Y27925D01*
X28475Y27949D01*
X28454Y27971D01*
X28430Y27988D01*
X28403Y28001D01*
X28374Y28010D01*
X28345Y28015D01*
X28315Y28015D01*
X28285Y28010D01*
X28257Y28000D01*
X28157Y27953D01*
X28077Y27905D01*
Y28529D01*
X28181Y28465D01*
X28348Y28397D01*
X28523Y28355D01*
X28702Y28340D01*
X28881Y28355D01*
X29056Y28397D01*
X29223Y28465D01*
X29376Y28559D01*
X29513Y28676D01*
X29630Y28813D01*
X29724Y28966D01*
X29792Y29133D01*
X29834Y29308D01*
X29845Y29487D01*
X29834Y29666D01*
X29792Y29841D01*
X29724Y30008D01*
X29630Y30161D01*
X29513Y30298D01*
X29376Y30415D01*
X29223Y30509D01*
X29056Y30577D01*
X28881Y30619D01*
X28702Y30634D01*
X28523Y30619D01*
X28348Y30577D01*
X28181Y30509D01*
X28077Y30445D01*
Y31069D01*
X28181Y31005D01*
X28348Y30937D01*
X28523Y30895D01*
X28702Y30880D01*
X28881Y30895D01*
X29056Y30937D01*
X29223Y31005D01*
X29376Y31099D01*
X29513Y31216D01*
X29630Y31353D01*
X29724Y31506D01*
X29792Y31673D01*
X29834Y31848D01*
X29845Y32027D01*
X29834Y32206D01*
X29792Y32381D01*
X29724Y32548D01*
X29630Y32701D01*
X29513Y32838D01*
X29376Y32955D01*
X29223Y33049D01*
X29056Y33117D01*
X28881Y33159D01*
X28702Y33174D01*
X28523Y33159D01*
X28348Y33117D01*
X28181Y33049D01*
X28077Y32985D01*
Y33609D01*
X28181Y33545D01*
X28348Y33477D01*
X28523Y33435D01*
X28702Y33420D01*
X28881Y33435D01*
X29056Y33477D01*
X29223Y33545D01*
X29376Y33639D01*
X29500Y33745D01*
X29518Y33701D01*
X29560Y33632D01*
X29560Y33632D01*
X29612Y33572D01*
X29627Y33559D01*
X30615Y32571D01*
X30628Y32556D01*
X30688Y32504D01*
X30688Y32504D01*
X30732Y32477D01*
Y27520D01*
X30712Y27519D01*
X29692D01*
X29651Y27586D01*
X29585Y27675D01*
X29511Y27756D01*
X29430Y27830D01*
X29341Y27896D01*
X29247Y27953D01*
X29148Y28001D01*
X29119Y28011D01*
X29089Y28016D01*
X29059Y28016D01*
X29029Y28011D01*
X29001Y28002D01*
X28974Y27989D01*
X28949Y27971D01*
X28928Y27950D01*
X28910Y27926D01*
X28896Y27899D01*
X28887Y27870D01*
X28882Y27841D01*
X28881Y27811D01*
X28886Y27781D01*
X28895Y27752D01*
X28909Y27725D01*
X28926Y27701D01*
X28947Y27679D01*
X28971Y27661D01*
X28998Y27648D01*
X29065Y27617D01*
X29128Y27579D01*
X29186Y27535D01*
X29218Y27506D01*
X29160Y27492D01*
X29077Y27458D01*
X29000Y27411D01*
X28932Y27352D01*
X28873Y27284D01*
X28826Y27207D01*
X28792Y27124D01*
X28771Y27037D01*
X28764Y26947D01*
X28771Y26857D01*
X28792Y26770D01*
X28826Y26687D01*
X28873Y26610D01*
X28932Y26542D01*
X29000Y26483D01*
X29077Y26436D01*
X29160Y26402D01*
X29218Y26388D01*
X29186Y26359D01*
X29128Y26315D01*
X29065Y26277D01*
X28999Y26245D01*
X28972Y26232D01*
X28948Y26214D01*
X28927Y26193D01*
X28909Y26168D01*
X28896Y26142D01*
X28887Y26113D01*
X28882Y26083D01*
X28883Y26053D01*
X28887Y26024D01*
X28897Y25995D01*
X28911Y25969D01*
X28929Y25945D01*
X28950Y25923D01*
X28974Y25906D01*
X29001Y25893D01*
X29030Y25884D01*
X29059Y25879D01*
X29089Y25879D01*
X29119Y25884D01*
X29147Y25894D01*
X29247Y25941D01*
X29341Y25998D01*
X29430Y26064D01*
X29511Y26138D01*
X29585Y26219D01*
X29651Y26308D01*
X29692Y26376D01*
X30497D01*
X30732Y26140D01*
Y13186D01*
X29762Y12215D01*
X29729D01*
X29724Y12228D01*
X29630Y12381D01*
X29513Y12518D01*
X29376Y12635D01*
X29223Y12729D01*
X29056Y12797D01*
X28881Y12839D01*
X28702Y12854D01*
X28523Y12839D01*
X28348Y12797D01*
X28181Y12729D01*
X28077Y12665D01*
Y13289D01*
G37*
G36*
X30732Y7643D02*X28077D01*
Y10749D01*
X28181Y10685D01*
X28348Y10617D01*
X28523Y10575D01*
X28702Y10560D01*
X28881Y10575D01*
X29056Y10617D01*
X29223Y10685D01*
X29376Y10779D01*
X29513Y10896D01*
X29630Y11033D01*
X29724Y11186D01*
X29729Y11199D01*
X29952D01*
X29972Y11197D01*
X30052Y11204D01*
X30052Y11204D01*
X30129Y11222D01*
X30203Y11253D01*
X30272Y11295D01*
X30332Y11347D01*
X30345Y11362D01*
X30732Y11749D01*
Y7643D01*
G37*
G36*
X28077Y32985D02*X28028Y32955D01*
X27891Y32838D01*
X27774Y32701D01*
X27680Y32548D01*
X27675Y32535D01*
X26383D01*
Y34059D01*
X27675D01*
X27680Y34046D01*
X27774Y33893D01*
X27891Y33756D01*
X28028Y33639D01*
X28077Y33609D01*
Y32985D01*
G37*
G36*
Y30445D02*X28028Y30415D01*
X27891Y30298D01*
X27774Y30161D01*
X27680Y30008D01*
X27675Y29995D01*
X26383D01*
Y31519D01*
X27675D01*
X27680Y31506D01*
X27774Y31353D01*
X27891Y31216D01*
X28028Y31099D01*
X28077Y31069D01*
Y30445D01*
G37*
G36*
Y25750D02*X27043Y26784D01*
X27030Y26799D01*
X27015Y26812D01*
X26999Y26828D01*
X26940Y26881D01*
X26871Y26923D01*
X26797Y26954D01*
X26720Y26972D01*
X26640Y26979D01*
X26560Y26972D01*
X26483Y26954D01*
X26467Y26947D01*
X26383D01*
Y28979D01*
X27675D01*
X27680Y28966D01*
X27774Y28813D01*
X27891Y28676D01*
X28028Y28559D01*
X28077Y28529D01*
Y27905D01*
X28063Y27896D01*
X27974Y27830D01*
X27893Y27756D01*
X27819Y27675D01*
X27753Y27586D01*
X27696Y27492D01*
X27648Y27393D01*
X27638Y27364D01*
X27633Y27334D01*
X27633Y27304D01*
X27638Y27274D01*
X27647Y27246D01*
X27660Y27219D01*
X27678Y27194D01*
X27699Y27173D01*
X27723Y27155D01*
X27750Y27141D01*
X27779Y27132D01*
X27808Y27127D01*
X27838Y27126D01*
X27868Y27131D01*
X27897Y27140D01*
X27924Y27154D01*
X27948Y27171D01*
X27970Y27192D01*
X27988Y27216D01*
X28001Y27243D01*
X28032Y27310D01*
X28070Y27373D01*
X28077Y27383D01*
Y26511D01*
X28070Y26521D01*
X28032Y26584D01*
X28000Y26650D01*
X27987Y26677D01*
X27969Y26701D01*
X27948Y26722D01*
X27923Y26740D01*
X27897Y26753D01*
X27868Y26762D01*
X27838Y26767D01*
X27808Y26766D01*
X27779Y26762D01*
X27750Y26752D01*
X27724Y26738D01*
X27700Y26720D01*
X27678Y26699D01*
X27661Y26675D01*
X27648Y26648D01*
X27639Y26619D01*
X27634Y26590D01*
X27634Y26560D01*
X27639Y26530D01*
X27649Y26502D01*
X27696Y26402D01*
X27753Y26308D01*
X27819Y26219D01*
X27893Y26138D01*
X27974Y26064D01*
X28063Y25998D01*
X28077Y25989D01*
Y25750D01*
G37*
G36*
Y22825D02*X28028Y22795D01*
X27891Y22678D01*
X27774Y22541D01*
X27680Y22388D01*
X27675Y22375D01*
X26383D01*
Y25931D01*
X26460D01*
X27617Y24774D01*
X27612Y24761D01*
X27570Y24586D01*
X27555Y24407D01*
X27570Y24228D01*
X27612Y24053D01*
X27680Y23886D01*
X27774Y23733D01*
X27891Y23596D01*
X28028Y23479D01*
X28077Y23449D01*
Y22825D01*
G37*
G36*
Y20285D02*X28028Y20255D01*
X27891Y20138D01*
X27774Y20001D01*
X27680Y19848D01*
X27675Y19835D01*
X26383D01*
Y21359D01*
X27675D01*
X27680Y21346D01*
X27774Y21193D01*
X27891Y21056D01*
X28028Y20939D01*
X28077Y20909D01*
Y20285D01*
G37*
G36*
Y17745D02*X28028Y17715D01*
X27891Y17598D01*
X27774Y17461D01*
X27680Y17308D01*
X27675Y17295D01*
X26383D01*
Y18819D01*
X27675D01*
X27680Y18806D01*
X27774Y18653D01*
X27891Y18516D01*
X28028Y18399D01*
X28077Y18369D01*
Y17745D01*
G37*
G36*
Y15205D02*X28028Y15175D01*
X27891Y15058D01*
X27774Y14921D01*
X27712Y14819D01*
X26462D01*
X26457Y14840D01*
X26439Y14883D01*
X26414Y14924D01*
X26384Y14960D01*
X26383Y14960D01*
Y16279D01*
X27675D01*
X27680Y16266D01*
X27774Y16113D01*
X27891Y15976D01*
X28028Y15859D01*
X28077Y15829D01*
Y15205D01*
G37*
G36*
Y7643D02*X26383D01*
Y13534D01*
X26384Y13534D01*
X26414Y13570D01*
X26439Y13611D01*
X26457Y13654D01*
X26462Y13676D01*
X27712D01*
X27774Y13573D01*
X27891Y13436D01*
X28028Y13319D01*
X28077Y13289D01*
Y12665D01*
X28028Y12635D01*
X27891Y12518D01*
X27774Y12381D01*
X27680Y12228D01*
X27612Y12061D01*
X27570Y11886D01*
X27555Y11707D01*
X27570Y11528D01*
X27612Y11353D01*
X27680Y11186D01*
X27774Y11033D01*
X27891Y10896D01*
X28028Y10779D01*
X28077Y10749D01*
Y7643D01*
G37*
G36*
X29874Y61237D02*X30732D01*
Y45236D01*
X30714Y45235D01*
X29874D01*
Y48614D01*
X29884Y48625D01*
X29978Y48778D01*
X30046Y48945D01*
X30088Y49120D01*
X30099Y49299D01*
X30088Y49478D01*
X30046Y49653D01*
X29978Y49820D01*
X29884Y49973D01*
X29874Y49984D01*
Y51154D01*
X29884Y51165D01*
X29978Y51318D01*
X30046Y51485D01*
X30088Y51660D01*
X30099Y51839D01*
X30088Y52018D01*
X30046Y52193D01*
X29978Y52360D01*
X29884Y52513D01*
X29874Y52524D01*
Y53694D01*
X29884Y53705D01*
X29978Y53858D01*
X30046Y54025D01*
X30088Y54200D01*
X30099Y54379D01*
X30088Y54558D01*
X30046Y54733D01*
X29978Y54900D01*
X29884Y55053D01*
X29874Y55064D01*
Y56374D01*
X29885Y56375D01*
X29913Y56385D01*
X29940Y56399D01*
X29964Y56417D01*
X29985Y56438D01*
X30002Y56462D01*
X30015Y56489D01*
X30053Y56593D01*
X30079Y56700D01*
X30095Y56809D01*
X30100Y56919D01*
X30095Y57029D01*
X30079Y57138D01*
X30053Y57245D01*
X30016Y57349D01*
X30003Y57376D01*
X29986Y57401D01*
X29964Y57422D01*
X29940Y57440D01*
X29913Y57454D01*
X29885Y57463D01*
X29874Y57465D01*
Y61237D01*
G37*
G36*
Y52524D02*X29767Y52650D01*
X29630Y52767D01*
X29477Y52861D01*
X29310Y52929D01*
X29135Y52971D01*
X28956Y52985D01*
Y53233D01*
X29135Y53247D01*
X29310Y53289D01*
X29477Y53357D01*
X29630Y53451D01*
X29767Y53568D01*
X29874Y53694D01*
Y52524D01*
G37*
G36*
Y49984D02*X29767Y50110D01*
X29630Y50227D01*
X29477Y50321D01*
X29310Y50389D01*
X29135Y50431D01*
X28956Y50445D01*
Y50693D01*
X29135Y50707D01*
X29310Y50749D01*
X29477Y50817D01*
X29630Y50911D01*
X29767Y51028D01*
X29874Y51154D01*
Y49984D01*
G37*
G36*
Y45235D02*X29842D01*
X29841Y45549D01*
X29827Y45607D01*
X29805Y45663D01*
X29773Y45714D01*
X29734Y45759D01*
X29689Y45798D01*
X29638Y45830D01*
X29582Y45852D01*
X29524Y45866D01*
X29464Y45870D01*
X28956Y45869D01*
Y48153D01*
X29135Y48167D01*
X29310Y48209D01*
X29477Y48277D01*
X29630Y48371D01*
X29767Y48488D01*
X29874Y48614D01*
Y45235D01*
G37*
G36*
X28956Y61237D02*X29874D01*
Y57465D01*
X29855Y57468D01*
X29825Y57469D01*
X29795Y57464D01*
X29766Y57455D01*
X29740Y57441D01*
X29715Y57424D01*
X29694Y57403D01*
X29676Y57379D01*
X29662Y57352D01*
X29652Y57323D01*
X29647Y57294D01*
X29647Y57263D01*
X29652Y57234D01*
X29661Y57205D01*
X29686Y57136D01*
X29704Y57065D01*
X29714Y56992D01*
X29718Y56919D01*
X29714Y56846D01*
X29704Y56773D01*
X29686Y56702D01*
X29662Y56633D01*
X29653Y56604D01*
X29648Y56575D01*
X29648Y56545D01*
X29653Y56515D01*
X29663Y56487D01*
X29676Y56460D01*
X29694Y56436D01*
X29716Y56415D01*
X29740Y56397D01*
X29767Y56384D01*
X29795Y56375D01*
X29825Y56370D01*
X29855Y56371D01*
X29874Y56374D01*
Y55064D01*
X29767Y55190D01*
X29630Y55307D01*
X29477Y55401D01*
X29310Y55469D01*
X29135Y55511D01*
X28956Y55525D01*
Y55775D01*
X29066Y55780D01*
X29175Y55796D01*
X29282Y55822D01*
X29386Y55859D01*
X29413Y55872D01*
X29438Y55889D01*
X29459Y55911D01*
X29477Y55935D01*
X29491Y55962D01*
X29500Y55990D01*
X29505Y56020D01*
X29506Y56050D01*
X29501Y56080D01*
X29492Y56109D01*
X29478Y56135D01*
X29461Y56160D01*
X29440Y56181D01*
X29416Y56199D01*
X29389Y56213D01*
X29360Y56223D01*
X29331Y56228D01*
X29300Y56228D01*
X29271Y56223D01*
X29242Y56214D01*
X29173Y56189D01*
X29102Y56171D01*
X29029Y56161D01*
X28956Y56157D01*
Y57681D01*
X29029Y57677D01*
X29102Y57667D01*
X29173Y57649D01*
X29242Y57625D01*
X29271Y57616D01*
X29300Y57611D01*
X29330Y57611D01*
X29360Y57616D01*
X29388Y57626D01*
X29415Y57639D01*
X29439Y57657D01*
X29460Y57679D01*
X29478Y57703D01*
X29491Y57730D01*
X29500Y57758D01*
X29505Y57788D01*
X29504Y57818D01*
X29500Y57848D01*
X29490Y57876D01*
X29476Y57903D01*
X29458Y57927D01*
X29437Y57948D01*
X29413Y57965D01*
X29386Y57978D01*
X29282Y58016D01*
X29175Y58042D01*
X29066Y58058D01*
X28956Y58063D01*
Y61237D01*
G37*
G36*
Y52985D02*X28956Y52986D01*
X28777Y52971D01*
X28602Y52929D01*
X28435Y52861D01*
X28282Y52767D01*
X28145Y52650D01*
X28028Y52513D01*
X27934Y52360D01*
X27929Y52347D01*
X27230D01*
X27230Y52386D01*
X27219Y52432D01*
X27201Y52475D01*
X27176Y52516D01*
X27146Y52552D01*
X27110Y52582D01*
X27070Y52607D01*
X27026Y52625D01*
X26980Y52636D01*
X26933Y52639D01*
X26383Y52637D01*
Y53580D01*
X26980Y53582D01*
X27026Y53593D01*
X27070Y53611D01*
X27110Y53636D01*
X27146Y53666D01*
X27176Y53702D01*
X27201Y53743D01*
X27219Y53786D01*
X27230Y53832D01*
X27232Y53871D01*
X27929D01*
X27934Y53858D01*
X28028Y53705D01*
X28145Y53568D01*
X28282Y53451D01*
X28435Y53357D01*
X28602Y53289D01*
X28777Y53247D01*
X28956Y53232D01*
X28956Y53233D01*
Y52985D01*
G37*
G36*
Y50445D02*X28956Y50446D01*
X28777Y50431D01*
X28602Y50389D01*
X28435Y50321D01*
X28282Y50227D01*
X28145Y50110D01*
X28028Y49973D01*
X27966Y49871D01*
X26383D01*
Y51040D01*
X26980Y51042D01*
X27026Y51053D01*
X27070Y51071D01*
X27110Y51096D01*
X27146Y51126D01*
X27176Y51162D01*
X27201Y51203D01*
X27219Y51246D01*
X27230Y51292D01*
X27232Y51331D01*
X27929D01*
X27934Y51318D01*
X28028Y51165D01*
X28145Y51028D01*
X28282Y50911D01*
X28435Y50817D01*
X28602Y50749D01*
X28777Y50707D01*
X28956Y50692D01*
X28956Y50693D01*
Y50445D01*
G37*
G36*
Y45869D02*X27880Y45866D01*
X27822Y45852D01*
X27766Y45830D01*
X27715Y45798D01*
X27670Y45759D01*
X27631Y45714D01*
X27599Y45663D01*
X27577Y45607D01*
X27563Y45549D01*
X27559Y45489D01*
X27560Y45235D01*
X27061D01*
X27174Y45304D01*
X27276Y45391D01*
X27363Y45493D01*
X27433Y45608D01*
X27485Y45732D01*
X27516Y45863D01*
X27524Y45997D01*
X27516Y46131D01*
X27485Y46262D01*
X27433Y46386D01*
X27363Y46501D01*
X27276Y46603D01*
X27174Y46690D01*
X27059Y46760D01*
X26935Y46812D01*
X26804Y46843D01*
X26670Y46854D01*
X26536Y46843D01*
X26405Y46812D01*
X26383Y46803D01*
Y47431D01*
X26397Y47447D01*
X26422Y47487D01*
X26440Y47531D01*
X26451Y47577D01*
X26454Y47624D01*
X26451Y48421D01*
X26440Y48467D01*
X26422Y48511D01*
X26397Y48551D01*
X26383Y48567D01*
Y48728D01*
X27966D01*
X28028Y48625D01*
X28145Y48488D01*
X28282Y48371D01*
X28435Y48277D01*
X28602Y48209D01*
X28777Y48167D01*
X28956Y48152D01*
X28956Y48153D01*
Y45869D01*
G37*
G36*
X28038Y61237D02*X28956D01*
Y58063D01*
X28956Y58063D01*
X28846Y58058D01*
X28737Y58042D01*
X28630Y58016D01*
X28526Y57979D01*
X28499Y57966D01*
X28474Y57949D01*
X28453Y57927D01*
X28435Y57903D01*
X28421Y57876D01*
X28412Y57848D01*
X28407Y57818D01*
X28406Y57788D01*
X28411Y57758D01*
X28420Y57729D01*
X28434Y57703D01*
X28451Y57678D01*
X28472Y57657D01*
X28496Y57639D01*
X28523Y57625D01*
X28552Y57615D01*
X28581Y57610D01*
X28612Y57610D01*
X28641Y57615D01*
X28670Y57624D01*
X28739Y57649D01*
X28810Y57667D01*
X28883Y57677D01*
X28956Y57681D01*
X28956Y57681D01*
Y56157D01*
X28956Y56157D01*
X28883Y56161D01*
X28810Y56171D01*
X28739Y56189D01*
X28670Y56213D01*
X28641Y56222D01*
X28612Y56227D01*
X28582Y56227D01*
X28552Y56222D01*
X28524Y56212D01*
X28497Y56199D01*
X28473Y56181D01*
X28452Y56159D01*
X28434Y56135D01*
X28421Y56108D01*
X28412Y56080D01*
X28407Y56050D01*
X28408Y56020D01*
X28412Y55990D01*
X28422Y55962D01*
X28436Y55935D01*
X28454Y55911D01*
X28475Y55890D01*
X28499Y55873D01*
X28526Y55860D01*
X28630Y55822D01*
X28737Y55796D01*
X28846Y55780D01*
X28956Y55775D01*
X28956Y55775D01*
Y55525D01*
X28956Y55526D01*
X28777Y55511D01*
X28602Y55469D01*
X28435Y55401D01*
X28282Y55307D01*
X28145Y55190D01*
X28038Y55064D01*
Y56373D01*
X28057Y56370D01*
X28087Y56369D01*
X28117Y56374D01*
X28146Y56383D01*
X28172Y56397D01*
X28197Y56414D01*
X28218Y56435D01*
X28236Y56459D01*
X28250Y56486D01*
X28260Y56515D01*
X28265Y56544D01*
X28265Y56575D01*
X28260Y56604D01*
X28251Y56633D01*
X28226Y56702D01*
X28208Y56773D01*
X28198Y56846D01*
X28194Y56919D01*
X28198Y56992D01*
X28208Y57065D01*
X28226Y57136D01*
X28250Y57205D01*
X28259Y57234D01*
X28264Y57263D01*
X28264Y57293D01*
X28259Y57323D01*
X28249Y57351D01*
X28236Y57378D01*
X28218Y57402D01*
X28196Y57423D01*
X28172Y57441D01*
X28145Y57454D01*
X28117Y57463D01*
X28087Y57468D01*
X28057Y57467D01*
X28038Y57464D01*
Y61237D01*
G37*
G36*
X26383D02*X28038D01*
Y57464D01*
X28027Y57463D01*
X27999Y57453D01*
X27972Y57439D01*
X27948Y57421D01*
X27927Y57400D01*
X27910Y57376D01*
X27897Y57349D01*
X27859Y57245D01*
X27833Y57138D01*
X27817Y57029D01*
X27812Y56919D01*
X27817Y56809D01*
X27833Y56700D01*
X27859Y56593D01*
X27896Y56489D01*
X27909Y56462D01*
X27926Y56437D01*
X27948Y56416D01*
X27972Y56398D01*
X27999Y56384D01*
X28027Y56375D01*
X28038Y56373D01*
Y55064D01*
X28028Y55053D01*
X27934Y54900D01*
X27929Y54887D01*
X27230D01*
X27230Y54926D01*
X27219Y54972D01*
X27201Y55015D01*
X27176Y55056D01*
X27146Y55092D01*
X27110Y55122D01*
X27070Y55147D01*
X27026Y55165D01*
X26980Y55176D01*
X26933Y55179D01*
X26383Y55177D01*
Y61237D01*
G37*
G36*
Y48567D02*X26367Y48587D01*
X26331Y48617D01*
X26290Y48642D01*
X26274Y48649D01*
X26290Y48656D01*
X26331Y48681D01*
X26367Y48711D01*
X26380Y48728D01*
X26383D01*
Y48567D01*
G37*
G36*
X25046Y13502D02*X25048Y13504D01*
X25084Y13534D01*
X25114Y13570D01*
X25139Y13611D01*
X25146Y13627D01*
X25153Y13611D01*
X25178Y13570D01*
X25208Y13534D01*
X25244Y13504D01*
X25284Y13479D01*
X25328Y13461D01*
X25374Y13450D01*
X25421Y13447D01*
X26218Y13450D01*
X26264Y13461D01*
X26308Y13479D01*
X26348Y13504D01*
X26383Y13534D01*
Y7643D01*
X25046D01*
Y13502D01*
G37*
G36*
Y15648D02*X25146Y15640D01*
X25325Y15655D01*
X25500Y15697D01*
X25667Y15765D01*
X25820Y15859D01*
X25957Y15976D01*
X26074Y16113D01*
X26168Y16266D01*
X26173Y16279D01*
X26383D01*
Y14960D01*
X26348Y14990D01*
X26308Y15015D01*
X26264Y15033D01*
X26218Y15044D01*
X26171Y15047D01*
X25374Y15044D01*
X25328Y15033D01*
X25284Y15015D01*
X25244Y14990D01*
X25208Y14960D01*
X25178Y14924D01*
X25153Y14883D01*
X25146Y14867D01*
X25139Y14883D01*
X25114Y14924D01*
X25084Y14960D01*
X25048Y14990D01*
X25046Y14992D01*
Y15648D01*
G37*
G36*
Y18185D02*X25968Y18188D01*
X26026Y18202D01*
X26082Y18224D01*
X26133Y18256D01*
X26178Y18295D01*
X26217Y18340D01*
X26249Y18391D01*
X26271Y18447D01*
X26285Y18505D01*
X26289Y18565D01*
X26288Y18819D01*
X26383D01*
Y17295D01*
X26173D01*
X26168Y17308D01*
X26074Y17461D01*
X25957Y17598D01*
X25820Y17715D01*
X25667Y17809D01*
X25500Y17877D01*
X25325Y17919D01*
X25146Y17934D01*
X25046Y17926D01*
Y18185D01*
G37*
G36*
Y21238D02*X25940Y21240D01*
X25979Y21250D01*
X26016Y21265D01*
X26050Y21286D01*
X26080Y21312D01*
X26106Y21342D01*
X26116Y21359D01*
X26383D01*
Y19835D01*
X26286D01*
X26285Y20149D01*
X26271Y20207D01*
X26249Y20263D01*
X26217Y20314D01*
X26178Y20359D01*
X26133Y20398D01*
X26082Y20430D01*
X26026Y20452D01*
X25968Y20466D01*
X25908Y20470D01*
X25046Y20468D01*
Y21238D01*
G37*
G36*
Y25840D02*X25940Y25842D01*
X25979Y25852D01*
X26016Y25867D01*
X26050Y25888D01*
X26080Y25914D01*
X26095Y25931D01*
X26383D01*
Y22375D01*
X26116D01*
X26106Y22392D01*
X26080Y22422D01*
X26050Y22448D01*
X26016Y22469D01*
X25979Y22484D01*
X25940Y22494D01*
X25900Y22496D01*
X25046Y22494D01*
Y22538D01*
X25940Y22540D01*
X25979Y22550D01*
X26016Y22565D01*
X26050Y22586D01*
X26080Y22612D01*
X26106Y22642D01*
X26127Y22676D01*
X26142Y22713D01*
X26152Y22752D01*
X26154Y22792D01*
X26152Y23582D01*
X26142Y23621D01*
X26127Y23658D01*
X26106Y23692D01*
X26080Y23722D01*
X26050Y23748D01*
X26016Y23769D01*
X25979Y23784D01*
X25971Y23786D01*
Y24131D01*
X25973Y24153D01*
X25971Y24175D01*
Y24550D01*
X25979Y24552D01*
X26016Y24567D01*
X26050Y24588D01*
X26080Y24614D01*
X26106Y24644D01*
X26127Y24678D01*
X26142Y24715D01*
X26152Y24754D01*
X26154Y24794D01*
X26152Y25584D01*
X26142Y25623D01*
X26127Y25660D01*
X26106Y25694D01*
X26080Y25724D01*
X26050Y25750D01*
X26016Y25771D01*
X25979Y25786D01*
X25940Y25796D01*
X25900Y25798D01*
X25046Y25796D01*
Y25840D01*
G37*
G36*
Y28348D02*X25146Y28340D01*
X25325Y28355D01*
X25500Y28397D01*
X25667Y28465D01*
X25820Y28559D01*
X25957Y28676D01*
X26074Y28813D01*
X26168Y28966D01*
X26173Y28979D01*
X26383D01*
Y26947D01*
X26132D01*
X26127Y26960D01*
X26106Y26994D01*
X26080Y27024D01*
X26050Y27050D01*
X26016Y27071D01*
X25979Y27086D01*
X25940Y27096D01*
X25900Y27098D01*
X25046Y27096D01*
Y28348D01*
G37*
G36*
Y30888D02*X25146Y30880D01*
X25325Y30895D01*
X25500Y30937D01*
X25667Y31005D01*
X25820Y31099D01*
X25957Y31216D01*
X26074Y31353D01*
X26168Y31506D01*
X26173Y31519D01*
X26383D01*
Y29995D01*
X26173D01*
X26168Y30008D01*
X26074Y30161D01*
X25957Y30298D01*
X25820Y30415D01*
X25667Y30509D01*
X25500Y30577D01*
X25325Y30619D01*
X25146Y30634D01*
X25046Y30626D01*
Y30888D01*
G37*
G36*
Y33428D02*X25146Y33420D01*
X25325Y33435D01*
X25500Y33477D01*
X25667Y33545D01*
X25820Y33639D01*
X25957Y33756D01*
X26074Y33893D01*
X26168Y34046D01*
X26173Y34059D01*
X26383D01*
Y32535D01*
X26173D01*
X26168Y32548D01*
X26074Y32701D01*
X25957Y32838D01*
X25820Y32955D01*
X25667Y33049D01*
X25500Y33117D01*
X25325Y33159D01*
X25146Y33174D01*
X25046Y33166D01*
Y33428D01*
G37*
G36*
Y35965D02*X25968Y35968D01*
X26026Y35982D01*
X26082Y36004D01*
X26133Y36036D01*
X26178Y36075D01*
X26217Y36120D01*
X26249Y36171D01*
X26271Y36227D01*
X26285Y36285D01*
X26289Y36345D01*
X26288Y36599D01*
X26383D01*
Y36370D01*
X26358Y36341D01*
X26288Y36226D01*
X26236Y36102D01*
X26205Y35971D01*
X26194Y35837D01*
X26205Y35703D01*
X26236Y35572D01*
X26288Y35448D01*
X26358Y35333D01*
X26383Y35304D01*
Y35075D01*
X26173D01*
X26168Y35088D01*
X26074Y35241D01*
X25957Y35378D01*
X25820Y35495D01*
X25667Y35589D01*
X25500Y35657D01*
X25325Y35699D01*
X25146Y35714D01*
X25046Y35706D01*
Y35965D01*
G37*
G36*
Y39139D02*X26383D01*
Y37615D01*
X26286D01*
X26285Y37929D01*
X26271Y37987D01*
X26249Y38043D01*
X26217Y38094D01*
X26178Y38139D01*
X26133Y38178D01*
X26082Y38210D01*
X26026Y38232D01*
X25968Y38246D01*
X25908Y38250D01*
X25046Y38248D01*
Y39139D01*
G37*
G36*
Y41679D02*X26025D01*
X25912Y41610D01*
X25810Y41523D01*
X25723Y41421D01*
X25653Y41306D01*
X25601Y41182D01*
X25570Y41051D01*
X25559Y40917D01*
X25570Y40783D01*
X25601Y40652D01*
X25653Y40528D01*
X25723Y40413D01*
X25810Y40311D01*
X25912Y40224D01*
X26025Y40155D01*
X25046D01*
Y41679D01*
G37*
G36*
Y44099D02*X25686Y44100D01*
X25725Y44110D01*
X25762Y44125D01*
X25796Y44146D01*
X25826Y44172D01*
X25852Y44202D01*
X25862Y44219D01*
X26383D01*
Y42695D01*
X25046D01*
Y44099D01*
G37*
G36*
Y45399D02*X25686Y45400D01*
X25725Y45410D01*
X25762Y45425D01*
X25796Y45446D01*
X25826Y45472D01*
X25852Y45502D01*
X25862Y45519D01*
X25961D01*
X25977Y45493D01*
X26064Y45391D01*
X26166Y45304D01*
X26279Y45235D01*
X25862D01*
X25852Y45252D01*
X25826Y45282D01*
X25796Y45308D01*
X25762Y45329D01*
X25725Y45344D01*
X25686Y45354D01*
X25646Y45356D01*
X25046Y45355D01*
Y45399D01*
G37*
G36*
Y47344D02*X25061Y47338D01*
X25107Y47327D01*
X25154Y47324D01*
X26201Y47327D01*
X26247Y47338D01*
X26290Y47356D01*
X26331Y47381D01*
X26367Y47411D01*
X26383Y47431D01*
Y46803D01*
X26281Y46760D01*
X26166Y46690D01*
X26064Y46603D01*
X26006Y46535D01*
X25862D01*
X25852Y46552D01*
X25826Y46582D01*
X25796Y46608D01*
X25762Y46629D01*
X25725Y46644D01*
X25686Y46654D01*
X25646Y46656D01*
X25046Y46655D01*
Y47344D01*
G37*
G36*
Y51040D02*X25680Y51042D01*
X25726Y51053D01*
X25770Y51071D01*
X25810Y51096D01*
X25846Y51126D01*
X25876Y51162D01*
X25901Y51203D01*
X25908Y51219D01*
X25915Y51203D01*
X25940Y51162D01*
X25970Y51126D01*
X26006Y51096D01*
X26046Y51071D01*
X26090Y51053D01*
X26136Y51042D01*
X26183Y51039D01*
X26383Y51040D01*
Y49871D01*
X26380D01*
X26367Y49887D01*
X26331Y49917D01*
X26290Y49942D01*
X26247Y49960D01*
X26201Y49971D01*
X26154Y49974D01*
X25107Y49971D01*
X25061Y49960D01*
X25046Y49954D01*
Y51040D01*
G37*
G36*
Y53580D02*X25680Y53582D01*
X25726Y53593D01*
X25770Y53611D01*
X25810Y53636D01*
X25846Y53666D01*
X25876Y53702D01*
X25901Y53743D01*
X25908Y53759D01*
X25915Y53743D01*
X25940Y53702D01*
X25970Y53666D01*
X26006Y53636D01*
X26046Y53611D01*
X26090Y53593D01*
X26136Y53582D01*
X26183Y53579D01*
X26383Y53580D01*
Y52637D01*
X26136Y52636D01*
X26090Y52625D01*
X26046Y52607D01*
X26006Y52582D01*
X25970Y52552D01*
X25940Y52516D01*
X25915Y52475D01*
X25908Y52459D01*
X25901Y52475D01*
X25876Y52516D01*
X25846Y52552D01*
X25810Y52582D01*
X25770Y52607D01*
X25726Y52625D01*
X25680Y52636D01*
X25633Y52639D01*
X25046Y52637D01*
Y53580D01*
G37*
G36*
Y61237D02*X26383D01*
Y55177D01*
X26136Y55176D01*
X26090Y55165D01*
X26046Y55147D01*
X26006Y55122D01*
X25970Y55092D01*
X25940Y55056D01*
X25915Y55015D01*
X25908Y54999D01*
X25901Y55015D01*
X25876Y55056D01*
X25846Y55092D01*
X25810Y55122D01*
X25770Y55147D01*
X25726Y55165D01*
X25680Y55176D01*
X25633Y55179D01*
X25046Y55177D01*
Y61237D01*
G37*
G36*
X17716Y27466D02*X17373Y27465D01*
X17327Y27454D01*
X17283Y27436D01*
X17243Y27411D01*
X17207Y27380D01*
X17177Y27344D01*
X17152Y27304D01*
X17145Y27287D01*
X17138Y27304D01*
X17113Y27344D01*
X17083Y27380D01*
X17082Y27381D01*
Y27760D01*
X17095Y27753D01*
X17309Y27657D01*
X17531Y27582D01*
X17716Y27538D01*
Y27466D01*
G37*
G36*
X17082Y19560D02*X17144Y19499D01*
X17134Y17304D01*
X17126Y17301D01*
X17086Y17276D01*
X17082Y17273D01*
Y19560D01*
G37*
G36*
Y13452D02*X17089Y13450D01*
X17136Y13447D01*
X17933Y13450D01*
X17979Y13461D01*
X18023Y13479D01*
X18063Y13504D01*
X18099Y13534D01*
X18129Y13570D01*
X18154Y13611D01*
X18161Y13627D01*
X18168Y13611D01*
X18193Y13570D01*
X18223Y13534D01*
X18259Y13504D01*
X18299Y13479D01*
X18343Y13461D01*
X18389Y13450D01*
X18436Y13447D01*
X19233Y13450D01*
X19279Y13461D01*
X19323Y13479D01*
X19363Y13504D01*
X19399Y13534D01*
X19429Y13570D01*
X19454Y13611D01*
X19472Y13654D01*
X19477Y13676D01*
X20446D01*
X20449Y13672D01*
X20507Y13614D01*
X20571Y13561D01*
X20640Y13515D01*
X20713Y13476D01*
X20789Y13444D01*
X20809Y13438D01*
X20829Y13436D01*
X20849Y13437D01*
X20868Y13441D01*
X20887Y13448D01*
X20905Y13458D01*
X20920Y13470D01*
X20934Y13485D01*
X20945Y13502D01*
X20953Y13520D01*
X20959Y13539D01*
X20961Y13559D01*
X20960Y13579D01*
X20956Y13599D01*
X20949Y13618D01*
X20939Y13636D01*
X20927Y13651D01*
X20912Y13665D01*
X20895Y13676D01*
X20877Y13684D01*
X20823Y13706D01*
X20796Y13720D01*
X20834Y13736D01*
X20911Y13783D01*
X20979Y13842D01*
X21038Y13910D01*
X21082Y13982D01*
X21126Y13910D01*
X21185Y13842D01*
X21253Y13783D01*
X21330Y13736D01*
X21368Y13720D01*
X21341Y13706D01*
X21287Y13683D01*
X21269Y13675D01*
X21252Y13664D01*
X21238Y13651D01*
X21225Y13635D01*
X21215Y13618D01*
X21208Y13599D01*
X21204Y13579D01*
X21204Y13559D01*
X21206Y13540D01*
X21211Y13520D01*
X21219Y13502D01*
X21231Y13485D01*
X21244Y13471D01*
X21260Y13458D01*
X21277Y13448D01*
X21296Y13441D01*
X21315Y13437D01*
X21335Y13437D01*
X21355Y13439D01*
X21374Y13445D01*
X21451Y13476D01*
X21524Y13515D01*
X21593Y13561D01*
X21657Y13614D01*
X21715Y13672D01*
X21718Y13676D01*
X23830D01*
X23835Y13654D01*
X23853Y13611D01*
X23878Y13570D01*
X23908Y13534D01*
X23944Y13504D01*
X23984Y13479D01*
X24028Y13461D01*
X24074Y13450D01*
X24121Y13447D01*
X24918Y13450D01*
X24964Y13461D01*
X25008Y13479D01*
X25046Y13502D01*
Y7643D01*
X17082D01*
Y13452D01*
G37*
G36*
X21548Y19870D02*X21660Y19916D01*
X21831Y20021D01*
X21983Y20150D01*
X22113Y20302D01*
X22217Y20473D01*
X22246Y20543D01*
X22786D01*
X22806Y20542D01*
X22886Y20548D01*
X22886Y20548D01*
X22964Y20567D01*
X23038Y20597D01*
X23106Y20639D01*
X23167Y20691D01*
X23180Y20706D01*
X23832Y21359D01*
X24684D01*
X24694Y21342D01*
X24720Y21312D01*
X24750Y21286D01*
X24784Y21265D01*
X24821Y21250D01*
X24860Y21240D01*
X24900Y21238D01*
X25046Y21238D01*
Y20468D01*
X24324Y20466D01*
X24266Y20452D01*
X24210Y20430D01*
X24159Y20398D01*
X24114Y20359D01*
X24075Y20314D01*
X24043Y20263D01*
X24021Y20207D01*
X24007Y20149D01*
X24003Y20089D01*
X24007Y18505D01*
X24021Y18447D01*
X24043Y18391D01*
X24075Y18340D01*
X24114Y18295D01*
X24159Y18256D01*
X24210Y18224D01*
X24266Y18202D01*
X24324Y18188D01*
X24384Y18184D01*
X25046Y18185D01*
Y17926D01*
X24967Y17919D01*
X24792Y17877D01*
X24625Y17809D01*
X24472Y17715D01*
X24335Y17598D01*
X24218Y17461D01*
X24124Y17308D01*
X24056Y17141D01*
X24014Y16966D01*
X23999Y16787D01*
X24014Y16608D01*
X24056Y16433D01*
X24124Y16266D01*
X24218Y16113D01*
X24335Y15976D01*
X24472Y15859D01*
X24625Y15765D01*
X24792Y15697D01*
X24967Y15655D01*
X25046Y15648D01*
Y14992D01*
X25008Y15015D01*
X24964Y15033D01*
X24918Y15044D01*
X24871Y15047D01*
X24074Y15044D01*
X24028Y15033D01*
X23984Y15015D01*
X23944Y14990D01*
X23908Y14960D01*
X23878Y14924D01*
X23853Y14883D01*
X23835Y14840D01*
X23830Y14819D01*
X21718D01*
X21715Y14822D01*
X21657Y14880D01*
X21593Y14933D01*
X21548Y14963D01*
Y15817D01*
X21593Y15847D01*
X21657Y15900D01*
X21715Y15958D01*
X21768Y16022D01*
X21814Y16091D01*
X21853Y16164D01*
X21885Y16240D01*
X21891Y16260D01*
X21893Y16280D01*
X21892Y16300D01*
X21888Y16319D01*
X21881Y16338D01*
X21871Y16356D01*
X21859Y16371D01*
X21844Y16385D01*
X21827Y16396D01*
X21809Y16404D01*
X21790Y16410D01*
X21770Y16412D01*
X21750Y16411D01*
X21730Y16407D01*
X21711Y16400D01*
X21693Y16390D01*
X21678Y16378D01*
X21664Y16363D01*
X21653Y16346D01*
X21645Y16328D01*
X21623Y16274D01*
X21596Y16223D01*
X21563Y16175D01*
X21548Y16157D01*
Y16909D01*
X21563Y16891D01*
X21596Y16843D01*
X21623Y16792D01*
X21646Y16738D01*
X21654Y16720D01*
X21665Y16703D01*
X21678Y16689D01*
X21694Y16676D01*
X21711Y16666D01*
X21730Y16659D01*
X21750Y16655D01*
X21770Y16655D01*
X21789Y16657D01*
X21809Y16662D01*
X21827Y16670D01*
X21844Y16682D01*
X21858Y16695D01*
X21871Y16711D01*
X21881Y16728D01*
X21888Y16747D01*
X21892Y16766D01*
X21892Y16786D01*
X21890Y16806D01*
X21884Y16825D01*
X21853Y16902D01*
X21814Y16975D01*
X21768Y17044D01*
X21715Y17108D01*
X21657Y17166D01*
X21593Y17219D01*
X21548Y17249D01*
Y19870D01*
G37*
G36*
X23410Y25425D02*X23448Y25428D01*
X23525Y25446D01*
X23599Y25477D01*
X23668Y25519D01*
X23728Y25571D01*
X23741Y25586D01*
X24086Y25931D01*
X24705D01*
X24720Y25914D01*
X24750Y25888D01*
X24784Y25867D01*
X24821Y25852D01*
X24860Y25842D01*
X24900Y25840D01*
X25046Y25840D01*
Y25796D01*
X24860Y25796D01*
X24821Y25786D01*
X24784Y25771D01*
X24750Y25750D01*
X24720Y25724D01*
X24694Y25694D01*
X24673Y25660D01*
X24658Y25623D01*
X24648Y25584D01*
X24646Y25544D01*
X24648Y24754D01*
X24656Y24725D01*
X24512D01*
X24509Y24728D01*
X24451Y24786D01*
X24387Y24839D01*
X24318Y24885D01*
X24245Y24924D01*
X24169Y24956D01*
X24149Y24962D01*
X24129Y24964D01*
X24109Y24963D01*
X24090Y24959D01*
X24071Y24952D01*
X24053Y24942D01*
X24038Y24930D01*
X24024Y24915D01*
X24013Y24898D01*
X24005Y24880D01*
X23999Y24861D01*
X23997Y24841D01*
X23998Y24821D01*
X24002Y24801D01*
X24009Y24782D01*
X24019Y24764D01*
X24031Y24749D01*
X24046Y24735D01*
X24063Y24724D01*
X24081Y24716D01*
X24135Y24694D01*
X24186Y24667D01*
X24219Y24644D01*
X24174Y24617D01*
X24106Y24558D01*
X24047Y24490D01*
X24000Y24413D01*
X23966Y24330D01*
X23945Y24243D01*
X23938Y24153D01*
X23945Y24063D01*
X23966Y23976D01*
X24000Y23893D01*
X24047Y23816D01*
X24106Y23748D01*
X24174Y23689D01*
X24219Y23662D01*
X24186Y23639D01*
X24135Y23612D01*
X24081Y23589D01*
X24063Y23581D01*
X24046Y23570D01*
X24032Y23557D01*
X24019Y23541D01*
X24009Y23524D01*
X24002Y23505D01*
X23998Y23485D01*
X23998Y23465D01*
X24000Y23446D01*
X24005Y23426D01*
X24013Y23408D01*
X24025Y23391D01*
X24038Y23377D01*
X24054Y23364D01*
X24071Y23354D01*
X24090Y23347D01*
X24109Y23343D01*
X24129Y23343D01*
X24149Y23345D01*
X24168Y23351D01*
X24245Y23382D01*
X24318Y23421D01*
X24387Y23467D01*
X24451Y23520D01*
X24509Y23578D01*
X24512Y23582D01*
X24648D01*
X24646Y23542D01*
X24648Y22752D01*
X24658Y22713D01*
X24673Y22676D01*
X24694Y22642D01*
X24720Y22612D01*
X24750Y22586D01*
X24784Y22565D01*
X24821Y22550D01*
X24860Y22540D01*
X24900Y22538D01*
X25046Y22538D01*
Y22494D01*
X24860Y22494D01*
X24821Y22484D01*
X24784Y22469D01*
X24750Y22448D01*
X24720Y22422D01*
X24694Y22392D01*
X24684Y22375D01*
X23642D01*
X23622Y22377D01*
X23542Y22370D01*
X23465Y22352D01*
X23410Y22329D01*
Y23437D01*
X23434Y23421D01*
X23507Y23382D01*
X23583Y23350D01*
X23603Y23344D01*
X23623Y23342D01*
X23643Y23343D01*
X23662Y23347D01*
X23681Y23354D01*
X23699Y23364D01*
X23714Y23376D01*
X23728Y23391D01*
X23739Y23408D01*
X23747Y23426D01*
X23753Y23445D01*
X23755Y23465D01*
X23754Y23485D01*
X23750Y23505D01*
X23743Y23524D01*
X23733Y23542D01*
X23721Y23557D01*
X23706Y23571D01*
X23689Y23582D01*
X23671Y23590D01*
X23617Y23612D01*
X23566Y23639D01*
X23518Y23672D01*
X23473Y23709D01*
X23432Y23750D01*
X23410Y23777D01*
Y24529D01*
X23432Y24556D01*
X23473Y24597D01*
X23518Y24634D01*
X23566Y24667D01*
X23617Y24694D01*
X23671Y24717D01*
X23689Y24725D01*
X23706Y24736D01*
X23720Y24749D01*
X23733Y24765D01*
X23743Y24782D01*
X23750Y24801D01*
X23754Y24821D01*
X23754Y24841D01*
X23752Y24860D01*
X23747Y24880D01*
X23739Y24898D01*
X23727Y24915D01*
X23714Y24929D01*
X23698Y24942D01*
X23681Y24952D01*
X23662Y24959D01*
X23643Y24963D01*
X23623Y24963D01*
X23603Y24961D01*
X23584Y24955D01*
X23507Y24924D01*
X23434Y24885D01*
X23410Y24869D01*
Y25425D01*
G37*
G36*
X21548Y24664D02*X22031Y24665D01*
X22089Y24679D01*
X22145Y24702D01*
X22196Y24733D01*
X22241Y24772D01*
X22280Y24817D01*
X22312Y24869D01*
X22334Y24924D01*
X22348Y24982D01*
X22352Y25042D01*
X22351Y25423D01*
X23348D01*
X23368Y25421D01*
X23410Y25425D01*
Y24869D01*
X23365Y24839D01*
X23301Y24786D01*
X23243Y24728D01*
X23190Y24664D01*
X23144Y24595D01*
X23105Y24522D01*
X23073Y24446D01*
X23067Y24426D01*
X23065Y24406D01*
X23066Y24386D01*
X23070Y24367D01*
X23077Y24348D01*
X23087Y24330D01*
X23099Y24315D01*
X23114Y24301D01*
X23131Y24290D01*
X23149Y24282D01*
X23168Y24276D01*
X23188Y24274D01*
X23208Y24275D01*
X23228Y24279D01*
X23247Y24286D01*
X23265Y24296D01*
X23280Y24308D01*
X23294Y24323D01*
X23305Y24340D01*
X23313Y24358D01*
X23335Y24412D01*
X23362Y24463D01*
X23395Y24511D01*
X23410Y24529D01*
Y23777D01*
X23395Y23795D01*
X23362Y23843D01*
X23335Y23894D01*
X23312Y23948D01*
X23304Y23966D01*
X23293Y23983D01*
X23280Y23997D01*
X23264Y24010D01*
X23247Y24020D01*
X23228Y24027D01*
X23208Y24031D01*
X23188Y24031D01*
X23169Y24029D01*
X23149Y24024D01*
X23131Y24016D01*
X23114Y24004D01*
X23100Y23991D01*
X23087Y23975D01*
X23077Y23958D01*
X23070Y23939D01*
X23066Y23920D01*
X23066Y23900D01*
X23068Y23880D01*
X23074Y23861D01*
X23105Y23784D01*
X23144Y23711D01*
X23190Y23642D01*
X23243Y23578D01*
X23301Y23520D01*
X23365Y23467D01*
X23410Y23437D01*
Y22329D01*
X23391Y22321D01*
X23322Y22279D01*
X23322Y22279D01*
X23262Y22227D01*
X23249Y22212D01*
X22596Y21559D01*
X22246D01*
X22217Y21630D01*
X22113Y21800D01*
X21983Y21952D01*
X21831Y22082D01*
X21660Y22186D01*
X21548Y22233D01*
Y24664D01*
G37*
G36*
Y37490D02*X23197Y39139D01*
X25046D01*
Y38248D01*
X24324Y38246D01*
X24266Y38232D01*
X24210Y38210D01*
X24159Y38178D01*
X24114Y38139D01*
X24075Y38094D01*
X24043Y38043D01*
X24021Y37987D01*
X24007Y37929D01*
X24003Y37869D01*
X24007Y36285D01*
X24021Y36227D01*
X24043Y36171D01*
X24075Y36120D01*
X24114Y36075D01*
X24159Y36036D01*
X24210Y36004D01*
X24266Y35982D01*
X24324Y35968D01*
X24384Y35964D01*
X25046Y35965D01*
Y35706D01*
X24967Y35699D01*
X24792Y35657D01*
X24625Y35589D01*
X24472Y35495D01*
X24335Y35378D01*
X24218Y35241D01*
X24124Y35088D01*
X24056Y34921D01*
X24014Y34746D01*
X23999Y34567D01*
X24014Y34388D01*
X24056Y34213D01*
X24124Y34046D01*
X24218Y33893D01*
X24335Y33756D01*
X24472Y33639D01*
X24625Y33545D01*
X24792Y33477D01*
X24967Y33435D01*
X25046Y33428D01*
Y33166D01*
X24967Y33159D01*
X24792Y33117D01*
X24625Y33049D01*
X24472Y32955D01*
X24335Y32838D01*
X24218Y32701D01*
X24124Y32548D01*
X24056Y32381D01*
X24014Y32206D01*
X23999Y32027D01*
X24014Y31848D01*
X24056Y31673D01*
X24124Y31506D01*
X24218Y31353D01*
X24335Y31216D01*
X24472Y31099D01*
X24625Y31005D01*
X24792Y30937D01*
X24967Y30895D01*
X25046Y30888D01*
Y30626D01*
X24967Y30619D01*
X24792Y30577D01*
X24625Y30509D01*
X24472Y30415D01*
X24335Y30298D01*
X24218Y30161D01*
X24124Y30008D01*
X24056Y29841D01*
X24014Y29666D01*
X23999Y29487D01*
X24014Y29308D01*
X24056Y29133D01*
X24124Y28966D01*
X24218Y28813D01*
X24335Y28676D01*
X24472Y28559D01*
X24625Y28465D01*
X24792Y28397D01*
X24967Y28355D01*
X25046Y28348D01*
Y27096D01*
X24860Y27096D01*
X24821Y27086D01*
X24784Y27071D01*
X24750Y27050D01*
X24720Y27024D01*
X24694Y26994D01*
X24673Y26960D01*
X24668Y26947D01*
X23896D01*
X23876Y26949D01*
X23796Y26942D01*
X23719Y26924D01*
X23645Y26893D01*
X23576Y26851D01*
X23576Y26851D01*
X23516Y26799D01*
X23503Y26784D01*
X23158Y26439D01*
X22349D01*
X22348Y26880D01*
X22334Y26938D01*
X22312Y26994D01*
X22280Y27045D01*
X22241Y27090D01*
X22196Y27129D01*
X22145Y27161D01*
X22089Y27183D01*
X22031Y27197D01*
X21971Y27201D01*
X21548Y27200D01*
Y37490D01*
G37*
G36*
X20307Y20043D02*X20333Y20021D01*
X20504Y19916D01*
X20688Y19840D01*
X20883Y19793D01*
X21082Y19777D01*
X21281Y19793D01*
X21476Y19840D01*
X21548Y19870D01*
Y17249D01*
X21524Y17265D01*
X21451Y17304D01*
X21375Y17336D01*
X21355Y17342D01*
X21335Y17344D01*
X21315Y17343D01*
X21296Y17339D01*
X21277Y17332D01*
X21259Y17322D01*
X21244Y17310D01*
X21230Y17295D01*
X21219Y17278D01*
X21211Y17260D01*
X21205Y17241D01*
X21203Y17221D01*
X21204Y17201D01*
X21208Y17181D01*
X21215Y17162D01*
X21225Y17144D01*
X21237Y17129D01*
X21252Y17115D01*
X21269Y17104D01*
X21287Y17096D01*
X21341Y17074D01*
X21392Y17047D01*
X21440Y17014D01*
X21485Y16977D01*
X21526Y16936D01*
X21548Y16909D01*
Y16157D01*
X21526Y16130D01*
X21485Y16089D01*
X21440Y16052D01*
X21392Y16019D01*
X21341Y15992D01*
X21287Y15969D01*
X21269Y15961D01*
X21252Y15950D01*
X21238Y15937D01*
X21225Y15921D01*
X21215Y15904D01*
X21208Y15885D01*
X21204Y15865D01*
X21204Y15845D01*
X21206Y15826D01*
X21211Y15806D01*
X21219Y15788D01*
X21231Y15771D01*
X21244Y15757D01*
X21260Y15744D01*
X21277Y15734D01*
X21296Y15727D01*
X21315Y15723D01*
X21335Y15723D01*
X21355Y15725D01*
X21374Y15731D01*
X21451Y15762D01*
X21524Y15801D01*
X21548Y15817D01*
Y14963D01*
X21524Y14979D01*
X21451Y15018D01*
X21375Y15050D01*
X21355Y15056D01*
X21335Y15058D01*
X21315Y15057D01*
X21296Y15053D01*
X21277Y15046D01*
X21259Y15036D01*
X21244Y15024D01*
X21230Y15009D01*
X21219Y14992D01*
X21211Y14974D01*
X21205Y14955D01*
X21203Y14935D01*
X21204Y14915D01*
X21208Y14895D01*
X21215Y14876D01*
X21225Y14858D01*
X21237Y14843D01*
X21252Y14829D01*
X21269Y14818D01*
X21287Y14810D01*
X21341Y14788D01*
X21368Y14774D01*
X21330Y14758D01*
X21253Y14711D01*
X21185Y14652D01*
X21126Y14584D01*
X21082Y14512D01*
X21038Y14584D01*
X20979Y14652D01*
X20911Y14711D01*
X20834Y14758D01*
X20796Y14774D01*
X20823Y14788D01*
X20877Y14811D01*
X20895Y14819D01*
X20912Y14830D01*
X20926Y14843D01*
X20939Y14859D01*
X20949Y14876D01*
X20956Y14895D01*
X20960Y14915D01*
X20960Y14935D01*
X20958Y14954D01*
X20953Y14974D01*
X20945Y14992D01*
X20933Y15009D01*
X20920Y15023D01*
X20904Y15036D01*
X20887Y15046D01*
X20868Y15053D01*
X20849Y15057D01*
X20829Y15057D01*
X20809Y15055D01*
X20790Y15049D01*
X20713Y15018D01*
X20640Y14979D01*
X20571Y14933D01*
X20507Y14880D01*
X20449Y14822D01*
X20446Y14819D01*
X20307D01*
Y15962D01*
X20446D01*
X20449Y15958D01*
X20507Y15900D01*
X20571Y15847D01*
X20640Y15801D01*
X20713Y15762D01*
X20789Y15730D01*
X20809Y15724D01*
X20829Y15722D01*
X20849Y15723D01*
X20868Y15727D01*
X20887Y15734D01*
X20905Y15744D01*
X20920Y15756D01*
X20934Y15771D01*
X20945Y15788D01*
X20953Y15806D01*
X20959Y15825D01*
X20961Y15845D01*
X20960Y15865D01*
X20956Y15885D01*
X20949Y15904D01*
X20939Y15922D01*
X20927Y15937D01*
X20912Y15951D01*
X20895Y15962D01*
X20877Y15970D01*
X20823Y15992D01*
X20796Y16006D01*
X20834Y16022D01*
X20911Y16069D01*
X20979Y16128D01*
X21038Y16196D01*
X21085Y16273D01*
X21119Y16356D01*
X21140Y16443D01*
X21147Y16533D01*
X21140Y16623D01*
X21119Y16710D01*
X21085Y16793D01*
X21038Y16870D01*
X20979Y16938D01*
X20911Y16997D01*
X20834Y17044D01*
X20796Y17060D01*
X20823Y17074D01*
X20877Y17097D01*
X20895Y17105D01*
X20912Y17116D01*
X20926Y17129D01*
X20939Y17145D01*
X20949Y17162D01*
X20956Y17181D01*
X20960Y17201D01*
X20960Y17221D01*
X20958Y17240D01*
X20953Y17260D01*
X20945Y17278D01*
X20933Y17295D01*
X20920Y17309D01*
X20904Y17322D01*
X20887Y17332D01*
X20868Y17339D01*
X20849Y17343D01*
X20829Y17343D01*
X20809Y17341D01*
X20790Y17335D01*
X20713Y17304D01*
X20640Y17265D01*
X20571Y17219D01*
X20507Y17166D01*
X20449Y17108D01*
X20446Y17104D01*
X20307D01*
Y20043D01*
G37*
G36*
Y24661D02*X21548Y24664D01*
Y22233D01*
X21476Y22263D01*
X21281Y22309D01*
X21082Y22325D01*
X20883Y22309D01*
X20688Y22263D01*
X20504Y22186D01*
X20333Y22082D01*
X20307Y22059D01*
Y24661D01*
G37*
G36*
Y36248D02*X21548Y37490D01*
Y27200D01*
X20307Y27198D01*
Y28611D01*
X20326Y28630D01*
X20349Y28663D01*
X20467Y28865D01*
X20562Y29079D01*
X20637Y29301D01*
X20692Y29529D01*
X20724Y29761D01*
X20735Y29995D01*
X20724Y30229D01*
X20692Y30461D01*
X20637Y30689D01*
X20562Y30911D01*
X20467Y31125D01*
X20352Y31329D01*
X20328Y31361D01*
X20307Y31382D01*
Y36248D01*
G37*
G36*
Y14819D02*X19477D01*
X19472Y14840D01*
X19454Y14883D01*
X19429Y14924D01*
X19399Y14960D01*
X19363Y14990D01*
X19323Y15015D01*
X19279Y15033D01*
X19233Y15044D01*
X19186Y15047D01*
X18389Y15044D01*
X18343Y15033D01*
X18299Y15015D01*
X18259Y14990D01*
X18223Y14960D01*
X18193Y14924D01*
X18168Y14883D01*
X18161Y14867D01*
X18154Y14883D01*
X18129Y14924D01*
X18099Y14960D01*
X18063Y14990D01*
X18023Y15015D01*
X17979Y15033D01*
X17933Y15044D01*
X17886Y15047D01*
X17089Y15044D01*
X17082Y15042D01*
Y15793D01*
X17086Y15790D01*
X17126Y15765D01*
X17170Y15747D01*
X17216Y15736D01*
X17263Y15733D01*
X18060Y15736D01*
X18106Y15747D01*
X18150Y15765D01*
X18190Y15790D01*
X18226Y15820D01*
X18256Y15856D01*
X18281Y15897D01*
X18288Y15913D01*
X18295Y15897D01*
X18320Y15856D01*
X18350Y15820D01*
X18386Y15790D01*
X18426Y15765D01*
X18470Y15747D01*
X18516Y15736D01*
X18563Y15733D01*
X19360Y15736D01*
X19406Y15747D01*
X19450Y15765D01*
X19490Y15790D01*
X19526Y15820D01*
X19556Y15856D01*
X19581Y15897D01*
X19599Y15940D01*
X19604Y15962D01*
X20307D01*
Y14819D01*
G37*
G36*
X17082Y33024D02*X20307Y36248D01*
Y31382D01*
X20299Y31389D01*
X20266Y31413D01*
X20230Y31431D01*
X20192Y31443D01*
X20152Y31449D01*
X20111Y31448D01*
X20072Y31442D01*
X20033Y31429D01*
X19998Y31410D01*
X19965Y31386D01*
X19937Y31357D01*
X19914Y31324D01*
X19896Y31288D01*
X19884Y31250D01*
X19878Y31210D01*
X19878Y31170D01*
X19885Y31130D01*
X19898Y31092D01*
X19917Y31056D01*
X20011Y30895D01*
X20087Y30724D01*
X20147Y30548D01*
X20190Y30366D01*
X20216Y30181D01*
X20224Y29995D01*
X20216Y29809D01*
X20190Y29624D01*
X20147Y29442D01*
X20087Y29266D01*
X20011Y29095D01*
X19919Y28933D01*
X19900Y28898D01*
X19887Y28860D01*
X19880Y28820D01*
X19880Y28780D01*
X19886Y28741D01*
X19898Y28703D01*
X19916Y28667D01*
X19939Y28634D01*
X19967Y28606D01*
X19999Y28582D01*
X20034Y28563D01*
X20072Y28551D01*
X20112Y28544D01*
X20152Y28543D01*
X20191Y28549D01*
X20229Y28561D01*
X20265Y28579D01*
X20298Y28602D01*
X20307Y28611D01*
Y27198D01*
X20133Y27197D01*
X20075Y27183D01*
X20019Y27161D01*
X19968Y27129D01*
X19923Y27090D01*
X19884Y27045D01*
X19852Y26994D01*
X19830Y26938D01*
X19816Y26880D01*
X19812Y26820D01*
X19816Y24982D01*
X19830Y24924D01*
X19852Y24869D01*
X19884Y24817D01*
X19923Y24772D01*
X19968Y24733D01*
X20019Y24702D01*
X20075Y24679D01*
X20133Y24665D01*
X20193Y24661D01*
X20307Y24661D01*
Y22059D01*
X20181Y21952D01*
X20051Y21800D01*
X19947Y21630D01*
X19870Y21445D01*
X19824Y21250D01*
X19808Y21051D01*
X19824Y20852D01*
X19870Y20658D01*
X19947Y20473D01*
X20051Y20302D01*
X20181Y20150D01*
X20307Y20043D01*
Y17104D01*
X19604D01*
X19599Y17126D01*
X19581Y17169D01*
X19556Y17210D01*
X19526Y17246D01*
X19490Y17276D01*
X19450Y17301D01*
X19406Y17319D01*
X19360Y17330D01*
X19313Y17333D01*
X18516Y17330D01*
X18470Y17319D01*
X18426Y17301D01*
X18386Y17276D01*
X18350Y17246D01*
X18320Y17210D01*
X18295Y17169D01*
X18288Y17153D01*
X18281Y17169D01*
X18256Y17210D01*
X18226Y17246D01*
X18190Y17276D01*
X18150Y17301D01*
X18161Y19687D01*
X18163Y19708D01*
X18157Y19778D01*
X18157Y19785D01*
X18156Y19787D01*
X18156Y19788D01*
X18147Y19825D01*
X18138Y19863D01*
X18138Y19864D01*
X18138Y19865D01*
X18123Y19901D01*
X18108Y19937D01*
X18107Y19938D01*
X18107Y19939D01*
X18087Y19972D01*
X18067Y20006D01*
X18066Y20006D01*
X18065Y20008D01*
X18060Y20013D01*
X18015Y20067D01*
X17999Y20080D01*
X17082Y20997D01*
Y25955D01*
X17083Y25955D01*
X17113Y25991D01*
X17138Y26031D01*
X17145Y26048D01*
X17152Y26031D01*
X17177Y25991D01*
X17207Y25955D01*
X17243Y25924D01*
X17283Y25900D01*
X17327Y25882D01*
X17373Y25871D01*
X17420Y25868D01*
X18217Y25871D01*
X18263Y25882D01*
X18307Y25900D01*
X18347Y25924D01*
X18383Y25955D01*
X18413Y25991D01*
X18438Y26031D01*
X18456Y26075D01*
X18467Y26121D01*
X18470Y26168D01*
X18469Y26574D01*
X18676Y26781D01*
X18693Y26796D01*
X18752Y26864D01*
X18752Y26864D01*
X18799Y26941D01*
X18833Y27024D01*
X18854Y27111D01*
X18861Y27201D01*
X18860Y27223D01*
Y27568D01*
X18918Y27582D01*
X19140Y27657D01*
X19354Y27753D01*
X19558Y27868D01*
X19591Y27892D01*
X19619Y27920D01*
X19642Y27953D01*
X19660Y27989D01*
X19672Y28028D01*
X19678Y28068D01*
X19678Y28108D01*
X19671Y28148D01*
X19658Y28186D01*
X19640Y28222D01*
X19616Y28254D01*
X19587Y28282D01*
X19554Y28306D01*
X19518Y28324D01*
X19479Y28336D01*
X19439Y28342D01*
X19399Y28341D01*
X19359Y28335D01*
X19321Y28322D01*
X19286Y28302D01*
X19124Y28209D01*
X18954Y28133D01*
X18860Y28101D01*
Y29995D01*
X18854Y30085D01*
X18833Y30172D01*
X18799Y30255D01*
X18752Y30332D01*
X18693Y30400D01*
X18625Y30459D01*
X18548Y30506D01*
X18465Y30540D01*
X18378Y30561D01*
X18288Y30568D01*
X18198Y30561D01*
X18111Y30540D01*
X18028Y30506D01*
X17951Y30459D01*
X17883Y30400D01*
X17824Y30332D01*
X17777Y30255D01*
X17743Y30172D01*
X17722Y30085D01*
X17716Y29995D01*
Y28062D01*
X17672Y28073D01*
X17495Y28133D01*
X17325Y28209D01*
X17162Y28301D01*
X17127Y28320D01*
X17089Y28332D01*
X17082Y28334D01*
Y31654D01*
X17090Y31655D01*
X17128Y31668D01*
X17163Y31688D01*
X17325Y31781D01*
X17495Y31857D01*
X17672Y31917D01*
X17853Y31960D01*
X18038Y31986D01*
X18224Y31995D01*
X18411Y31986D01*
X18596Y31960D01*
X18777Y31917D01*
X18954Y31857D01*
X19124Y31781D01*
X19287Y31689D01*
X19322Y31670D01*
X19360Y31658D01*
X19399Y31651D01*
X19439Y31651D01*
X19479Y31656D01*
X19517Y31668D01*
X19553Y31686D01*
X19585Y31709D01*
X19614Y31737D01*
X19638Y31769D01*
X19656Y31805D01*
X19669Y31843D01*
X19676Y31882D01*
X19676Y31922D01*
X19670Y31962D01*
X19658Y32000D01*
X19640Y32036D01*
X19617Y32068D01*
X19589Y32097D01*
X19557Y32120D01*
X19354Y32237D01*
X19140Y32333D01*
X18918Y32408D01*
X18690Y32462D01*
X18459Y32495D01*
X18224Y32506D01*
X17990Y32495D01*
X17759Y32462D01*
X17531Y32408D01*
X17309Y32333D01*
X17095Y32237D01*
X17082Y32230D01*
Y33024D01*
G37*
G36*
Y34929D02*X23832Y41679D01*
X25046D01*
Y40155D01*
X23007D01*
X22987Y40157D01*
X22907Y40150D01*
X22830Y40132D01*
X22756Y40101D01*
X22687Y40059D01*
X22687Y40059D01*
X22627Y40007D01*
X22614Y39992D01*
X17082Y34461D01*
Y34929D01*
G37*
G36*
X23410Y46271D02*X23429Y46281D01*
X23498Y46327D01*
X23562Y46380D01*
X23620Y46438D01*
X23623Y46442D01*
X23854D01*
X23876Y46440D01*
X23966Y46447D01*
X23966Y46447D01*
X24053Y46468D01*
X24136Y46502D01*
X24213Y46549D01*
X24281Y46608D01*
X24296Y46625D01*
X25024Y47353D01*
X25046Y47344D01*
Y46655D01*
X24606Y46654D01*
X24567Y46644D01*
X24530Y46629D01*
X24496Y46608D01*
X24466Y46582D01*
X24440Y46552D01*
X24419Y46518D01*
X24404Y46481D01*
X24394Y46442D01*
X24392Y46402D01*
X24394Y45612D01*
X24404Y45573D01*
X24419Y45536D01*
X24440Y45502D01*
X24466Y45472D01*
X24496Y45446D01*
X24530Y45425D01*
X24567Y45410D01*
X24606Y45400D01*
X24646Y45398D01*
X25046Y45399D01*
Y45355D01*
X24606Y45354D01*
X24567Y45344D01*
X24530Y45329D01*
X24496Y45308D01*
X24466Y45282D01*
X24440Y45252D01*
X24419Y45218D01*
X24404Y45181D01*
X24394Y45142D01*
X24392Y45102D01*
X24394Y44312D01*
X24404Y44273D01*
X24419Y44236D01*
X24440Y44202D01*
X24466Y44172D01*
X24496Y44146D01*
X24530Y44125D01*
X24567Y44110D01*
X24606Y44100D01*
X24646Y44098D01*
X25046Y44099D01*
Y42695D01*
X23642D01*
X23622Y42697D01*
X23542Y42690D01*
X23465Y42672D01*
X23410Y42649D01*
Y46271D01*
G37*
G36*
Y48583D02*X23487Y48536D01*
X23611Y48484D01*
X23742Y48453D01*
X23876Y48442D01*
X24010Y48453D01*
X24141Y48484D01*
X24265Y48536D01*
X24380Y48606D01*
X24482Y48693D01*
X24511Y48728D01*
X24928D01*
X24941Y48711D01*
X24977Y48681D01*
X25018Y48656D01*
X25034Y48649D01*
X25018Y48642D01*
X24977Y48617D01*
X24957Y48601D01*
X24914D01*
X24892Y48602D01*
X24802Y48595D01*
X24715Y48574D01*
X24632Y48540D01*
X24555Y48493D01*
X24555Y48493D01*
X24487Y48434D01*
X24472Y48417D01*
X23639Y47585D01*
X23623D01*
X23620Y47588D01*
X23562Y47646D01*
X23498Y47699D01*
X23429Y47745D01*
X23410Y47755D01*
Y48583D01*
G37*
G36*
Y53663D02*X23487Y53616D01*
X23611Y53564D01*
X23742Y53533D01*
X23876Y53522D01*
X24010Y53533D01*
X24141Y53564D01*
X24265Y53616D01*
X24380Y53686D01*
X24482Y53773D01*
X24565Y53871D01*
X24586D01*
X24586Y53832D01*
X24597Y53786D01*
X24615Y53743D01*
X24640Y53702D01*
X24670Y53666D01*
X24706Y53636D01*
X24746Y53611D01*
X24790Y53593D01*
X24836Y53582D01*
X24883Y53579D01*
X25046Y53580D01*
Y52637D01*
X24836Y52636D01*
X24790Y52625D01*
X24746Y52607D01*
X24706Y52582D01*
X24670Y52552D01*
X24640Y52516D01*
X24615Y52475D01*
X24597Y52432D01*
X24586Y52386D01*
X24584Y52347D01*
X24564D01*
X24562Y52350D01*
X24509Y52414D01*
X24451Y52472D01*
X24387Y52525D01*
X24318Y52571D01*
X24245Y52610D01*
X24169Y52642D01*
X24149Y52648D01*
X24129Y52650D01*
X24109Y52649D01*
X24090Y52645D01*
X24071Y52638D01*
X24053Y52628D01*
X24038Y52616D01*
X24024Y52601D01*
X24013Y52584D01*
X24005Y52566D01*
X23999Y52547D01*
X23997Y52527D01*
X23998Y52507D01*
X24002Y52487D01*
X24009Y52468D01*
X24019Y52450D01*
X24031Y52435D01*
X24046Y52421D01*
X24063Y52410D01*
X24081Y52402D01*
X24135Y52380D01*
X24186Y52353D01*
X24222Y52329D01*
X24201Y52324D01*
X24127Y52293D01*
X24059Y52251D01*
X23998Y52199D01*
X23946Y52139D01*
X23905Y52070D01*
X23874Y51996D01*
X23855Y51919D01*
X23849Y51839D01*
X23855Y51759D01*
X23874Y51682D01*
X23905Y51608D01*
X23946Y51539D01*
X23998Y51479D01*
X24059Y51427D01*
X24127Y51385D01*
X24201Y51354D01*
X24222Y51349D01*
X24186Y51325D01*
X24135Y51298D01*
X24081Y51275D01*
X24063Y51267D01*
X24046Y51256D01*
X24032Y51243D01*
X24019Y51227D01*
X24009Y51210D01*
X24002Y51191D01*
X23998Y51171D01*
X23998Y51151D01*
X24000Y51132D01*
X24005Y51112D01*
X24013Y51094D01*
X24025Y51077D01*
X24038Y51063D01*
X24054Y51050D01*
X24071Y51040D01*
X24090Y51033D01*
X24109Y51029D01*
X24129Y51029D01*
X24149Y51031D01*
X24168Y51037D01*
X24245Y51068D01*
X24318Y51107D01*
X24387Y51153D01*
X24451Y51206D01*
X24509Y51264D01*
X24562Y51328D01*
X24564Y51331D01*
X24586D01*
X24586Y51292D01*
X24597Y51246D01*
X24615Y51203D01*
X24640Y51162D01*
X24670Y51126D01*
X24706Y51096D01*
X24746Y51071D01*
X24790Y51053D01*
X24836Y51042D01*
X24883Y51039D01*
X25046Y51040D01*
Y49954D01*
X25018Y49942D01*
X24977Y49917D01*
X24941Y49887D01*
X24928Y49871D01*
X24511D01*
X24482Y49905D01*
X24380Y49992D01*
X24265Y50062D01*
X24141Y50114D01*
X24010Y50145D01*
X23876Y50156D01*
X23742Y50145D01*
X23611Y50114D01*
X23487Y50062D01*
X23410Y50015D01*
Y51123D01*
X23434Y51107D01*
X23507Y51068D01*
X23583Y51036D01*
X23603Y51030D01*
X23623Y51028D01*
X23643Y51029D01*
X23662Y51033D01*
X23681Y51040D01*
X23699Y51050D01*
X23714Y51062D01*
X23728Y51077D01*
X23739Y51094D01*
X23747Y51112D01*
X23753Y51131D01*
X23755Y51151D01*
X23754Y51171D01*
X23750Y51191D01*
X23743Y51210D01*
X23733Y51228D01*
X23721Y51243D01*
X23706Y51257D01*
X23689Y51268D01*
X23671Y51276D01*
X23617Y51298D01*
X23566Y51325D01*
X23518Y51358D01*
X23473Y51395D01*
X23432Y51436D01*
X23410Y51463D01*
Y52215D01*
X23432Y52242D01*
X23473Y52283D01*
X23518Y52320D01*
X23566Y52353D01*
X23617Y52380D01*
X23671Y52403D01*
X23689Y52411D01*
X23706Y52422D01*
X23720Y52435D01*
X23733Y52451D01*
X23743Y52468D01*
X23750Y52487D01*
X23754Y52507D01*
X23754Y52527D01*
X23752Y52546D01*
X23747Y52566D01*
X23739Y52584D01*
X23727Y52601D01*
X23714Y52615D01*
X23698Y52628D01*
X23681Y52638D01*
X23662Y52645D01*
X23643Y52649D01*
X23623Y52649D01*
X23603Y52647D01*
X23584Y52641D01*
X23507Y52610D01*
X23434Y52571D01*
X23410Y52555D01*
Y53663D01*
G37*
G36*
Y61237D02*X25046D01*
Y55177D01*
X24836Y55176D01*
X24790Y55165D01*
X24746Y55147D01*
X24706Y55122D01*
X24670Y55092D01*
X24640Y55056D01*
X24615Y55015D01*
X24597Y54972D01*
X24586Y54926D01*
X24584Y54887D01*
X24565D01*
X24482Y54985D01*
X24380Y55072D01*
X24265Y55142D01*
X24141Y55194D01*
X24010Y55225D01*
X23876Y55236D01*
X23742Y55225D01*
X23611Y55194D01*
X23487Y55142D01*
X23410Y55095D01*
Y61237D01*
G37*
G36*
X22521D02*X23410D01*
Y55095D01*
X23372Y55072D01*
X23270Y54985D01*
X23183Y54883D01*
X23113Y54768D01*
X23061Y54644D01*
X23030Y54513D01*
X23019Y54379D01*
X23030Y54245D01*
X23061Y54114D01*
X23113Y53990D01*
X23183Y53875D01*
X23270Y53773D01*
X23372Y53686D01*
X23410Y53663D01*
Y52555D01*
X23365Y52525D01*
X23301Y52472D01*
X23243Y52414D01*
X23190Y52350D01*
X23144Y52281D01*
X23105Y52208D01*
X23073Y52132D01*
X23067Y52112D01*
X23065Y52092D01*
X23066Y52072D01*
X23070Y52053D01*
X23077Y52034D01*
X23087Y52016D01*
X23099Y52001D01*
X23114Y51987D01*
X23131Y51976D01*
X23149Y51968D01*
X23168Y51962D01*
X23188Y51960D01*
X23208Y51961D01*
X23228Y51965D01*
X23247Y51972D01*
X23265Y51982D01*
X23280Y51994D01*
X23294Y52009D01*
X23305Y52026D01*
X23313Y52044D01*
X23335Y52098D01*
X23362Y52149D01*
X23395Y52197D01*
X23410Y52215D01*
Y51463D01*
X23395Y51481D01*
X23362Y51529D01*
X23335Y51580D01*
X23312Y51634D01*
X23304Y51652D01*
X23293Y51669D01*
X23280Y51683D01*
X23264Y51696D01*
X23247Y51706D01*
X23228Y51713D01*
X23208Y51717D01*
X23188Y51717D01*
X23169Y51715D01*
X23149Y51710D01*
X23131Y51702D01*
X23114Y51690D01*
X23100Y51677D01*
X23087Y51661D01*
X23077Y51644D01*
X23070Y51625D01*
X23066Y51606D01*
X23066Y51586D01*
X23068Y51566D01*
X23074Y51547D01*
X23105Y51470D01*
X23144Y51397D01*
X23190Y51328D01*
X23243Y51264D01*
X23301Y51206D01*
X23365Y51153D01*
X23410Y51123D01*
Y50015D01*
X23372Y49992D01*
X23270Y49905D01*
X23183Y49803D01*
X23113Y49688D01*
X23061Y49564D01*
X23030Y49433D01*
X23019Y49299D01*
X23030Y49165D01*
X23061Y49034D01*
X23113Y48910D01*
X23183Y48795D01*
X23270Y48693D01*
X23372Y48606D01*
X23410Y48583D01*
Y47755D01*
X23356Y47784D01*
X23280Y47816D01*
X23260Y47822D01*
X23240Y47824D01*
X23220Y47823D01*
X23201Y47819D01*
X23182Y47812D01*
X23164Y47802D01*
X23149Y47790D01*
X23135Y47775D01*
X23124Y47758D01*
X23116Y47740D01*
X23110Y47721D01*
X23108Y47701D01*
X23109Y47681D01*
X23113Y47661D01*
X23120Y47642D01*
X23130Y47624D01*
X23142Y47609D01*
X23157Y47595D01*
X23174Y47584D01*
X23181Y47581D01*
X23151Y47579D01*
X23064Y47558D01*
X22981Y47524D01*
X22904Y47477D01*
X22836Y47418D01*
X22777Y47350D01*
X22730Y47273D01*
X22696Y47190D01*
X22675Y47103D01*
X22668Y47013D01*
X22675Y46923D01*
X22696Y46836D01*
X22730Y46753D01*
X22777Y46676D01*
X22836Y46608D01*
X22904Y46549D01*
X22981Y46502D01*
X23064Y46468D01*
X23151Y46447D01*
X23182Y46445D01*
X23174Y46441D01*
X23157Y46430D01*
X23143Y46417D01*
X23130Y46401D01*
X23120Y46384D01*
X23113Y46365D01*
X23109Y46345D01*
X23109Y46325D01*
X23111Y46306D01*
X23116Y46286D01*
X23124Y46268D01*
X23136Y46251D01*
X23149Y46237D01*
X23165Y46224D01*
X23182Y46214D01*
X23201Y46207D01*
X23220Y46203D01*
X23240Y46203D01*
X23260Y46205D01*
X23279Y46211D01*
X23356Y46242D01*
X23410Y46271D01*
Y42649D01*
X23391Y42641D01*
X23322Y42599D01*
X23322Y42599D01*
X23262Y42547D01*
X23249Y42532D01*
X22521Y41804D01*
Y46297D01*
X22545Y46281D01*
X22618Y46242D01*
X22694Y46210D01*
X22714Y46204D01*
X22734Y46202D01*
X22754Y46203D01*
X22773Y46207D01*
X22792Y46214D01*
X22810Y46224D01*
X22825Y46236D01*
X22839Y46251D01*
X22850Y46268D01*
X22858Y46286D01*
X22864Y46305D01*
X22866Y46325D01*
X22865Y46345D01*
X22861Y46365D01*
X22854Y46384D01*
X22844Y46402D01*
X22832Y46417D01*
X22817Y46431D01*
X22800Y46442D01*
X22782Y46450D01*
X22728Y46472D01*
X22677Y46499D01*
X22629Y46532D01*
X22584Y46569D01*
X22543Y46610D01*
X22521Y46637D01*
Y47389D01*
X22543Y47416D01*
X22584Y47457D01*
X22629Y47494D01*
X22677Y47527D01*
X22728Y47554D01*
X22782Y47577D01*
X22800Y47585D01*
X22817Y47596D01*
X22831Y47609D01*
X22844Y47625D01*
X22854Y47642D01*
X22861Y47661D01*
X22865Y47681D01*
X22865Y47701D01*
X22863Y47720D01*
X22858Y47740D01*
X22850Y47758D01*
X22838Y47775D01*
X22825Y47789D01*
X22809Y47802D01*
X22792Y47812D01*
X22773Y47819D01*
X22754Y47823D01*
X22734Y47823D01*
X22714Y47821D01*
X22695Y47815D01*
X22618Y47784D01*
X22545Y47745D01*
X22521Y47729D01*
Y57859D01*
X22617Y57882D01*
X22741Y57934D01*
X22856Y58004D01*
X22958Y58091D01*
X23045Y58193D01*
X23115Y58308D01*
X23167Y58432D01*
X23198Y58563D01*
X23206Y58697D01*
X23198Y58831D01*
X23167Y58962D01*
X23115Y59086D01*
X23045Y59201D01*
X22958Y59303D01*
X22856Y59390D01*
X22741Y59460D01*
X22617Y59512D01*
X22521Y59535D01*
Y61237D01*
G37*
G36*
X20065Y43982D02*X20087Y43932D01*
X20147Y43756D01*
X20190Y43574D01*
X20216Y43389D01*
X20224Y43203D01*
X20216Y43017D01*
X20190Y42832D01*
X20147Y42650D01*
X20087Y42474D01*
X20065Y42424D01*
Y43982D01*
G37*
G36*
Y61237D02*X22521D01*
Y59535D01*
X22486Y59543D01*
X22352Y59554D01*
X22218Y59543D01*
X22087Y59512D01*
X21963Y59460D01*
X21848Y59390D01*
X21746Y59303D01*
X21659Y59201D01*
X21589Y59086D01*
X21537Y58962D01*
X21506Y58831D01*
X21495Y58697D01*
X21506Y58563D01*
X21537Y58432D01*
X21589Y58308D01*
X21659Y58193D01*
X21746Y58091D01*
X21848Y58004D01*
X21963Y57934D01*
X22087Y57882D01*
X22218Y57851D01*
X22352Y57840D01*
X22486Y57851D01*
X22521Y57859D01*
Y47729D01*
X22476Y47699D01*
X22412Y47646D01*
X22354Y47588D01*
X22301Y47524D01*
X22255Y47455D01*
X22216Y47382D01*
X22184Y47306D01*
X22178Y47286D01*
X22176Y47266D01*
X22177Y47246D01*
X22181Y47227D01*
X22188Y47208D01*
X22198Y47190D01*
X22210Y47175D01*
X22225Y47161D01*
X22242Y47150D01*
X22260Y47142D01*
X22279Y47136D01*
X22299Y47134D01*
X22319Y47135D01*
X22339Y47139D01*
X22358Y47146D01*
X22376Y47156D01*
X22391Y47168D01*
X22405Y47183D01*
X22416Y47200D01*
X22424Y47218D01*
X22446Y47272D01*
X22473Y47323D01*
X22506Y47371D01*
X22521Y47389D01*
Y46637D01*
X22506Y46655D01*
X22473Y46703D01*
X22446Y46754D01*
X22423Y46808D01*
X22415Y46826D01*
X22404Y46843D01*
X22391Y46857D01*
X22375Y46870D01*
X22358Y46880D01*
X22339Y46887D01*
X22319Y46891D01*
X22299Y46891D01*
X22280Y46889D01*
X22260Y46884D01*
X22242Y46876D01*
X22225Y46864D01*
X22211Y46851D01*
X22198Y46835D01*
X22188Y46818D01*
X22181Y46799D01*
X22177Y46780D01*
X22177Y46760D01*
X22179Y46740D01*
X22185Y46721D01*
X22216Y46644D01*
X22255Y46571D01*
X22301Y46502D01*
X22354Y46438D01*
X22412Y46380D01*
X22476Y46327D01*
X22521Y46297D01*
Y41804D01*
X20065Y39348D01*
Y41761D01*
X20072Y41759D01*
X20112Y41752D01*
X20152Y41751D01*
X20191Y41757D01*
X20229Y41769D01*
X20265Y41787D01*
X20298Y41810D01*
X20326Y41838D01*
X20349Y41871D01*
X20467Y42073D01*
X20562Y42287D01*
X20637Y42509D01*
X20692Y42737D01*
X20724Y42969D01*
X20735Y43203D01*
X20724Y43437D01*
X20692Y43669D01*
X20637Y43897D01*
X20562Y44119D01*
X20467Y44333D01*
X20352Y44537D01*
X20328Y44569D01*
X20299Y44597D01*
X20266Y44621D01*
X20230Y44639D01*
X20192Y44651D01*
X20152Y44657D01*
X20111Y44656D01*
X20072Y44650D01*
X20065Y44647D01*
Y55808D01*
X20066Y55808D01*
X20200Y55819D01*
X20331Y55850D01*
X20455Y55902D01*
X20570Y55972D01*
X20672Y56059D01*
X20759Y56161D01*
X20829Y56276D01*
X20881Y56400D01*
X20912Y56531D01*
X20920Y56665D01*
X20912Y56799D01*
X20881Y56930D01*
X20829Y57054D01*
X20759Y57169D01*
X20672Y57271D01*
X20570Y57358D01*
X20455Y57428D01*
X20331Y57480D01*
X20200Y57511D01*
X20066Y57522D01*
X20065Y57522D01*
Y61237D01*
G37*
G36*
X17082D02*X20065D01*
Y57522D01*
X19932Y57511D01*
X19801Y57480D01*
X19677Y57428D01*
X19562Y57358D01*
X19460Y57271D01*
X19373Y57169D01*
X19303Y57054D01*
X19251Y56930D01*
X19220Y56799D01*
X19209Y56665D01*
X19220Y56531D01*
X19251Y56400D01*
X19303Y56276D01*
X19373Y56161D01*
X19460Y56059D01*
X19562Y55972D01*
X19677Y55902D01*
X19801Y55850D01*
X19932Y55819D01*
X20065Y55808D01*
Y44647D01*
X20033Y44637D01*
X19998Y44618D01*
X19965Y44594D01*
X19937Y44565D01*
X19914Y44532D01*
X19896Y44496D01*
X19884Y44458D01*
X19878Y44418D01*
X19878Y44378D01*
X19885Y44338D01*
X19898Y44300D01*
X19917Y44264D01*
X20011Y44103D01*
X20065Y43982D01*
Y42424D01*
X20011Y42303D01*
X19919Y42141D01*
X19900Y42106D01*
X19887Y42068D01*
X19880Y42028D01*
X19880Y41988D01*
X19886Y41949D01*
X19898Y41911D01*
X19916Y41875D01*
X19939Y41842D01*
X19967Y41814D01*
X19999Y41790D01*
X20034Y41771D01*
X20065Y41761D01*
Y39348D01*
X17082Y36366D01*
Y40968D01*
X17095Y40961D01*
X17309Y40865D01*
X17531Y40790D01*
X17759Y40736D01*
X17990Y40703D01*
X18224Y40692D01*
X18459Y40703D01*
X18690Y40736D01*
X18918Y40790D01*
X19140Y40865D01*
X19354Y40961D01*
X19558Y41076D01*
X19591Y41100D01*
X19619Y41128D01*
X19642Y41161D01*
X19660Y41197D01*
X19672Y41236D01*
X19678Y41276D01*
X19678Y41316D01*
X19671Y41356D01*
X19658Y41394D01*
X19640Y41430D01*
X19616Y41462D01*
X19587Y41490D01*
X19554Y41514D01*
X19518Y41532D01*
X19479Y41544D01*
X19439Y41550D01*
X19399Y41549D01*
X19359Y41543D01*
X19321Y41530D01*
X19286Y41510D01*
X19124Y41417D01*
X18954Y41341D01*
X18777Y41281D01*
X18596Y41238D01*
X18411Y41212D01*
X18224Y41203D01*
X18038Y41212D01*
X17853Y41238D01*
X17672Y41281D01*
X17495Y41341D01*
X17325Y41417D01*
X17162Y41509D01*
X17127Y41528D01*
X17089Y41540D01*
X17082Y41542D01*
Y44862D01*
X17090Y44863D01*
X17128Y44876D01*
X17163Y44896D01*
X17325Y44989D01*
X17495Y45065D01*
X17672Y45125D01*
X17853Y45168D01*
X18038Y45194D01*
X18224Y45203D01*
X18411Y45194D01*
X18596Y45168D01*
X18777Y45125D01*
X18954Y45065D01*
X19124Y44989D01*
X19287Y44897D01*
X19322Y44878D01*
X19360Y44866D01*
X19399Y44859D01*
X19439Y44859D01*
X19479Y44864D01*
X19517Y44876D01*
X19553Y44894D01*
X19585Y44917D01*
X19614Y44945D01*
X19638Y44977D01*
X19656Y45013D01*
X19669Y45051D01*
X19676Y45090D01*
X19676Y45130D01*
X19670Y45170D01*
X19658Y45208D01*
X19640Y45244D01*
X19617Y45276D01*
X19589Y45305D01*
X19557Y45328D01*
X19354Y45445D01*
X19140Y45541D01*
X18918Y45616D01*
X18690Y45670D01*
X18459Y45703D01*
X18224Y45714D01*
X17990Y45703D01*
X17759Y45670D01*
X17531Y45616D01*
X17309Y45541D01*
X17095Y45445D01*
X17082Y45438D01*
Y61237D01*
G37*
G36*
X14222Y15201D02*X14709Y15202D01*
X16010Y13902D01*
X16023Y13887D01*
X16083Y13835D01*
X16083Y13835D01*
X16152Y13793D01*
X16226Y13762D01*
X16303Y13744D01*
X16383Y13737D01*
X16403Y13739D01*
X16839D01*
X16839Y13700D01*
X16850Y13654D01*
X16868Y13611D01*
X16893Y13570D01*
X16923Y13534D01*
X16959Y13504D01*
X16999Y13479D01*
X17043Y13461D01*
X17082Y13452D01*
Y7643D01*
X14222D01*
Y12656D01*
X14224Y12656D01*
X14413Y12671D01*
X14598Y12715D01*
X14773Y12788D01*
X14935Y12887D01*
X15080Y13010D01*
X15203Y13155D01*
X15302Y13317D01*
X15375Y13492D01*
X15419Y13677D01*
X15430Y13866D01*
X15419Y14055D01*
X15375Y14240D01*
X15302Y14415D01*
X15203Y14577D01*
X15080Y14722D01*
X14935Y14845D01*
X14773Y14944D01*
X14598Y15017D01*
X14413Y15061D01*
X14224Y15076D01*
X14222Y15076D01*
Y15201D01*
G37*
G36*
Y25488D02*X15109Y25490D01*
X15168Y25504D01*
X15223Y25527D01*
X15274Y25558D01*
X15320Y25597D01*
X15359Y25643D01*
X15390Y25694D01*
X15413Y25749D01*
X15427Y25808D01*
X15430Y25868D01*
X15430Y26185D01*
X15823D01*
X15823Y26121D01*
X15834Y26075D01*
X15852Y26031D01*
X15877Y25991D01*
X15907Y25955D01*
X15943Y25924D01*
X15983Y25900D01*
X16027Y25882D01*
X16073Y25871D01*
X16120Y25868D01*
X16917Y25871D01*
X16963Y25882D01*
X17007Y25900D01*
X17047Y25924D01*
X17082Y25955D01*
Y20997D01*
X16121Y21958D01*
X16108Y21973D01*
X16048Y22025D01*
X15979Y22067D01*
X15905Y22098D01*
X15828Y22116D01*
X15828Y22116D01*
X15748Y22123D01*
X15728Y22121D01*
X15428D01*
X15427Y22498D01*
X15413Y22557D01*
X15390Y22612D01*
X15359Y22663D01*
X15320Y22709D01*
X15274Y22748D01*
X15223Y22779D01*
X15168Y22802D01*
X15109Y22816D01*
X15050Y22820D01*
X14222Y22818D01*
Y22943D01*
X14224Y22943D01*
X14413Y22958D01*
X14598Y23002D01*
X14773Y23075D01*
X14935Y23174D01*
X15080Y23297D01*
X15203Y23442D01*
X15302Y23604D01*
X15375Y23779D01*
X15419Y23964D01*
X15430Y24153D01*
X15419Y24342D01*
X15375Y24527D01*
X15302Y24702D01*
X15203Y24864D01*
X15080Y25009D01*
X14935Y25132D01*
X14773Y25231D01*
X14598Y25304D01*
X14413Y25348D01*
X14224Y25363D01*
X14222Y25363D01*
Y25488D01*
G37*
G36*
X16142Y32084D02*X17082Y33024D01*
Y32230D01*
X16891Y32122D01*
X16858Y32098D01*
X16830Y32070D01*
X16807Y32037D01*
X16789Y32001D01*
X16777Y31962D01*
X16771Y31922D01*
X16771Y31882D01*
X16778Y31842D01*
X16791Y31804D01*
X16809Y31768D01*
X16833Y31736D01*
X16862Y31708D01*
X16895Y31684D01*
X16931Y31666D01*
X16970Y31654D01*
X17010Y31648D01*
X17050Y31649D01*
X17082Y31654D01*
Y28334D01*
X17050Y28339D01*
X17010Y28340D01*
X16970Y28334D01*
X16932Y28322D01*
X16896Y28304D01*
X16864Y28281D01*
X16835Y28253D01*
X16811Y28221D01*
X16793Y28185D01*
X16780Y28147D01*
X16773Y28108D01*
X16773Y28068D01*
X16779Y28028D01*
X16791Y27990D01*
X16809Y27954D01*
X16832Y27922D01*
X16860Y27893D01*
X16892Y27870D01*
X17082Y27760D01*
Y27381D01*
X17047Y27411D01*
X17007Y27436D01*
X16963Y27454D01*
X16917Y27465D01*
X16870Y27467D01*
X16142Y27465D01*
Y28608D01*
X16150Y28601D01*
X16183Y28577D01*
X16219Y28559D01*
X16257Y28547D01*
X16297Y28541D01*
X16338Y28542D01*
X16377Y28548D01*
X16416Y28561D01*
X16451Y28580D01*
X16484Y28604D01*
X16512Y28633D01*
X16535Y28666D01*
X16553Y28702D01*
X16565Y28740D01*
X16571Y28780D01*
X16571Y28820D01*
X16564Y28860D01*
X16551Y28898D01*
X16532Y28934D01*
X16438Y29095D01*
X16362Y29266D01*
X16302Y29442D01*
X16259Y29624D01*
X16233Y29809D01*
X16224Y29995D01*
X16233Y30181D01*
X16259Y30366D01*
X16302Y30548D01*
X16362Y30724D01*
X16438Y30895D01*
X16530Y31057D01*
X16549Y31092D01*
X16562Y31130D01*
X16569Y31170D01*
X16569Y31210D01*
X16563Y31249D01*
X16551Y31287D01*
X16533Y31323D01*
X16510Y31356D01*
X16482Y31384D01*
X16450Y31408D01*
X16415Y31427D01*
X16377Y31439D01*
X16337Y31446D01*
X16297Y31447D01*
X16258Y31441D01*
X16220Y31429D01*
X16184Y31411D01*
X16151Y31388D01*
X16142Y31379D01*
Y32084D01*
G37*
G36*
X14222Y28133D02*X14351Y28122D01*
X14485Y28133D01*
X14616Y28164D01*
X14740Y28216D01*
X14855Y28286D01*
X14957Y28373D01*
X15044Y28475D01*
X15114Y28590D01*
X15166Y28714D01*
X15197Y28845D01*
X15205Y28979D01*
X15197Y29113D01*
X15166Y29244D01*
X15114Y29368D01*
X15044Y29483D01*
X14957Y29585D01*
X14859Y29668D01*
Y30801D01*
X16142Y32084D01*
Y31379D01*
X16123Y31360D01*
X16100Y31327D01*
X15982Y31125D01*
X15887Y30911D01*
X15812Y30689D01*
X15757Y30461D01*
X15725Y30229D01*
X15714Y29995D01*
X15725Y29761D01*
X15757Y29529D01*
X15812Y29301D01*
X15887Y29079D01*
X15982Y28865D01*
X16097Y28661D01*
X16121Y28629D01*
X16142Y28608D01*
Y27465D01*
X16073Y27465D01*
X16027Y27454D01*
X15983Y27436D01*
X15943Y27411D01*
X15907Y27380D01*
X15877Y27344D01*
X15852Y27304D01*
X15834Y27260D01*
X15823Y27215D01*
X15822Y27201D01*
X15428D01*
X15427Y27578D01*
X15413Y27637D01*
X15390Y27692D01*
X15359Y27743D01*
X15320Y27789D01*
X15274Y27828D01*
X15223Y27859D01*
X15168Y27882D01*
X15109Y27896D01*
X15050Y27900D01*
X14222Y27898D01*
Y28133D01*
G37*
G36*
Y32069D02*X17082Y34929D01*
Y34461D01*
X14222Y31601D01*
Y32069D01*
G37*
G36*
Y17863D02*X14224Y17863D01*
X14413Y17878D01*
X14598Y17922D01*
X14773Y17995D01*
X14935Y18094D01*
X15080Y18217D01*
X15203Y18362D01*
X15302Y18524D01*
X15375Y18699D01*
X15419Y18884D01*
X15430Y19073D01*
X15419Y19262D01*
X15375Y19447D01*
X15302Y19622D01*
X15203Y19784D01*
X15080Y19929D01*
X14935Y20052D01*
X14773Y20151D01*
X14598Y20224D01*
X14413Y20268D01*
X14224Y20283D01*
X14222Y20283D01*
Y20408D01*
X15109Y20410D01*
X15168Y20424D01*
X15223Y20447D01*
X15274Y20478D01*
X15320Y20517D01*
X15359Y20563D01*
X15390Y20614D01*
X15413Y20669D01*
X15427Y20728D01*
X15430Y20788D01*
X15430Y21105D01*
X15538D01*
X17082Y19560D01*
Y17273D01*
X17050Y17246D01*
X17020Y17210D01*
X16995Y17169D01*
X16977Y17126D01*
X16966Y17080D01*
X16963Y17033D01*
X16966Y15986D01*
X16977Y15940D01*
X16995Y15897D01*
X17020Y15856D01*
X17050Y15820D01*
X17082Y15793D01*
Y15042D01*
X17043Y15033D01*
X16999Y15015D01*
X16959Y14990D01*
X16923Y14960D01*
X16893Y14924D01*
X16868Y14883D01*
X16850Y14840D01*
X16839Y14794D01*
X16837Y14755D01*
X16593D01*
X15430Y15919D01*
X15427Y17291D01*
X15413Y17350D01*
X15390Y17405D01*
X15359Y17456D01*
X15320Y17502D01*
X15274Y17541D01*
X15223Y17572D01*
X15168Y17595D01*
X15109Y17609D01*
X15050Y17612D01*
X14222Y17611D01*
Y17863D01*
G37*
G36*
Y20283D02*X14035Y20268D01*
X13850Y20224D01*
X13675Y20151D01*
X13513Y20052D01*
X13368Y19929D01*
X13245Y19784D01*
X13185Y19687D01*
X12446Y20426D01*
Y30293D01*
X14222Y32069D01*
Y31601D01*
X14006Y31384D01*
X13991Y31371D01*
X13939Y31311D01*
X13897Y31242D01*
X13866Y31168D01*
X13848Y31091D01*
X13841Y31011D01*
X13843Y30991D01*
Y29668D01*
X13745Y29585D01*
X13658Y29483D01*
X13588Y29368D01*
X13536Y29244D01*
X13505Y29113D01*
X13494Y28979D01*
X13505Y28845D01*
X13536Y28714D01*
X13588Y28590D01*
X13658Y28475D01*
X13745Y28373D01*
X13847Y28286D01*
X13962Y28216D01*
X14086Y28164D01*
X14217Y28133D01*
X14222Y28133D01*
Y27898D01*
X13339Y27896D01*
X13280Y27882D01*
X13225Y27859D01*
X13174Y27828D01*
X13128Y27789D01*
X13089Y27743D01*
X13058Y27692D01*
X13035Y27637D01*
X13021Y27578D01*
X13018Y27518D01*
X13021Y25808D01*
X13035Y25749D01*
X13058Y25694D01*
X13089Y25643D01*
X13128Y25597D01*
X13174Y25558D01*
X13225Y25527D01*
X13280Y25504D01*
X13339Y25490D01*
X13398Y25486D01*
X14222Y25488D01*
Y25363D01*
X14035Y25348D01*
X13850Y25304D01*
X13675Y25231D01*
X13513Y25132D01*
X13368Y25009D01*
X13245Y24864D01*
X13146Y24702D01*
X13073Y24527D01*
X13029Y24342D01*
X13014Y24153D01*
X13029Y23964D01*
X13073Y23779D01*
X13146Y23604D01*
X13245Y23442D01*
X13368Y23297D01*
X13513Y23174D01*
X13675Y23075D01*
X13850Y23002D01*
X14035Y22958D01*
X14222Y22943D01*
Y22818D01*
X13339Y22816D01*
X13280Y22802D01*
X13225Y22779D01*
X13174Y22748D01*
X13128Y22709D01*
X13089Y22663D01*
X13058Y22612D01*
X13035Y22557D01*
X13021Y22498D01*
X13018Y22438D01*
X13021Y20728D01*
X13035Y20669D01*
X13058Y20614D01*
X13089Y20563D01*
X13128Y20517D01*
X13174Y20478D01*
X13225Y20447D01*
X13280Y20424D01*
X13339Y20410D01*
X13398Y20406D01*
X14222Y20408D01*
Y20283D01*
G37*
G36*
X11681Y19754D02*X12708Y18728D01*
X12721Y18713D01*
X12781Y18661D01*
X12781Y18661D01*
X12850Y18619D01*
X12924Y18588D01*
X13001Y18570D01*
X13081Y18563D01*
X13101Y18565D01*
X13129D01*
X13146Y18524D01*
X13245Y18362D01*
X13368Y18217D01*
X13513Y18094D01*
X13675Y17995D01*
X13850Y17922D01*
X14035Y17878D01*
X14222Y17863D01*
Y17611D01*
X13339Y17609D01*
X13280Y17595D01*
X13225Y17572D01*
X13174Y17541D01*
X13128Y17502D01*
X13089Y17456D01*
X13058Y17405D01*
X13035Y17350D01*
X13021Y17291D01*
X13018Y17232D01*
X13021Y15521D01*
X13035Y15462D01*
X13058Y15407D01*
X13089Y15356D01*
X13128Y15310D01*
X13174Y15271D01*
X13225Y15240D01*
X13280Y15217D01*
X13339Y15203D01*
X13398Y15200D01*
X14222Y15201D01*
Y15076D01*
X14035Y15061D01*
X13850Y15017D01*
X13675Y14944D01*
X13513Y14845D01*
X13368Y14722D01*
X13245Y14577D01*
X13146Y14415D01*
X13073Y14240D01*
X13029Y14055D01*
X13014Y13866D01*
X13029Y13677D01*
X13073Y13492D01*
X13146Y13317D01*
X13245Y13155D01*
X13368Y13010D01*
X13513Y12887D01*
X13675Y12788D01*
X13850Y12715D01*
X14035Y12671D01*
X14222Y12656D01*
Y7643D01*
X11681D01*
Y8324D01*
X11684Y8323D01*
X11975Y8346D01*
X12259Y8414D01*
X12528Y8526D01*
X12777Y8678D01*
X12999Y8868D01*
X13189Y9090D01*
X13341Y9339D01*
X13453Y9608D01*
X13521Y9892D01*
X13538Y10183D01*
X13521Y10474D01*
X13453Y10758D01*
X13341Y11027D01*
X13189Y11276D01*
X12999Y11498D01*
X12777Y11688D01*
X12528Y11840D01*
X12259Y11952D01*
X11975Y12020D01*
X11684Y12043D01*
X11681Y12042D01*
Y19754D01*
G37*
G36*
X16142Y61237D02*X17082D01*
Y45438D01*
X16891Y45330D01*
X16858Y45306D01*
X16830Y45278D01*
X16807Y45245D01*
X16789Y45209D01*
X16777Y45170D01*
X16771Y45130D01*
X16771Y45090D01*
X16778Y45050D01*
X16791Y45012D01*
X16809Y44976D01*
X16833Y44944D01*
X16862Y44916D01*
X16895Y44892D01*
X16931Y44874D01*
X16970Y44862D01*
X17010Y44856D01*
X17050Y44857D01*
X17082Y44862D01*
Y41542D01*
X17050Y41547D01*
X17010Y41548D01*
X16970Y41542D01*
X16932Y41530D01*
X16896Y41512D01*
X16864Y41489D01*
X16835Y41461D01*
X16811Y41429D01*
X16793Y41393D01*
X16780Y41355D01*
X16773Y41316D01*
X16773Y41276D01*
X16779Y41236D01*
X16791Y41198D01*
X16809Y41162D01*
X16832Y41130D01*
X16860Y41101D01*
X16892Y41078D01*
X17082Y40968D01*
Y36366D01*
X16142Y35426D01*
Y41816D01*
X16150Y41809D01*
X16183Y41785D01*
X16219Y41767D01*
X16257Y41755D01*
X16297Y41749D01*
X16338Y41750D01*
X16377Y41756D01*
X16416Y41769D01*
X16451Y41788D01*
X16484Y41812D01*
X16512Y41841D01*
X16535Y41874D01*
X16553Y41910D01*
X16565Y41948D01*
X16571Y41988D01*
X16571Y42028D01*
X16564Y42068D01*
X16551Y42106D01*
X16532Y42142D01*
X16438Y42303D01*
X16362Y42474D01*
X16302Y42650D01*
X16259Y42832D01*
X16233Y43017D01*
X16224Y43203D01*
X16233Y43389D01*
X16259Y43574D01*
X16302Y43756D01*
X16362Y43932D01*
X16438Y44103D01*
X16530Y44265D01*
X16549Y44300D01*
X16562Y44338D01*
X16569Y44378D01*
X16569Y44418D01*
X16563Y44457D01*
X16551Y44495D01*
X16533Y44531D01*
X16510Y44564D01*
X16482Y44592D01*
X16450Y44616D01*
X16415Y44635D01*
X16377Y44647D01*
X16337Y44654D01*
X16297Y44655D01*
X16258Y44649D01*
X16220Y44637D01*
X16184Y44619D01*
X16151Y44596D01*
X16142Y44587D01*
Y61237D01*
G37*
G36*
X11681D02*X16142D01*
Y44587D01*
X16123Y44568D01*
X16100Y44535D01*
X15982Y44333D01*
X15887Y44119D01*
X15812Y43897D01*
X15757Y43669D01*
X15725Y43437D01*
X15714Y43203D01*
X15725Y42969D01*
X15757Y42737D01*
X15812Y42509D01*
X15887Y42287D01*
X15982Y42073D01*
X16097Y41869D01*
X16121Y41837D01*
X16142Y41816D01*
Y35426D01*
X11681Y30965D01*
Y56838D01*
X11684Y56837D01*
X11975Y56860D01*
X12259Y56928D01*
X12528Y57040D01*
X12777Y57192D01*
X12999Y57382D01*
X13189Y57604D01*
X13341Y57853D01*
X13453Y58122D01*
X13521Y58406D01*
X13538Y58697D01*
X13521Y58988D01*
X13453Y59272D01*
X13341Y59541D01*
X13189Y59790D01*
X12999Y60012D01*
X12777Y60202D01*
X12528Y60354D01*
X12259Y60466D01*
X11975Y60534D01*
X11684Y60557D01*
X11681Y60556D01*
Y61237D01*
G37*
G36*
X8763Y7643D02*Y61237D01*
X11681D01*
Y60556D01*
X11393Y60534D01*
X11109Y60466D01*
X10840Y60354D01*
X10591Y60202D01*
X10369Y60012D01*
X10179Y59790D01*
X10027Y59541D01*
X9915Y59272D01*
X9847Y58988D01*
X9824Y58697D01*
X9847Y58406D01*
X9915Y58122D01*
X10027Y57853D01*
X10179Y57604D01*
X10369Y57382D01*
X10591Y57192D01*
X10840Y57040D01*
X11109Y56928D01*
X11393Y56860D01*
X11681Y56838D01*
Y30965D01*
X11593Y30876D01*
X11578Y30863D01*
X11526Y30803D01*
X11484Y30734D01*
X11453Y30660D01*
X11435Y30583D01*
X11435Y30583D01*
X11428Y30503D01*
X11430Y30483D01*
Y20236D01*
X11428Y20216D01*
X11435Y20136D01*
X11449Y20077D01*
X11453Y20059D01*
X11462Y20037D01*
X11484Y19985D01*
X11526Y19916D01*
X11526Y19916D01*
X11578Y19856D01*
X11593Y19843D01*
X11681Y19754D01*
Y12042D01*
X11393Y12020D01*
X11109Y11952D01*
X10840Y11840D01*
X10591Y11688D01*
X10369Y11498D01*
X10179Y11276D01*
X10027Y11027D01*
X9915Y10758D01*
X9847Y10474D01*
X9824Y10183D01*
X9847Y9892D01*
X9915Y9608D01*
X10027Y9339D01*
X10179Y9090D01*
X10369Y8868D01*
X10591Y8678D01*
X10840Y8526D01*
X11109Y8414D01*
X11393Y8346D01*
X11681Y8324D01*
Y7643D01*
X8763D01*
G37*
G54D40*X23876Y47013D02*X23241D01*
X23876D02*X24892Y48029D01*
X25781D01*
G54D43*X39878Y34567D03*
G54D44*X47498Y28598D03*
X50038Y31138D03*
X47498Y40409D03*
X60198Y20978D03*
Y26058D03*
Y42949D03*
Y48029D03*
G54D45*X40386Y49807D03*
Y57427D03*
G54D42*G36*
X39116Y40409D02*Y38885D01*
X40640D01*
Y40409D01*
X39116D01*
G37*
G54D43*X39878Y37107D03*
G54D44*X47498Y50569D03*
X50038Y45489D03*
Y37869D03*
Y53109D03*
G54D42*G36*
X35814Y50061D02*Y48537D01*
X37338D01*
Y50061D01*
X35814D01*
G37*
G54D43*X28956Y49299D03*
X36576Y51839D03*
Y54379D03*
Y56919D03*
X28956D03*
Y54379D03*
Y51839D03*
G54D42*G36*
X20193Y26820D02*Y25042D01*
X21971D01*
Y26820D01*
X20193D01*
G37*
G54D46*X21082Y21051D03*
G54D42*G36*
X24384Y20089D02*Y18565D01*
X25908D01*
Y20089D01*
X24384D01*
G37*
G54D43*X25146Y32027D03*
Y29487D03*
Y16787D03*
G54D42*G36*
X13398Y17232D02*Y15580D01*
X15050D01*
Y17232D01*
X13398D01*
G37*
G54D47*X14224Y13866D03*
G54D42*G36*
X13398Y27518D02*Y25868D01*
X15050D01*
Y27518D01*
X13398D01*
G37*
G54D47*X14224Y24153D03*
G54D42*G36*
X13398Y22438D02*Y20788D01*
X15050D01*
Y22438D01*
X13398D01*
G37*
G54D47*X14224Y19073D03*
G54D48*X18224Y29995D03*
G54D43*X28702Y32027D03*
Y29487D03*
Y26947D03*
Y24407D03*
Y21867D03*
Y19327D03*
Y16787D03*
Y14247D03*
Y11707D03*
G54D42*G36*
X39116Y20089D02*Y18565D01*
X40640D01*
Y20089D01*
X39116D01*
G37*
G54D44*X50038Y23518D03*
Y15898D03*
X47498Y18438D03*
G54D43*X36322Y11707D03*
Y14247D03*
Y16787D03*
Y19327D03*
Y21867D03*
Y24407D03*
Y26947D03*
Y29487D03*
Y32027D03*
G54D42*G36*
X24384Y37869D02*Y36345D01*
X25908D01*
Y37869D01*
X24384D01*
G37*
G54D48*X18224Y43203D03*
G54D42*G36*
X27940Y45489D02*Y43965D01*
X29464D01*
Y45489D01*
X27940D01*
G37*
G54D43*X28702Y42187D03*
Y39647D03*
Y37107D03*
X25146Y34567D03*
X28702D03*
X36322D03*
Y37107D03*
Y39647D03*
Y42187D03*
Y44727D03*
G54D49*X42293Y42045D02*X42543D01*
X42547Y28471D02*X42797D01*
X42547Y29771D02*X42797D01*
X56009Y42949D02*X56259D01*
X56009Y44249D02*X56259D01*
G54D50*X42572Y31127D02*X42772D01*
X42572Y32927D02*X42772D01*
G54D49*X42293Y53759D02*X42543D01*
X42293Y52459D02*X42543D01*
X42293Y51107D02*X42543D01*
X42293Y49807D02*X42543D01*
X42293Y43345D02*X42543D01*
X39245Y42919D02*X39495D01*
X39245Y44219D02*X39495D01*
X42801Y45489D02*X43051D01*
X42801Y46789D02*X43051D01*
X41402Y14372D02*Y14122D01*
X42702Y15896D02*Y15646D01*
X41402Y15896D02*Y15646D01*
X40102Y14372D02*Y14122D01*
G54D50*X39778Y22607D02*X39978D01*
X39778Y24407D02*X39978D01*
G54D49*X24496Y14372D02*Y14122D01*
X18811Y14372D02*Y14122D01*
X17511Y14372D02*Y14122D01*
X18938Y16658D02*Y16408D01*
X17638Y16658D02*Y16408D01*
X25796Y14372D02*Y14122D01*
X25275Y23167D02*X25525D01*
X25275Y21867D02*X25525D01*
X25275Y25169D02*X25525D01*
X25275Y26469D02*X25525D01*
X17795Y26793D02*Y26543D01*
X16495Y26793D02*Y26543D01*
G54D42*G36*
X31500Y30274D02*Y28274D01*
X33500D01*
Y30274D01*
X31500D01*
G37*
G54D51*X32512Y17751D02*Y16585D01*
Y25775D02*Y24609D01*
G54D49*X25529Y49299D02*X25779D01*
X26558Y54504D02*Y54254D01*
X25258Y54504D02*Y54254D01*
Y51964D02*Y51714D01*
X26558Y51964D02*Y51714D01*
X25529Y47999D02*X25779D01*
X25021Y44727D02*X25271D01*
X25021Y46027D02*X25271D01*
G54D42*G36*
X31500Y38148D02*Y36148D01*
X33500D01*
Y38148D01*
X31500D01*
G37*
G54D52*X14732Y47267D03*
X26670Y45997D03*
X22987Y47013D03*
X14986Y49426D03*
X45593Y48029D03*
X56134Y46378D03*
X14732Y54125D03*
X17145Y57935D03*
X20066Y56665D03*
X22352Y58697D03*
X26416Y58189D03*
X21336Y50315D03*
X23876Y49299D03*
X26416Y56665D03*
X23876Y54379D03*
Y51839D03*
X26416Y40917D03*
X21082Y14247D03*
Y16533D03*
X42164Y22629D03*
X23876Y24153D03*
X22860Y31519D03*
Y29995D03*
X14351Y28979D03*
X27051Y35837D03*
X42672D03*
G54D53*G54D54*G54D53*G54D54*G54D53*G54D54*G54D55*G54D56*G54D57*G54D56*G54D55*G54D56*G54D57*G54D55*G54D41*G54D55*G54D58*G54D55*G54D57*G54D56*G54D55*G54D58*G54D55*M02*
